<?xml version="1.0" encoding="utf-8"?>
<!-- Generator: Adobe Illustrator 24.2.0, SVG Export Plug-In . SVG Version: 6.00 Build 0)  -->
<svg version="1.1" id="Layer_1" xmlns="http://www.w3.org/2000/svg" xmlns:xlink="http://www.w3.org/1999/xlink" x="0px" y="0px"
	 viewBox="0 0 1920.4 551.8" style="enable-background:new 0 0 1920.4 551.8;" xml:space="preserve">
<style type="text/css">
	.st0{fill:#FF8500;}
	.st1{fill:#FFFFFF;}
	.st2{opacity:0.3;}
	.st3{fill:#EBF3FA;}
	.st4{fill:#DFEBF9;}
	.st5{opacity:0.5;}
	.st6{fill:#AEC3FF;}
	.st7{fill:#798EE8;}
	.st8{fill:#849DEF;}
	.st9{fill:#8C9DF4;}
	.st10{fill:#7B2CBF;}
	.st11{fill:#233862;}
	.st12{fill:#FF7900;}
	.st13{fill:#CC613B;}
	.st14{fill:#FFA25C;}
	.st15{fill:#A8D29F;}
	.st16{fill:#739AF0;}
	.st17{fill:#152949;}
	.st18{fill:#505ABA;}
	.st19{fill:#F99746;}
	.st20{fill:#ED985F;}
	.st21{fill:#FFB27D;}
	.st22{fill:#5A189A;}
	.st23{fill:#94B0ED;}
	.st24{fill:#0A2035;}
	.st25{fill:#0D2644;}
	.st26{fill:#D86036;}
	.st27{fill:#182B49;}
	.st28{fill:#2B478B;}
	.st29{fill:#ED975D;}
	.st30{fill:#B5453C;}
	.st31{fill:#060633;}
	.st32{opacity:0.4;}
	.st33{fill:#4545AF;}
	.st34{opacity:0.8;}
	.st35{fill:#F77D48;}
	.st36{fill:#E8945B;}
	.st37{fill:#243F77;}
	.st38{fill:#152F54;}
	.st39{fill:#1D3868;}
</style>
<g id="Bg">
	<rect id="XMLID_485_" x="3.1" y="2.9" class="st0" width="1917.3" height="549.1"/>
</g>
<g id="XMLID_479_">
	<g id="XMLID_41_">
		<path class="st1" d="M9.8,290L9,288.9c0.7-0.5,1.5-1,2.2-1.6l0.8,1.1C11.3,289,10.6,289.5,9.8,290z"/>
	</g>
	<g id="XMLID_40_">
		<path class="st1" d="M224.8,546.4l-0.9-1c1.3-1.2,2.6-2.5,3.8-3.8l1,0.9C227.4,543.8,226.1,545.1,224.8,546.4z M232.4,538.5
			l-1-0.9c1.2-1.3,2.4-2.7,3.6-4.1l1,0.9C234.8,535.8,233.6,537.2,232.4,538.5z M239.4,530.2l-1.1-0.8c1.1-1.4,2.2-2.8,3.3-4.3
			l1.1,0.8C241.7,527.4,240.6,528.8,239.4,530.2z M245.9,521.5l-1.1-0.8c1-1.5,2-3,3-4.5l1.1,0.7C248,518.4,247,520,245.9,521.5z
			 M251.9,512.3l-1.2-0.7c0.9-1.5,1.8-3.1,2.7-4.7l1.2,0.7C253.7,509.2,252.8,510.8,251.9,512.3z M257.2,502.8l-1.2-0.6
			c0.8-1.6,1.6-3.2,2.4-4.8l1.2,0.6C258.8,499.5,258,501.2,257.2,502.8z M261.9,492.9l-1.2-0.5c0.7-1.6,1.4-3.3,2.1-5l1.3,0.5
			C263.3,489.6,262.6,491.3,261.9,492.9z M265.9,482.8l-1.3-0.5c0.6-1.7,1.2-3.4,1.8-5.1l1.3,0.4
			C267.1,479.4,266.5,481.1,265.9,482.8z M269.3,472.4L268,472c0.5-1.7,1-3.5,1.4-5.2l1.3,0.3C270.3,468.9,269.8,470.7,269.3,472.4z
			 M272,461.8l-1.3-0.3c0.4-1.8,0.8-3.5,1.1-5.3l1.3,0.2C272.7,458.3,272.4,460.1,272,461.8z M274,451.1l-1.3-0.2
			c0.3-1.8,0.5-3.6,0.7-5.4l1.3,0.2C274.5,447.5,274.2,449.3,274,451.1z M275.3,440.3l-1.3-0.1c0.2-1.8,0.3-3.6,0.4-5.4l1.3,0.1
			C275.5,436.6,275.4,438.5,275.3,440.3z M275.9,429.4l-1.4,0c0-1.2,0-2.5,0-3.8c0-0.6,0-1.1,0-1.7l1.4,0c0,0.6,0,1.1,0,1.7
			C275.9,426.9,275.9,428.1,275.9,429.4z M274.4,418.5c-0.1-1.8-0.2-3.6-0.3-5.4l1.3-0.1c0.1,1.8,0.2,3.6,0.3,5.4L274.4,418.5z
			 M273.6,407.8c-0.2-1.8-0.4-3.6-0.7-5.4l1.3-0.2c0.2,1.8,0.5,3.6,0.7,5.4L273.6,407.8z M272.1,397c-0.3-1.8-0.6-3.6-1-5.3l1.3-0.3
			c0.4,1.8,0.7,3.6,1,5.4L272.1,397z M269.9,386.5c-0.4-1.7-0.9-3.5-1.3-5.2l1.3-0.4c0.5,1.7,0.9,3.5,1.4,5.3L269.9,386.5z
			 M267.1,376c-0.5-1.7-1.1-3.4-1.7-5.1l1.3-0.4c0.6,1.7,1.2,3.5,1.7,5.2L267.1,376z M263.5,365.8c-0.6-1.7-1.3-3.4-2-5l1.2-0.5
			c0.7,1.7,1.4,3.4,2,5L263.5,365.8z M259.3,355.9c-0.8-1.6-1.5-3.3-2.3-4.9l1.2-0.6c0.8,1.6,1.6,3.3,2.4,4.9L259.3,355.9z
			 M254.5,346.2c-0.8-1.6-1.7-3.2-2.6-4.7l1.2-0.7c0.9,1.6,1.8,3.2,2.7,4.7L254.5,346.2z M249.1,336.9c-0.9-1.5-1.9-3-2.9-4.5
			l1.1-0.8c1,1.5,2,3,3,4.6L249.1,336.9z M243,328c-1-1.5-2.1-2.9-3.2-4.3l1.1-0.8c1.1,1.4,2.2,2.9,3.3,4.4L243,328z M236.4,319.4
			c-1.1-1.4-2.3-2.8-3.5-4.1l1-0.9c1.2,1.4,2.4,2.7,3.5,4.2L236.4,319.4z M229.3,311.3c-1.2-1.3-2.5-2.6-3.8-3.9l1-1
			c1.3,1.3,2.6,2.6,3.8,3.9L229.3,311.3z M221.6,303.7c-1.3-1.2-2.7-2.4-4-3.6l0.9-1c1.4,1.2,2.7,2.4,4,3.7L221.6,303.7z
			 M213.5,296.5c-1.4-1.1-2.8-2.3-4.2-3.4l0.8-1.1c1.4,1.1,2.9,2.2,4.3,3.4L213.5,296.5z M204.9,289.9c-1.5-1-3-2.1-4.4-3.1l0.8-1.1
			c1.5,1,3,2.1,4.5,3.1L204.9,289.9z M16.5,285.5l-0.7-1.1c1.5-1,3.1-2,4.6-2.9l0.7,1.2C19.6,283.5,18,284.5,16.5,285.5z
			 M195.9,283.9c-1.5-0.9-3.1-1.9-4.6-2.8l0.7-1.2c1.6,0.9,3.1,1.9,4.7,2.8L195.9,283.9z M25.8,279.9l-0.7-1.2
			c1.6-0.9,3.2-1.8,4.8-2.6l0.6,1.2C28.9,278.1,27.3,279,25.8,279.9z M186.6,278.4c-1.6-0.8-3.2-1.7-4.8-2.5l0.6-1.2
			c1.6,0.8,3.3,1.7,4.9,2.5L186.6,278.4z M35.4,274.9l-0.6-1.2c1.6-0.8,3.3-1.5,5-2.3l0.5,1.2C38.6,273.3,37,274.1,35.4,274.9z
			 M176.9,273.6c-1.6-0.8-3.3-1.5-5-2.2l0.5-1.2c1.7,0.7,3.4,1.4,5,2.2L176.9,273.6z M45.3,270.5l-0.5-1.3c1.7-0.7,3.4-1.3,5.1-1.9
			l0.5,1.3C48.6,269.2,46.9,269.9,45.3,270.5z M166.9,269.4c-1.7-0.6-3.4-1.3-5.1-1.8l0.4-1.3c1.7,0.6,3.4,1.2,5.1,1.9L166.9,269.4z
			 M55.4,266.8l-0.4-1.3c1.7-0.6,3.5-1.1,5.2-1.6l0.4,1.3C58.9,265.7,57.1,266.3,55.4,266.8z M156.6,265.9c-1.7-0.5-3.5-1-5.2-1.5
			l0.4-1.3c1.7,0.5,3.5,1,5.2,1.5L156.6,265.9z M65.8,263.8l-0.3-1.3c1.8-0.5,3.5-0.9,5.3-1.3l0.3,1.3
			C69.3,262.9,67.6,263.4,65.8,263.8z M146.2,263.1c-1.8-0.4-3.5-0.8-5.3-1.2l0.3-1.3c1.8,0.4,3.6,0.8,5.3,1.2L146.2,263.1z
			 M76.4,261.5l-0.3-1.3c1.8-0.3,3.6-0.6,5.4-0.9l0.2,1.3C79.9,260.8,78.1,261.1,76.4,261.5z M135.6,260.9c-1.8-0.3-3.6-0.6-5.3-0.8
			l0.2-1.3c1.8,0.2,3.6,0.5,5.4,0.8L135.6,260.9z M87.1,259.8l-0.2-1.3c1.8-0.2,3.6-0.4,5.4-0.6l0.1,1.3
			C90.7,259.4,88.8,259.6,87.1,259.8z M124.8,259.5c-1.8-0.2-3.6-0.3-5.4-0.5l0.1-1.3c1.8,0.1,3.6,0.3,5.4,0.5L124.8,259.5z
			 M97.8,258.9l-0.1-1.3c1.8-0.1,3.6-0.2,5.4-0.2l0,1.3C101.4,258.7,99.6,258.8,97.8,258.9z M114.1,258.7c-1.8-0.1-3.6-0.1-5.4-0.1
			l0-1.4c1.8,0,3.6,0.1,5.5,0.1L114.1,258.7z"/>
	</g>
	<g id="XMLID_39_">
		<path class="st1" d="M218.8,552l-0.9-1c0.7-0.6,1.3-1.2,2-1.8l0.9,1C220.1,550.8,219.5,551.4,218.8,552z"/>
	</g>
</g>
<g id="XMLID_3_">
	<g id="XMLID_6_">
		<path class="st1" d="M1304.7,3.1l1.3,0c0,0.9-0.1,1.8-0.1,2.7l-1.4-0.1C1304.7,4.9,1304.7,4,1304.7,3.1z"/>
	</g>
	<g id="XMLID_5_">
		<path class="st1" d="M970.5,18.1l1.3-0.2c0.2,1.8,0.5,3.6,0.7,5.4l-1.3,0.2C971,21.7,970.7,19.9,970.5,18.1z M972.1,28.9l1.3-0.2
			c0.3,1.8,0.7,3.5,1.1,5.3l-1.3,0.3C972.8,32.4,972.5,30.7,972.1,28.9z M974.5,39.5l1.3-0.3c0.4,1.7,0.9,3.5,1.4,5.2l-1.3,0.4
			C975.4,43,974.9,41.3,974.5,39.5z M977.4,50l1.3-0.4c0.5,1.7,1.1,3.4,1.7,5.1l-1.3,0.5C978.6,53.5,978,51.7,977.4,50z M981.1,60.3
			l1.3-0.5c0.7,1.7,1.4,3.3,2.1,5l-1.2,0.5C982.5,63.7,981.8,62,981.1,60.3z M985.5,70.3l1.2-0.6c0.8,1.6,1.6,3.3,2.4,4.9l-1.2,0.6
			C987,73.6,986.2,71.9,985.5,70.3z M990.4,80l1.2-0.7c0.9,1.6,1.8,3.1,2.7,4.7l-1.2,0.7C992.2,83.2,991.3,81.6,990.4,80z M996,89.4
			l1.1-0.7c1,1.5,2,3,3,4.5l-1.1,0.8C998,92.4,997,90.9,996,89.4z M1002.2,98.4l1.1-0.8c1.1,1.4,2.2,2.9,3.3,4.3l-1.1,0.8
			C1004.4,101.3,1003.3,99.8,1002.2,98.4z M1009,106.9l1-0.9c1.2,1.4,2.4,2.7,3.6,4.1l-1,0.9C1011.4,109.7,1010.2,108.3,1009,106.9z
			 M1016.3,115l1-0.9c1.2,1.3,2.5,2.6,3.8,3.8l-0.9,1C1018.9,117.6,1017.6,116.3,1016.3,115z M1024.1,122.6l0.9-1
			c1.3,1.2,2.7,2.4,4.1,3.6l-0.9,1C1026.8,125.1,1025.5,123.9,1024.1,122.6z M1032.4,129.7l0.8-1.1c1,0.8,2,1.6,3,2.3
			c0.4,0.3,0.9,0.7,1.3,1l-0.8,1.1c-0.4-0.3-0.9-0.7-1.3-1C1034.4,131.3,1033.4,130.5,1032.4,129.7z M1041.9,135.1c1.5,1,3,2,4.5,3
			l-0.7,1.1c-1.5-1-3-2-4.5-3.1L1041.9,135.1z M1051,141.1c1.5,0.9,3.1,1.9,4.7,2.7l-0.7,1.2c-1.6-0.9-3.2-1.8-4.7-2.8L1051,141.1z
			 M1060.4,146.4c1.6,0.8,3.2,1.6,4.8,2.4l-0.6,1.2c-1.6-0.8-3.3-1.6-4.9-2.4L1060.4,146.4z M1070.1,151.1c1.6,0.7,3.3,1.4,5,2.1
			l-0.5,1.3c-1.7-0.7-3.4-1.4-5-2.1L1070.1,151.1z M1080.1,155.1c1.7,0.6,3.4,1.2,5.1,1.8l-0.4,1.3c-1.7-0.6-3.5-1.2-5.1-1.8
			L1080.1,155.1z M1090.4,158.5c1.7,0.5,3.5,1,5.2,1.4l-0.3,1.3c-1.7-0.5-3.5-0.9-5.2-1.5L1090.4,158.5z M1100.8,161.3
			c1.7,0.4,3.5,0.8,5.3,1.1l-0.3,1.3c-1.8-0.3-3.6-0.7-5.3-1.1L1100.8,161.3z M1111.4,163.3c1.8,0.3,3.6,0.5,5.3,0.8l-0.2,1.3
			c-1.8-0.2-3.6-0.5-5.4-0.8L1111.4,163.3z M1122.1,164.6c1.8,0.2,3.6,0.3,5.4,0.4l-0.1,1.4c-1.8-0.1-3.6-0.2-5.4-0.4L1122.1,164.6z
			 M1132.9,165.3c1.8,0.1,3.6,0.1,5.4,0.1l0,1.3c-1.8,0-3.6,0-5.4-0.1L1132.9,165.3z M1143.7,165.2c1.8-0.1,3.6-0.2,5.4-0.3l0.1,1.3
			c-1.8,0.1-3.6,0.2-5.4,0.3L1143.7,165.2z M1154.5,164.5c1.8-0.2,3.6-0.4,5.4-0.6l0.2,1.3c-1.8,0.2-3.6,0.5-5.4,0.6L1154.5,164.5z
			 M1165.2,163.1c1.8-0.3,3.6-0.6,5.3-1l0.3,1.3c-1.8,0.4-3.6,0.7-5.4,1L1165.2,163.1z M1175.8,160.9c1.8-0.4,3.5-0.8,5.2-1.3
			l0.4,1.3c-1.7,0.5-3.5,0.9-5.3,1.3L1175.8,160.9z M1186.3,158.1c1.7-0.5,3.5-1.1,5.2-1.7l0.4,1.3c-1.7,0.6-3.5,1.1-5.2,1.7
			L1186.3,158.1z M1304.3,11.2l1.3,0.1c-0.1,1.8-0.3,3.6-0.5,5.4l-1.3-0.2C1304,14.8,1304.2,13,1304.3,11.2z M1196.5,154.7
			c1.7-0.6,3.4-1.3,5-2l0.5,1.2c-1.7,0.7-3.4,1.4-5.1,2L1196.5,154.7z M1303.1,21.9l1.3,0.2c-0.3,1.8-0.5,3.6-0.9,5.4l-1.3-0.2
			C1302.6,25.5,1302.9,23.7,1303.1,21.9z M1206.5,150.5c1.6-0.7,3.3-1.5,4.9-2.3l0.6,1.2c-1.6,0.8-3.3,1.6-4.9,2.3L1206.5,150.5z
			 M1301.2,32.6l1.3,0.3c-0.4,1.8-0.8,3.6-1.2,5.3l-1.3-0.3C1300.5,36.1,1300.9,34.4,1301.2,32.6z M1216.3,145.7
			c1.6-0.8,3.2-1.7,4.7-2.6l0.7,1.2c-1.6,0.9-3.2,1.8-4.8,2.6L1216.3,145.7z M1298.7,43.1l1.3,0.4c-0.5,1.7-1,3.5-1.5,5.2l-1.3-0.4
			C1297.7,46.6,1298.2,44.8,1298.7,43.1z M1225.7,140.3c1.5-0.9,3.1-1.9,4.6-2.9l0.7,1.1c-1.5,1-3.1,2-4.6,3L1225.7,140.3z
			 M1295.5,53.4l1.3,0.4c-0.6,1.7-1.2,3.4-1.9,5.1l-1.3-0.5C1294.2,56.8,1294.9,55.1,1295.5,53.4z M1234.7,134.3
			c1.5-1,2.9-2.1,4.4-3.2l0.8,1.1c-1.4,1.1-2.9,2.2-4.4,3.2L1234.7,134.3z M1291.5,63.5l1.2,0.5c-0.7,1.7-1.5,3.3-2.2,5l-1.2-0.6
			C1290.1,66.8,1290.8,65.2,1291.5,63.5z M1243.3,127.8c1.4-1.1,2.8-2.3,4.1-3.5l0.9,1c-1.4,1.2-2.8,2.4-4.2,3.5L1243.3,127.8z
			 M1287,73.3l1.2,0.6c-0.8,1.6-1.7,3.2-2.5,4.8l-1.2-0.6C1285.3,76.5,1286.2,74.9,1287,73.3z M1251.4,120.7
			c1.3-1.2,2.6-2.5,3.9-3.7l1,1c-1.3,1.3-2.6,2.5-3.9,3.8L1251.4,120.7z M1281.8,82.8l1.2,0.7c-0.9,1.6-1.9,3.1-2.8,4.7l-1.1-0.7
			C1279.9,85.9,1280.9,84.4,1281.8,82.8z M1259.1,113c1.2-1.3,2.5-2.6,3.6-4l1,0.9c-1.2,1.4-2.4,2.7-3.7,4L1259.1,113z M1276,92
			l1.1,0.8c-1,1.5-2.1,3-3.1,4.5l-1.1-0.8C1274,94.9,1275,93.4,1276,92z M1266.3,104.9c1.1-1.4,2.3-2.8,3.4-4.2l1.1,0.8
			c-1.1,1.4-2.3,2.9-3.4,4.3L1266.3,104.9z"/>
	</g>
	<g id="XMLID_4_">
		<path class="st1" d="M969.7,9.9l1.3-0.1c0.1,0.9,0.1,1.8,0.2,2.7l-1.4,0.1C969.9,11.7,969.8,10.8,969.7,9.9z"/>
	</g>
</g>
<g>
	<g id="XMLID_478_">
		<rect x="1587.2" y="440.3" class="st1" width="41.5" height="6.8"/>
	</g>
	<g id="XMLID_477_">
		<rect x="1604.6" y="422.9" class="st1" width="6.8" height="41.5"/>
	</g>
</g>
<g id="XMLID_466_">
	<path class="st1" d="M754.3,223.6c-1,0-2.1,0-3.2-0.1l0-1.3c1.8,0.1,3.6,0.1,5.4,0l0,1.3C755.8,223.6,755.1,223.6,754.3,223.6z
		 M762,223.3l-0.1-1.3c1.8-0.1,3.6-0.3,5.3-0.6l0.2,1.3C765.6,222.9,763.8,223.1,762,223.3z M745.7,223.2c-1.8-0.2-3.6-0.4-5.4-0.6
		l0.2-1.3c1.8,0.3,3.6,0.5,5.3,0.6L745.7,223.2z M772.8,221.8l-0.3-1.3c1.8-0.3,3.5-0.7,5.2-1.1l0.3,1.3
		C776.4,221.1,774.6,221.5,772.8,221.8z M734.9,221.7c-1.8-0.4-3.6-0.8-5.3-1.2l0.3-1.3c1.7,0.4,3.5,0.8,5.2,1.2L734.9,221.7z
		 M783.4,219.2l-0.4-1.3c1.7-0.5,3.4-1.1,5.1-1.7l0.5,1.3C786.8,218.1,785.1,218.7,783.4,219.2z M724.4,218.9
		c-1.7-0.6-3.5-1.2-5.2-1.8l0.5-1.3c1.7,0.6,3.4,1.2,5.1,1.8L724.4,218.9z M793.6,215.4l-0.5-1.2c1.6-0.7,3.3-1.5,4.9-2.3l0.6,1.2
		C796.9,213.9,795.2,214.7,793.6,215.4z M714.2,215.1c-1.7-0.7-3.3-1.5-4.9-2.4l0.6-1.2c1.6,0.8,3.2,1.6,4.8,2.3L714.2,215.1z
		 M803.3,210.5l-0.7-1.2c1.5-0.9,3.1-1.8,4.6-2.8l0.7,1.1C806.4,208.7,804.9,209.6,803.3,210.5z M704.5,210.1
		c-1.6-0.9-3.1-1.9-4.6-2.9l0.8-1.1c1.5,1,3,1.9,4.6,2.8L704.5,210.1z M812.4,204.6l-0.8-1.1c1.4-1,2.9-2.2,4.2-3.3l0.9,1
		C815.3,202.4,813.9,203.6,812.4,204.6z M695.4,204c-1.4-1.1-2.9-2.2-4.3-3.4l0.9-1c1.4,1.1,2.8,2.3,4.2,3.3L695.4,204z
		 M820.8,197.7l-0.9-1c1.3-1.2,2.6-2.5,3.9-3.7l1,0.9C823.5,195.2,822.2,196.5,820.8,197.7z M687.1,197.1c-1.3-1.2-2.6-2.5-3.9-3.8
		l1-0.9c1.2,1.3,2.5,2.5,3.8,3.8L687.1,197.1z M828.4,189.9l-1-0.9c1.2-1.3,2.3-2.7,3.4-4.1l1.1,0.8
		C830.8,187.2,829.6,188.6,828.4,189.9z M679.5,189.2c-1.2-1.4-2.3-2.8-3.4-4.2l1.1-0.8c1.1,1.4,2.2,2.8,3.4,4.2L679.5,189.2z
		 M835.2,181.4l-1.1-0.8c1-1.5,2-3,3-4.5l1.1,0.7C837.2,178.3,836.2,179.9,835.2,181.4z M672.9,180.6c-1-1.5-2-3-2.9-4.6l1.2-0.7
		c0.9,1.5,1.9,3,2.9,4.5L672.9,180.6z M840.9,172.1l-1.2-0.7c0.8-1.6,1.7-3.2,2.4-4.8l1.2,0.6C842.6,168.9,841.8,170.5,840.9,172.1z
		 M667.3,171.3c-0.8-1.6-1.7-3.2-2.4-4.9l1.2-0.6c0.7,1.6,1.5,3.2,2.4,4.8L667.3,171.3z M845.6,162.2l-1.3-0.5
		c0.7-1.7,1.3-3.3,1.9-5l1.3,0.4C846.9,158.8,846.3,160.6,845.6,162.2z M662.7,161.4c-0.7-1.7-1.3-3.4-1.9-5.1l1.3-0.4
		c0.6,1.7,1.2,3.4,1.8,5L662.7,161.4z M849.1,151.9l-1.3-0.4c0.5-1.7,0.9-3.5,1.3-5.2l1.3,0.3C850.1,148.4,849.6,150.2,849.1,151.9z
		 M659.2,151.1c-0.5-1.7-0.9-3.5-1.3-5.3l1.3-0.3c0.4,1.7,0.8,3.5,1.3,5.2L659.2,151.1z M851.5,141.3l-1.3-0.2
		c0.3-1.8,0.5-3.5,0.7-5.3l1.3,0.1C852,137.7,851.8,139.5,851.5,141.3z M657,140.5c-0.3-1.8-0.5-3.6-0.7-5.4l1.3-0.1
		c0.2,1.8,0.4,3.6,0.7,5.3L657,140.5z M852.7,130.5l-1.3-0.1c0.1-1.8,0.1-3.6,0.1-5.4h1.4C852.8,126.9,852.8,128.7,852.7,130.5z
		 M655.9,129.6c-0.1-1.5-0.1-3-0.1-4.6c0-0.3,0-0.6,0-0.9l1.4,0c0,0.3,0,0.6,0,0.9c0,1.5,0,3,0.1,4.5L655.9,129.6z M851.4,121.4
		c-0.1-1.8-0.2-3.6-0.3-5.4l1.3-0.1c0.2,1.8,0.3,3.6,0.4,5.4L851.4,121.4z M657.3,118.8l-1.3-0.1c0.1-1.8,0.3-3.6,0.5-5.4l1.3,0.2
		C657.6,115.3,657.4,117.1,657.3,118.8z M850.4,110.7c-0.3-1.8-0.6-3.5-0.9-5.3l1.3-0.3c0.4,1.8,0.7,3.6,0.9,5.4L850.4,110.7z
		 M658.6,108.2l-1.3-0.2c0.3-1.8,0.7-3.6,1.1-5.3l1.3,0.3C659.2,104.7,658.9,106.4,658.6,108.2z M848.3,100.2
		c-0.5-1.7-1-3.5-1.5-5.2l1.3-0.4c0.6,1.7,1.1,3.5,1.5,5.2L848.3,100.2z M661,97.7l-1.3-0.4c0.5-1.7,1.1-3.5,1.7-5.2l1.3,0.5
		C662.1,94.3,661.5,96,661,97.7z M845,90c-0.6-1.7-1.3-3.3-2.1-4.9l1.2-0.6c0.7,1.6,1.5,3.3,2.1,5L845,90z M664.6,87.6l-1.2-0.5
		c0.7-1.7,1.5-3.3,2.2-5l1.2,0.6C666,84.3,665.3,86,664.6,87.6z M840.5,80.2c-0.8-1.6-1.7-3.2-2.6-4.7l1.2-0.7
		c0.9,1.5,1.8,3.1,2.6,4.7L840.5,80.2z M669.3,77.9l-1.2-0.7c0.9-1.6,1.8-3.2,2.8-4.7l1.1,0.7C671.1,74.8,670.2,76.4,669.3,77.9z
		 M835.1,71c-1-1.5-2-2.9-3.1-4.4l1.1-0.8c1.1,1.4,2.2,2.9,3.2,4.4L835.1,71z M675,68.8l-1.1-0.8c1-1.5,2.2-2.9,3.3-4.3l1.1,0.8
		C677.2,65.9,676.1,67.4,675,68.8z M828.6,62.5c-1.1-1.4-2.4-2.7-3.6-4l1-0.9c1.2,1.3,2.5,2.7,3.6,4.1L828.6,62.5z M681.7,60.4
		l-1-0.9c1.2-1.3,2.5-2.7,3.7-4l1,0.9C684.2,57.8,682.9,59.1,681.7,60.4z M821.2,54.6c-1.3-1.2-2.6-2.4-4-3.6l0.9-1
		c1.4,1.2,2.7,2.4,4.1,3.6L821.2,54.6z M689.3,52.8l-0.9-1c1.3-1.2,2.7-2.4,4.1-3.5l0.8,1C692,50.5,690.6,51.6,689.3,52.8z
		 M813.1,47.7c-1.4-1.1-2.9-2.1-4.4-3.1l0.8-1.1c1.5,1,3,2.1,4.4,3.2L813.1,47.7z M697.7,46.1l-0.8-1.1c1.5-1,3-2.1,4.5-3l0.7,1.1
		C700.6,44.1,699.1,45.1,697.7,46.1z M804.1,41.7c-1.5-0.9-3.1-1.8-4.7-2.6l0.6-1.2c1.6,0.8,3.2,1.7,4.8,2.7L804.1,41.7z
		 M706.7,40.3l-0.7-1.2c1.6-0.9,3.2-1.7,4.8-2.5l0.6,1.2C709.9,38.6,708.3,39.5,706.7,40.3z M794.6,36.7c-1.6-0.7-3.3-1.4-5-2.1
		l0.5-1.3c1.7,0.7,3.4,1.4,5,2.1L794.6,36.7z M716.3,35.6l-0.5-1.2c1.7-0.7,3.4-1.4,5.1-2l0.5,1.3C719.7,34.3,718,34.9,716.3,35.6z
		 M784.6,32.7c-1.7-0.6-3.4-1.1-5.1-1.5l0.4-1.3c1.7,0.5,3.5,1,5.2,1.6L784.6,32.7z M726.4,32l-0.4-1.3c1.7-0.5,3.5-1,5.3-1.4
		l0.3,1.3C729.9,31,728.1,31.5,726.4,32z M774.2,30c-1.7-0.4-3.5-0.7-5.3-0.9l0.2-1.3c1.8,0.3,3.6,0.6,5.4,1L774.2,30z M736.9,29.5
		l-0.2-1.3c1.8-0.3,3.6-0.6,5.4-0.8l0.2,1.3C740.4,28.9,738.6,29.2,736.9,29.5z M763.6,28.4c-1.8-0.2-3.6-0.3-5.4-0.4l0.1-1.3
		c1.8,0.1,3.6,0.2,5.4,0.4L763.6,28.4z M747.5,28.1l-0.1-1.3c1.8-0.1,3.6-0.2,5.4-0.2l0,1.4C751.1,28,749.3,28,747.5,28.1z"/>
</g>
<g id="XMLID_2_">
	<path class="st1" d="M1822.5,546.6c-1,0-2.1,0-3.2-0.1l0-1.3c1.8,0.1,3.6,0.1,5.4,0l0,1.3C1824.1,546.6,1823.3,546.6,1822.5,546.6z
		 M1830.3,546.3l-0.1-1.3c1.8-0.1,3.6-0.3,5.3-0.6l0.2,1.3C1833.9,546,1832.1,546.2,1830.3,546.3z M1814,546.2
		c-1.8-0.2-3.6-0.4-5.4-0.6l0.2-1.3c1.8,0.3,3.6,0.5,5.3,0.6L1814,546.2z M1841.1,544.9l-0.3-1.3c1.8-0.3,3.5-0.7,5.2-1.1l0.3,1.3
		C1844.6,544.2,1842.8,544.5,1841.1,544.9z M1803.2,544.7c-1.8-0.4-3.6-0.8-5.3-1.2l0.3-1.3c1.7,0.4,3.5,0.8,5.2,1.2L1803.2,544.7z
		 M1851.6,542.3l-0.4-1.3c1.7-0.5,3.4-1.1,5.1-1.7l0.5,1.3C1855.1,541.1,1853.4,541.7,1851.6,542.3z M1792.6,542
		c-1.7-0.6-3.5-1.2-5.2-1.8l0.5-1.3c1.7,0.6,3.4,1.2,5.1,1.8L1792.6,542z M1861.8,538.5l-0.5-1.2c1.6-0.7,3.3-1.5,4.9-2.3l0.6,1.2
		C1865.1,537,1863.5,537.8,1861.8,538.5z M1782.4,538.1c-1.7-0.7-3.3-1.5-4.9-2.4l0.6-1.2c1.6,0.8,3.2,1.6,4.8,2.3L1782.4,538.1z
		 M1871.5,533.6l-0.7-1.2c1.5-0.9,3.1-1.8,4.6-2.8l0.7,1.1C1874.7,531.7,1873.1,532.7,1871.5,533.6z M1772.7,533.1
		c-1.6-0.9-3.1-1.9-4.6-2.9l0.8-1.1c1.5,1,3,1.9,4.6,2.8L1772.7,533.1z M1880.7,527.7l-0.8-1.1c1.4-1,2.9-2.2,4.2-3.3l0.9,1
		C1883.6,525.5,1882.1,526.6,1880.7,527.7z M1763.7,527.1c-1.4-1.1-2.9-2.2-4.3-3.4l0.9-1c1.4,1.1,2.8,2.3,4.2,3.3L1763.7,527.1z
		 M1889.1,520.8l-0.9-1c1.3-1.2,2.6-2.5,3.9-3.7l1,0.9C1891.7,518.3,1890.4,519.5,1889.1,520.8z M1755.3,520.1
		c-1.3-1.2-2.6-2.5-3.9-3.8l1-0.9c1.2,1.3,2.5,2.5,3.8,3.8L1755.3,520.1z M1896.7,513l-1-0.9c1.2-1.3,2.3-2.7,3.4-4.1l1.1,0.8
		C1899.1,510.2,1897.9,511.6,1896.7,513z M1747.8,512.3c-1.2-1.4-2.3-2.8-3.4-4.2l1.1-0.8c1.1,1.4,2.2,2.8,3.4,4.2L1747.8,512.3z
		 M1903.4,504.4l-1.1-0.8c1-1.5,2-3,3-4.5l1.1,0.7C1905.5,501.4,1904.5,502.9,1903.4,504.4z M1741.1,503.6c-1-1.5-2-3-2.9-4.6
		l1.2-0.7c0.9,1.5,1.9,3,2.9,4.5L1741.1,503.6z M1909.2,495.1l-1.2-0.7c0.8-1.6,1.7-3.2,2.4-4.8l1.2,0.6
		C1910.9,491.9,1910,493.6,1909.2,495.1z M1735.5,494.3c-0.8-1.6-1.7-3.2-2.4-4.9l1.2-0.6c0.7,1.6,1.5,3.2,2.4,4.8L1735.5,494.3z
		 M1913.8,485.3l-1.3-0.5c0.7-1.7,1.3-3.3,1.9-5l1.3,0.4C1915.2,481.9,1914.5,483.6,1913.8,485.3z M1730.9,484.5
		c-0.7-1.7-1.3-3.4-1.9-5.1l1.3-0.4c0.6,1.7,1.2,3.4,1.8,5L1730.9,484.5z M1917.4,475l-1.3-0.4c0.5-1.7,0.9-3.5,1.3-5.2l1.3,0.3
		C1918.3,471.5,1917.9,473.3,1917.4,475z M1727.5,474.1c-0.5-1.7-0.9-3.5-1.3-5.3l1.3-0.3c0.4,1.7,0.8,3.5,1.3,5.2L1727.5,474.1z
		 M1919.7,464.4l-1.3-0.2c0.3-1.8,0.5-3.5,0.7-5.3l1.3,0.1C1920.3,460.8,1920,462.6,1919.7,464.4z M1725.2,463.5
		c-0.3-1.8-0.5-3.6-0.7-5.4l1.3-0.1c0.2,1.8,0.4,3.6,0.7,5.3L1725.2,463.5z M1920.9,453.6l-1.3-0.1c0.1-1.8,0.1-3.6,0.1-5.4h1.4
		C1921.1,449.9,1921,451.8,1920.9,453.6z M1724.1,452.7c-0.1-1.5-0.1-3-0.1-4.6c0-0.3,0-0.6,0-0.9l1.4,0c0,0.3,0,0.6,0,0.9
		c0,1.5,0,3,0.1,4.5L1724.1,452.7z M1919.7,444.5c-0.1-1.8-0.2-3.6-0.3-5.4l1.3-0.1c0.2,1.8,0.3,3.6,0.4,5.4L1919.7,444.5z
		 M1725.6,441.9l-1.3-0.1c0.1-1.8,0.3-3.6,0.5-5.4l1.3,0.2C1725.8,438.3,1725.7,440.1,1725.6,441.9z M1918.7,433.8
		c-0.3-1.8-0.6-3.5-0.9-5.3l1.3-0.3c0.4,1.8,0.7,3.6,0.9,5.4L1918.7,433.8z M1726.8,431.2l-1.3-0.2c0.3-1.8,0.7-3.6,1.1-5.3l1.3,0.3
		C1727.5,427.7,1727.1,429.5,1726.8,431.2z M1916.5,423.3c-0.5-1.7-1-3.5-1.5-5.2l1.3-0.4c0.6,1.7,1.1,3.5,1.5,5.2L1916.5,423.3z
		 M1729.3,420.8l-1.3-0.4c0.5-1.7,1.1-3.5,1.7-5.2l1.3,0.5C1730.3,417.3,1729.8,419.1,1729.3,420.8z M1913.2,413.1
		c-0.6-1.7-1.3-3.3-2.1-4.9l1.2-0.6c0.7,1.6,1.5,3.3,2.1,5L1913.2,413.1z M1732.9,410.6l-1.2-0.5c0.7-1.7,1.5-3.3,2.2-5l1.2,0.6
		C1734.3,407.4,1733.5,409,1732.9,410.6z M1908.8,403.3c-0.8-1.6-1.7-3.2-2.6-4.7l1.2-0.7c0.9,1.5,1.8,3.1,2.6,4.7L1908.8,403.3z
		 M1737.6,401l-1.2-0.7c0.9-1.6,1.8-3.2,2.8-4.7l1.1,0.7C1739.3,397.9,1738.4,399.4,1737.6,401z M1903.3,394.1c-1-1.5-2-2.9-3.1-4.4
		l1.1-0.8c1.1,1.4,2.2,2.9,3.2,4.4L1903.3,394.1z M1743.3,391.9l-1.1-0.8c1-1.5,2.2-2.9,3.3-4.3l1.1,0.8
		C1745.4,389,1744.3,390.4,1743.3,391.9z M1896.9,385.5c-1.1-1.4-2.4-2.7-3.6-4l1-0.9c1.2,1.3,2.5,2.7,3.6,4.1L1896.9,385.5z
		 M1750,383.5l-1-0.9c1.2-1.3,2.5-2.7,3.7-4l1,0.9C1752.4,380.8,1751.2,382.2,1750,383.5z M1889.5,377.7c-1.3-1.2-2.6-2.4-4-3.6
		l0.9-1c1.4,1.2,2.7,2.4,4.1,3.6L1889.5,377.7z M1757.6,375.9l-0.9-1c1.3-1.2,2.7-2.4,4.1-3.5l0.8,1
		C1760.3,373.5,1758.9,374.7,1757.6,375.9z M1881.3,370.7c-1.4-1.1-2.9-2.1-4.4-3.1l0.8-1.1c1.5,1,3,2.1,4.4,3.2L1881.3,370.7z
		 M1765.9,369.2l-0.8-1.1c1.5-1,3-2.1,4.5-3l0.7,1.1C1768.9,367.1,1767.4,368.1,1765.9,369.2z M1872.4,364.7
		c-1.5-0.9-3.1-1.8-4.7-2.6l0.6-1.2c1.6,0.8,3.2,1.7,4.8,2.7L1872.4,364.7z M1775,363.4l-0.7-1.2c1.6-0.9,3.2-1.7,4.8-2.5l0.6,1.2
		C1778.1,361.7,1776.5,362.5,1775,363.4z M1862.9,359.7c-1.6-0.7-3.3-1.4-5-2.1l0.5-1.3c1.7,0.7,3.4,1.4,5,2.1L1862.9,359.7z
		 M1784.6,358.7l-0.5-1.2c1.7-0.7,3.4-1.4,5.1-2l0.5,1.3C1787.9,357.3,1786.2,358,1784.6,358.7z M1852.9,355.8
		c-1.7-0.6-3.4-1.1-5.1-1.5l0.4-1.3c1.7,0.5,3.5,1,5.2,1.6L1852.9,355.8z M1794.7,355l-0.4-1.3c1.7-0.5,3.5-1,5.3-1.4l0.3,1.3
		C1798.1,354,1796.4,354.5,1794.7,355z M1842.5,353c-1.7-0.4-3.5-0.7-5.3-0.9l0.2-1.3c1.8,0.3,3.6,0.6,5.4,1L1842.5,353z
		 M1805.1,352.5l-0.2-1.3c1.8-0.3,3.6-0.6,5.4-0.8l0.2,1.3C1808.7,351.9,1806.9,352.2,1805.1,352.5z M1831.9,351.4
		c-1.8-0.2-3.6-0.3-5.4-0.4l0.1-1.3c1.8,0.1,3.6,0.2,5.4,0.4L1831.9,351.4z M1815.8,351.2l-0.1-1.3c1.8-0.1,3.6-0.2,5.4-0.2l0,1.4
		C1819.4,351,1817.6,351.1,1815.8,351.2z"/>
</g>
<g id="XMLID_1_">
	<path class="st1" d="M1073.9,535.3c-1,0-2.1,0-3.2-0.1l0-1.3c1.8,0.1,3.6,0.1,5.4,0l0,1.3C1075.4,535.3,1074.7,535.3,1073.9,535.3z
		 M1081.6,535l-0.1-1.3c1.8-0.1,3.6-0.3,5.3-0.6l0.2,1.3C1085.3,534.6,1083.4,534.8,1081.6,535z M1065.3,534.9
		c-1.8-0.2-3.6-0.4-5.4-0.6l0.2-1.3c1.8,0.3,3.6,0.5,5.3,0.6L1065.3,534.9z M1092.4,533.5l-0.3-1.3c1.8-0.3,3.5-0.7,5.2-1.1l0.3,1.3
		C1096,532.8,1094.2,533.2,1092.4,533.5z M1054.5,533.4c-1.8-0.4-3.6-0.8-5.3-1.2l0.3-1.3c1.7,0.4,3.5,0.8,5.2,1.2L1054.5,533.4z
		 M1103,530.9l-0.4-1.3c1.7-0.5,3.4-1.1,5.1-1.7l0.5,1.3C1106.5,529.8,1104.7,530.4,1103,530.9z M1044,530.6
		c-1.7-0.6-3.5-1.2-5.2-1.8l0.5-1.3c1.7,0.6,3.4,1.2,5.1,1.8L1044,530.6z M1113.2,527.1l-0.5-1.2c1.6-0.7,3.3-1.5,4.9-2.3l0.6,1.2
		C1116.5,525.6,1114.9,526.4,1113.2,527.1z M1033.8,526.8c-1.7-0.7-3.3-1.5-4.9-2.4l0.6-1.2c1.6,0.8,3.2,1.6,4.8,2.3L1033.8,526.8z
		 M1122.9,522.2l-0.7-1.2c1.5-0.9,3.1-1.8,4.6-2.8l0.7,1.1C1126,520.4,1124.5,521.4,1122.9,522.2z M1024.1,521.8
		c-1.6-0.9-3.1-1.9-4.6-2.9l0.8-1.1c1.5,1,3,1.9,4.6,2.8L1024.1,521.8z M1132,516.3l-0.8-1.1c1.4-1,2.9-2.2,4.2-3.3l0.9,1
		C1134.9,514.1,1133.5,515.3,1132,516.3z M1015,515.8c-1.4-1.1-2.9-2.2-4.3-3.4l0.9-1c1.4,1.1,2.8,2.3,4.2,3.3L1015,515.8z
		 M1140.4,509.4l-0.9-1c1.3-1.2,2.6-2.5,3.9-3.7l1,0.9C1143.1,506.9,1141.8,508.2,1140.4,509.4z M1006.7,508.8
		c-1.3-1.2-2.6-2.5-3.9-3.8l1-0.9c1.2,1.3,2.5,2.5,3.8,3.8L1006.7,508.8z M1148.1,501.6l-1-0.9c1.2-1.3,2.3-2.7,3.4-4.1l1.1,0.8
		C1150.4,498.9,1149.3,500.3,1148.1,501.6z M999.1,500.9c-1.2-1.4-2.3-2.8-3.4-4.2l1.1-0.8c1.1,1.4,2.2,2.8,3.4,4.2L999.1,500.9z
		 M1154.8,493.1l-1.1-0.8c1-1.5,2-3,3-4.5l1.1,0.7C1156.8,490,1155.8,491.6,1154.8,493.1z M992.5,492.3c-1-1.5-2-3-2.9-4.6l1.2-0.7
		c0.9,1.5,1.9,3,2.9,4.5L992.5,492.3z M1160.5,483.8l-1.2-0.7c0.8-1.6,1.7-3.2,2.4-4.8l1.2,0.6
		C1162.2,480.6,1161.4,482.2,1160.5,483.8z M986.9,483c-0.8-1.6-1.7-3.2-2.4-4.9l1.2-0.6c0.7,1.6,1.5,3.2,2.4,4.8L986.9,483z
		 M1165.2,474l-1.3-0.5c0.7-1.7,1.3-3.3,1.9-5l1.3,0.4C1166.5,470.6,1165.9,472.3,1165.2,474z M982.3,473.1
		c-0.7-1.7-1.3-3.4-1.9-5.1l1.3-0.4c0.6,1.7,1.2,3.4,1.8,5L982.3,473.1z M1168.7,463.7l-1.3-0.4c0.5-1.7,0.9-3.5,1.3-5.2l1.3,0.3
		C1169.7,460.1,1169.2,461.9,1168.7,463.7z M978.9,462.8c-0.5-1.7-0.9-3.5-1.3-5.3l1.3-0.3c0.4,1.7,0.8,3.5,1.3,5.2L978.9,462.8z
		 M1171.1,453l-1.3-0.2c0.3-1.8,0.5-3.5,0.7-5.3l1.3,0.1C1171.7,449.4,1171.4,451.2,1171.1,453z M976.6,452.2
		c-0.3-1.8-0.5-3.6-0.7-5.4l1.3-0.1c0.2,1.8,0.4,3.6,0.7,5.3L976.6,452.2z M1172.3,442.2l-1.3-0.1c0.1-1.8,0.1-3.6,0.1-5.4h1.4
		C1172.4,438.6,1172.4,440.4,1172.3,442.2z M975.5,441.3c-0.1-1.5-0.1-3-0.1-4.6c0-0.3,0-0.6,0-0.9l1.4,0c0,0.3,0,0.6,0,0.9
		c0,1.5,0,3,0.1,4.5L975.5,441.3z M1171,433.1c-0.1-1.8-0.2-3.6-0.3-5.4l1.3-0.1c0.2,1.8,0.3,3.6,0.4,5.4L1171,433.1z M976.9,430.5
		l-1.3-0.1c0.1-1.8,0.3-3.6,0.5-5.4l1.3,0.2C977.2,427,977,428.8,976.9,430.5z M1170,422.4c-0.3-1.8-0.6-3.5-0.9-5.3l1.3-0.3
		c0.4,1.8,0.7,3.6,0.9,5.4L1170,422.4z M978.2,419.9l-1.3-0.2c0.3-1.8,0.7-3.6,1.1-5.3l1.3,0.3C978.9,416.4,978.5,418.1,978.2,419.9
		z M1167.9,411.9c-0.5-1.7-1-3.5-1.5-5.2l1.3-0.4c0.6,1.7,1.1,3.5,1.5,5.2L1167.9,411.9z M980.6,409.4l-1.3-0.4
		c0.5-1.7,1.1-3.5,1.7-5.2l1.3,0.5C981.7,406,981.1,407.7,980.6,409.4z M1164.6,401.7c-0.6-1.7-1.3-3.3-2.1-4.9l1.2-0.6
		c0.7,1.6,1.5,3.3,2.1,5L1164.6,401.7z M984.2,399.3l-1.2-0.5c0.7-1.7,1.5-3.3,2.2-5l1.2,0.6C985.7,396,984.9,397.7,984.2,399.3z
		 M1160.2,391.9c-0.8-1.6-1.7-3.2-2.6-4.7l1.2-0.7c0.9,1.5,1.8,3.1,2.6,4.7L1160.2,391.9z M988.9,389.6l-1.2-0.7
		c0.9-1.6,1.8-3.2,2.8-4.7l1.1,0.7C990.7,386.5,989.8,388.1,988.9,389.6z M1154.7,382.7c-1-1.5-2-2.9-3.1-4.4l1.1-0.8
		c1.1,1.4,2.2,2.9,3.2,4.4L1154.7,382.7z M994.6,380.5l-1.1-0.8c1-1.5,2.2-2.9,3.3-4.3l1.1,0.8C996.8,377.6,995.7,379.1,994.6,380.5
		z M1148.2,374.2c-1.1-1.4-2.4-2.7-3.6-4l1-0.9c1.2,1.3,2.5,2.7,3.6,4.1L1148.2,374.2z M1001.3,372.2l-1-0.9c1.2-1.3,2.5-2.7,3.7-4
		l1,0.9C1003.8,369.5,1002.5,370.8,1001.3,372.2z M1140.9,366.3c-1.3-1.2-2.6-2.4-4-3.6l0.9-1c1.4,1.2,2.7,2.4,4.1,3.6L1140.9,366.3
		z M1008.9,364.5l-0.9-1c1.3-1.2,2.7-2.4,4.1-3.5l0.8,1C1011.6,362.2,1010.2,363.3,1008.9,364.5z M1132.7,359.4
		c-1.4-1.1-2.9-2.1-4.4-3.1l0.8-1.1c1.5,1,3,2.1,4.4,3.2L1132.7,359.4z M1017.3,357.8l-0.8-1.1c1.5-1,3-2.1,4.5-3l0.7,1.1
		C1020.2,355.8,1018.7,356.8,1017.3,357.8z M1123.8,353.4c-1.5-0.9-3.1-1.8-4.7-2.6l0.6-1.2c1.6,0.8,3.2,1.7,4.8,2.7L1123.8,353.4z
		 M1026.3,352l-0.7-1.2c1.6-0.9,3.2-1.7,4.8-2.5l0.6,1.2C1029.5,350.3,1027.9,351.2,1026.3,352z M1114.3,348.4
		c-1.6-0.7-3.3-1.4-5-2.1l0.5-1.3c1.7,0.7,3.4,1.4,5,2.1L1114.3,348.4z M1036,347.3l-0.5-1.2c1.7-0.7,3.4-1.4,5.1-2l0.5,1.3
		C1039.3,346,1037.6,346.6,1036,347.3z M1104.2,344.4c-1.7-0.6-3.4-1.1-5.1-1.5l0.4-1.3c1.7,0.5,3.5,1,5.2,1.6L1104.2,344.4z
		 M1046,343.7l-0.4-1.3c1.7-0.5,3.5-1,5.3-1.4l0.3,1.3C1049.5,342.7,1047.8,343.2,1046,343.7z M1093.9,341.7
		c-1.7-0.4-3.5-0.7-5.3-0.9l0.2-1.3c1.8,0.3,3.6,0.6,5.4,1L1093.9,341.7z M1056.5,341.2l-0.2-1.3c1.8-0.3,3.6-0.6,5.4-0.8l0.2,1.3
		C1060,340.6,1058.2,340.9,1056.5,341.2z M1083.2,340.1c-1.8-0.2-3.6-0.3-5.4-0.4l0.1-1.3c1.8,0.1,3.6,0.2,5.4,0.4L1083.2,340.1z
		 M1067.1,339.9l-0.1-1.3c1.8-0.1,3.6-0.2,5.4-0.2l0,1.4C1070.7,339.7,1068.9,339.7,1067.1,339.9z"/>
</g>
<path class="st1" d="M913.3,442.9c-0.4,0-0.7,0.3-0.7,0.7V478c0,0.4,0.3,0.7,0.7,0.7c0.4,0,0.7-0.3,0.7-0.7v-34.5
	C914,443.2,913.7,442.9,913.3,442.9z"/>
<g>
	<g id="XMLID_464_">
		<rect x="1081.3" y="363.7" class="st1" width="318.4" height="10.8"/>
	</g>
	<g id="XMLID_463_">
		<rect x="1081.3" y="391.5" class="st1" width="270.9" height="10.8"/>
	</g>
	<g id="XMLID_462_">
		<rect x="1081.3" y="419.2" class="st1" width="135.4" height="10.8"/>
	</g>
</g>
<g id="XMLID_440_" class="st2">
	<path class="st1" d="M1661.9,2.1c-27,45-42.5,97.7-42.5,154c0,165.8,134.5,300.2,300.3,300.2V2.1H1661.9z"/>
</g>
<g>
	<g id="XMLID_476_">
		<ellipse class="st1" cx="541.4" cy="275.9" rx="200.3" ry="200.2"/>
	</g>
	<g>
		<path class="st3" d="M701,368.8c-20.2,0-315.2,0.1-315.4-0.4l0-0.1c0,0,0-0.1,0-0.1c-0.1-0.2-45.4-69.2,25-117.3
			c27.6-18.8-1.7-31.2,20.2-52.1c25.2-24,52.7,2.6,80.7-8.3c5-1.9,9.9-5,14.9-9.8c11.6-11.1,27.6-16.1,43.7-17.3
			c31.3-2.2,66.5,10.1,84.7,28c3.7,3.6,20.3,22.3,7.2,47.9c-8.3,16.2,26.4,31.6,38.8,50.1C732.1,336.5,701.3,368.2,701,368.8z"/>
	</g>
	<g>
		<path class="st4" d="M449.9,202.4c3.7-8.4,18.1-3.4,18.1-3.4s7.7,16.9,10.6,17.7c2.9,0.8-3.8-15.7-3.8-15.7
			c5.8,0.3,19.2,9.5,19.2,9.5s-3.7,17.8-0.7,17.9c3,0.1,2.4-15.9,2.4-15.9c5.2,2.5,9.4,9.7,9.4,9.7c4.8,11.4-10.1,17-10.1,17
			s-1.1,6.2,1.6,13.9l0,0c0,0,0.7,1.5,1.2,3.8l-1.5-0.2c-0.1-0.4-0.1-0.8-0.2-1.2v0c0,0,0,0,0,0c-0.1-0.2-0.2-0.6-0.3-1l0,0l0,0
			c-0.3-1-0.5-1.7-0.6-2.2c0,0,0,0,0,0c-0.9-3-2.4-7-3.6-8c0,0,0.2-0.2,0.4-0.6c-0.1,0.2-0.3,0.4-0.4,0.6
			c-3.4,5.1-16.3,4.1-23.3,1.5c-6.9-2.6-3.5-4.1,0.8-6.8c4.3-2.7,12.3-0.6,14.8-1.5c2.6-0.9-0.7-2.7-5.5-3.1
			c-4.8-0.4-7.9,4-15.7,3.6s-11.4-15.8-11.4-15.8c5.1,2.5,15,1,15.7-0.8c0.6-1.8-13.5-3.7-15.6-4.6
			C449.3,215.8,446.2,210.8,449.9,202.4z"/>
	</g>
	<g class="st5">
		<g class="st5">
			<path class="st6" d="M454.2,311c0,0,2.5-27.3-7.8-46.1c-1.4-2.5-5.1-1.9-5.7,0.9c0,0,0,0.1,0,0.1
				C439.9,270.7,450.9,294,454.2,311z"/>
		</g>
		<g class="st5">
			<path class="st6" d="M454.2,319c0,0-6.5-36.2-26.6-55.8c-1.2-1.2-3.2-1.3-4.5-0.1c-0.8,0.8-1.4,2.1-1.2,4.5
				C422.6,273.7,444.3,298.9,454.2,319z"/>
		</g>
	</g>
	<g class="st5">
		<g class="st5">
			<path class="st6" d="M572.4,289.9c0,0,21.4-29.9,48.2-40c3.6-1.3,6.9,2.6,5,5.9c0,0.1-0.1,0.1-0.1,0.2
				C622.1,261.5,590.6,275.6,572.4,289.9z"/>
		</g>
		<g class="st5">
			<path class="st6" d="M565.4,298c0,0,38.2-31.1,75.9-33.4c2.3-0.1,4.4,1.5,4.6,3.8c0.2,1.5-0.4,3.4-2.7,5.5
				C637,279.7,592.9,286.3,565.4,298z"/>
		</g>
	</g>
	<g>
		<g>
			<path class="st7" d="M523.8,274.7l-7.4,87.9c0,0-0.8,5.3,3.2,5.3c6.5,0,32.4,0,32.4,0s-4.9-1.1-4.8-3.6
				c0.1-2.9,8.6-90.4,8.6-90.4L523.8,274.7z"/>
		</g>
		<g>
			<path class="st6" d="M554.5,366.3c-1.3,0-26.4,0-32.7,0c-2.8,0-3.2-2.5-3.3-4c0-0.8,0.1-1.3,0.1-1.3l0.2-2.3l0.5-5.8l0.4-5.1
				l0.6-6.6l0.5-5.6L526,273l32-0.8c0,0-3.6,36.6-6.2,63.3c-0.3,3-0.6,5.8-0.8,8.5c-0.1,0.8-0.2,1.7-0.2,2.5
				c-0.2,2.5-0.5,4.8-0.6,6.9c-0.1,1.1-0.2,2.1-0.3,3c-0.3,3.6-0.5,5.9-0.5,6.3c0,0.3,0,0.5,0.1,0.7
				C550,366.2,554,366.3,554.5,366.3z"/>
		</g>
		<g>
			<polygon class="st6" points="446.1,226.8 464.1,299.1 466.6,309 474.9,342.7 630.7,342.7 599.8,226.8 			"/>
		</g>
		<g>
			<polygon class="st7" points="446.1,226.8 443.6,227.6 471.6,345.2 474.9,342.7 			"/>
		</g>
		<g>
			<polygon class="st8" points="471.6,345.2 626.4,345.2 630.7,342.7 474.9,342.7 			"/>
		</g>
		<g>
			<rect x="526" y="366.3" class="st6" width="33.5" height="1.6"/>
		</g>
		<g>
			<polygon class="st9" points="551,345.2 550.8,346.4 519.3,352.8 519.7,347.7 519.9,345.2 			"/>
		</g>
		<g class="st5">
			<path class="st9" d="M554.5,366.3c-1.3,0-26.4,0-32.7,0c-2.8,0-3.2-2.5-3.3-4l31.4-5.9c-0.3,3.6-0.5,5.9-0.5,6.3
				c0,0.3,0,0.5,0.1,0.7C550,366.2,554,366.3,554.5,366.3z"/>
		</g>
		<g>
			<polygon class="st9" points="446.1,226.8 599.8,226.8 624.8,320 469.3,320 			"/>
		</g>
		<g>
			<polygon class="st10" points="617.5,315.9 473.6,315.9 468.4,295.4 466.4,287.5 465.6,284.3 460.3,263.2 460.1,262.1 457.3,251 
				456,246 455,241.7 454.1,238.3 452.5,231.8 594.3,231.8 596.1,238.3 597.1,241.7 598.2,246 599.6,251 608.7,283.8 608.7,283.8 
				609.4,286.6 609.8,287.9 616,310.5 			"/>
		</g>
		<g>
			<polygon class="st9" points="527.7,320 475,343 469.3,320 			"/>
		</g>
	</g>
	<g>
		<g>
			<path class="st11" d="M426.6,282.3l-10.3-3.6c-1.7-0.6-3.6,0.7-4.4,2.9l-0.6,1.9l16.4,5.7l0.5-2
				C429,285.1,428.2,282.9,426.6,282.3z"/>
		</g>
		<g>
			<path class="st11" d="M489.6,304.2l-10.3-3.6c-1.7-0.6-3.6,0.7-4.4,2.9l-0.6,1.9l16.4,5.7l0.5-2C492,307,491.3,304.8,489.6,304.2
				z"/>
		</g>
		<g>
			<path class="st12" d="M474.5,367.8c-0.6-0.1-10.4-1.9-12.9-11.3c-0.8-3-1.4-6.6-1.8-10.4c-0.6-5-4-9.2-8.7-10.9l-21.4-7.4
				c-5.1-1.8-10.9-0.5-14.7,3.4c-2.6,2.5-5.1,4.8-7.4,6.5c-7.8,5.8-16.6,1.2-17.1,0.9c-5-2.4-6.2-8.3-3.6-12.9l22.7-40.4
				c0.5-1,1.2-1.8,2-2.5c1.2-1.1,2.9-1.4,4.4-0.8l8.5,2.9c0.5,0.2,1.8,0.6,2.5,1.3c3.3,3.5,7,6.1,12.2,8l28.9,10
				c3.4,1.2,3.8,0,7.2-1.1c0,0,0,0,0,0c0.8-0.2,1.6-0.2,2.4,0.1l12.8,4.5c1.1,0.4,1.9,1.2,2.3,2.3c0.4,1.3,0.5,2.7,0.3,4.2
				l-7.3,45.8C484.5,365.1,479.9,369.1,474.5,367.8z"/>
		</g>
		<g>
			<path class="st13" d="M405.4,298.5c2.4-7,10-10.7,16.9-8.3c6.9,2.4,10.5,10,8.1,17c-2.4,7-10,10.7-16.9,8.3
				C406.6,313.1,403,305.5,405.4,298.5z"/>
		</g>
		<g>
			<path class="st11" d="M426.4,322.2c1.2-3.5,5.1-5.4,8.6-4.2c3.5,1.2,5.4,5.1,4.2,8.6s-5.1,5.4-8.6,4.2
				C427,329.5,425.2,325.7,426.4,322.2z"/>
		</g>
		<g>
			<path class="st10" d="M428.6,323c0.8-2.3,3.3-3.5,5.6-2.7s3.5,3.3,2.7,5.6c-0.8,2.3-3.3,3.5-5.6,2.7
				C429,327.7,427.8,325.2,428.6,323z"/>
		</g>
		<g>
			<path class="st11" d="M444.3,328.4c1.2-3.5,5.1-5.4,8.6-4.2c3.5,1.2,5.4,5.1,4.2,8.6c-1.2,3.5-5.1,5.4-8.6,4.2
				C444.9,335.8,443.1,331.9,444.3,328.4z"/>
		</g>
		<g>
			<path class="st10" d="M446.5,329.2c0.8-2.3,3.3-3.5,5.6-2.7c2.3,0.8,3.5,3.3,2.7,5.6s-3.3,3.5-5.6,2.7
				C446.9,334,445.7,331.5,446.5,329.2z"/>
		</g>
		<g>
			<path class="st11" d="M456.2,312.3l-18.7-6.5c-2.4-0.8-3.7-3.5-2.9-5.9l2.2-6.5l27.4,9.5l-2.3,6.6
				C461.2,311.9,458.6,313.1,456.2,312.3z"/>
		</g>
		<g>
			<g>
				<path class="st14" d="M418.3,293.3l4.6,1.6c1.6,0.6,1.9,2.8,0.4,3.7l-3.8,2.4c-0.7,0.5-1.7,0.1-1.9-0.7l-1.6-4.8
					C415.5,294.2,416.8,292.8,418.3,293.3z"/>
			</g>
			<g>
				<path class="st14" d="M417.4,311.4l-4.6-1.6c-1.6-0.6-1.9-2.8-0.4-3.7l3.8-2.4c0.7-0.5,1.7-0.1,1.9,0.7l1.6,4.8
					C420.2,310.5,418.8,311.9,417.4,311.4z"/>
			</g>
			<g>
				<g>
					<path class="st14" d="M427.6,303.2l-1.6,4.6c-0.6,1.7-2.8,1.9-3.7,0.5l-2.4-3.8c-0.4-0.7-0.1-1.7,0.7-1.9l4.7-1.7
						C426.7,300.4,428.1,301.7,427.6,303.2z"/>
				</g>
				<g>
					<path class="st14" d="M408.4,302l1.6-4.6c0.6-1.7,2.8-1.9,3.7-0.5l2.4,3.8c0.4,0.7,0.1,1.7-0.7,1.9l-4.7,1.7
						C409.3,304.8,407.9,303.4,408.4,302z"/>
				</g>
			</g>
		</g>
		<g>
			<path class="st13" d="M461.3,317.9c2.4-7,10-10.7,16.9-8.3c6.9,2.4,10.5,10,8.1,17c-2.4,7-10,10.7-16.9,8.3
				C462.5,332.5,458.8,324.9,461.3,317.9z"/>
		</g>
		<g>
			<path class="st14" d="M473.8,315.3c0.5-1.4,2.1-2.2,3.5-1.7c1.4,0.5,2.2,2.1,1.7,3.5c-0.5,1.4-2.1,2.2-3.5,1.7
				C474.1,318.3,473.3,316.7,473.8,315.3z"/>
		</g>
		<g>
			<path class="st15" d="M469.7,327c0.5-1.4,2.1-2.2,3.5-1.7c1.4,0.5,2.2,2.1,1.7,3.5c-0.5,1.4-2.1,2.2-3.5,1.7
				C470,330,469.2,328.4,469.7,327z"/>
		</g>
		<g>
			<path class="st16" d="M481.2,321.5c1.4,0.5,2.2,2.1,1.7,3.5c-0.5,1.4-2.1,2.2-3.5,1.7c-1.4-0.5-2.2-2.1-1.7-3.5
				C478.2,321.7,479.7,320.9,481.2,321.5z"/>
		</g>
		<g>
			<path class="st11" d="M469.6,317.4c1.4,0.6,2.1,2.2,1.6,3.6c-0.6,1.4-2.2,2.1-3.6,1.6c-1.4-0.6-2.1-2.2-1.6-3.6
				S468.2,316.9,469.6,317.4z"/>
		</g>
	</g>
	<g>
		<path class="st17" d="M551.8,297c-2.9,0-5.1,2.7-4.4,5.6l9.6,38.7l1.5,6.1l4.3,17.2c0.5,2,2.3,3.4,4.4,3.4h85.9
			c3,0,5.1-2.8,4.3-5.7L641,300.3c-0.5-2-2.3-3.3-4.3-3.3L551.8,297L551.8,297z"/>
	</g>
	<g>
		<path class="st18" d="M554.9,297c-2.9,0-5.1,2.7-4.4,5.6l9.6,38.7l1.5,6.1l4.3,17.2c0.5,2,2.3,3.4,4.4,3.4h85.9
			c3,0,5.1-2.8,4.3-5.7l-16.5-61.9c-0.5-2-2.3-3.3-4.3-3.3L554.9,297L554.9,297z"/>
	</g>
	<g>
		<path class="st19" d="M653.1,365h-80.6c-1.9,0-3.6-1.3-4.1-3.2l-4-15.9l-1.4-5.6l-3.8-15l-5.3-20.9c-0.7-2.6,1.3-5.2,4.1-5.2h79.6
			c1.9,0,3.6,1.3,4.1,3.1l15.5,57.4C657.9,362.4,655.9,365,653.1,365z"/>
	</g>
	<g>
		<path class="st15" d="M425.2,367.9h13.6c0.7-0.6-0.5-2-1.8-2.1c-0.6,0-1.3,0.1-2.1,0.2c-0.2-2.5-1.3-13.6-5.3-13.2
			c-4.5,0.5,0,4.9,1.3,7.5c1,1.9,1.9,4.7,2.4,6c-0.4,0.1-0.7,0.2-1.1,0.2c-0.6-1.8-2.8-8-5.7-7.7c-3.3,0.4-2,2.9,0.4,4.4
			c1.7,1.1,3.9,2.6,4.9,3.4c-0.9,0.1-1.7,0.2-2.7,0.2C426.8,366.8,425.7,367.5,425.2,367.9z"/>
	</g>
	<g id="girl_2_12_">
		<g>
			<path class="st11" d="M633.8,309.3c-2.5-0.7-5.4,0.1-7.2,2.1c-4.4,4.8-1.2,8.5-3.4,11.9c-1.3,2-2.5,5.6,1.7,7.7
				c1.9,1,7.6,6.1,8.8,6.2c11.9,1.2,12.1-10.8,8.1-14.3C636.2,318,641.3,311.5,633.8,309.3z"/>
		</g>
		<g>
			<path class="st20" d="M627.6,327.9c0,0-10.8,5.2-12.9,5.2c-2-0.1-14.7-4.5-14.7-4.5l0.3,2.2c0,0,9.6,5.5,13,5.9
				c3.3,0.3,14.7-3,15.8-3.7C630.2,332.2,630.8,328.6,627.6,327.9z"/>
		</g>
		<g>
			<path class="st21" d="M626.4,332.9c1,0.7,2.2,1.2,3.8,1.6c5.8,1.3,8-3.6,8.8-6.9c-0.8-0.5-1.5-0.6-2-0.6c-0.4,0-0.9-0.1-1.2-0.1
				c-0.6-0.5-1.6-2.5-1.8-5.7l-0.3,0.1l-4.6,1.3c0,0,0.2,1.5,0.3,2.8c0.1,1.1,0.1,2.1-0.1,2.3c-0.4,0.1-0.6,0.1-0.6,0.1s0,0,0,0
				C628.7,327.9,627.4,330.1,626.4,332.9z"/>
		</g>
		<g>
			<path class="st20" d="M629.1,322.5c0,0,0.2,1.4,0.3,2.8c2.6-0.3,3.8-2.7,4.2-4.1L629.1,322.5z"/>
		</g>
		<g>
			<path class="st21" d="M628.4,323.9c0,0,6.1-0.3,5.9-4.2c-0.3-3.8,0.3-6.4-3.6-6.4c-3.9,0.1-4.6,1.6-4.8,2.9
				C625.6,317.5,626.8,323.8,628.4,323.9z"/>
		</g>
		<g>
			<path class="st11" d="M625.9,314.1c0.9-1.2,1.6-1,2-0.7c3.2-2.1,5.6,0.5,5.6,0.5c0.6,2.7,2.7,4.1,2.7,4.1s-1.1,0.9-3.7,0.3
				c-3.3-0.7-4.5-3.6-4.6-4.1c-0.3,0.4-0.8,0.6-1.1,1.4c-0.4,0.9-0.7,1.5-0.7,3C626,318.6,624.6,315.9,625.9,314.1z"/>
		</g>
		<g>
			<path class="st22" d="M640.8,345.4c0.6-2.8,2.4-14.1,0.6-17.8c-0.6-1.3-3.2-1.4-6-1.3c-0.9,0.6-4.2,2.7-5.5,2.4c0,0,0,0-0.1,0
				c-0.6-0.2-0.9-0.6-0.3-1c0,0-1.3-0.1-2.9,0.4c-1.9,0.6-3.6,1.8-3.6,1.8s1.2,1.9,3.2,2.7c-0.3,3,0.2,4.3,3.2,11.1
				c2.6,5.8-0.3,11-0.3,11s15.3,12.3,15.3,6C644.2,356,640,349,640.8,345.4z"/>
		</g>
		<g>
			<path class="st23" d="M628,368c-0.8-0.1-1.6-0.5-2-1.2c-0.1-0.1-0.2-0.2-0.2-0.4c-1.7-2.6-2.4-10.7-6.3-19.3
				c-1-2.1-4.4-2.5-5.3-4.8c0,0-2.3-7.7,4.4-7.9c6.7-0.2,17.9,21.3,18.1,23.5C636.8,360.2,641,369.5,628,368z"/>
		</g>
		<g>
			<path class="st24" d="M601.5,367.9h9.5c0,0,0.4-1.6-0.3-2.6c-0.6-0.9-0.3-1.5,0.1-2.2c-0.4,0.2-1,0.3-1.6,0.3
				c-0.5,0-1-0.3-1.4-0.5c-0.4,0.5-2.2,2.5-2.7,2.9C604.5,366.3,601.7,366.1,601.5,367.9z"/>
		</g>
		<g>
			<path class="st23" d="M613.9,336.6c-0.6,4.3-2.8,17.8-6.7,24.4c-1.3,2.1,3.2,3.3,3.2,3.3c0.6-0.2,1.6-1.1,2.1-1.5
				c3.2-2.9,9.7-11.1,9.7-17.6c0-3.2,0.1-9.3-2.3-10.8C618.5,333.5,614.2,334.9,613.9,336.6z"/>
		</g>
		<g>
			<path class="st10" d="M640.4,332.9c0,0-1.9,3.9-10.9,6.7c-9,2.8-3.9-4.2-3.9-4.2l12.6-4.4L640.4,332.9z"/>
		</g>
		<g>
			<path class="st6" d="M632.7,368c0,0-0.5-0.7-0.8-1.8c-0.5-1.8-0.7-3.1-1.7-5.9c-1-2.9-2.3-6.5-3.8-10.3c-0.5-1.2-1-2.3-1.5-3.5
				c-1-2.1-3.6-1.8-4.5-4.2c0,0-3.6-8.2,3-8.4c6.7-0.2,19.4,21.9,20.1,24C644.4,360.3,647.2,370.2,632.7,368z"/>
		</g>
		<g>
			<path class="st25" d="M608.5,367.9h9.5c0,0,0.4-1.6-0.3-2.6c-0.6-0.9-0.3-1.5,0.1-2.2c-0.4,0.2-1,0.3-1.6,0.3
				c-0.5,0-1-0.3-1.4-0.5c-0.4,0.5-2.2,2.5-2.7,2.9C611.4,366.3,608.7,366.1,608.5,367.9z"/>
		</g>
		<g class="st5">
			<path class="st23" d="M630.2,360.3c-1-2.9-2.3-6.5-3.8-10.3c0.4-2.8,1.3-5.3,2.7-6.3C629.1,343.7,632.7,354.6,630.2,360.3z"/>
		</g>
		<g>
			<path class="st6" d="M619.5,336.3c-0.6,4.3-1.4,18.1-5.3,24.7c-1.3,2.1,3.2,3.3,3.2,3.3c0.6-0.2,1.6-1.1,2.1-1.5
				c3.2-2.9,9.7-11.1,9.7-17.6c0-3.2-3.7-9-6.1-10.6C621.6,333.7,619.7,334.6,619.5,336.3z"/>
		</g>
		<g>
			<g>
				<path class="st18" d="M598.9,323l9.7-1c0.3,0,0.6,0.1,0.6,0.4l3.5,9.2c0.2,0.4-0.1,0.8-0.6,0.9l-9.7,0.4c-0.3,0-0.5-0.1-0.6-0.4
					l-3.6-8.5C598.2,323.5,598.5,323.1,598.9,323z"/>
			</g>
			<g>
				<path class="st11" d="M598.1,323.1l9.7-1c0.3,0,0.6,0.1,0.6,0.4l3.5,9.2c0.2,0.4-0.1,0.8-0.6,0.9l-9.7,0.4
					c-0.3,0-0.5-0.1-0.6-0.4l-3.6-8.5C597.4,323.6,597.6,323.2,598.1,323.1z"/>
			</g>
			<g>
				<path class="st3" d="M603.5,327.4c-0.1-0.3,0-0.6,0.4-0.6s0.7,0.3,0.8,0.6c0.1,0.3,0,0.6-0.4,0.6
					C603.9,328,603.6,327.7,603.5,327.4z"/>
			</g>
			<g>
				<path class="st3" d="M598.3,324c-0.1-0.2,0-0.3,0.2-0.3c0.2,0,0.3,0.1,0.4,0.3c0.1,0.2,0,0.3-0.2,0.3
					C598.6,324.3,598.4,324.1,598.3,324z"/>
			</g>
		</g>
		<g>
			<path class="st21" d="M639,327.6c0,0-13.5,5-15.5,4.9c-1.3-0.1-12.2-3.9-12.2-3.9l-1,1.9c0,0,10.6,6.8,13.5,6.8
				c5.8-0.1,15.5-3.6,16.6-4.3C641.5,332.2,642.2,328.3,639,327.6z"/>
		</g>
		<g>
			<path class="st21" d="M611.3,328.5c0,0-1-1.5-1.9-1.6c-1,0-2.7,0.7-3.2,0.8c-0.6,0.1-2.2,0.6-1.7,1.4c0.5,0.8,2.7,1,3.7,0.8
				c1-0.2,2.2,0.4,2.2,0.4L611.3,328.5z"/>
		</g>
		<g>
			<path class="st21" d="M609.6,327c0,0-1.6-0.7-2-0.8c-0.4-0.1-0.4,0-0.2,0.4c0.1,0.4,0.9,0.8,0.9,1
				C608.3,327.7,609.6,327,609.6,327z"/>
		</g>
		<g>
			<path class="st21" d="M599.1,327.8c0,0,0.6-2,1.3-1.4c0.7,0.7,0.3,1.3,0.2,2.2c-0.2,1.6-0.5,1.6-0.7,1.5
				C599.6,329.9,598.8,328.6,599.1,327.8z"/>
		</g>
		<g>
			<path class="st21" d="M599,328.1c0,0-0.3,1.7,1.3,2.6l-0.5-1.2L599,328.1z"/>
		</g>
		<g>
			<path class="st1" d="M627.2,321.7c0,0,0.6-0.2,2.2-0.1c0,0-0.1,0.6-1.3,0.7C627.5,322.3,627.2,321.7,627.2,321.7z"/>
		</g>
		<g>
			<path class="st10" d="M632.1,330c0,0,1.2,3.8,5.4,4.7c0,0,6.8-2.1,3.4-6.8C640.8,327.9,637.5,325.4,632.1,330z"/>
		</g>
		<g>
			<path class="st21" d="M599,328.3c0,0-0.3-1-0.3-1.1c0-0.2,0-0.3,0.2-0.1c0.1,0.1,0.4,0.4,0.3,0.7
				C599.1,328.1,599,328.3,599,328.3z"/>
		</g>
	</g>
	<g>
		<g>
			<path class="st21" d="M559.2,280.8c-1.1,0.6-2.7,0.6-3.5,0.9c-0.8,0.3-1,1.1-1,1.1l-0.5-1.8l-0.4-0.5c0,0,0.8-1.3,1-1.8
				c0.2-0.4,0.6-0.9,1.1-1.1c0.5-0.1,1.4-0.7,1.5-0.6c0.3,0.3-1.1,1-1.2,1.3c0,0.3,0.2,0.4,0.2,0.4h0c1.2,0.4,4.2-0.8,4.4-0.1
				C561,278.9,559.7,280.5,559.2,280.8z"/>
		</g>
		<g>
			<path class="st12" d="M555.9,282c0,0-5.2,12.8-11.1,13.7c-0.7,0.1-1.5,0-2.4-0.3l0,0c-2.7-1-5.7-4-8.1-6.9
				c-2.8-3.4-4.9-6.6-4.9-6.6s0.8-9.6,2.8-8.6c4.2,2.2,9.2,12.8,12.1,15.1l9.5-8.1C553.6,280.2,555.1,280.6,555.9,282z"/>
		</g>
		<g>
			<path class="st26" d="M542.4,295.4c-2.7-1-5.7-4-8.1-6.9c0-4.7,0.2-9.6,0.6-6.7C535.4,286.9,542.3,295.3,542.4,295.4z"/>
		</g>
		<g>
			<path class="st27" d="M508,367.9h-4.9c-0.6-0.3-1.2-1.1-1.3-2.2c-0.2-1.5-2-2.3-2.4-3.6c-0.4-1.2,1.6-3,1.6-3l0.3-0.4l0.3-0.4
				l3.3,0.7c0,0,0.1,0.7,0.1,1.7c0,0.7,0.1,1.5,0,2.2c-0.1,1.7,0.5,3.4,2,3.8C508.1,366.9,508.1,367.5,508,367.9z"/>
		</g>
		<g>
			<path class="st27" d="M536.6,367.9h-11.3c-0.5-0.6-0.3-3-0.3-3.7c0-0.2,0-0.2,0-0.2s3.8-2.9,4.4-0.7c0,0.1,0,0.1,0.1,0.2
				c0.7,2.1,3.7,3.1,5.4,3.3C536,366.9,536.4,367.5,536.6,367.9z"/>
		</g>
		<g>
			<path class="st28" d="M534.4,307.7c0,0-0.6,7-1.3,15.4c-0.9,11.4-2.1,25.4-2.2,28c-0.2,4.6-1,12-1,12s-1.8,1.7-5.5,1
				c0,0-3.3-10.5-4.2-21.6c0-0.2,0-0.4,0-0.6c-0.9-11.3-2.2-35.2-2.2-35.2L534.4,307.7z"/>
		</g>
		<g>
			<path class="st11" d="M534.4,307.7c0,0-0.6,7-1.3,15.4l-12.8,19.4c0-0.2,0-0.4,0-0.6c-0.9-11.3-2.2-35.2-2.2-35.2L534.4,307.7z"
				/>
		</g>
		<g>
			<path class="st28" d="M531.8,308.5c0,0-10.5,25.3-17.5,37.1c-6.9,11.9-9.1,15.2-9.1,15.2s-4-1.5-4.3-2.6c0,0,2.6-22.9,7.3-28.5
				c2.6-3.2,5.7-12.6,5.8-15.9c0.1-3.3,0.9-9.9,0.9-9.9L531.8,308.5z"/>
		</g>
		<g>
			<path class="st12" d="M536.3,304.1c-0.2,2.5-0.7,4.3-1.9,4.3c0,0-5.2,1.8-11.5,1.9c-1.2,0-2.9-0.2-4.4-0.5
				c-1.5-0.3-2.6-0.5-2.6-0.5c-1.3-0.3-2.6-1.1-2.5-2.5c0.1-0.8,0.2-1.7,0.2-2.9c0-0.1,0-0.1,0-0.2c0.1-2.3,0.1-5.2,0.1-8.3
				c0-1.3,0-2.7,0-4c0-1.3,0-2.5,0-3.7c0-1.3,0-2.6,0.1-3.8c0,0-1.1-7.8,0.2-9.3c1.6-1.7,6.3-3.2,9.7-3c7.1,0,8.5,1.6,9.7,2.9
				c0.4,0.5,2.2,3.2,2.2,6.3c0.1,4.3-0.1,9.1-0.1,9.1c0,0.7,0.1,1.6,0.2,2.6c0.1,1.1,0.2,2.3,0.3,3.6c0,0.6,0.1,1.3,0.1,2
				C536.4,300.3,536.4,302.4,536.3,304.1z"/>
		</g>
		<g>
			<path class="st21" d="M527.2,272.8c-2,1.6-5.3,0.4-6.4-0.1c-0.2-0.1-0.4-0.3-0.3-0.6c0.1-1.2,0-2.7-0.6-4.4c0,0,0.4,0,1,0
				c1.8,0.1,5.5,0.6,5.6,0.6h0c0,0,0.2,0.8,0.5,2.3c0,0.1,0.1,0.3,0.1,0.4c0,0.2,0.1,0.3,0.1,0.5c0,0.2,0.1,0.4,0.1,0.6
				C527.5,272.4,527.4,272.7,527.2,272.8z"/>
		</g>
		<g>
			<path class="st29" d="M527.1,270.6c-2.5,1-7-2.2-7-2.2c0.3-0.3,0.5-0.5,0.8-0.6c1.8,0.1,5.5,0.6,5.6,0.6h0
				C526.6,268.4,526.7,269.2,527.1,270.6z"/>
		</g>
		<g>
			<g>
				<path class="st21" d="M527.6,268c0,0-1,0.5-2.3,0.9c-1.9,0.6-4.6,0.8-5.8-1.5c-2-3.8-4.2-6-0.3-8.3c2-1.2,3.4-1.5,4.4-1.3
					c0.9,0.2,1.4,0.7,1.9,1.2C526.5,260.2,529.2,267,527.6,268z"/>
			</g>
			<g>
				<path class="st30" d="M524.9,259c-0.9,0.7-2.2,1.1-2.7,1.4c-0.3,0.2-0.6,0.6-0.7,1c-0.2,0.7-0.2,1.5-0.1,1.9
					c0.1,0.5,0.1,1-1.4,0.9c-0.1,0-0.1,0-0.2,0c-0.1,0-0.2,0-0.3,0.1c-0.5,0.4,0.5,2,0.7,2.3c0,0,0.1,0.3,0.2,0.8c0,0.3,0,0.7-0.3,1
					c0,0,0,0,0,0c-0.1,0.1-0.8,0.5-2.8-1.1c-0.3-0.3-0.7-0.6-1.1-1c-0.5-0.4-1-1-1.6-1.6c-0.6-0.7-1.4-2.4-0.9-4.3
					c0.5-1.9,2.7-4.4,5.7-4.8c2.4-0.4,2.7,0.4,4.7,0.4C525.6,255.9,526.4,257.8,524.9,259z"/>
			</g>
			<g>
				<path class="st1" d="M527.2,265.4c0,0,0.2,0.5-1,1.1c0,0-1,0.5-1.2,0C525,266.5,525.7,265.6,527.2,265.4z"/>
			</g>
		</g>
		<g>
			<path class="st26" d="M518.7,285.4c-0.1,0.1-3.3,6.3-4.8,10.1c0-1.3,0-2.7,0-4c0-1.3,0-2.5,0-3.7L518.7,285.4z"/>
		</g>
		<g>
			<g>
				<path class="st21" d="M503.8,306.7c0,0-0.8,1-0.8,1.5c-0.2,2.8,1.1,3.2-2.3,4.8c0,0-1.4,0.5-1.5-0.6c0-1.1,1-1.1,0.8-2.7
					c-0.2-1.8-0.2-1.8,1-2.7l0.8-1.3L503.8,306.7z"/>
			</g>
			<g>
				<path class="st21" d="M502.5,307.9c0,0,0.8,0.8,0.8,1.1c0.2,1.1,0.5,1.5,0.3,1.6c-0.4,0.2-0.9-0.5-1.1-1.2
					S502.5,307.9,502.5,307.9z"/>
			</g>
		</g>
		<g>
			<path class="st12" d="M501.6,307.3c1.1,0.2,2.4,0.1,2.4,0.1s3.3-10.3,3.8-11.3c0.4-0.9,12.3-12,12.3-12s-1-11.8-3.9-10.7
				c-5.3,2-12.7,17.8-13.7,20.2c-1.7,4-2.3,12.9-2.3,12.9S500.7,307.2,501.6,307.3z"/>
		</g>
		<g>
			<g>
				<path class="st31" d="M518.8,266.7l-1.5,0.6c-0.3-0.3-0.7-0.6-1.1-1l1.7-1.3L518.8,266.7z"/>
			</g>
			<g>
				<path class="st6" d="M527.3,263.8l-6.5,3.4c-0.2,0.1-0.5,0.2-0.8,0.2h-0.1c-0.4,0-0.8-0.3-1.1-0.7l-0.8-1.6
					c-0.3-0.6-0.3-1.2,0-1.6l0,0c0.1-0.2,0.2-0.3,0.4-0.4l6.7-3.5c0.5-0.3,1.2,0,1.6,0.7l1,1.8C527.9,262.7,527.8,263.5,527.3,263.8
					z"/>
			</g>
			<g>
				<path class="st31" d="M529.2,262.7l-1.5,0.8l-0.9,0.5l-1.1,0.6l-2.8,1.5l-0.8,0.4c-0.4,0.2-1,0.1-1.3-0.4l-1.4-2.6
					c-0.2-0.4-0.1-1,0.4-1.3l3.4-1.8l1.6-0.8l1-0.6l1.2-0.6c0.2-0.1,0.4-0.1,0.7-0.1c0.2,0.1,0.5,0.2,0.6,0.5l1.4,2.6
					C529.9,261.9,529.7,262.5,529.2,262.7z"/>
			</g>
			<g class="st32">
				<path class="st33" d="M523.2,260.5c-0.1,1-0.3,3.7-0.4,5.6l-0.8,0.4c-0.4,0.2-1,0.1-1.3-0.4l-1.4-2.6c-0.2-0.4-0.1-1,0.4-1.3
					L523.2,260.5z"/>
			</g>
			<g class="st34">
				<polygon class="st33" points="525.8,259.1 525.7,264.6 524.2,265.4 524.8,259.7 				"/>
			</g>
			<g>
				<path class="st33" d="M529.2,262.7l-1.5,0.8l-0.1-5.1c0.2,0.1,0.5,0.2,0.6,0.5l1.4,2.6C529.9,261.9,529.7,262.5,529.2,262.7z"/>
			</g>
		</g>
	</g>
	<g>
		<g>
			<g>
				<path class="st21" d="M556.9,246.4c-0.2,0.3-0.3,0.6-0.2,0.9c0,0,0,0,0,0c0.2,0.6,1,1.3,1.8,2c0.1,0.1,0.2,0.2,0.3,0.2
					c0,0,0,0,0.1,0.1c0,0,0,0,0,0c0.8,0.7,0.5,0.9,1.9,2.4c1.6,1.7,2.7,1.7,3.1,1.6c0.3-0.1-0.3-1-0.9-2c0,0-0.1-0.1-0.1-0.1
					c-0.1-0.1-0.2-0.3-0.2-0.4c-0.7-1.2-0.5-1.8-0.4-3.6c0.1-1.5,2.3-8.2,2.3-8.2l-3.1-0.5c0,0-0.9,5.3-2,6.2
					c-0.6,0.4-1.2,0.4-1.7,0.8c0,0-0.1,0-0.1,0.1C557.5,245.9,557.2,246.1,556.9,246.4z"/>
			</g>
			<g>
				<path class="st11" d="M556.9,246.4c-0.2,0.3-0.3,0.6-0.2,0.9c0,0,0,0,0,0c0.3,0.6,1,1.3,1.8,2c0.1,0.1,0.2,0.2,0.3,0.2
					c0,0,0,0,0.1,0.1c0,0,0,0,0,0c0.8,0.7,0.5,0.9,1.9,2.4c1.6,1.7,2.7,1.7,3.1,1.6c0.3-0.1-0.3-1-0.9-2c-0.3-0.1-1.8-0.7-2.9-2.1
					c-0.9-1.2-1.6-2.7-2.2-3.7c-0.1,0-0.1,0-0.2,0C557.5,245.9,557.2,246.1,556.9,246.4z"/>
			</g>
			<g>
				<path class="st21" d="M582,244.5c0.2,1,1.6,0.8,3.1,0.4c1.5-0.4,1.2,0.1,3.3-0.2c2.2-0.2,2.8-1,2.9-1.4c0.1-0.3-1-0.4-2.2-0.5
					c-0.1,0-0.3,0-0.4,0c-1.3-0.2-2.2-1-3.4-1.7c-1.1-0.6-2.8-3.3-2.8-3.3l-3,0.2c0,0,1.6,2.4,2.2,3.4c0.4,0.6,0.3,1.4,0.3,2
					C581.9,243.8,581.9,244.1,582,244.5z"/>
			</g>
			<g>
				<path class="st11" d="M585,244.9c1.5-0.4,1.2,0.1,3.3-0.2c2.2-0.2,2.8-1,2.9-1.4c0.1-0.3-1-0.4-2.2-0.5l0,0c0,0-1.3,0.9-3.1,1
					c-1.5,0-3-0.4-4.1-0.4c0,0.3,0,0.7,0,1C582.1,245.4,583.5,245.3,585,244.9z"/>
			</g>
			<g>
				<path class="st26" d="M570.5,225.4l-2.8,7.5l-3.6,9.8c0,0-1,0.1-1.9-0.2c-0.9-0.3-1.9-0.9-1.9-0.9s1-10.5,2.9-16.5
					c0.5-1.6,1-2.8,1.6-3.5C567.7,218.1,570.5,225.4,570.5,225.4z"/>
			</g>
			<g>
				<path class="st12" d="M567.7,213.5c-1.6-0.5-5.7,0-10.2,0.8c-1.2,0.2-2.5-0.3-3.1-1.4l0,0l-11.3-0.9c0,0-3.7,8.3-1.7,13.5
					c0.3,0.8,1,1.3,2,1.3l0,0c0,0,6.8,0,9,0c5.6,0,11.9-3.9,12.7-4c1.3-0.3,1.9,2.4,3.2,5.2c1.3,2.8,12.5,12.3,12.5,12.3
					s1.7,0,2.4-0.3c0.8-0.3,1-0.7,1-0.7S571.8,214.8,567.7,213.5z"/>
			</g>
			<g>
				<path class="st17" d="M553.2,179.8c-0.8-0.5-1.7-0.6-2.2-0.6c-0.3,0-0.7,0-1-0.1c-4.3-0.6-6.9,5.6-7.1,7.5
					c-0.3,3.5-2.1,4-4.7,6.2c-5.2,4.4-3.7,9.4-0.8,11.3c1.7,1.1,4.7,0,4.7,0c0,0,8.2-4.6,12.2-6.8
					C560.3,196.5,555.6,181.2,553.2,179.8z"/>
			</g>
			<g>
				<path class="st21" d="M550.9,195.5c0,0-2,0.7-3.3,0.1c-1.3-0.6-2.2-2.6-2.2-2.6c0.6,0,1.2-0.5,1.7-3.8l0.2,0.1l4.1,1.5
					c0,0-0.3,1.3-0.5,2.6C550.8,194.3,550.7,195.3,550.9,195.5z"/>
			</g>
			<g>
				<path class="st29" d="M551.4,190.7c0,0-0.2,0.7-0.4,2c-2.3-0.4-3.4-2.2-3.7-3.5L551.4,190.7z"/>
			</g>
			<g>
				<path class="st21" d="M552,192c0,0-5.6-0.7-5.1-4.2c0.5-3.5,0.1-5.9,3.7-5.6c3.6,0.3,4.1,1.8,4.2,3
					C555,186.4,553.5,192.1,552,192z"/>
			</g>
			<g>
				<path class="st17" d="M554.7,183.3c0,0-3.6,3.1-6,3.3c-2.4,0.3-3.4-0.5-3.4-0.5s1.4-1.2,2.3-3.1c0.3-0.6,0.8-1,1.4-1
					C550.8,181.8,554.1,181.7,554.7,183.3z"/>
			</g>
			<g>
				<path class="st17" d="M552.5,183c0,0,1.2,1.2,1.6,2c0.4,0.8,0.5,2.8,0.2,3.6c0,0,1.9-3.6,0.8-5.4
					C553.9,181.3,552.5,183,552.5,183z"/>
			</g>
			<g>
				<path class="st22" d="M555.6,203.7c-0.2,11.3,0,9-1.3,10c-0.3,0.3-1.1,0.4-2.2,0.5c-3.5,0.2-9.6-0.3-9.8-1
					c-0.8-2.2-0.2-2.9-0.9-6.3c-0.1-0.4-0.2-0.8-0.3-1.2c-0.6-2.3-1.1-3.1,0.9-6.9c1.8-3.4,3.7-6.2,3.8-6.1c4.7,2.8,5.1,0.4,5.1,0.4
					S555.7,198.2,555.6,203.7z"/>
			</g>
			<g>
				<path class="st35" d="M567.8,232.9l-3.6,9.8c0,0-1,0.1-1.9-0.2c-0.9-0.3-1.9-0.9-1.9-0.9s1-10.5,2.9-16.5L567.8,232.9z"/>
			</g>
			<g>
				<path class="st10" d="M551,193.3c0,0,4.9,0.8,5.4,2.9c0.6,2.1,2.5,14.8,2.5,14.8s-1.4,1.3-2.5,0.2s-3.6-11.9-3.6-11.9L551,193.3
					z"/>
			</g>
			<g>
				<path class="st22" d="M552.1,214.2c-3.5,0.2-9.6-0.3-9.8-1c-0.8-2.2-0.2-2.9-0.9-6.3l1.7-4.7c0,0-0.3,5.2,1.3,6.6
					c1.5,1.4,6.3,2.7,7.1,3.8C551.8,213.2,552,213.8,552.1,214.2z"/>
			</g>
			<g>
				<path class="st21" d="M548.1,212c0,0,3.4-0.8,4-0.5c0.6,0.3,1.9,1.4,2.1,1.8c0.2,0.4-1.2-0.3-1.7-0.4c-0.3-0.1-1.1,0.2-1.5,0.3
					c-1.6,0.5-2.6,0.3-2.6,0.3L548.1,212z"/>
			</g>
			<g>
				<path class="st10" d="M545.8,192.8c0,0-4.6,0.3-6.2,2.5c-2.2,3.1-6.7,16.4-4.1,18.2c2.9,2,13.1,0.5,13.1,0.5s0.3-1.6-0.1-2.4
					c-0.5-0.8-8.1-2-8.5-2.4c-0.4-0.4,4.4-6.9,4.4-8C544.4,200.3,545.8,192.8,545.8,192.8z"/>
			</g>
			<g>
				<path class="st21" d="M552.3,212.5c0,0,0.7,0.9,1,1c0.2,0.1,0.4,0.1,0.4,0.1l-0.5-0.9L552.3,212.5z"/>
			</g>
			<g>
				<path class="st21" d="M552.1,211.6l2.1,1c0,0-0.1,0.1-0.3,0.1c-0.3,0-0.9-0.3-0.9-0.3L552.1,211.6z"/>
			</g>
		</g>
		<g>
			<g>
				<polygon class="st17" points="569.9,213.9 548.1,213.9 548.1,214.4 569.7,214.4 				"/>
			</g>
			<g>
				<polygon class="st17" points="553.2,214.4 569.7,214.4 574.7,202.1 558.2,202.1 				"/>
			</g>
			<g>
				<path class="st3" d="M565.6,208.3c0.1-0.4-0.1-0.8-0.6-0.8s-0.9,0.3-1,0.8c-0.1,0.4,0.1,0.8,0.6,0.8S565.4,208.7,565.6,208.3z"
					/>
			</g>
		</g>
	</g>
	<g>
		<g>
			<g>
				<path class="st21" d="M658.9,292.3c0-0.1,0.9-1.9,0.6-2.1c-0.3-0.1-0.8-0.1-0.9,0.2C658.6,290.8,658.9,292.3,658.9,292.3z"/>
			</g>
			<g>
				<path class="st11" d="M672.5,269c0,0,5.3-6.4,8.1-2.3c0,0,2.1,0.9,2.9,4.5c0.8,3.7-1.7,6.4-2.9,5.7c-0.8-0.4-1.4,1-1.4,1
					L672.5,269z"/>
			</g>
			<g>
				<path class="st21" d="M665.8,303c-4.2-1.6-8.3-8.8-8.3-8.8l1.3-0.9c1.1,1.6,6.1,4.8,6.1,4.8c0.1-1.4,0.3-2.6,0.5-3.7
					c1.4-7.7,4.6-9.9,5.4-10.4c0.1-0.1,0.2-0.1,0.2-0.1s0,0.1,0,0.2c0,0.2,0,0.7-0.1,1.3C670.7,290,669.4,304.3,665.8,303z"/>
			</g>
			<g>
				<path class="st11" d="M680,266c0,0,0.7-2.9,4.9-2c0,0-2-0.3-2.6,0.5c0,0,1.6-0.7,2.6-0.1c1,0.6,1.2,2.7,1,3.3
					c-0.1,0.6-1.3,2.5-2,2.5c-0.7,0-1.6-0.6-1.6-0.6L680,266z"/>
			</g>
			<g>
				<path class="st21" d="M686.3,310.9c-2.1-4.7-3.1-6-3.1-7.5c0-1.2,0.5-2.4,1.7-5.5c0.3-0.7,0.4-1.5,0.6-2.2
					c0.9-6-2.6-12.4-4.7-12.8c-0.6-0.2-1.6-2.3-1.6-5.8l-0.3,0l-4.5,0.9c0,0,0.1,1.4,0.1,2.8c0,1.1-0.1,2.2-0.3,2.3
					c-0.3,0-0.5,0-0.5,0s-3.8,5.2-4.1,10.1c-0.3,4.9,3,7,0,16.7C666.4,319.7,687.5,313.5,686.3,310.9z"/>
			</g>
			<g>
				<path class="st36" d="M674.3,277.9c0,0,0.1,1.4,0.1,2.8c2.5-0.1,3.9-2.4,4.4-3.6L674.3,277.9z"/>
			</g>
			<g>
				<path class="st11" d="M679.3,276.6c0,0,1.3-2.1,1.6-3.9c0.2-1.3-0.4-6-5.2-5.3c0,0-1.4,0.1-2.7,1c-1,0.7-2.5,2.2-0.9,6.3
					l0.4,1.4L679.3,276.6z"/>
			</g>
			<g>
				<path class="st21" d="M673.5,279.2c0,0,6,0.1,6-3.6c0-3.7,0.8-6.2-3-6.4c-3.8-0.2-4.5,1.2-4.9,2.4
					C671.3,272.8,671.9,279.1,673.5,279.2z"/>
			</g>
			<g>
				<path class="st11" d="M673.7,269.1c0,0,1.6,4.4,4.1,5c2.5,0.6,3.6,0,3.6,0s-1.9-1.5-2.3-4.2C679.1,269.9,675,267,673.7,269.1z"
					/>
			</g>
			<g>
				<path class="st11" d="M674.1,269.4c0,0-1.2,1-1.5,1.9c-0.3,1-0.4,2.9-1,2.8c0,0-1.2-3,0.2-4.6
					C673.2,267.8,674.1,269.4,674.1,269.4z"/>
			</g>
			<g>
				<path class="st37" d="M681,355.9c-1.5,6-3.8,10.6-3.8,10.6l-2-0.1c0,0,1-4.6,0.9-10.8c0-4.3-0.6-9.5-2.3-14.4
					c-5.9-16.8-4.9-29.1-4.9-29.1l11.1,1.3l0.5,0.1c0,5.1,0.2,12,0.3,17.4c0.1,4.9,0.2,8.5,0.2,8.5
					C683.2,343.9,682.4,350.4,681,355.9z"/>
			</g>
			<g>
				<path class="st21" d="M694.1,315.8l-1.8,0.5c0,0-6.1-9.3-6.6-11.9c-0.2-0.8-0.6-1.7-0.9-4.8c-0.4-4-2.4-8.6-2.4-8.6l-0.4-1.9
					l-1.5-6.5c0,0,2.9,0.3,4.6,1c0.6,0.2,1,0.5,1.1,0.8c1.2,2.7,2.5,9.6,3.3,14.5c0.5,2.7,0.9,4.8,1,5.3
					C691,305.5,692.7,312.4,694.1,315.8z"/>
			</g>
			<g>
				<path class="st28" d="M686.8,353.3c-0.9,6.8-1.9,11.8-1.9,11.8l-1.8,1.7c0,0-0.9-4.8-1.5-10.5c-0.6-5.4-1.4-11.1-2.4-12.9
					c-3.7-6.9-4.8-33.1-4.8-33.1l11.2-0.6c1.1,1.9,1.6,5,1.7,8.6c0.3,8.9-1.6,18.3-1.9,20C685.4,338.3,688.2,342,686.8,353.3z"/>
			</g>
			<g>
				<path class="st11" d="M673.9,269.6c0,0,1.2,4.6,4.3,6c0,0-3.2-2.8-3.4-5.8C674.5,266.8,673.9,269.6,673.9,269.6z"/>
			</g>
			<g>
				<path class="st10" d="M687.7,314.2c0,0.4,0,0.7-0.1,0.9c-0.2,0.8-1.1,1.1-3,0.9c-1.2-0.1-1.8-2.2-2-3.9
					c-0.7,2.5-1.7,3.9-3.1,4.2c-1.9,0.4-11.6,1.6-12.3-3c-0.7-5.1,1.4-14.1,1.5-18.9c-0.3-1.7-0.4-3.2-0.3-4.5
					c0.1-3.5,1.1-5.4,1.9-6.2c0.2-0.2,0.4-0.3,1.3-0.4c0.5-0.1,1.1-0.2,2-0.3c0,0,0.4,0,0.4,0c-0.2,0.3-1.1,1.7-0.9,3
					c0.5,3.3,4.9,0.6,5.5,0.2c2-1.3,3.1-3.4,3.1-3.4s2.8,0.3,4.1,1.3c0,0,0,0,0,0c0.2,0.1,0.3,0.2,0.4,0.4c1.4,2.7,2.9,9.7,3.9,14.6
					c-2.5,1.3-4.6,1-5.3,0.8C685.6,305.5,687.6,311.7,687.7,314.2z"/>
			</g>
			<g>
				<path class="st21" d="M658.9,293.3c0-0.2,0.2-2.9-0.3-3.4s-1.4-1.4-1.7-1.3c-0.3,0-1.5,1.6-1.1,2.8s1.9,2.9,1.9,2.9L658.9,293.3
					z"/>
			</g>
			<g>
				<g>
					<path class="st28" d="M660.4,290.1l-2.7,0.8c-0.1,0-0.2,0-0.2-0.1l-1.8-6.1c0-0.1,0-0.2,0.1-0.2l2.7-0.8c0.1,0,0.2,0,0.2,0.1
						l1.8,6.1C660.5,290,660.5,290.1,660.4,290.1z"/>
				</g>
				<g>
					<path class="st11" d="M660,290.2l-2.5,0.7c-0.2,0-0.4,0-0.4-0.2l-1.7-5.8c0-0.2,0-0.4,0.2-0.4l2.5-0.7c0.2,0,0.4,0,0.4,0.2
						l1.7,5.8C660.2,290,660.1,290.2,660,290.2z"/>
				</g>
			</g>
			<g>
				<path class="st22" d="M687.7,314.2c-1.3-0.4-3-1.6-5.1-4.3c-5.4-7-0.5-15.3,0.2-15.4c0.7-0.2,1.9,5.3,1.9,5.3
					C685.6,305.5,687.6,311.7,687.7,314.2z"/>
			</g>
			<g>
				<path class="st22" d="M670.3,283.8c0,0-3.4,1.7-4.6,9.3c0,0,1.2,1.7,2.9,2.2c0.2,0.1,0.5,0.1,0.8,0.1
					C671.5,295.4,670.3,283.8,670.3,283.8z"/>
			</g>
			<g>
				<path class="st21" d="M656.5,288.8c0,0,1.2-1.8,1.4-1.7c0.4,0.1-1,2.4-1,2.4s1.1-1.7,1.2-1.6c0.4,0.3-0.2,1.3-0.8,2.2
					c0,0,1.1-1,1.1-0.8c0.1,0.6-1.2,2.1-1.2,2.1l-0.7-1.7V288.8z"/>
			</g>
			<g>
				<path class="st21" d="M655.6,290.4c0.1-0.2,0.3-4.4,0.5-4s0.4,2.6,0.4,2.6L655.6,290.4z"/>
			</g>
			<g>
				<path class="st1" d="M674.7,277c0,0-0.1,0.4-1.2,0.4c0,0-0.9-0.1-0.9-0.5C672.6,276.8,673.5,276.5,674.7,277z"/>
			</g>
			<g>
				<path class="st38" d="M670.1,367.9h9.5c0,0,0.4-1.6-0.3-2.6c-0.6-0.9-0.6-1.5-0.4-2.6c-0.4,0.2-2.6,0.3-3,0
					c0,1.1-1.6,2.6-2.2,3.1C673,366.2,670.3,366,670.1,367.9z"/>
			</g>
			<g>
				<path class="st39" d="M676.6,367.9h9.5c0,0,0.4-1.6-0.3-2.6c-0.6-0.9-0.7-1.5-0.6-2.6c-0.4,0.2-2.5,0.3-2.9,0
					c0,1.1-1.6,2.6-2.2,3.1C679.6,366.2,676.8,366,676.6,367.9z"/>
			</g>
		</g>
		<g>
			<path class="st21" d="M694.1,315.8c0,0,2.2,1.4,2.5,2c0.3,0.6,1.1,2.8,1.1,2.8s-0.6,0.1-1.1-0.9c-0.6-1-2.4-0.9-3-1.4
				c-0.6-0.5-1.3-2.1-1.3-2.1L694.1,315.8z"/>
		</g>
		<g>
			<path class="st21" d="M692.5,316.9c0,0,0.4,1.7,0.8,2.2c0.4,0.5,1,1.3,1.3,1.1s-0.3-2.1-0.3-2.1L692.5,316.9z"/>
		</g>
		<g>
			<path class="st21" d="M696.3,318.1c0.1,0.1,2,2.1,2,2.1s-0.7,0.3-0.9,0C697.1,319.9,696.3,318.1,696.3,318.1z"/>
		</g>
	</g>
	<g>
		<path class="st11" d="M717.9,368.8H364.7c-0.2,0-0.4-0.2-0.4-0.4v-0.1c0-0.2,0.2-0.4,0.4-0.4h353.2c0.2,0,0.4,0.2,0.4,0.4v0.1
			C718.3,368.6,718.1,368.8,717.9,368.8z"/>
	</g>
	<g>
		<path class="st35" d="M474.6,297.2c-0.1,0-0.2-0.1-0.3-0.2c-0.2-0.6-0.4-1.3-0.6-1.9c0-0.2,0-0.3,0.2-0.4c0.2,0,0.3,0,0.4,0.2
			c0.2,0.6,0.4,1.2,0.6,1.8C474.9,297,474.8,297.2,474.6,297.2C474.6,297.2,474.6,297.2,474.6,297.2z M473.5,293.6
			c-0.1,0-0.3-0.1-0.3-0.2c-0.2-0.6-0.3-1.3-0.4-1.9c0-0.2,0.1-0.3,0.2-0.3c0.2,0,0.3,0.1,0.3,0.2c0.1,0.6,0.2,1.2,0.4,1.9
			C473.8,293.4,473.7,293.5,473.5,293.6C473.6,293.5,473.5,293.6,473.5,293.6z M489,292.4C489,292.4,489,292.4,489,292.4
			c-0.6-0.1-1.3-0.2-2-0.3c-0.2,0-0.3-0.2-0.2-0.3c0-0.2,0.2-0.3,0.3-0.2c0.6,0.2,1.3,0.3,1.9,0.3c0.2,0,0.3,0.2,0.3,0.3
			C489.3,292.3,489.2,292.4,489,292.4z M491,292.4c-0.1,0-0.3-0.1-0.3-0.3c0-0.2,0.1-0.3,0.3-0.3c0.6-0.1,1.2-0.2,1.8-0.4
			c0.2,0,0.3,0,0.4,0.2c0,0.2,0,0.3-0.2,0.4C492.3,292.2,491.7,292.3,491,292.4C491,292.4,491,292.4,491,292.4z M591.7,291.5
			c-0.1,0-0.2,0-0.2-0.1c-0.1-0.1-0.1-0.3,0-0.4c0.5-0.4,0.9-0.9,1.3-1.3c0.1-0.1,0.3-0.1,0.4,0c0.1,0.1,0.1,0.3,0,0.4
			c-0.4,0.5-0.9,1-1.4,1.4C591.9,291.5,591.8,291.5,591.7,291.5z M485.3,291.5c0,0-0.1,0-0.1,0c-0.6-0.2-1.2-0.5-1.8-0.8
			c-0.1-0.1-0.2-0.2-0.1-0.4c0.1-0.1,0.2-0.2,0.4-0.1c0.6,0.3,1.2,0.6,1.7,0.8c0.1,0.1,0.2,0.2,0.2,0.4
			C485.5,291.4,485.4,291.5,485.3,291.5z M494.6,291.2c-0.1,0-0.2,0-0.2-0.1c-0.1-0.1,0-0.3,0.1-0.4c0.5-0.3,1-0.7,1.4-1.1l0.1,0
			l0.4,0.4l-0.1,0.1c-0.5,0.4-1,0.8-1.5,1.1C494.7,291.2,494.6,291.2,494.6,291.2z M472.9,289.8c-0.1,0-0.3-0.1-0.3-0.3
			c-0.1-0.6-0.1-1.2-0.1-1.7c0-0.1,0-0.1,0-0.2c0-0.2,0.1-0.3,0.3-0.3l0,0c0.2,0,0.3,0.1,0.3,0.3c0,0.1,0,0.1,0,0.2
			c0,0.5,0,1.1,0.1,1.7C473.2,289.6,473.1,289.8,472.9,289.8C472.9,289.8,472.9,289.8,472.9,289.8z M481.9,289.7c-0.1,0-0.1,0-0.2,0
			c-0.8-0.5-1.3-0.9-1.6-1.1c-0.1-0.1-0.1-0.3,0-0.4c0.1-0.1,0.3-0.1,0.4,0c0.3,0.2,0.8,0.6,1.6,1.1c0.1,0.1,0.2,0.3,0.1,0.4
			C482.1,289.7,482,289.7,481.9,289.7z M594.2,288.6c0,0-0.1,0-0.1,0c-0.1-0.1-0.2-0.3-0.1-0.4c0.3-0.5,0.6-1.1,0.8-1.7
			c0.1-0.1,0.2-0.2,0.4-0.2c0.1,0.1,0.2,0.2,0.2,0.4c-0.2,0.6-0.5,1.2-0.9,1.8C594.4,288.5,594.3,288.6,594.2,288.6z M497.4,288.6
			c-0.1,0-0.1,0-0.2,0c-0.1-0.1-0.2-0.3-0.1-0.4c0.3-0.5,0.6-1.1,0.7-1.7c0-0.2,0.2-0.3,0.3-0.2c0.2,0,0.3,0.2,0.2,0.3
			c-0.1,0.6-0.4,1.3-0.8,1.9C497.5,288.5,497.5,288.6,497.4,288.6z M479,287.2c-0.1,0-0.2,0-0.2-0.1c-0.4-0.5-0.8-1-1.2-1.5
			c-0.1-0.1-0.1-0.3,0-0.4c0.1-0.1,0.3-0.1,0.4,0c0.4,0.5,0.8,1,1.2,1.5c0.1,0.1,0.1,0.3,0,0.4C479.1,287.2,479.1,287.2,479,287.2z
			 M472.9,285.9C472.9,285.9,472.9,285.9,472.9,285.9c-0.2,0-0.3-0.2-0.3-0.3c0.1-0.7,0.3-1.3,0.4-1.9c0-0.2,0.2-0.2,0.4-0.2
			s0.2,0.2,0.2,0.4c-0.2,0.6-0.3,1.2-0.4,1.8C473.2,285.8,473.1,285.9,472.9,285.9z M595.6,285C595.6,285,595.6,285,595.6,285
			c-0.2,0-0.3-0.2-0.3-0.4c0.1-0.6,0.2-1.2,0.3-1.9c0-0.2,0.2-0.3,0.3-0.3c0.2,0,0.3,0.2,0.3,0.3c-0.1,0.7-0.2,1.3-0.3,1.9
			C595.9,284.9,595.7,285,595.6,285z M498.2,284.9c-0.1,0-0.3-0.1-0.3-0.2c-0.1-0.6-0.3-1.2-0.6-1.7c-0.1-0.1,0-0.3,0.1-0.4
			c0.1-0.1,0.3,0,0.4,0.1c0.3,0.6,0.6,1.3,0.7,1.9C498.5,284.7,498.4,284.9,498.2,284.9C498.2,284.9,498.2,284.9,498.2,284.9z
			 M476.7,284.1c-0.1,0-0.2,0-0.2-0.1c-0.4-0.5-0.7-1.1-1.1-1.6c-0.1-0.1,0-0.3,0.1-0.4c0.1-0.1,0.3,0,0.4,0.1
			c0.3,0.5,0.7,1.1,1.1,1.6c0.1,0.1,0.1,0.3-0.1,0.4C476.8,284.1,476.7,284.1,476.7,284.1z M474.2,282.3c0,0-0.1,0-0.1,0
			c-0.1-0.1-0.2-0.3-0.1-0.4c0.2-0.3,0.4-0.7,0.7-1c-0.1,0-0.2,0-0.3-0.1c-0.3-0.6-0.6-1.1-0.9-1.7c-0.1-0.1,0-0.3,0.1-0.4
			c0.1-0.1,0.3,0,0.4,0.1c0.3,0.6,0.6,1.1,0.9,1.7c0,0,0,0.1,0,0.1c0.1-0.1,0.2-0.2,0.3-0.3c0.1-0.1,0.3-0.1,0.4,0s0.1,0.3,0,0.4
			c-0.4,0.4-0.8,0.9-1.1,1.5C474.4,282.3,474.3,282.3,474.2,282.3z M496.4,281.5c-0.1,0-0.2,0-0.2-0.1c-0.4-0.4-0.9-0.9-1.4-1.3
			c-0.1-0.1-0.1-0.3,0-0.4c0.1-0.1,0.3-0.1,0.4,0c0.5,0.4,1,0.9,1.5,1.3c0.1,0.1,0.1,0.3,0,0.4C496.6,281.5,496.5,281.5,496.4,281.5
			z M596,281.2c-0.2,0-0.3-0.1-0.3-0.3c0-0.6-0.1-1.3-0.1-1.9c0-0.2,0.1-0.3,0.3-0.3c0.2,0,0.3,0.1,0.3,0.3c0.1,0.6,0.1,1.3,0.2,1.9
			C596.3,281.1,596.2,281.2,596,281.2C596,281.2,596,281.2,596,281.2z M476.8,279.6c-0.1,0-0.2,0-0.2-0.1c-0.1-0.1,0-0.3,0.1-0.4
			c0.5-0.3,1.1-0.7,1.7-0.9c0.1-0.1,0.3,0,0.4,0.1c0.1,0.1,0,0.3-0.1,0.4c-0.6,0.3-1.2,0.6-1.6,0.9
			C476.9,279.5,476.9,279.6,476.8,279.6z M493.4,279.2c0,0-0.1,0-0.1,0c-0.5-0.3-1.1-0.6-1.7-0.8c-0.1-0.1-0.2-0.2-0.2-0.4
			c0.1-0.1,0.2-0.2,0.4-0.2c0.6,0.2,1.2,0.5,1.8,0.8c0.1,0.1,0.2,0.3,0.1,0.4C493.6,279.1,493.5,279.2,493.4,279.2z M480.3,278
			c-0.1,0-0.2-0.1-0.3-0.2c0-0.2,0-0.3,0.2-0.4c0.6-0.2,1.2-0.3,1.9-0.4c0.2,0,0.3,0.1,0.3,0.2c0,0.2-0.1,0.3-0.2,0.3
			C481.6,277.7,481,277.8,480.3,278C480.4,278,480.4,278,480.3,278z M489.8,277.8C489.8,277.8,489.8,277.8,489.8,277.8
			c-0.7-0.2-1.3-0.3-1.9-0.4c-0.2,0-0.3-0.2-0.2-0.3c0-0.2,0.2-0.3,0.3-0.2c0.6,0.1,1.3,0.2,1.9,0.4c0.2,0,0.2,0.2,0.2,0.3
			C490.1,277.7,490,277.8,489.8,277.8z M472.8,277.5c-0.1,0-0.2-0.1-0.3-0.2c-0.3-0.6-0.5-1.2-0.7-1.8c-0.1-0.1,0-0.3,0.2-0.4
			c0.1-0.1,0.3,0,0.4,0.2c0.2,0.6,0.4,1.2,0.7,1.8c0.1,0.1,0,0.3-0.1,0.4C472.9,277.5,472.9,277.5,472.8,277.5z M595.5,277.4
			c-0.1,0-0.2-0.1-0.3-0.2c-0.1-0.6-0.3-1.2-0.6-1.8c-0.1-0.1,0-0.3,0.2-0.4s0.3,0,0.4,0.2c0.2,0.6,0.4,1.2,0.6,1.9
			C595.8,277.2,595.7,277.3,595.5,277.4C595.5,277.4,595.5,277.4,595.5,277.4z M484.1,277.3c-0.2,0-0.3-0.1-0.3-0.3
			c0-0.1,0.1-0.3,0.3-0.3h0l0,0l0,0c0.6-0.1,1.1-0.1,1.7-0.1c0.1,0,0.2,0,0.2,0c0.2,0,0.3,0.1,0.3,0.3c0,0.2-0.1,0.3-0.3,0.3
			c0,0,0,0,0,0c-0.1,0-0.2,0-0.3,0C485.2,277.2,484.7,277.3,484.1,277.3L484.1,277.3z M547.4,274c-0.2,0-0.3-0.1-0.3-0.3
			c0-0.2,0.1-0.3,0.3-0.3c0.6,0,1.2-0.1,1.9-0.2c0.2,0,0.3,0.1,0.3,0.2c0,0.2-0.1,0.3-0.2,0.3C548.6,274,548,274,547.4,274
			L547.4,274z M471.5,273.8c-0.1,0-0.2-0.1-0.3-0.2c-0.2-0.6-0.3-1.3-0.5-1.9c0-0.2,0.1-0.3,0.2-0.3c0.2,0,0.3,0.1,0.3,0.2
			c0.1,0.6,0.3,1.2,0.4,1.9C471.9,273.6,471.8,273.8,471.5,273.8C471.6,273.8,471.6,273.8,471.5,273.8z M594.2,273.8
			c-0.1,0-0.2-0.1-0.3-0.2c-0.3-0.6-0.6-1.1-0.9-1.6c-0.1-0.1,0-0.3,0.1-0.4c0.1-0.1,0.3,0,0.4,0.1c0.3,0.5,0.7,1.1,1,1.7
			c0.1,0.1,0,0.3-0.1,0.4C594.3,273.8,594.2,273.8,594.2,273.8z M545.5,273.7C545.4,273.7,545.4,273.7,545.5,273.7
			c-0.7-0.2-1.2-0.6-1.6-1c0,0-0.1-0.1-0.1-0.1c-0.1-0.1-0.1-0.3,0-0.4c0.1-0.1,0.3-0.1,0.4,0c0,0,0.1,0.1,0.1,0.1
			c0.4,0.4,0.8,0.7,1.4,0.8c0.1,0.1,0.2,0.2,0.2,0.4C545.7,273.6,545.6,273.7,545.5,273.7z M551.1,273.3c-0.1,0-0.2-0.1-0.3-0.2
			c0-0.2,0-0.3,0.2-0.4c0.5-0.2,1.1-0.4,1.8-0.6c0.1-0.1,0.3,0,0.4,0.2c0.1,0.1,0,0.3-0.2,0.4C552.4,272.9,551.8,273.1,551.1,273.3
			C551.2,273.3,551.2,273.3,551.1,273.3z M554.7,272c-0.1,0-0.2-0.1-0.3-0.2c-0.1-0.1,0-0.3,0.2-0.4c0.6-0.3,1.3-0.5,1.8-0.7
			c0.1-0.1,0.3,0,0.4,0.2c0.1,0.1,0,0.3-0.2,0.4c-0.5,0.2-1.1,0.5-1.8,0.7C554.8,272,554.8,272,554.7,272z M542.7,271.2
			c-0.1,0-0.2-0.1-0.3-0.1c-0.3-0.6-0.5-1.2-0.7-1.9c0-0.2,0.1-0.3,0.2-0.3c0.2,0,0.3,0.1,0.3,0.2c0.1,0.6,0.3,1.2,0.6,1.7
			c0.1,0.1,0,0.3-0.1,0.4C542.8,271.1,542.8,271.2,542.7,271.2z M592.1,270.5c-0.1,0-0.2,0-0.2-0.1c-0.4-0.5-0.8-1-1.3-1.4
			c-0.1-0.1-0.1-0.3,0-0.4c0.1-0.1,0.3-0.1,0.4,0c0.5,0.5,0.9,0.9,1.3,1.5c0.1,0.1,0.1,0.3,0,0.4
			C592.3,270.5,592.2,270.5,592.1,270.5z M558.3,270.5c-0.1,0-0.2-0.1-0.3-0.2c-0.1-0.1,0-0.3,0.2-0.4c0.6-0.2,1.2-0.5,1.8-0.7
			c0.1-0.1,0.3,0,0.4,0.2s0,0.3-0.2,0.4c-0.6,0.2-1.2,0.5-1.8,0.7C558.4,270.5,558.3,270.5,558.3,270.5z M470.8,270.1
			c-0.1,0-0.3-0.1-0.3-0.3c-0.1-0.7-0.1-1.3-0.1-1.9c0-0.2,0.1-0.3,0.3-0.3l0,0c0.2,0,0.3,0.1,0.3,0.3c0,0.6,0,1.3,0.1,1.9
			C471.1,269.9,471,270,470.8,270.1C470.8,270.1,470.8,270.1,470.8,270.1z M561.9,269.1c-0.1,0-0.2-0.1-0.3-0.2
			c-0.1-0.1,0-0.3,0.2-0.4c0.6-0.2,1.2-0.5,1.8-0.7c0.1-0.1,0.3,0,0.4,0.2c0.1,0.1,0,0.3-0.2,0.4c-0.6,0.2-1.2,0.4-1.8,0.7
			C561.9,269.1,561.9,269.1,561.9,269.1z M589.4,267.8c-0.1,0-0.1,0-0.2-0.1c-0.5-0.4-1-0.7-1.6-1.1c-0.1-0.1-0.2-0.3-0.1-0.4
			c0.1-0.1,0.3-0.2,0.4-0.1c0.6,0.3,1.1,0.7,1.6,1.1c0.1,0.1,0.1,0.3,0,0.4C589.6,267.8,589.5,267.8,589.4,267.8z M565.5,267.7
			c-0.1,0-0.2-0.1-0.3-0.2c0-0.2,0-0.3,0.2-0.4c0.6-0.2,1.2-0.4,1.8-0.6c0.2,0,0.3,0,0.4,0.2c0,0.2,0,0.3-0.2,0.4
			C566.8,267.3,566.2,267.5,565.5,267.7C565.5,267.7,565.5,267.7,565.5,267.7z M542,267.4C542,267.4,542,267.4,542,267.4
			c-0.2,0-0.3-0.1-0.3-0.3c0-0.6,0.1-1.2,0.3-1.9c0-0.2,0.2-0.3,0.3-0.2c0.2,0,0.3,0.2,0.2,0.3c-0.1,0.7-0.2,1.3-0.3,1.9
			C542.3,267.3,542.1,267.4,542,267.4z M569.1,266.6c-0.1,0-0.2-0.1-0.3-0.2c0-0.2,0-0.3,0.2-0.4c0.6-0.2,1.3-0.3,1.9-0.5
			c0.2,0,0.3,0.1,0.3,0.2c0,0.2-0.1,0.3-0.2,0.3C570.5,266.2,569.8,266.4,569.1,266.6C569.2,266.6,569.2,266.6,569.1,266.6z
			 M470.8,266.2C470.8,266.2,470.8,266.2,470.8,266.2c-0.2,0-0.3-0.2-0.3-0.3c0.1-0.6,0.2-1.3,0.3-1.9c0-0.2,0.2-0.3,0.3-0.2
			c0.2,0,0.3,0.2,0.2,0.3c-0.1,0.6-0.2,1.2-0.3,1.9C471,266.1,470.9,266.2,470.8,266.2z M586.1,265.9c0,0-0.1,0-0.1,0
			c-0.6-0.2-1.2-0.5-1.8-0.6c-0.2,0-0.2-0.2-0.2-0.4c0-0.2,0.2-0.2,0.4-0.2c0.6,0.2,1.3,0.4,1.8,0.6c0.1,0.1,0.2,0.2,0.2,0.4
			C586.3,265.8,586.2,265.9,586.1,265.9z M572.9,265.6c-0.1,0-0.3-0.1-0.3-0.2c0-0.2,0.1-0.3,0.2-0.3c0.6-0.1,1.3-0.3,1.9-0.4
			c0.2,0,0.3,0.1,0.3,0.2c0,0.2-0.1,0.3-0.2,0.3C574.2,265.3,573.6,265.5,572.9,265.6C572.9,265.6,572.9,265.6,572.9,265.6z
			 M576.7,264.9c-0.1,0-0.3-0.1-0.3-0.2c0-0.2,0.1-0.3,0.2-0.3c0.1,0,0.3,0,0.4-0.1c0.5-0.1,1-0.1,1.5-0.2c0.2,0,0.3,0.1,0.3,0.3
			c0,0.2-0.1,0.3-0.3,0.3c-0.5,0-1,0.1-1.5,0.2C577,264.9,576.8,264.9,576.7,264.9C576.7,264.9,576.7,264.9,576.7,264.9z
			 M582.4,264.8C582.4,264.8,582.4,264.8,582.4,264.8c-0.7-0.1-1.3-0.2-1.9-0.2c-0.2,0-0.3-0.1-0.3-0.3c0-0.2,0.1-0.3,0.3-0.3
			c0.7,0,1.3,0.1,1.9,0.2c0.2,0,0.3,0.2,0.2,0.3C582.7,264.8,582.5,264.8,582.4,264.8z M542.7,263.6
			C542.7,263.6,542.6,263.6,542.7,263.6c-0.2,0-0.3-0.2-0.3-0.4c0.2-0.6,0.3-1.3,0.5-1.9c0-0.2,0.2-0.2,0.3-0.2
			c0.2,0,0.2,0.2,0.2,0.3c-0.2,0.6-0.3,1.2-0.5,1.9C542.9,263.6,542.8,263.6,542.7,263.6z M471.6,262.5
			C471.6,262.5,471.5,262.5,471.6,262.5c-0.3-0.1-0.3-0.2-0.3-0.4c0.2-0.6,0.5-1.2,0.8-1.8c0.1-0.1,0.2-0.2,0.4-0.1
			c0.1,0.1,0.2,0.2,0.1,0.4c-0.3,0.6-0.5,1.2-0.7,1.7C471.8,262.4,471.7,262.5,471.6,262.5z M543.6,259.9
			C543.6,259.9,543.6,259.9,543.6,259.9c-0.2,0-0.3-0.2-0.3-0.4c0.2-0.7,0.3-1.3,0.4-1.9c0-0.2,0.2-0.3,0.3-0.2
			c0.2,0,0.3,0.2,0.2,0.3c-0.1,0.6-0.3,1.2-0.5,1.9C543.9,259.8,543.8,259.9,543.6,259.9z M473.3,259c-0.1,0-0.1,0-0.2,0
			c-0.1-0.1-0.2-0.3-0.1-0.4c0.1-0.1,0.1-0.2,0.2-0.3c0.3-0.4,0.6-0.9,0.9-1.3c0.1-0.1,0.3-0.1,0.4,0c0.1,0.1,0.1,0.3,0,0.4
			c-0.3,0.4-0.6,0.8-0.9,1.2c-0.1,0.1-0.1,0.2-0.2,0.3C473.5,259,473.4,259,473.3,259z M544.5,256.2
			C544.5,256.2,544.4,256.2,544.5,256.2c-0.2,0-0.3-0.2-0.3-0.3c0.1-0.6,0.2-1.3,0.3-1.9c0-0.2,0.2-0.3,0.3-0.2
			c0.2,0,0.3,0.2,0.2,0.3c-0.1,0.6-0.2,1.3-0.3,1.9C544.7,256.1,544.6,256.2,544.5,256.2z M475.7,256c-0.1,0-0.2,0-0.2-0.1
			c-0.1-0.1-0.1-0.3,0-0.4c0.5-0.5,1-0.9,1.5-1.2c0.1-0.1,0.3,0,0.4,0.1c0.1,0.1,0,0.3-0.1,0.4c-0.5,0.3-1,0.7-1.5,1.2
			C475.8,256,475.8,256,475.7,256z M496,254.9L496,254.9c-0.6,0-1.3,0-1.9-0.1c-0.2,0-0.3-0.2-0.3-0.3c0-0.2,0.2-0.3,0.3-0.3
			c0.7,0.1,1.3,0.1,1.9,0.1c0.2,0,0.3,0.1,0.3,0.3C496.3,254.8,496.1,254.9,496,254.9z M497.9,254.8c-0.1,0-0.3-0.1-0.3-0.3
			c0-0.2,0.1-0.3,0.3-0.3c0.6-0.1,1.3-0.2,1.8-0.4c0.2,0,0.3,0,0.4,0.2c0,0.2,0,0.3-0.2,0.4C499.3,254.6,498.6,254.7,497.9,254.8
			C497.9,254.8,497.9,254.8,497.9,254.8z M492.2,254.5C492.1,254.5,492.1,254.5,492.2,254.5c-0.7-0.1-1.4-0.2-1.9-0.3
			c-0.2,0-0.3-0.2-0.2-0.3c0-0.2,0.2-0.3,0.3-0.2c0.5,0.1,1.2,0.2,1.9,0.3c0.2,0,0.3,0.2,0.2,0.3
			C492.4,254.4,492.3,254.5,492.2,254.5z M478.9,253.9c-0.1,0-0.2-0.1-0.3-0.2c-0.1-0.1,0-0.3,0.2-0.4c0.6-0.2,1.2-0.4,1.9-0.6
			c0.2,0,0.3,0.1,0.3,0.2c0,0.2-0.1,0.3-0.2,0.3c-0.6,0.1-1.2,0.3-1.8,0.5C479,253.9,478.9,253.9,478.9,253.9z M488.4,253.8
			C488.4,253.8,488.3,253.8,488.4,253.8c-0.8-0.2-1.4-0.3-1.9-0.3c-0.2,0-0.3-0.2-0.2-0.3c0-0.2,0.2-0.3,0.3-0.2
			c0.6,0.1,1.1,0.2,1.9,0.3c0.2,0,0.3,0.2,0.2,0.3C488.6,253.7,488.5,253.8,488.4,253.8z M501.6,253.7c-0.1,0-0.2-0.1-0.3-0.2
			c-0.1-0.1,0-0.3,0.1-0.4c0.5-0.3,1.1-0.6,1.6-1c0.1-0.1,0.3-0.1,0.4,0.1c0.1,0.1,0.1,0.3-0.1,0.4c-0.5,0.4-1.1,0.8-1.7,1.1
			C501.7,253.6,501.6,253.7,501.6,253.7z M484.6,253.3C484.6,253.3,484.6,253.3,484.6,253.3c-0.7-0.1-1.3-0.1-1.9-0.1
			c-0.2,0-0.3-0.1-0.3-0.3c0-0.2,0.1-0.3,0.3-0.3c0.6,0,1.3,0,2,0.1c0.2,0,0.3,0.2,0.3,0.3C484.8,253.1,484.7,253.3,484.6,253.3z
			 M545.1,252.4C545.1,252.4,545.1,252.4,545.1,252.4c-0.2,0-0.3-0.2-0.3-0.3c0.1-0.6,0.1-1.3,0.2-1.9c0-0.2,0.2-0.3,0.3-0.3
			c0.2,0,0.3,0.2,0.3,0.3c0,0.6-0.1,1.3-0.2,1.9C545.4,252.3,545.2,252.4,545.1,252.4z M504.6,251.4c-0.1,0-0.1,0-0.2-0.1
			c-0.1-0.1-0.1-0.3,0-0.4c0.4-0.4,0.8-0.9,1.2-1.4c0.1-0.1,0.3-0.1,0.4,0c0.1,0.1,0.1,0.3,0,0.4c-0.4,0.5-0.9,1-1.3,1.5
			C504.8,251.3,504.7,251.4,504.6,251.4z M545.3,248.5c-0.1,0-0.3-0.1-0.3-0.3c-0.1-0.6-0.2-1.2-0.4-1.8c-0.1-0.1,0-0.3,0.2-0.4
			c0.1-0.1,0.3,0,0.4,0.2c0.2,0.6,0.4,1.3,0.4,1.9C545.6,248.4,545.5,248.5,545.3,248.5C545.3,248.5,545.3,248.5,545.3,248.5z
			 M507.1,248.4c-0.1,0-0.1,0-0.2-0.1c-0.1-0.1-0.1-0.3,0-0.4c0.4-0.5,0.9-0.9,1.4-1.4c0.1-0.1,0.3-0.1,0.4,0s0.1,0.3,0,0.4
			c-0.5,0.4-0.9,0.9-1.3,1.3C507.3,248.4,507.2,248.4,507.1,248.4z M510,245.9c-0.1,0-0.2,0-0.2-0.1c-0.1-0.1-0.1-0.3,0.1-0.4
			c0.5-0.4,1-0.8,1.6-1.1c0.1-0.1,0.3,0,0.4,0.1c0.1,0.1,0,0.3-0.1,0.4c-0.5,0.3-1.1,0.7-1.6,1.1C510.1,245.8,510,245.9,510,245.9z
			 M544,245c-0.1,0-0.2,0-0.2-0.1c-0.4-0.5-0.8-0.9-1.3-1.3c-0.1-0.1-0.1-0.3,0-0.4s0.3-0.1,0.4,0c0.5,0.4,1,0.9,1.4,1.4
			c0.1,0.1,0.1,0.3-0.1,0.4C544.1,245,544,245,544,245z M513.2,243.8c-0.1,0-0.2-0.1-0.3-0.2c-0.1-0.1,0-0.3,0.1-0.4
			c0.6-0.3,1.1-0.6,1.7-0.9c0.1-0.1,0.3,0,0.4,0.1c0.1,0.1,0,0.3-0.1,0.4c-0.6,0.3-1.2,0.5-1.7,0.8
			C513.3,243.8,513.3,243.8,513.2,243.8z M541.1,242.5c0,0-0.1,0-0.1,0c-0.5-0.3-1.1-0.6-1.7-0.8c-0.1-0.1-0.2-0.2-0.2-0.4
			c0.1-0.1,0.2-0.2,0.4-0.2c0.6,0.3,1.2,0.6,1.8,0.9c0.1,0.1,0.2,0.3,0.1,0.4C541.3,242.5,541.2,242.5,541.1,242.5z M516.7,242.2
			c-0.1,0-0.2-0.1-0.3-0.2c-0.1-0.1,0-0.3,0.2-0.4c0.6-0.2,1.2-0.4,1.8-0.6c0.2,0,0.3,0,0.4,0.2c0,0.2,0,0.3-0.2,0.4
			c-0.6,0.2-1.2,0.4-1.8,0.6C516.8,242.2,516.8,242.2,516.7,242.2z M520.4,241.1c-0.1,0-0.2-0.1-0.3-0.2c0-0.2,0.1-0.3,0.2-0.3
			c0.6-0.2,1.3-0.3,1.9-0.4c0.2,0,0.3,0.1,0.3,0.2c0,0.2-0.1,0.3-0.2,0.3C521.7,240.8,521.1,240.9,520.4,241.1
			C520.5,241.1,520.4,241.1,520.4,241.1z M537.5,241C537.5,241,537.5,241,537.5,241c-0.7-0.2-1.3-0.3-1.9-0.5
			c-0.2,0-0.3-0.2-0.2-0.3c0-0.2,0.2-0.3,0.3-0.2c0.6,0.1,1.3,0.3,1.9,0.5c0.2,0,0.2,0.2,0.2,0.4C537.8,240.9,537.6,241,537.5,241z
			 M524.2,240.3c-0.1,0-0.3-0.1-0.3-0.2c0-0.2,0.1-0.3,0.2-0.3c0.6-0.1,1.3-0.2,1.9-0.2c0.2,0,0.3,0.1,0.3,0.3s-0.1,0.3-0.3,0.3
			C525.5,240.1,524.8,240.2,524.2,240.3C524.2,240.3,524.2,240.3,524.2,240.3z M533.8,240.2C533.8,240.2,533.7,240.2,533.8,240.2
			c-0.7-0.1-1.3-0.1-1.9-0.2c-0.2,0-0.3-0.1-0.3-0.3c0-0.2,0.1-0.3,0.3-0.3c0.7,0,1.3,0.1,1.9,0.2c0.2,0,0.3,0.2,0.2,0.3
			C534,240.1,533.9,240.2,533.8,240.2z M528,240c-0.2,0-0.3-0.1-0.3-0.3c0-0.2,0.1-0.3,0.3-0.3c0.6,0,1.3,0,1.9,0
			c0.2,0,0.3,0.1,0.3,0.3c0,0.2-0.1,0.3-0.3,0.3l0,0C529.3,239.9,528.7,239.9,528,240C528,240,528,240,528,240z"/>
	</g>
	<g>
		<path class="st35" d="M585.7,264.8c-0.1,0-0.2-0.1-0.3-0.2c-0.1-0.1,0-0.3,0.2-0.4c0,0,0.7-0.2,1.8-0.7c0.1-0.1,0.3,0,0.4,0.2
			c0.1,0.1,0,0.3-0.2,0.4C586.5,264.6,585.8,264.8,585.7,264.8C585.7,264.8,585.7,264.8,585.7,264.8z M589.2,263.4
			c-0.1,0-0.2-0.1-0.3-0.2c-0.1-0.1,0-0.3,0.1-0.4c0.6-0.3,1.2-0.5,1.7-0.8c0.1-0.1,0.3,0,0.4,0.1c0.1,0.1,0,0.3-0.1,0.4
			c-0.6,0.3-1.2,0.6-1.8,0.8C589.3,263.4,589.3,263.4,589.2,263.4z M592.7,261.7c-0.1,0-0.2-0.1-0.3-0.2c-0.1-0.1,0-0.3,0.1-0.4
			c0.6-0.3,1.1-0.6,1.7-0.9c0.1-0.1,0.3,0,0.4,0.1c0.1,0.1,0,0.3-0.1,0.4c-0.6,0.3-1.1,0.6-1.7,0.9
			C592.8,261.7,592.8,261.7,592.7,261.7z M596.1,259.8c-0.1,0-0.2,0-0.3-0.1c-0.1-0.1,0-0.3,0.1-0.4c0.6-0.3,1.1-0.7,1.6-1
			c0.1-0.1,0.3,0,0.4,0.1c0.1,0.1,0,0.3-0.1,0.4c-0.5,0.3-1.1,0.7-1.7,1C596.2,259.8,596.1,259.8,596.1,259.8z M599.4,257.8
			c-0.1,0-0.2,0-0.2-0.1c-0.1-0.1-0.1-0.3,0.1-0.4c0.5-0.4,1.1-0.7,1.6-1.1c0.1-0.1,0.3-0.1,0.4,0.1c0.1,0.1,0.1,0.3-0.1,0.4
			c-0.5,0.4-1,0.7-1.6,1.1C599.5,257.7,599.4,257.8,599.4,257.8z M602.5,255.5c-0.1,0-0.2,0-0.2-0.1c-0.1-0.1-0.1-0.3,0-0.4
			c0.5-0.4,1-0.8,1.5-1.2c0.1-0.1,0.3-0.1,0.4,0s0.1,0.3,0,0.4c-0.5,0.4-1,0.8-1.5,1.2C602.6,255.5,602.5,255.5,602.5,255.5z
			 M605.4,253c-0.1,0-0.2,0-0.2-0.1c-0.1-0.1-0.1-0.3,0-0.4c0.5-0.4,0.9-0.9,1.4-1.3c0.1-0.1,0.3-0.1,0.4,0c0.1,0.1,0.1,0.3,0,0.4
			c-0.4,0.5-0.9,0.9-1.4,1.3C605.6,253,605.5,253,605.4,253z M608.1,250.3c-0.1,0-0.1,0-0.2-0.1c-0.1-0.1-0.1-0.3,0-0.4
			c0.4-0.5,0.8-1,1.2-1.5c0.1-0.1,0.3-0.1,0.4,0c0.1,0.1,0.1,0.3,0,0.4c-0.4,0.5-0.8,1-1.2,1.5C608.3,250.2,608.2,250.3,608.1,250.3
			z M610.5,247.2c-0.1,0-0.1,0-0.2,0c-0.1-0.1-0.2-0.3-0.1-0.4c0.4-0.5,0.7-1.1,1-1.6c0.1-0.1,0.3-0.2,0.4-0.1
			c0.1,0.1,0.2,0.3,0.1,0.4c-0.3,0.6-0.7,1.1-1,1.6C610.6,247.2,610.6,247.2,610.5,247.2z M612.4,243.9c0,0-0.1,0-0.1,0
			c-0.1-0.1-0.2-0.2-0.1-0.4c0.3-0.6,0.5-1.2,0.7-1.7c0.1-0.1,0.2-0.2,0.4-0.2c0.1,0.1,0.2,0.2,0.2,0.4c-0.2,0.6-0.5,1.2-0.7,1.8
			C612.6,243.8,612.5,243.9,612.4,243.9z M613.7,240.3C613.7,240.3,613.6,240.3,613.7,240.3c-0.2,0-0.3-0.2-0.3-0.4
			c0.2-0.6,0.3-1.2,0.4-1.9c0-0.2,0.2-0.3,0.3-0.2c0.2,0,0.3,0.2,0.2,0.3c-0.1,0.6-0.2,1.3-0.4,1.9
			C613.9,240.2,613.8,240.3,613.7,240.3z M614.3,236.5C614.3,236.5,614.3,236.5,614.3,236.5c-0.2,0-0.3-0.1-0.3-0.3c0-0.3,0-0.7,0-1
			c0-0.3,0-0.6,0-0.9c0-0.2,0.1-0.3,0.3-0.3c0.2,0,0.3,0.1,0.3,0.3c0,0.3,0,0.6,0,0.9c0,0.4,0,0.7,0,1.1
			C614.6,236.4,614.4,236.5,614.3,236.5z M614.1,232.6c-0.1,0-0.3-0.1-0.3-0.3c-0.1-0.6-0.2-1.2-0.4-1.9c0-0.2,0.1-0.3,0.2-0.3
			c0.2,0,0.3,0.1,0.3,0.2c0.2,0.6,0.3,1.3,0.4,1.9C614.4,232.5,614.3,232.6,614.1,232.6C614.1,232.6,614.1,232.6,614.1,232.6z
			 M613.2,228.9c-0.1,0-0.2-0.1-0.3-0.2c-0.2-0.6-0.4-1.2-0.7-1.8c-0.1-0.1,0-0.3,0.2-0.4c0.1-0.1,0.3,0,0.4,0.2
			c0.3,0.6,0.5,1.2,0.7,1.8C613.5,228.7,613.5,228.8,613.2,228.9C613.3,228.9,613.3,228.9,613.2,228.9z M611.8,225.4
			c-0.1,0-0.2-0.1-0.3-0.2c-0.3-0.6-0.6-1.1-0.9-1.7c-0.1-0.1,0-0.3,0.1-0.4c0.1-0.1,0.3,0,0.4,0.1c0.3,0.6,0.6,1.1,0.9,1.7
			c0.1,0.1,0,0.3-0.1,0.4C611.9,225.3,611.8,225.4,611.8,225.4z M610,222c-0.1,0-0.2,0-0.3-0.1c-0.3-0.6-0.7-1.1-1-1.6
			c-0.1-0.1,0-0.3,0.1-0.4c0.1-0.1,0.3,0,0.4,0.1c0.3,0.5,0.7,1.1,1,1.7c0.1,0.1,0,0.3-0.1,0.4C610.1,221.9,610,222,610,222z
			 M607.9,218.7c-0.1,0-0.2,0-0.2-0.1c-0.4-0.5-0.7-1-1.1-1.5c-0.1-0.1-0.1-0.3,0.1-0.4c0.1-0.1,0.3-0.1,0.4,0.1
			c0.4,0.5,0.8,1,1.1,1.6c0.1,0.1,0.1,0.3-0.1,0.4C608,218.7,608,218.7,607.9,218.7z M583.2,218.4c-0.1,0-0.2,0-0.2,0
			c-0.2,0-0.3-0.1-0.3-0.3c0-0.2,0.1-0.3,0.3-0.3c0.5,0,1.2,0,1.8-0.2c0.2,0,0.3,0,0.3,0.2c0,0.2,0,0.3-0.2,0.3
			C584.3,218.3,583.7,218.4,583.2,218.4z M581.2,217.8c-0.1,0-0.1,0-0.2-0.1c-0.5-0.4-0.9-1-1.2-1.7c0-0.2,0-0.3,0.2-0.4
			c0.2,0,0.3,0,0.4,0.2c0.2,0.6,0.5,1.1,1,1.4c0.1,0.1,0.2,0.3,0.1,0.4C581.3,217.8,581.2,217.8,581.2,217.8z M586.7,217.5
			c-0.1,0-0.2-0.1-0.3-0.2c-0.1-0.1,0-0.3,0.1-0.4c0.5-0.3,1.1-0.6,1.7-0.9c0.1-0.1,0.3,0,0.4,0.1c0.1,0.1,0,0.3-0.1,0.4
			c-0.6,0.4-1.2,0.7-1.7,0.9C586.7,217.5,586.7,217.5,586.7,217.5z M605.6,215.6c-0.1,0-0.2,0-0.2-0.1c-0.4-0.5-0.8-1-1.3-1.4
			c-0.1-0.1-0.1-0.3,0-0.4c0.1-0.1,0.3-0.1,0.4,0c0.4,0.5,0.9,1,1.3,1.4c0.1,0.1,0.1,0.3,0,0.4C605.7,215.6,605.6,215.6,605.6,215.6
			z M589.9,215.5c-0.1,0-0.2,0-0.2-0.1c-0.1-0.1-0.1-0.3,0-0.4c0.5-0.4,1-0.8,1.4-1.3c0.1-0.1,0.3-0.1,0.4,0s0.1,0.3,0,0.4
			c-0.5,0.5-1,0.9-1.5,1.3C590,215.5,590,215.5,589.9,215.5z M579.8,214.4L579.8,214.4c-0.2,0-0.3-0.1-0.3-0.3c0-0.7,0.1-1.3,0.3-2
			c0-0.2,0.2-0.2,0.4-0.2c0.2,0,0.2,0.2,0.2,0.4c-0.2,0.6-0.3,1.2-0.3,1.8C580.1,214.2,580,214.4,579.8,214.4z M602.9,212.9
			c-0.1,0-0.1,0-0.2-0.1c-0.5-0.4-1-0.9-1.4-1.3c-0.1-0.1-0.1-0.3,0-0.4c0.1-0.1,0.3-0.1,0.4,0c0.5,0.4,1,0.8,1.5,1.3
			c0.1,0.1,0.1,0.3,0,0.4C603.1,212.8,603,212.9,602.9,212.9z M592.6,212.8c-0.1,0-0.1,0-0.2-0.1c-0.1-0.1-0.1-0.3,0-0.4
			c0.4-0.5,0.8-1,1.1-1.6c0.1-0.1,0.3-0.2,0.4-0.1c0.1,0.1,0.2,0.3,0.1,0.4c-0.3,0.5-0.7,1.1-1.1,1.6
			C592.8,212.7,592.7,212.8,592.6,212.8z M580.9,210.7c-0.1,0-0.1,0-0.2,0c-0.1-0.1-0.2-0.3-0.1-0.4c0.3-0.6,0.8-1.1,1.3-1.5
			c0.1-0.1,0.3-0.1,0.4,0c0.1,0.1,0.1,0.3,0,0.4c-0.5,0.4-0.9,0.9-1.2,1.4C581.1,210.7,581,210.7,580.9,210.7z M599.9,210.4
			c-0.1,0-0.1,0-0.2-0.1c-0.5-0.4-1.1-0.7-1.6-1c-0.1-0.1-0.2-0.3-0.1-0.4c0.1-0.1,0.3-0.2,0.4-0.1c0.5,0.3,1.1,0.7,1.6,1.1
			c0.1,0.1,0.2,0.3,0.1,0.4C600.1,210.4,600,210.4,599.9,210.4z M594.5,209.4C594.5,209.4,594.4,209.4,594.5,209.4
			c-0.2-0.1-0.3-0.2-0.3-0.4c0.2-0.6,0.3-1.2,0.3-1.8c0-0.2,0.1-0.3,0.3-0.3l0,0c0.2,0,0.3,0.1,0.3,0.3c0.6,0.2,1.1,0.4,1.7,0.7
			c0.1,0.1,0.2,0.2,0.1,0.4c-0.1,0.1-0.2,0.2-0.4,0.1c-0.5-0.2-1-0.4-1.4-0.6c0,0.5-0.1,0.9-0.3,1.4
			C594.7,209.3,594.6,209.4,594.5,209.4z M583.7,208.1c-0.1,0-0.2,0-0.3-0.1c-0.1-0.1,0-0.3,0.1-0.4c0.6-0.3,1.2-0.6,1.8-0.8
			c0.2,0,0.3,0,0.4,0.2c0,0.2,0,0.3-0.2,0.4c-0.6,0.2-1.2,0.5-1.7,0.8C583.8,208.1,583.7,208.1,583.7,208.1z M593,207.2
			C593,207.2,593,207.2,593,207.2c-0.7-0.2-1.3-0.3-1.9-0.3c-0.2,0-0.3-0.2-0.3-0.3c0-0.2,0.2-0.3,0.3-0.3c0.6,0.1,1.3,0.2,1.9,0.4
			c0.2,0,0.3,0.2,0.2,0.3C593.3,207.1,593.2,207.2,593,207.2z M587.3,206.9c-0.1,0-0.3-0.1-0.3-0.2c0-0.2,0.1-0.3,0.2-0.3
			c0.6-0.1,1.3-0.2,2-0.2l0,0c0.2,0,0.3,0.1,0.3,0.3c0,0.2-0.1,0.3-0.3,0.3C588.6,206.7,587.9,206.8,587.3,206.9
			C587.3,206.9,587.3,206.9,587.3,206.9z M594.5,205.6c-0.1,0-0.2-0.1-0.3-0.2c-0.1-0.3-0.3-0.6-0.5-0.9c-0.1-0.2-0.3-0.4-0.5-0.6
			c-0.1-0.1-0.1-0.3,0-0.4s0.3-0.1,0.4,0c0.2,0.2,0.3,0.4,0.5,0.7c0.2,0.3,0.4,0.7,0.6,1c0.1,0.1,0,0.3-0.2,0.4
			C594.5,205.6,594.5,205.6,594.5,205.6z M592.1,202.6c-0.1,0-0.1,0-0.2-0.1c-0.4-0.4-1-0.8-1.5-1.2c-0.1-0.1-0.2-0.3-0.1-0.4
			c0.1-0.1,0.3-0.2,0.4-0.1c0.6,0.4,1.1,0.8,1.5,1.2c0.1,0.1,0.1,0.3,0,0.4C592.3,202.6,592.2,202.6,592.1,202.6z M565.7,201.3
			c-0.1,0-0.2,0-0.2-0.1c-0.1-0.1-0.1-0.3,0-0.4c0.4-0.4,0.8-0.7,1.3-1c0.1-0.1,0.3-0.1,0.4,0.1c0.1,0.1,0.1,0.3-0.1,0.4
			c-0.4,0.3-0.8,0.6-1.2,1C565.8,201.2,565.8,201.3,565.7,201.3z M589,200.4c0,0-0.1,0-0.1,0c-0.5-0.3-1.1-0.6-1.7-0.8
			c-0.1-0.1-0.2-0.2-0.1-0.4c0.1-0.1,0.2-0.2,0.4-0.1c0.6,0.3,1.2,0.6,1.7,0.9c0.1,0.1,0.2,0.3,0.1,0.4
			C589.2,200.4,589.1,200.4,589,200.4z M568.6,199.3c-0.1,0-0.2-0.1-0.3-0.2c-0.1-0.1,0-0.3,0.1-0.4c0.6-0.3,1.2-0.6,1.8-0.8
			c0.1-0.1,0.3,0,0.4,0.2c0.1,0.1,0,0.3-0.2,0.4c-0.6,0.2-1.2,0.5-1.7,0.7C568.7,199.2,568.6,199.3,568.6,199.3z M585.5,198.8
			C585.4,198.8,585.4,198.8,585.5,198.8c-0.7-0.2-1.3-0.4-1.9-0.6c-0.2,0-0.2-0.2-0.2-0.3c0-0.2,0.2-0.2,0.3-0.2
			c0.6,0.2,1.3,0.4,1.9,0.6c0.2,0,0.2,0.2,0.2,0.4C585.7,198.8,585.6,198.8,585.5,198.8z M572.2,198c-0.1,0-0.3-0.1-0.3-0.2
			c0-0.2,0.1-0.3,0.2-0.3c0.6-0.1,1.3-0.3,1.9-0.4c0.2,0,0.3,0.1,0.3,0.2c0,0.2-0.1,0.3-0.2,0.3C573.5,197.7,572.8,197.8,572.2,198
			C572.2,198,572.2,198,572.2,198z M581.7,197.9C581.7,197.9,581.7,197.9,581.7,197.9c-0.7-0.1-1.3-0.2-1.9-0.3
			c-0.2,0-0.3-0.2-0.3-0.3c0-0.2,0.2-0.3,0.3-0.3c0.6,0.1,1.3,0.2,1.9,0.3c0.2,0,0.3,0.2,0.2,0.3C582,197.8,581.9,197.9,581.7,197.9
			z M576,197.4c-0.2,0-0.3-0.1-0.3-0.3c0-0.2,0.1-0.3,0.3-0.3c0.6,0,1.3,0,1.9,0c0.2,0,0.3,0.1,0.3,0.3c0,0.2-0.1,0.3-0.3,0.3
			C577.3,197.4,576.6,197.4,576,197.4C576,197.4,576,197.4,576,197.4z"/>
	</g>
	<g>
		<path class="st35" d="M658,279.2c-0.1,0-0.1,0-0.2-0.1c-0.1-0.1-0.2-0.3-0.1-0.4c0.4-0.5,0.7-1,1-1.6c0.1-0.1,0.3-0.2,0.4-0.1
			c0.1,0.1,0.2,0.3,0.1,0.4c-0.3,0.6-0.7,1.2-1,1.7C658.2,279.2,658.1,279.2,658,279.2z M659.8,275.8
			C659.8,275.8,659.7,275.8,659.8,275.8c-0.2-0.1-0.3-0.2-0.3-0.4c0.2-0.6,0.4-1.2,0.5-1.8c0-0.2,0.2-0.3,0.3-0.2
			c0.2,0,0.3,0.2,0.2,0.3c-0.1,0.6-0.3,1.3-0.6,1.9C660,275.7,659.9,275.8,659.8,275.8z M660.7,272.1
			C660.7,272.1,660.7,272.1,660.7,272.1c-0.2,0-0.3-0.2-0.3-0.3c0.1-0.6,0.1-1.2,0.1-1.8v-0.1c0-0.2,0.1-0.3,0.3-0.3l0,0
			c0.2,0,0.3,0.1,0.3,0.3v0.1c0,0.6,0,1.2-0.1,1.8C660.9,272,660.8,272.1,660.7,272.1z M660.6,268.2c-0.1,0-0.3-0.1-0.3-0.3
			c-0.1-0.6-0.2-1.2-0.3-1.9c0-0.2,0.1-0.3,0.2-0.3s0.3,0.1,0.3,0.2c0.1,0.6,0.3,1.3,0.3,1.9C660.9,268.1,660.8,268.2,660.6,268.2
			C660.7,268.2,660.7,268.2,660.6,268.2z M659.8,264.5c-0.1,0-0.2-0.1-0.3-0.2c-0.1-0.3-0.2-0.5-0.3-0.8c-0.1-0.3-0.3-0.7-0.4-1
			c-0.1-0.1,0-0.3,0.1-0.4c0.1-0.1,0.3,0,0.4,0.1c0.2,0.3,0.3,0.7,0.5,1c0.1,0.3,0.2,0.5,0.3,0.8
			C660.2,264.3,660.1,264.4,659.8,264.5C659.9,264.5,659.9,264.5,659.8,264.5z M658.1,261.1c-0.1,0-0.2,0-0.2-0.1
			c-0.4-0.5-0.8-0.9-1.3-1.4c-0.1-0.1-0.1-0.3,0-0.4s0.3-0.1,0.4,0c0.5,0.5,0.9,1,1.3,1.4c0.1,0.1,0.1,0.3,0,0.4
			C658.2,261.1,658.1,261.1,658.1,261.1z M643.8,260C643.8,260,643.8,260,643.8,260c-0.7,0-1.3,0-1.9-0.1c-0.2,0-0.3-0.2-0.3-0.3
			s0.2-0.3,0.3-0.3c0.6,0.1,1.3,0.1,1.9,0.1c0.2,0,0.3,0.1,0.3,0.3C644.1,259.9,644,260,643.8,260z M645.7,260
			c-0.2,0-0.3-0.1-0.3-0.3c0-0.2,0.1-0.3,0.3-0.3c0.6,0,1.3-0.1,1.9-0.2c0.2,0,0.3,0.1,0.3,0.3c0,0.2-0.1,0.3-0.3,0.3
			C647.1,259.9,646.4,259.9,645.7,260C645.8,260,645.7,260,645.7,260z M640,259.6C640,259.6,640,259.6,640,259.6
			c-0.7-0.1-1.4-0.3-2-0.5c-0.1-0.1-0.2-0.2-0.2-0.4c0.1-0.1,0.2-0.2,0.4-0.2c0.5,0.2,1.2,0.4,1.8,0.5c0.2,0,0.3,0.2,0.2,0.3
			C640.2,259.5,640.1,259.6,640,259.6z M649.6,259.5c-0.1,0-0.3-0.1-0.3-0.2c0-0.2,0.1-0.3,0.2-0.3c0.6-0.1,1.3-0.3,1.9-0.4
			c0.2,0,0.3,0,0.4,0.2c0,0.2,0,0.3-0.2,0.4C650.9,259.2,650.3,259.3,649.6,259.5C649.6,259.5,649.6,259.5,649.6,259.5z
			 M655.3,258.5c-0.1,0-0.1,0-0.2-0.1c-0.2-0.2-0.5-0.3-0.7-0.5c-0.3,0.2-0.7,0.3-1.1,0.5c-0.1,0.1-0.3,0-0.4-0.2s0-0.3,0.2-0.4
			c0.2-0.1,0.5-0.2,0.7-0.3c-0.1-0.1-0.2-0.1-0.3-0.2c-0.1-0.1-0.2-0.3-0.1-0.4c0.1-0.1,0.3-0.2,0.4-0.1c0.2,0.1,0.4,0.3,0.6,0.4
			c0.1-0.1,0.3-0.1,0.4-0.2c0.1-0.1,0.3,0,0.4,0.1c0.1,0.1,0,0.3-0.1,0.4c0,0-0.1,0-0.1,0.1c0.2,0.1,0.3,0.2,0.5,0.3
			c0.1,0.1,0.2,0.3,0.1,0.4C655.5,258.4,655.4,258.5,655.3,258.5z M636.4,258.3c-0.1,0-0.1,0-0.2-0.1c-0.5-0.4-1-0.8-1.2-1.3
			c0-0.1-0.1-0.2-0.1-0.3c-0.1-0.1,0-0.3,0.1-0.4s0.3,0,0.4,0.1c0,0.1,0.1,0.1,0.1,0.2c0.2,0.4,0.6,0.8,1,1.1
			c0.1,0.1,0.2,0.3,0.1,0.4C636.6,258.2,636.5,258.3,636.4,258.3z M652,256.5c0,0-0.1,0-0.1,0c-0.6-0.3-1.1-0.5-1.7-0.8
			c-0.1-0.1-0.2-0.2-0.2-0.4c0.1-0.1,0.2-0.2,0.4-0.2c0.6,0.2,1.2,0.5,1.8,0.8c0.1,0.1,0.2,0.2,0.1,0.4
			C652.2,256.5,652.1,256.5,652,256.5z M656.6,256.5c-0.1,0-0.2,0-0.2-0.1c-0.1-0.1-0.1-0.3,0-0.4c0.5-0.4,0.9-0.9,1.1-1.4
			c0.1-0.1,0.3-0.2,0.4-0.1c0.1,0.1,0.2,0.3,0.1,0.4c-0.3,0.6-0.7,1.1-1.3,1.6C656.7,256.5,656.6,256.5,656.6,256.5z M648.4,255.1
			C648.4,255.1,648.3,255.1,648.4,255.1c-0.7-0.2-1.3-0.4-1.9-0.5c-0.2,0-0.3-0.2-0.2-0.3c0-0.2,0.2-0.3,0.3-0.2
			c0.6,0.2,1.3,0.3,1.9,0.5c0.2,0,0.2,0.2,0.2,0.4C648.6,255,648.5,255.1,648.4,255.1z M635.3,255c-0.1,0-0.1,0-0.2-0.1
			c-0.1-0.1-0.1-0.3,0-0.4c0.4-0.4,1-0.8,1.8-1c0.2,0,0.3,0,0.4,0.2c0,0.2,0,0.3-0.2,0.4c-0.7,0.2-1.2,0.5-1.5,0.8
			C635.5,255,635.4,255,635.3,255z M644.7,254.2C644.6,254.2,644.6,254.2,644.7,254.2c-0.7-0.1-1.3-0.2-1.9-0.3
			c-0.2,0-0.3-0.2-0.3-0.3c0-0.2,0.2-0.3,0.3-0.3c0.6,0.1,1.3,0.2,1.9,0.3c0.2,0,0.3,0.2,0.2,0.3
			C644.9,254.1,644.8,254.2,644.7,254.2z M638.9,253.8c-0.1,0-0.3-0.1-0.3-0.3c0-0.2,0.1-0.3,0.3-0.3c0.6,0,1.3-0.1,2,0
			c0.2,0,0.3,0.1,0.3,0.3c0,0.2-0.1,0.3-0.3,0.3C640.1,253.7,639.5,253.7,638.9,253.8C638.9,253.8,638.9,253.8,638.9,253.8z
			 M658.2,253.1L658.2,253.1c-0.2,0-0.3-0.1-0.3-0.3v0c0-0.6-0.1-1.1-0.4-1.7c-0.1-0.1,0-0.3,0.2-0.4c0.1-0.1,0.3,0,0.4,0.2
			c0.3,0.7,0.4,1.3,0.4,1.9v0C658.5,253,658.4,253.1,658.2,253.1z M656.9,249.6c-0.1,0-0.2,0-0.2-0.1c-0.3-0.5-0.7-1-1.2-1.4
			c-0.1-0.1-0.1-0.3,0-0.4c0.1-0.1,0.3-0.1,0.4,0c0.5,0.5,0.9,1,1.3,1.5c0.1,0.1,0.1,0.3-0.1,0.4C657,249.6,657,249.6,656.9,249.6z
			 M654.2,246.9c-0.1,0-0.1,0-0.2-0.1c-0.5-0.4-1-0.7-1.5-1.1c-0.1-0.1-0.2-0.3-0.1-0.4c0.1-0.1,0.3-0.2,0.4-0.1
			c0.6,0.3,1.1,0.7,1.6,1.1c0.1,0.1,0.1,0.3,0,0.4C654.4,246.8,654.3,246.9,654.2,246.9z M651,244.8c0,0-0.1,0-0.1,0
			c-0.6-0.3-1.1-0.5-1.7-0.8c-0.1-0.1-0.2-0.2-0.2-0.4c0.1-0.1,0.2-0.2,0.4-0.2c0.6,0.2,1.2,0.5,1.8,0.8c0.1,0.1,0.2,0.2,0.1,0.4
			C651.2,244.8,651.1,244.8,651,244.8z M615,244.3c-0.1,0-0.2-0.1-0.3-0.2c0-0.2,0-0.3,0.2-0.3c0,0,0.7-0.2,1.9-0.4
			c0.2,0,0.3,0.1,0.3,0.2c0,0.2-0.1,0.3-0.2,0.3C615.8,244.1,615.1,244.3,615,244.3C615.1,244.3,615,244.3,615,244.3z M618.8,243.5
			c-0.1,0-0.3-0.1-0.3-0.2c0-0.2,0.1-0.3,0.2-0.3c0.6-0.1,1.3-0.2,1.9-0.3c0.2,0,0.3,0.1,0.3,0.2c0,0.2-0.1,0.3-0.2,0.3
			C620.1,243.2,619.5,243.3,618.8,243.5C618.8,243.5,618.8,243.5,618.8,243.5z M647.4,243.4C647.4,243.4,647.3,243.4,647.4,243.4
			c-0.7-0.2-1.3-0.4-1.9-0.5c-0.2,0-0.3-0.2-0.2-0.3c0-0.2,0.2-0.3,0.3-0.2c0.6,0.2,1.3,0.3,1.9,0.5c0.2,0,0.2,0.2,0.2,0.4
			C647.6,243.3,647.5,243.4,647.4,243.4z M622.6,242.8c-0.1,0-0.3-0.1-0.3-0.2c0-0.2,0.1-0.3,0.2-0.3c0.6-0.1,1.3-0.2,1.9-0.3
			c0.2,0,0.3,0.1,0.3,0.3c0,0.2-0.1,0.3-0.3,0.3C623.9,242.6,623.2,242.7,622.6,242.8C622.6,242.8,622.6,242.8,622.6,242.8z
			 M643.7,242.5C643.6,242.5,643.6,242.5,643.7,242.5c-0.7-0.1-1.3-0.2-1.9-0.3c-0.2,0-0.3-0.2-0.3-0.3c0-0.2,0.2-0.3,0.3-0.3
			c0.6,0.1,1.3,0.2,1.9,0.3c0.2,0,0.3,0.2,0.2,0.3C643.9,242.4,643.8,242.5,643.7,242.5z M626.4,242.3c-0.1,0-0.3-0.1-0.3-0.3
			c0-0.2,0.1-0.3,0.3-0.3c0.6-0.1,1.3-0.1,1.9-0.2c0.2,0,0.3,0.1,0.3,0.3c0,0.2-0.1,0.3-0.3,0.3
			C627.7,242.1,627.1,242.2,626.4,242.3C626.4,242.3,626.4,242.3,626.4,242.3z M639.8,242C639.8,242,639.8,242,639.8,242
			c-0.6-0.1-1.3-0.1-1.9-0.1c-0.2,0-0.3-0.1-0.3-0.3c0-0.2,0.1-0.3,0.3-0.3c0.6,0,1.3,0.1,1.9,0.1c0.2,0,0.3,0.2,0.3,0.3
			C640.1,241.9,640,242,639.8,242z M630.2,241.9c-0.2,0-0.3-0.1-0.3-0.3c0-0.2,0.1-0.3,0.3-0.3c0.6,0,1.3-0.1,1.9-0.1
			c0.2,0,0.3,0.1,0.3,0.3c0,0.2-0.1,0.3-0.3,0.3C631.5,241.9,630.9,241.9,630.2,241.9C630.2,241.9,630.2,241.9,630.2,241.9z
			 M636,241.8C636,241.8,636,241.8,636,241.8c-0.4,0-0.7,0-1.1,0c-0.3,0-0.6,0-0.8,0c-0.2,0-0.3-0.1-0.3-0.3c0-0.2,0.1-0.3,0.3-0.3
			c0.3,0,0.6,0,0.9,0c0.4,0,0.7,0,1.1,0c0.2,0,0.3,0.1,0.3,0.3C636.3,241.7,636.2,241.8,636,241.8z"/>
	</g>
	<g>
		<path class="st12" d="M627.2,305.3c-5.7,2.9-12.5-4-11.2,5.2c1.3,9.2-12,9.3-21.4,8.1c-9.4-1.2-8.3,10.2-17.8,11.5
			c-9.5,1.3-17.6-4.7-17.6-4.7l-5.3-20.9c-0.7-2.6,1.3-5.2,4.1-5.2h70.3C628.3,299.3,632.9,302.5,627.2,305.3z"/>
	</g>
	<g>
		<path class="st1" d="M564.3,306.2h2.6c1.5,0,2.7,0.9,3,2.2c0.3,1.5-0.7,2.2-2.1,2.2h-1.3l0.5,2.1h-1.2L564.3,306.2z M567.6,309.6
			c0.9,0,1.3-0.5,1.2-1.2c-0.2-0.8-0.8-1.2-1.7-1.2h-1.3l0.5,2.4H567.6z"/>
		<path class="st1" d="M570.6,306.2h1.2l1.2,5.5h3.5l0.2,1.1h-4.6L570.6,306.2z"/>
		<path class="st1" d="M578.7,306.1h1.1l4.4,6.6H583l-1-1.6h-3.1l-0.3,1.6h-1.2L578.7,306.1z M581.3,310.1l-1.7-2.6l-0.5,2.6H581.3z
			"/>
		<path class="st1" d="M585.6,310.2l-3.5-4h1.4l2.5,2.9l1.2-2.9h1.3l-1.7,4l0.6,2.6h-1.2L585.6,310.2z"/>
	</g>
	<g>
		<path class="st1" d="M590,312c0-0.5,0.4-0.9,0.9-0.9s0.9,0.4,0.9,0.9s-0.4,0.9-0.9,0.9C590.4,312.8,590,312.4,590,312z"/>
	</g>
	<g>
		<circle class="st1" cx="594.6" cy="312" r="0.9"/>
	</g>
	<g>
		<path class="st1" d="M597.5,312c0-0.5,0.4-0.9,0.9-0.9s0.9,0.4,0.9,0.9s-0.4,0.9-0.9,0.9C597.9,312.8,597.5,312.4,597.5,312z"/>
	</g>
</g>
</svg>
