<?xml version="1.0" encoding="utf-8"?>
<!-- Generator: Adobe Illustrator 24.2.0, SVG Export Plug-In . SVG Version: 6.00 Build 0)  -->
<svg version="1.1" xmlns="http://www.w3.org/2000/svg" xmlns:xlink="http://www.w3.org/1999/xlink" x="0px" y="0px"
	 viewBox="0 0 1250 750" style="enable-background:new 0 0 1250 750;" xml:space="preserve">
<style type="text/css">
	.st0{fill:#5A189A;}
	.st1{fill:#FFFFFF;}
	.st2{opacity:0.3;}
	.st3{fill:#979CA7;}
	.st4{fill-rule:evenodd;clip-rule:evenodd;fill:#5A6575;}
	.st5{fill-rule:evenodd;clip-rule:evenodd;fill:#385A80;}
	.st6{fill-rule:evenodd;clip-rule:evenodd;fill:#2B4461;}
	.st7{fill-rule:evenodd;clip-rule:evenodd;fill:#1C2C3F;}
	.st8{fill:#1C2C3F;}
	.st9{fill-rule:evenodd;clip-rule:evenodd;fill:#979CA7;}
	.st10{fill-rule:evenodd;clip-rule:evenodd;fill:#B6B9C0;}
	.st11{fill-rule:evenodd;clip-rule:evenodd;fill:#8C929E;}
	.st12{fill-rule:evenodd;clip-rule:evenodd;fill:#A5A9B2;}
	.st13{fill-rule:evenodd;clip-rule:evenodd;fill:#E0E0E0;}
	.st14{fill-rule:evenodd;clip-rule:evenodd;fill:#95353B;}
	.st15{fill-rule:evenodd;clip-rule:evenodd;fill:#C23838;}
	.st16{fill-rule:evenodd;clip-rule:evenodd;fill:#FF3C35;}
	.st17{fill-rule:evenodd;clip-rule:evenodd;fill:#23374E;}
	.st18{fill:#80ACB8;}
	.st19{fill:#658A97;}
	.st20{fill:#A5DBE5;}
	.st21{fill:#C23838;}
	.st22{fill:#95353B;}
	.st23{fill:#FF3C35;}
	.st24{fill-rule:evenodd;clip-rule:evenodd;fill:#A5DBE5;}
	.st25{fill:#5A6575;}
	.st26{fill-rule:evenodd;clip-rule:evenodd;fill:#4E5A6B;}
	.st27{fill-rule:evenodd;clip-rule:evenodd;fill:#5C7E8D;}
	.st28{fill-rule:evenodd;clip-rule:evenodd;fill:#6A8F9E;}
	.st29{fill-rule:evenodd;clip-rule:evenodd;fill:#759EAB;}
	.st30{fill-rule:evenodd;clip-rule:evenodd;fill:#4B6978;}
	.st31{fill-rule:evenodd;clip-rule:evenodd;fill:#364E5F;}
</style>
<g id="Bg">
	
		<rect id="XMLID_485_" x="-1.03" y="1.45" transform="matrix(-1 -1.224647e-16 1.224647e-16 -1 1249.9167 751.445)" class="st0" width="1251.98" height="748.55"/>
</g>
<g id="Object">
	<g id="XMLID_479_">
		<g id="XMLID_41_">
			<path class="st1" d="M1249.08,460.33l0.87-1.21c-0.81-0.58-1.63-1.16-2.45-1.74l-0.86,1.23
				C1247.47,459.18,1248.28,459.75,1249.08,460.33z"/>
		</g>
		<g id="XMLID_40_">
			<path class="st1" d="M1011.32,743.83l1.04-1.07c-1.42-1.38-2.84-2.81-4.22-4.24l-1.08,1.04
				C1008.45,741,1009.89,742.43,1011.32,743.83z M1002.95,735.15l1.11-1c-1.33-1.47-2.66-2.98-3.94-4.5l-1.14,0.97
				C1000.27,732.14,1001.6,733.67,1002.95,735.15z M995.14,725.96l1.17-0.93c-1.23-1.55-2.46-3.14-3.65-4.74l-1.2,0.89
				C992.67,722.79,993.9,724.4,995.14,725.96z M987.95,716.28l1.23-0.85c-1.13-1.63-2.25-3.3-3.33-4.97l-1.26,0.81
				C985.68,712.94,986.81,714.63,987.95,716.28z M981.4,706.15l1.28-0.77c-1.02-1.69-2.03-3.44-3-5.18l-1.31,0.73
				C979.35,702.68,980.37,704.44,981.4,706.15z M975.51,695.62l1.33-0.69c-0.91-1.76-1.81-3.56-2.66-5.36l-1.35,0.64
				C973.69,692.02,974.59,693.84,975.51,695.62z M970.32,684.73l1.37-0.6c-0.8-1.82-1.57-3.68-2.31-5.52l-1.39,0.55
				C968.74,681.02,969.52,682.89,970.32,684.73z M965.85,673.52l1.41-0.51c-0.68-1.87-1.33-3.77-1.94-5.66l-1.42,0.46
				C964.51,669.71,965.17,671.63,965.85,673.52z M962.12,662.04l1.44-0.42c-0.55-1.9-1.08-3.85-1.57-5.78l-1.45,0.37
				C961.04,658.16,961.57,660.12,962.12,662.04z M959.15,650.34l1.46-0.32c-0.43-1.94-0.83-3.91-1.19-5.87l-1.47,0.27
				C958.32,646.39,958.72,648.38,959.15,650.34z M956.95,638.47l1.48-0.22c-0.3-1.96-0.57-3.96-0.8-5.94l-1.49,0.18
				C956.38,634.47,956.65,636.49,956.95,638.47z M955.52,626.47l1.49-0.13c-0.17-1.98-0.31-3.98-0.42-5.97l-1.49,0.08
				C955.21,622.46,955.35,624.48,955.52,626.47z M954.87,614.43l1.5-0.03c-0.03-1.38-0.05-2.78-0.05-4.15c0-0.61,0-1.22,0.01-1.83
				l-1.5-0.01c-0.01,0.61-0.01,1.23-0.01,1.85C954.83,611.64,954.84,613.04,954.87,614.43z M956.48,602.45
				c0.08-1.98,0.2-3.99,0.34-5.97l-1.49-0.11c-0.15,1.99-0.26,4.02-0.35,6.02L956.48,602.45z M957.36,590.52
				c0.21-1.98,0.46-3.98,0.73-5.94l-1.48-0.21c-0.27,1.97-0.52,3.99-0.73,5.98L957.36,590.52z M959.01,578.68
				c0.34-1.95,0.71-3.93,1.11-5.88l-1.46-0.3c-0.4,1.96-0.78,3.96-1.12,5.92L959.01,578.68z M961.42,566.97
				c0.46-1.93,0.97-3.88,1.49-5.79l-1.44-0.4c-0.53,1.93-1.04,3.89-1.5,5.84L961.42,566.97z M964.59,555.44
				c0.58-1.88,1.21-3.8,1.87-5.68l-1.41-0.49c-0.66,1.9-1.29,3.83-1.88,5.73L964.59,555.44z M968.51,544.14
				c0.71-1.85,1.46-3.71,2.23-5.53l-1.38-0.58c-0.77,1.83-1.53,3.71-2.24,5.57L968.51,544.14z M973.14,533.16
				c0.83-1.8,1.7-3.61,2.58-5.38l-1.34-0.67c-0.89,1.78-1.77,3.61-2.6,5.42L973.14,533.16z M978.47,522.49
				c0.94-1.74,1.93-3.49,2.93-5.2l-1.29-0.75c-1.01,1.72-2,3.49-2.95,5.24L978.47,522.49z M984.49,512.18
				c1.05-1.68,2.15-3.36,3.26-5.01l-1.24-0.84c-1.12,1.66-2.22,3.35-3.28,5.05L984.49,512.18z M991.17,502.27
				c1.16-1.61,2.36-3.22,3.58-4.79l-1.18-0.91c-1.22,1.58-2.43,3.21-3.6,4.83L991.17,502.27z M998.47,492.82
				c1.26-1.53,2.57-3.06,3.88-4.55l-1.12-0.99c-1.32,1.5-2.64,3.04-3.91,4.59L998.47,492.82z M1006.37,483.84
				c1.35-1.44,2.75-2.89,4.16-4.29l-1.06-1.06c-1.42,1.42-2.83,2.87-4.2,4.33L1006.37,483.84z M1014.84,475.39
				c1.45-1.35,2.94-2.7,4.43-4.02l-0.99-1.12c-1.51,1.32-3.01,2.69-4.47,4.05L1014.84,475.39z M1023.83,467.5
				c1.54-1.26,3.11-2.52,4.68-3.73l-0.91-1.19c-1.58,1.22-3.17,2.48-4.72,3.76L1023.83,467.5z M1033.32,460.21
				c1.61-1.16,3.27-2.31,4.92-3.42l-0.83-1.24c-1.66,1.12-3.33,2.28-4.96,3.44L1033.32,460.21z M1241.69,455.27l0.82-1.25
				c-1.68-1.09-3.4-2.17-5.11-3.2l-0.77,1.28C1238.32,453.12,1240.03,454.19,1241.69,455.27z M1043.26,453.53
				c1.68-1.05,3.41-2.09,5.13-3.09l-0.75-1.29c-1.74,1.01-3.48,2.06-5.17,3.12L1043.26,453.53z M1231.45,449.08l0.73-1.3
				c-1.75-0.98-3.53-1.94-5.31-2.87l-0.69,1.33C1227.95,447.15,1229.72,448.11,1231.45,449.08z M1053.62,447.51
				c1.75-0.94,3.54-1.87,5.32-2.75l-0.67-1.34c-1.8,0.89-3.6,1.83-5.37,2.78L1053.62,447.51z M1220.84,443.57l0.65-1.35
				c-1.81-0.87-3.65-1.71-5.48-2.52l-0.6,1.37C1217.22,441.87,1219.04,442.71,1220.84,443.57z M1064.35,442.18
				c1.81-0.83,3.66-1.64,5.49-2.4l-0.58-1.38c-1.85,0.77-3.71,1.59-5.54,2.42L1064.35,442.18z M1209.89,438.75l0.56-1.39
				c-1.86-0.75-3.76-1.47-5.63-2.15l-0.51,1.41C1206.16,437.29,1208.04,438.01,1209.89,438.75z M1075.41,437.55
				c1.86-0.71,3.76-1.39,5.64-2.04l-0.49-1.41c-1.9,0.65-3.81,1.34-5.69,2.06L1075.41,437.55z M1198.64,434.66l0.47-1.42
				c-1.9-0.62-3.83-1.22-5.76-1.78l-0.42,1.44C1194.84,433.45,1196.76,434.05,1198.64,434.66z M1086.76,433.66
				c1.9-0.58,3.83-1.14,5.75-1.66l-0.39-1.44c-1.93,0.52-3.88,1.09-5.79,1.68L1086.76,433.66z M1187.16,431.32l0.37-1.45
				c-1.94-0.5-3.91-0.97-5.86-1.4l-0.32,1.46C1183.28,430.36,1185.24,430.83,1187.16,431.32z M1098.31,430.52
				c1.94-0.46,3.9-0.89,5.84-1.28l-0.3-1.47c-1.96,0.4-3.94,0.83-5.89,1.3L1098.31,430.52z M1175.48,428.73l0.28-1.47
				c-1.97-0.37-3.97-0.71-5.94-1.02l-0.23,1.48C1171.55,428.02,1173.53,428.36,1175.48,428.73z M1110.03,428.14
				c1.96-0.33,3.95-0.63,5.91-0.9l-0.2-1.48c-1.98,0.27-3.99,0.58-5.96,0.91L1110.03,428.14z M1163.66,426.9l0.18-1.48
				c-1.99-0.24-4-0.45-6-0.63l-0.13,1.49C1159.69,426.45,1161.69,426.66,1163.66,426.9z M1121.88,426.53
				c1.97-0.2,3.97-0.38,5.96-0.52l-0.11-1.49c-2,0.14-4.02,0.32-6.01,0.52L1121.88,426.53z M1151.75,425.84l0.08-1.49
				c-1.99-0.11-4.02-0.2-6.02-0.25l-0.04,1.49C1147.76,425.64,1149.78,425.73,1151.75,425.84z M1133.81,425.68
				c1.98-0.08,4-0.12,5.98-0.14l-0.01-1.5c-2,0.01-4.03,0.06-6.03,0.14L1133.81,425.68z"/>
		</g>
		<g id="XMLID_39_">
			<path class="st1" d="M1017.99,750l0.99-1.12c-0.75-0.66-1.48-1.32-2.22-1.99l-1.01,1.11
				C1016.5,748.67,1017.24,749.34,1017.99,750z"/>
		</g>
	</g>
	<g id="XMLID_478_">
		
			<rect x="64.09" y="657.78" transform="matrix(-1 -1.224647e-16 1.224647e-16 -1 174.0674 1323.0436)" class="st1" width="45.88" height="7.48"/>
	</g>
	<g id="XMLID_477_">
		
			<rect x="64.1" y="657.78" transform="matrix(-1.836970e-16 1 -1 -1.836970e-16 748.5554 574.4882)" class="st1" width="45.86" height="7.48"/>
	</g>
	<g id="XMLID_466_">
		<path class="st1" d="M855.35,253.85c1.16,0,2.33-0.02,3.49-0.06l-0.05-1.49c-1.97,0.06-3.97,0.07-5.94,0.03l-0.03,1.49
			C853.66,253.84,854.5,253.85,855.35,253.85z M846.8,253.52l0.12-1.49c-1.97-0.15-3.95-0.36-5.91-0.62l-0.2,1.48
			C842.79,253.16,844.81,253.37,846.8,253.52z M864.85,253.45c1.99-0.17,4.01-0.4,5.98-0.68l-0.21-1.48
			c-1.95,0.28-3.94,0.5-5.9,0.67L864.85,253.45z M834.86,251.93l0.28-1.47c-1.94-0.37-3.89-0.8-5.8-1.27l-0.36,1.45
			C830.92,251.13,832.9,251.56,834.86,251.93z M876.77,251.75c1.96-0.39,3.93-0.84,5.87-1.34l-0.37-1.45
			c-1.91,0.49-3.86,0.94-5.79,1.32L876.77,251.75z M823.18,249.03l0.44-1.43c-1.88-0.58-3.78-1.22-5.63-1.91l-0.52,1.4
			C819.35,247.79,821.27,248.44,823.18,249.03z M888.43,248.74c1.91-0.61,3.83-1.28,5.7-1.99l-0.53-1.4
			c-1.85,0.7-3.74,1.36-5.62,1.96L888.43,248.74z M811.9,244.85l0.6-1.37c-1.8-0.78-3.61-1.63-5.37-2.52l-0.67,1.34
			C808.24,243.2,810.07,244.06,811.9,244.85z M899.71,244.45c1.83-0.81,3.66-1.69,5.44-2.61l-0.68-1.33
			c-1.76,0.9-3.56,1.77-5.36,2.57L899.71,244.45z M801.15,239.45l0.75-1.3c-1.71-0.98-3.41-2.02-5.06-3.1l-0.82,1.25
			C797.7,237.4,799.42,238.46,801.15,239.45z M910.43,238.94c1.73-1.01,3.45-2.09,5.11-3.19l-0.83-1.25
			c-1.64,1.09-3.34,2.15-5.04,3.15L910.43,238.94z M791.07,232.89l0.88-1.21c-1.59-1.16-3.17-2.39-4.69-3.64l-0.95,1.16
			C787.85,230.48,789.46,231.72,791.07,232.89z M920.47,232.27c1.6-1.19,3.19-2.45,4.73-3.73l-0.96-1.15
			c-1.52,1.27-3.08,2.51-4.66,3.68L920.47,232.27z M781.76,225.27l1.01-1.1c-1.45-1.33-2.89-2.72-4.27-4.13l-1.07,1.05
			C778.83,222.51,780.28,223.92,781.76,225.27z M929.71,224.55c1.46-1.37,2.91-2.79,4.29-4.23l-1.08-1.04
			c-1.36,1.42-2.79,2.82-4.23,4.17L929.71,224.55z M773.34,216.66l1.13-0.99c-1.3-1.48-2.57-3.02-3.79-4.58l-1.18,0.92
			C770.73,213.6,772.02,215.16,773.34,216.66z M938.05,215.87c1.3-1.52,2.58-3.09,3.8-4.67l-1.19-0.91
			c-1.2,1.56-2.46,3.11-3.74,4.61L938.05,215.87z M765.91,207.18l1.23-0.86c-1.13-1.62-2.23-3.29-3.27-4.97l-1.27,0.79
			C763.65,203.84,764.76,205.54,765.91,207.18z M945.38,206.32c1.13-1.65,2.23-3.35,3.26-5.06l-1.28-0.77
			c-1.02,1.68-2.1,3.36-3.21,4.99L945.38,206.32z M759.57,196.93l1.31-0.72c-0.94-1.74-1.85-3.52-2.7-5.3l-1.35,0.64
			C757.69,193.36,758.61,195.17,759.57,196.93z M951.61,196.04c0.94-1.77,1.84-3.58,2.68-5.38l-1.36-0.63
			c-0.82,1.78-1.71,3.57-2.64,5.31L951.61,196.04z M754.4,186.04l1.39-0.57c-0.75-1.83-1.45-3.7-2.09-5.57l-1.41,0.49
			C752.93,182.28,753.64,184.18,754.4,186.04z M956.66,185.13c0.74-1.86,1.43-3.76,2.07-5.65l-1.42-0.47
			c-0.62,1.87-1.31,3.74-2.04,5.58L956.66,185.13z M750.48,174.65l1.44-0.41c-0.54-1.9-1.03-3.83-1.46-5.76l-1.46,0.33
			C749.43,170.76,749.93,172.72,750.48,174.65z M960.48,173.71c0.53-1.92,1.01-3.89,1.43-5.85l-1.46-0.31
			c-0.41,1.93-0.89,3.87-1.41,5.77L960.48,173.71z M747.85,162.9l1.48-0.25c-0.32-1.94-0.6-3.92-0.81-5.88l-1.49,0.16
			C747.24,158.92,747.52,160.93,747.85,162.9z M963,161.94c0.31-1.97,0.57-3.98,0.77-5.97l-1.49-0.15c-0.2,1.96-0.45,3.94-0.76,5.89
			L963,161.94z M746.53,150.94l1.49-0.08c-0.11-1.96-0.16-3.96-0.16-5.94h-1.5C746.37,146.92,746.42,148.94,746.53,150.94z
			 M964.21,149.97c0.08-1.67,0.12-3.37,0.12-5.05c0-0.32,0-0.65,0-0.97l-1.5,0.01c0,0.32,0,0.64,0,0.96c0,1.66-0.04,3.33-0.11,4.98
			L964.21,149.97z M747.94,140.88c0.07-1.97,0.2-3.96,0.38-5.93l-1.49-0.14c-0.18,1.99-0.31,4.01-0.39,6.01L747.94,140.88z
			 M962.61,138.03l1.49-0.09c-0.13-1.99-0.31-4.01-0.55-6l-1.49,0.18C962.31,134.07,962.49,136.06,962.61,138.03z M749.03,129.06
			c0.29-1.95,0.64-3.92,1.03-5.85l-1.47-0.3c-0.4,1.95-0.75,3.95-1.05,5.93L749.03,129.06z M961.21,126.24l1.47-0.26
			c-0.34-1.97-0.75-3.95-1.2-5.9l-1.46,0.34C960.47,122.34,960.87,124.3,961.21,126.24z M751.41,117.43c0.5-1.91,1.07-3.83,1.67-5.7
			l-1.42-0.46c-0.62,1.9-1.19,3.84-1.7,5.78L751.41,117.43z M958.52,114.68l1.44-0.42c-0.56-1.92-1.19-3.85-1.85-5.73l-1.41,0.5
			C957.35,110.88,957.96,112.78,958.52,114.68z M755.08,106.14c0.71-1.83,1.48-3.67,2.29-5.47l-1.36-0.62
			c-0.82,1.82-1.61,3.68-2.33,5.54L755.08,106.14z M954.55,103.48l1.38-0.58c-0.77-1.84-1.61-3.69-2.48-5.5l-1.35,0.65
			C952.96,99.84,953.78,101.66,954.55,103.48z M759.96,95.34c0.91-1.75,1.88-3.49,2.89-5.18l-1.29-0.76c-1.02,1.71-2,3.48-2.93,5.25
			L759.96,95.34z M949.35,92.78l1.31-0.73c-0.97-1.75-2.01-3.49-3.07-5.18l-1.27,0.8C947.37,89.34,948.39,91.06,949.35,92.78z
			 M766.02,85.14c1.1-1.64,2.26-3.26,3.44-4.84l-1.2-0.9c-1.2,1.59-2.38,3.24-3.49,4.9L766.02,85.14z M943.01,82.73l1.22-0.87
			c-1.16-1.63-2.38-3.25-3.63-4.81l-1.17,0.93C940.66,79.53,941.87,81.13,943.01,82.73z M773.17,75.67c1.27-1.51,2.6-3,3.95-4.43
			l-1.09-1.03c-1.37,1.45-2.72,2.96-4.01,4.49L773.17,75.67z M935.6,73.45l1.12-1c-1.33-1.49-2.72-2.97-4.13-4.38l-1.06,1.05
			C932.92,70.52,934.29,71.97,935.6,73.45z M781.31,67.03c1.43-1.36,2.92-2.69,4.42-3.97l-0.97-1.14c-1.52,1.3-3.03,2.65-4.48,4.03
			L781.31,67.03z M927.22,65.03l1-1.11c-1.48-1.34-3.03-2.65-4.58-3.9l-0.94,1.16C924.24,62.42,925.76,63.71,927.22,65.03z
			 M790.36,59.33c1.57-1.19,3.2-2.36,4.83-3.46l-0.84-1.24c-1.66,1.12-3.3,2.3-4.9,3.51L790.36,59.33z M917.97,57.59l0.87-1.21
			c-1.62-1.16-3.3-2.3-4.98-3.37l-0.8,1.26C914.72,55.32,916.37,56.44,917.97,57.59z M800.21,52.67c1.7-1.02,3.44-2,5.19-2.91
			l-0.7-1.32c-1.77,0.93-3.54,1.92-5.26,2.95L800.21,52.67z M907.97,51.21l0.73-1.3c-1.74-0.98-3.53-1.92-5.32-2.8l-0.66,1.34
			C904.48,49.32,906.25,50.25,907.97,51.21z M810.73,47.14c1.8-0.82,3.64-1.6,5.48-2.32l-0.54-1.39c-1.86,0.73-3.73,1.52-5.56,2.35
			L810.73,47.14z M897.33,45.98l0.58-1.38c-1.84-0.78-3.72-1.52-5.6-2.19l-0.51,1.41C893.66,44.48,895.52,45.21,897.33,45.98z
			 M821.81,42.81c1.87-0.61,3.79-1.18,5.69-1.69l-0.39-1.44c-1.93,0.52-3.87,1.09-5.77,1.72L821.81,42.81z M886.17,41.96l0.43-1.43
			c-1.92-0.57-3.87-1.1-5.82-1.56l-0.35,1.45C882.35,40.88,884.28,41.39,886.17,41.96z M833.28,39.74c1.93-0.4,3.9-0.76,5.85-1.05
			l-0.22-1.48c-1.98,0.3-3.97,0.66-5.93,1.07L833.28,39.74z M874.62,39.2l0.27-1.47c-1.97-0.36-3.97-0.66-5.95-0.91l-0.18,1.48
			C870.7,38.55,872.67,38.85,874.62,39.2z M845.03,37.97c1.96-0.19,3.95-0.32,5.93-0.4l-0.06-1.49c-2,0.08-4.02,0.22-6.01,0.41
			L845.03,37.97z M862.83,37.73l0.1-1.49c-1.99-0.14-4.01-0.22-6.02-0.25l-0.02,1.5C858.87,37.52,860.87,37.6,862.83,37.73z"/>
	</g>
	<path class="st1" d="M624.74,645.44c0.41,0,0.75,0.33,0.75,0.75v38.14c0,0.41-0.34,0.75-0.75,0.75c-0.41,0-0.75-0.33-0.75-0.75
		v-38.14C623.99,645.78,624.33,645.44,624.74,645.44z"/>
	<g>
		<g id="XMLID_464_">
			
				<rect x="181.94" y="455.9" transform="matrix(-1 -1.224647e-16 1.224647e-16 -1 715.9576 923.7612)" class="st1" width="352.09" height="11.96"/>
		</g>
		<g id="XMLID_463_">
			
				<rect x="234.42" y="486.56" transform="matrix(-1 -1.224647e-16 1.224647e-16 -1 768.4427 985.0775)" class="st1" width="299.6" height="11.96"/>
		</g>
		<g id="XMLID_462_">
			
				<rect x="384.22" y="517.21" transform="matrix(-1 -1.224647e-16 1.224647e-16 -1 918.244 1046.3939)" class="st1" width="149.8" height="11.96"/>
		</g>
	</g>
	<g id="XMLID_440_" class="st2">
		<path class="st1" d="M285.19,1.2c29.84,49.8,46.99,108.07,46.99,170.34c0,183.38-148.72,332.04-332.17,332.04V1.2L285.19,1.2z"/>
	</g>
	<g>
		<g>
			<path class="st3" d="M865.17,376.8l-33.59-19.38c-3.47-2.34-7.35-5.65-7.35-10.99c0-4.13,2.52-7.93,7.29-11.01l112.34-64.85
				c4.48-2.4,7.24-6.97,7.24-11.97c0-5-2.76-9.57-7.2-11.95l-51.03-29.43c-10.4-7.72-22-7.73-31.95-0.1l-41.17,23.78l-1.38-2.38
				l41.02-23.68c10.86-8.33,23.67-8.34,34.99,0.09l50.86,29.32c5.3,2.83,8.62,8.34,8.62,14.35c0,6.01-3.32,11.52-8.66,14.38
				l-112.24,64.79c-2.69,1.74-5.97,4.69-5.97,8.66c0,3.2,1.81,5.79,6.06,8.66l33.51,19.33L865.17,376.8z"/>
		</g>
		<g>
			<path class="st4" d="M804.79,450.16l23.62,13.22c1.38-0.88,1.98-2.04,1.87-3.19l0,0l0.06-2.64l-1.32,0.17
				c-0.44-0.44-0.99-0.88-1.65-1.27L804.79,450.16z"/>
		</g>
		<g>
			<polygon class="st5" points="658.92,463.98 678.08,470.54 700.38,453.14 681.27,442.07 658.92,455.01 			"/>
		</g>
		<g>
			<polygon class="st6" points="658.92,463.98 678.08,475.05 682.26,471.03 684.85,469.93 658.92,455.01 			"/>
		</g>
		<g>
			<polygon class="st7" points="678.08,475.05 700.38,462.17 700.38,453.14 678.08,466.02 			"/>
		</g>
		<g>
			<polygon class="st7" points="837.55,626.7 872.24,606.72 872.24,597.57 835.9,616.46 			"/>
		</g>
		<g>
			<path class="st7" d="M1060.84,314.98c1.1,1.93,1.1,4.02,0.06,4.63c-0.17,0.11-0.28,0.17-0.44,0.17l-11.18,6.44l-7.93-4.68
				l15.47-8.92C1057.92,312,1059.69,313.05,1060.84,314.98L1060.84,314.98z"/>
		</g>
		<g>
			<path class="st8" d="M947.37,599.48c-14.92,0-29.83-3.23-43.72-9.68L697.05,470.52l1.38-2.38l206.5,119.22
				c26.96,12.52,58.01,12.52,85.07-0.06l232.22-134.08c10.97-6.92,17.54-18.84,17.54-31.85c0-12.99-6.58-24.93-17.59-31.93
				l-129.3-74.64c-8.9-6.55-20.73-6.54-29.56-0.08l-19.89,11.53l-1.38-2.38l19.77-11.45c9.68-7.1,22.82-7.1,32.57,0.08l129.22,74.59
				c11.86,7.54,18.92,20.35,18.92,34.29c0,13.96-7.06,26.75-18.87,34.2L991.27,589.74C977.3,596.23,962.33,599.48,947.37,599.48z"/>
		</g>
		<g>
			<path class="st8" d="M1083.25,451.18c-5.42,0-10.84-1.59-15.58-4.77L812.58,299.15c-7.16-3.84-15.75-3.84-22.95,0.02
				l-26.78,15.45l-1.38-2.38l26.82-15.47c8.05-4.32,17.61-4.32,25.62-0.02l255.21,147.32c8.6,5.78,19.6,5.78,28.11,0.05l42.31-24.44
				l1.38,2.38l-42.23,24.39C1094.03,449.6,1088.64,451.18,1083.25,451.18z"/>
		</g>
		<g>
			<path class="st9" d="M804.79,447.3l23.62,13.16c2.92-1.82,2.42-4.9-1.05-6.94L804.79,447.3z"/>
		</g>
		<g>
			<polygon class="st10" points="704.62,400.66 716.46,394.6 827.75,458.86 820.43,470.92 754.35,432.71 			"/>
		</g>
		<g>
			<path class="st4" d="M826.98,454.57c0.99,0.55,1.1,1.43,0.22,1.93c-0.83,0.44-2.31,0.39-3.25-0.17c-0.99-0.55-1.1-1.43-0.28-1.87
				C824.56,453.96,826.04,454.02,826.98,454.57L826.98,454.57z"/>
		</g>
		<g>
			<path class="st11" d="M820.54,462.83c-1.93,3.36-1.98,6.99-0.11,8.09c1.93,1.1,5.01-0.77,6.99-4.13
				c1.93-3.41,1.98-6.99,0.11-8.09C825.6,457.6,822.52,459.47,820.54,462.83L820.54,462.83z"/>
		</g>
		<g>
			<path class="st4" d="M821.97,463.65c-1.16,1.98-1.21,4.13-0.06,4.74c1.1,0.66,2.92-0.44,4.07-2.42c1.16-1.98,1.21-4.13,0.06-4.79
				C824.94,460.57,823.12,461.62,821.97,463.65L821.97,463.65z"/>
		</g>
		<g>
			<path class="st11" d="M683.75,401.6l-54.85-27.64c5.62,3.58,7.6,8.43,5.01,12.44c-2.53,4.02-9.2,6.44-17.02,6.22
				c-26.27-1.82-55.78-7.54-71.97-1.1v11.95c11.34,8.7,26.27,15.75,43.06,20.37c3.63-3.25,8.31-4.9,14.04-4.96l71.53-7.71
				L683.75,401.6z"/>
		</g>
		<g>
			<path class="st12" d="M587.99,389.92c-16.91-1.65-32.71-2.53-43.06,1.6v11.95c11.34,8.7,26.27,15.75,43.06,20.37V389.92z"/>
		</g>
		<g>
			<polygon class="st6" points="635.46,359.08 619.32,356.5 619.32,368.39 673.56,399.23 673.56,411.18 743.33,446.8 764.15,443.28 
				764.15,431.33 714.26,414.48 716.63,405.95 			"/>
		</g>
		<g>
			<polygon class="st9" points="628.91,373.95 635.24,377.64 638.87,378.96 637,362.99 628.91,362 			"/>
		</g>
		<g>
			<path class="st9" d="M988.87,443.67l63.22,36.45v-2.59h29.52v20.65c0.11,0.33,0.11,0.72,0,1.05l0,0l0,0
				c-0.22,0.94-0.99,1.93-2.37,2.7l-97.47,56.28c-17.68,10.24-44.77,11.34-60.08,2.48l-67.79-39.1c-1.16-0.66-1.71-1.54-1.71-2.48
				V497.8h33.65l93.12-53.74C981.93,442.34,986.34,442.18,988.87,443.67L988.87,443.67z"/>
		</g>
		<g>
			<path class="st10" d="M949.44,566.68c-10.41,0.22-20.43-1.76-27.75-6l-67.79-39.1c-1.16-0.66-1.71-1.54-1.71-2.48V497.8h33.65
				L904.57,487h44.88V566.68z"/>
		</g>
		<g>
			<path class="st13" d="M988.87,422.85l91.08,52.59c2.53,1.43,2.2,4.02-0.72,5.73l-97.47,56.28
				c-17.68,10.19-44.77,11.34-60.08,2.48l-67.79-39.15c-2.53-1.43-2.2-4.02,0.72-5.73l124.34-71.81
				C981.93,421.58,986.34,421.36,988.87,422.85L988.87,422.85z"/>
		</g>
		<g>
			<path class="st6" d="M1028.08,306.44c0,0.06,0,0.17,0,0.22l0,0l0,0c-0.06,0.72-0.61,1.38-1.54,1.93l-8.65,5.01
				c-1.87,1.05-4.68,1.16-6.28,0.22l-12.06-6.94c-1.6-0.94-1.38-2.53,0.44-3.63l8.7-4.96c0.94-0.61,2.2-0.88,3.41-0.88v-1.43h15.97
				V306.44z"/>
		</g>
		<g>
			<path class="st5" d="M1014.92,287.5l12.06,6.99c1.6,0.88,1.43,2.53-0.44,3.58l-8.65,5.01c-1.87,1.05-4.68,1.16-6.28,0.28
				l-12.06-6.99c-1.6-0.94-1.38-2.53,0.44-3.58l8.7-5.01C1010.51,286.67,1013.32,286.56,1014.92,287.5L1014.92,287.5z"/>
		</g>
		<g>
			<path class="st9" d="M1017.34,298.13h6.83v16.35c0.06,0.28,0.06,0.5,0,0.77v0.11l0,0c-0.22,0.88-0.94,1.76-2.15,2.48l-4.68,2.64
				V298.13z"/>
		</g>
		<g>
			<path class="st6" d="M1112.55,355.12c0,0.06,0,0.17,0,0.28l0,0l0,0c-0.11,0.66-0.61,1.32-1.54,1.87l-8.65,5.01
				c-1.87,1.05-4.68,1.21-6.28,0.28l-12.06-6.99c-1.6-0.88-1.38-2.53,0.44-3.58l8.65-5.01c0.99-0.55,2.26-0.88,3.47-0.88v-1.38
				h15.97V355.12z"/>
		</g>
		<g>
			<path class="st5" d="M1099.39,336.18l12.06,6.99c1.6,0.94,1.38,2.53-0.44,3.58l-8.65,5.01c-1.87,1.1-4.68,1.21-6.28,0.28
				l-12.06-6.99c-1.6-0.88-1.38-2.53,0.44-3.58l8.65-5.01C1094.98,335.41,1097.79,335.3,1099.39,336.18L1099.39,336.18z"/>
		</g>
		<g>
			<path class="st10" d="M1091.9,352.53l2.04,1.16v-6.88h14.7v16.35c0.06,0.28,0.06,0.55,0,0.83v0.11h-0.06
				c-0.17,0.83-0.88,1.71-2.15,2.42l-4.63,2.7c0.22,0.72,0.28,1.49,0.28,2.2c0,2.75-1.27,5.34-3.52,7.6l0,0v0.06
				c-0.33,0.28-0.61,0.55-0.94,0.83l-29.79,27.53c-4.79,4.19-14.87,5.18-23.46,2.31c-6.55-2.2-10.68-6.11-11.07-10.08l0,0
				c0-0.33,0-0.72,0-1.1v-16.57c-11.67-0.28-20.98-5.67-20.98-12.33v-6.99l-9.86-5.67c-2.81,0.72-6,1.16-9.31,1.16
				c-11.73,0-21.26-5.12-22.03-11.56l0,0l0,0c0-0.28-0.06-0.55-0.06-0.77c0-0.28,0.06-0.55,0.06-0.83v-1.82l-24.01,2.75
				c-8.54,1.54-18.61-0.99-23.62-5.95c-1.76-1.82-2.7-3.69-2.81-5.56l0,0l0,0c0-0.17,0-0.39,0-0.61v-16.96h15.64v6.5l38.6-13.77
				c4.3-1.54,9.47-2.48,14.98-2.48c1.05,0,2.09,0.06,3.14,0.11l5.34-3.08c2.7-1.54,6.77-1.71,9.09-0.33l15.2,8.76
				c2.31,1.32,1.98,3.69-0.66,5.23l-4.63,2.64l0,0l60.74,35.19l4.74-2.7C1085.51,351.37,1089.59,351.21,1091.9,352.53L1091.9,352.53
				z"/>
		</g>
		<g>
			<path class="st9" d="M971.14,343.17l-24.01,2.75c-3.19,0.61-6.66,0.61-9.91,0.11v-19.66l37.72-5.34l-3.8,7.6V343.17z"/>
		</g>
		<g>
			<path class="st9" d="M1002.47,356.99L1002.47,356.99c-2.81,0.72-6,1.16-9.31,1.16c-2.59,0-5.01-0.22-7.32-0.72v-20.7l16.63,3.08
				V356.99z"/>
		</g>
		<g>
			<path class="st9" d="M1033.31,383.2v-1.21c-3.74-0.06-7.32-0.72-10.35-1.76v-19.88h19.05v22.85H1033.31z"/>
		</g>
		<g>
			<path class="st9" d="M1091.9,352.53l2.04,1.16v-6.88h14.7v16.35c0.06,0.28,0.06,0.55,0,0.83v0.11h-0.06
				c-0.17,0.83-0.88,1.71-2.15,2.42l-4.63,2.7c0.22,0.72,0.28,1.49,0.28,2.2c0,2.75-1.27,5.34-3.52,7.6l0,0v0.06
				c-0.33,0.28-0.61,0.55-0.94,0.83l-29.79,27.53c-3.03,2.64-8.26,4.07-13.82,3.96v-69.71l24.12,13.93l4.74-2.7
				C1085.51,351.37,1089.59,351.21,1091.9,352.53L1091.9,352.53z"/>
		</g>
		<g>
			<path class="st13" d="M1081.93,340.64l16.63,21.2l-30.73,28.41c-4.79,4.24-14.87,5.23-23.46,2.37c-8.59-2.86-13-8.76-10.3-13.66
				l6.11-17.73l-22.58-12.67l-19.27-11.12l-22.96-11.89l-28.25,3.19c-8.54,1.6-18.61-0.99-23.62-5.95
				c-4.96-4.96-3.19-10.74,4.07-13.55l47.36-16.85l35.9,7.1L1081.93,340.64z"/>
		</g>
		<g>
			<path class="st13" d="M1091.9,335.35l15.2,8.81c2.31,1.32,2.04,3.69-0.66,5.23l-6.22,3.58c-2.7,1.54-6.77,1.71-9.09,0.39
				l-15.2-8.76c-2.31-1.38-1.98-3.69,0.66-5.23l6.28-3.63C1085.51,334.19,1089.59,334.03,1091.9,335.35L1091.9,335.35z"/>
		</g>
		<g>
			<path class="st13" d="M1007.48,286.62l15.2,8.76c2.31,1.32,1.98,3.69-0.66,5.23l-6.28,3.63c-2.64,1.54-6.72,1.71-9.03,0.39
				l-15.2-8.81c-2.31-1.32-2.04-3.69,0.66-5.23l6.22-3.58C1001.1,285.46,1005.17,285.3,1007.48,286.62L1007.48,286.62z"/>
		</g>
		<g>
			<path class="st13" d="M989.92,321.09c15.25,0,27.75-6.99,27.75-15.58c0-8.54-12.5-15.53-27.75-15.53
				c-15.31,0-27.75,6.99-27.75,15.53C962.17,314.1,974.61,321.09,989.92,321.09L989.92,321.09z"/>
		</g>
		<g>
			<path class="st13" d="M1034.36,364.87c12.11,0,22.03-5.56,22.03-12.33c0-6.83-9.91-12.39-22.03-12.39
				c-12.17,0-22.03,5.56-22.03,12.39C1012.33,359.3,1022.19,364.87,1034.36,364.87L1034.36,364.87z"/>
		</g>
		<g>
			<path class="st7" d="M767.89,310.35c1.05,1.82,1.05,3.74,0.06,4.35c-0.17,0.11-0.28,0.11-0.44,0.17l-10.52,6.06l-7.49-4.41
				l14.59-8.43C765.14,307.49,766.79,308.48,767.89,310.35L767.89,310.35z"/>
		</g>
		<g>
			<path class="st13" d="M1074.33,369.82c15.31,0,27.75-6.99,27.75-15.53c0-8.59-12.44-15.58-27.75-15.58
				c-15.25,0-27.75,6.99-27.75,15.58C1046.58,362.83,1059.08,369.82,1074.33,369.82L1074.33,369.82z"/>
		</g>
		<g>
			<path class="st6" d="M707.98,296.31l88.49,51.1v-1.38h14.92v10.46c0,0.11,0,0.17,0,0.22l0,0l0,0c-0.05,0.44-0.39,0.88-0.99,1.21
				l-38.05,21.97c-1.21,0.72-3.03,0.77-4.07,0.17l-102.7-59.31c-0.44-0.28-0.66-0.61-0.72-0.99l0,0l0,0v-0.06V309.3h14.59v1.27
				l24.45-14.1C705.12,295.76,706.93,295.7,707.98,296.31L707.98,296.31z"/>
		</g>
		<g>
			<path class="st5" d="M707.98,285.74l102.7,59.31c1.05,0.55,0.88,1.65-0.28,2.31l-38.05,21.97c-1.21,0.66-3.03,0.77-4.07,0.17
				l-102.7-59.31c-1.05-0.61-0.88-1.65,0.28-2.37l38.05-21.92C705.12,285.19,706.93,285.13,707.98,285.74L707.98,285.74z"/>
		</g>
		<g>
			<path class="st13" d="M707.65,288.6l98.07,56.61c0.55,0.33,0.5,0.88-0.17,1.27l-34.75,20.04c-0.66,0.39-1.65,0.44-2.2,0.11
				l-98.07-56.61c-0.55-0.33-0.5-0.94,0.17-1.27l34.75-20.1C706.11,288.27,707.1,288.27,707.65,288.6L707.65,288.6z"/>
		</g>
		<g>
			<path class="st7" d="M717.89,330.34l-6-3.47c-0.44-0.28-0.66-0.61-0.61-0.99l0,0v-2.53l11.18,3.03v2.59l0,0v0.06
				c0,0.39-0.33,0.83-0.88,1.16l0,0C720.48,330.78,718.83,330.89,717.89,330.34L717.89,330.34z"/>
		</g>
		<g>
			<path class="st6" d="M717.89,330.34l-6-3.47c-0.44-0.28-0.66-0.61-0.61-0.99l0,0v-2.53l7.87,2.15v5.18
				C718.66,330.62,718.22,330.5,717.89,330.34L717.89,330.34z"/>
		</g>
		<g>
			<path class="st7" d="M710.13,301.87l-1.05-0.61c-0.28-0.17-0.72-0.17-0.99,0l-7.32,4.24l-7.32-4.24c-0.33-0.17-0.77-0.17-1.05,0
				l-1.21,0.66v-0.61h-2.97v2.48c0,0,0,0.06,0,0.11l0,0c0,0.06,0.06,0.17,0.22,0.28l7.32,4.24l-5.23,2.97v-0.94h-2.31v2.42
				c-0.06,0.11,0,0.22,0.17,0.33l4.02,2.31c0.28,0.17,0.72,0.17,1.05,0l7.32-4.24l7.32,4.24c0.28,0.17,0.72,0.17,0.99,0l4.07-2.31
				c0.11-0.11,0.17-0.17,0.17-0.28v-2.53h-4.07l-3.52-1.98l7.38-4.24c0.11-0.11,0.22-0.22,0.22-0.33v-0.06v-2.48h-3.19V301.87z"/>
		</g>
		<g>
			<path class="st6" d="M696.64,303.14l-3.19-1.87c-0.33-0.17-0.77-0.17-1.05,0l-1.21,0.66v-0.61h-2.97v2.48c0,0,0,0.06,0,0.11l0,0
				c0,0.06,0.06,0.17,0.22,0.28l7.32,4.24l-1.21,0.66h2.09V303.14z"/>
		</g>
		<g>
			<path class="st6" d="M700.77,311.29l7.32,4.24c0.11,0.06,0.28,0.11,0.44,0.11v-5.62l-2.15-1.27h-5.62V311.29z"/>
		</g>
		<g>
			<path class="st6" d="M692.78,310.13l-2.26,1.27v-0.94h-2.31v2.42c-0.06,0.11,0,0.22,0.17,0.33l4.02,2.31
				c0.11,0.11,0.28,0.11,0.39,0.11V310.13z"/>
		</g>
		<g>
			<path class="st7" d="M753.13,344.27c1.32,0,2.53,0.22,3.52,0.66h2.53v2.75c0,1.87-2.7,3.36-6.06,3.36c-3.3,0-6-1.49-6-3.36v-2.75
				h2.53C750.66,344.49,751.87,344.27,753.13,344.27L753.13,344.27z"/>
		</g>
		<g>
			<path class="st6" d="M753.13,351.04c-3.3,0-6-1.49-6-3.36v-2.75h2.53c0.99-0.44,2.2-0.66,3.47-0.66V351.04z"/>
		</g>
		<g>
			<path class="st5" d="M713.16,301.1l-4.07-2.37c-0.28-0.17-0.72-0.11-0.99,0.06l-7.32,4.24l-7.32-4.24
				c-0.33-0.17-0.77-0.22-1.05-0.06l-4.02,2.37c-0.28,0.11-0.22,0.39,0.06,0.55l7.32,4.24l-7.32,4.24
				c-0.28,0.17-0.33,0.44-0.06,0.55l4.02,2.37c0.28,0.17,0.72,0.11,1.05-0.06l7.32-4.24l7.32,4.24c0.28,0.17,0.72,0.22,0.99,0.06
				l4.07-2.37c0.22-0.11,0.22-0.39-0.06-0.55l-7.38-4.24l7.38-4.24C713.38,301.49,713.38,301.21,713.16,301.1L713.16,301.1z"/>
		</g>
		<g>
			<path class="st5" d="M717.89,327.75l-6-3.47c-0.94-0.55-0.83-1.49,0.28-2.15l0,0c1.05-0.61,2.7-0.66,3.63-0.17l6.06,3.47
				c0.94,0.55,0.77,1.54-0.28,2.15l0,0C720.48,328.19,718.83,328.25,717.89,327.75L717.89,327.75z"/>
		</g>
		<g>
			<path class="st7" d="M733.59,339.37l-6-3.47c-0.5-0.28-0.66-0.61-0.66-0.99l0,0v-2.53l11.23,3.03v2.59v0.06l0,0
				c-0.06,0.44-0.33,0.83-0.94,1.16l0,0C736.17,339.87,734.52,339.92,733.59,339.37L733.59,339.37z"/>
		</g>
		<g>
			<path class="st6" d="M733.59,339.37l-6-3.47c-0.5-0.28-0.66-0.61-0.66-0.99l0,0v-2.53l7.87,2.15v5.18
				C734.36,339.7,733.92,339.59,733.59,339.37L733.59,339.37z"/>
		</g>
		<g>
			<path class="st5" d="M733.59,336.78l-6-3.47c-0.94-0.55-0.83-1.49,0.22-2.15l0,0c1.1-0.61,2.75-0.66,3.69-0.11l6,3.47
				c0.94,0.55,0.83,1.49-0.28,2.09l0,0C736.17,337.28,734.52,337.33,733.59,336.78L733.59,336.78z"/>
		</g>
		<g>
			<path class="st5" d="M753.13,348.29c3.36,0,6.06-1.54,6.06-3.36c0-1.87-2.7-3.41-6.06-3.41c-3.3,0-6,1.54-6,3.41
				C747.13,346.75,749.83,348.29,753.13,348.29L753.13,348.29z"/>
		</g>
		<g>
			<path class="st7" d="M768.11,352.92c1.32,0,2.53,0.22,3.52,0.66h2.53v2.75c0,1.87-2.7,3.36-6.06,3.36c-3.3,0-6-1.49-6-3.36v-2.75
				h2.53C765.63,353.14,766.85,352.92,768.11,352.92L768.11,352.92z"/>
		</g>
		<g>
			<path class="st6" d="M768.11,359.69c-3.3,0-6-1.49-6-3.36v-2.75h2.53c0.99-0.44,2.2-0.66,3.47-0.66V359.69z"/>
		</g>
		<g>
			<path class="st5" d="M768.11,356.94c3.36,0,6.06-1.54,6.06-3.36c0-1.87-2.7-3.41-6.06-3.41c-3.3,0-6,1.54-6,3.41
				C762.11,355.39,764.81,356.94,768.11,356.94L768.11,356.94z"/>
		</g>
		<g>
			<path class="st14" d="M766.13,336.78c1.32,0,2.48,0.22,3.47,0.61h2.53v2.81c0,1.82-2.7,3.36-6,3.36c-3.36,0-6.06-1.54-6.06-3.36
				v-2.81h2.59C763.6,337,764.81,336.78,766.13,336.78L766.13,336.78z"/>
		</g>
		<g>
			<path class="st15" d="M766.13,343.56c-3.36,0-6.06-1.54-6.06-3.36v-2.81h2.59c0.94-0.39,2.15-0.61,3.47-0.61V343.56z"/>
		</g>
		<g>
			<path class="st16" d="M766.13,340.8c3.3,0,6-1.54,6-3.41c0-1.82-2.7-3.36-6-3.36s-6.06,1.54-6.06,3.36
				C760.07,339.26,762.83,340.8,766.13,340.8L766.13,340.8z"/>
		</g>
		<g>
			<path class="st14" d="M781.11,345.43c1.32,0,2.48,0.22,3.47,0.66h2.59v2.75c0,1.87-2.75,3.36-6.06,3.36
				c-3.36,0-6.06-1.49-6.06-3.36v-2.75h2.59C778.58,345.65,779.79,345.43,781.11,345.43L781.11,345.43z"/>
		</g>
		<g>
			<path class="st15" d="M781.11,352.2c-3.36,0-6.06-1.49-6.06-3.36v-2.75h2.59c0.94-0.44,2.15-0.66,3.47-0.66V352.2z"/>
		</g>
		<g>
			<path class="st16" d="M781.11,349.45c3.3,0,6.06-1.54,6.06-3.36c0-1.87-2.75-3.41-6.06-3.41s-6.06,1.54-6.06,3.41
				C775.05,347.91,777.8,349.45,781.11,349.45L781.11,349.45z"/>
		</g>
		<g>
			<polygon class="st6" points="1016.9,318.61 1024.44,320.54 1024.44,322.96 1020.15,325.44 1012.61,321.09 1012.61,318.67 			"/>
		</g>
		<g>
			<polygon class="st7" points="1020.15,319.44 1024.44,320.54 1024.44,322.96 1020.15,325.44 			"/>
		</g>
		<g>
			<polygon class="st6" points="1049.5,339.92 1049.5,337.5 1046.03,334.86 1039.81,334.36 1039.81,336.84 			"/>
		</g>
		<g>
			<path class="st7" d="M1065.25,355.89c1.32,0,2.53,0.22,3.52,0.61h2.53v2.75c0,1.87-2.7,3.41-6.06,3.41c-3.3,0-6-1.54-6-3.41
				v-2.75h2.53C1062.77,356.11,1063.98,355.89,1065.25,355.89L1065.25,355.89z"/>
		</g>
		<g>
			<path class="st6" d="M1065.25,362.66c-3.3,0-6-1.54-6-3.41v-2.75h2.53c0.99-0.39,2.2-0.61,3.47-0.61V362.66z"/>
		</g>
		<g>
			<path class="st5" d="M1065.25,359.91c3.36,0,6.06-1.54,6.06-3.41c0-1.82-2.7-3.36-6.06-3.36c-3.3,0-6,1.54-6,3.36
				C1059.25,358.37,1061.94,359.91,1065.25,359.91L1065.25,359.91z"/>
		</g>
		<g>
			<path class="st7" d="M1083.42,345.21c1.32,0,2.53,0.22,3.52,0.61h2.53v2.75c0,1.87-2.7,3.41-6.06,3.41c-3.3,0-6-1.54-6-3.41
				v-2.75h2.53C1080.94,345.43,1082.15,345.21,1083.42,345.21L1083.42,345.21z"/>
		</g>
		<g>
			<path class="st6" d="M1083.42,351.98c-3.3,0-6-1.54-6-3.41v-2.75h2.53c0.99-0.39,2.2-0.61,3.47-0.61V351.98z"/>
		</g>
		<g>
			<path class="st5" d="M1083.42,349.23c3.36,0,6.06-1.54,6.06-3.41c0-1.82-2.7-3.36-6.06-3.36c-3.3,0-6,1.54-6,3.36
				C1077.42,347.69,1080.12,349.23,1083.42,349.23L1083.42,349.23z"/>
		</g>
		<g>
			<path class="st7" d="M1063.87,344.49c1.27,0,2.48,0.28,3.47,0.66h2.53v2.75c0,1.87-2.7,3.36-6,3.36c-3.36,0-6.06-1.49-6.06-3.36
				v-2.75h2.53C1061.34,344.77,1062.55,344.49,1063.87,344.49L1063.87,344.49z"/>
		</g>
		<g>
			<path class="st6" d="M1063.87,351.26c-3.36,0-6.06-1.49-6.06-3.36v-2.75h2.53c0.99-0.39,2.2-0.66,3.52-0.66V351.26z"/>
		</g>
		<g>
			<path class="st5" d="M1063.87,348.51c3.3,0,6-1.49,6-3.36c0-1.87-2.7-3.41-6-3.41s-6.06,1.54-6.06,3.41
				C1057.81,347.02,1060.57,348.51,1063.87,348.51L1063.87,348.51z"/>
		</g>
		<g>
			<path class="st7" d="M1084.85,356.61c1.32,0,2.48,0.22,3.47,0.61h2.53v2.75c0,1.87-2.7,3.41-6,3.41c-3.36,0-6.06-1.54-6.06-3.41
				v-2.75h2.59C1082.32,356.83,1083.53,356.61,1084.85,356.61L1084.85,356.61z"/>
		</g>
		<g>
			<path class="st6" d="M1084.85,363.38c-3.36,0-6.06-1.54-6.06-3.41v-2.75h2.59c0.94-0.39,2.15-0.61,3.47-0.61V363.38z"/>
		</g>
		<g>
			<path class="st5" d="M1084.85,360.63c3.3,0,6-1.54,6-3.41c0-1.87-2.7-3.36-6-3.36s-6.06,1.49-6.06,3.36
				C1078.79,359.08,1081.55,360.63,1084.85,360.63L1084.85,360.63z"/>
		</g>
		<g>
			<path class="st9" d="M1034.36,359.91c7.27,0,13.16-3.3,13.16-7.38c0-4.07-5.89-7.38-13.16-7.38c-7.27,0-13.16,3.3-13.16,7.38
				C1021.2,356.61,1027.09,359.91,1034.36,359.91L1034.36,359.91z"/>
		</g>
		<g>
			<path class="st7" d="M1034.36,357.16c4.52,0,8.2-2.09,8.2-4.63s-3.69-4.63-8.2-4.63c-4.52,0-8.26,2.09-8.26,4.63
				S1029.84,357.16,1034.36,357.16L1034.36,357.16z"/>
		</g>
		<g>
			<path class="st6" d="M1034.36,339.65c4.79,0,9.03,1.43,11.34,3.58h1.82v3.8c0,4.07-5.89,7.38-13.16,7.38
				c-7.27,0-13.16-3.3-13.16-7.38v-3.8h1.82C1025.33,341.08,1029.51,339.65,1034.36,339.65L1034.36,339.65z"/>
		</g>
		<g>
			<path class="st17" d="M1034.36,339.65c4.79,0,9.03,1.43,11.34,3.58h1.82v3.8c0,4.07-5.89,7.38-13.16,7.38V339.65z"/>
		</g>
		<g>
			<path class="st5" d="M1034.36,350.6c7.27,0,13.16-3.3,13.16-7.38c0-4.02-5.89-7.32-13.16-7.32c-7.27,0-13.16,3.3-13.16,7.32
				C1021.2,347.3,1027.09,350.6,1034.36,350.6L1034.36,350.6z"/>
		</g>
		<g>
			<polygon class="st5" points="1016.9,316.19 1024.44,320.54 1020.15,323.02 1012.61,318.67 			"/>
		</g>
		<g>
			<polygon class="st5" points="1049.5,337.5 1044.1,331.88 1039.81,334.36 			"/>
		</g>
		<g>
			<polygon class="st7" points="991.02,300.16 991.02,297.3 995.65,297.47 1003.8,299.34 1003.8,302.2 999.17,304.84 991.57,304.57 
							"/>
		</g>
		<g>
			<polygon class="st7" points="980.34,304.07 975,300.99 975,298.13 982.1,296.91 987.94,301.54 987.94,304.4 			"/>
		</g>
		<g>
			<polygon class="st6" points="980.34,304.07 975,300.99 975,298.13 980.34,297.19 980.34,304.07 			"/>
		</g>
		<g>
			<polygon class="st7" points="988.76,310.9 984.14,313.54 975.99,308.86 975.99,305.95 980.61,306.17 988.76,307.98 			"/>
		</g>
		<g>
			<polygon class="st6" points="984.14,313.54 975.99,308.86 975.99,305.95 980.61,306.17 984.14,306.94 			"/>
		</g>
		<g>
			<polygon class="st7" points="1004.79,310.02 997.74,314.1 992.4,311.01 991.85,306.66 991.85,303.74 999.44,306.94 
				1004.79,307.16 			"/>
		</g>
		<g>
			<polygon class="st6" points="997.74,314.1 992.4,311.01 991.85,306.66 991.85,303.74 997.74,306.22 			"/>
		</g>
		<g>
			<path class="st5" d="M1004.79,307.16l-7.05,4.07l-5.34-3.08l-0.55-4.41l7.6,0.33L1004.79,307.16z M988.76,307.98l-4.63,2.7
				l-8.15-4.74l4.63-2.64l7.6,0.33L988.76,307.98z M980.34,301.21l-5.34-3.08l7.1-4.07l5.34,3.08l0.5,4.41L980.34,301.21z
				 M991.02,297.3l4.63-2.7l8.15,4.74l-4.63,2.64l-7.6-0.33L991.02,297.3z"/>
		</g>
		<g>
			<path class="st13" d="M993.17,340.97c12.11,0,22.03-5.56,22.03-12.33c0-6.83-9.91-12.33-22.03-12.33
				c-12.17,0-22.08,5.51-22.08,12.33C971.09,335.41,981,340.97,993.17,340.97L993.17,340.97z"/>
		</g>
		<g>
			<path class="st9" d="M993.17,336.01c7.21,0,13.16-3.3,13.16-7.38c0-4.07-5.95-7.38-13.16-7.38c-7.27,0-13.16,3.3-13.16,7.38
				C980.01,332.71,985.9,336.01,993.17,336.01L993.17,336.01z"/>
		</g>
		<g>
			<path class="st7" d="M993.17,333.26c4.52,0,8.2-2.09,8.2-4.63c0-2.53-3.69-4.63-8.2-4.63c-4.57,0-8.26,2.09-8.26,4.63
				C984.91,331.17,988.6,333.26,993.17,333.26L993.17,333.26z"/>
		</g>
		<g>
			<path class="st6" d="M993.17,315.75c4.79,0,9.03,1.43,11.29,3.63h1.87v3.74c0,4.07-5.89,7.38-13.16,7.38
				c-7.27,0-13.16-3.3-13.16-7.38v-3.74h1.82C984.14,317.18,988.32,315.75,993.17,315.75L993.17,315.75z"/>
		</g>
		<g>
			<path class="st17" d="M993.17,315.75c4.79,0,9.03,1.43,11.29,3.63h1.87v3.74c0,4.07-5.89,7.38-13.16,7.38V315.75z"/>
		</g>
		<g>
			<path class="st5" d="M993.17,326.76c7.21,0,13.16-3.36,13.16-7.38c0-4.07-5.95-7.38-13.16-7.38c-7.27,0-13.16,3.3-13.16,7.38
				C980.01,323.4,985.9,326.76,993.17,326.76L993.17,326.76z"/>
		</g>
		<g>
			<polygon class="st7" points="799.45,410.19 867.95,449.72 936.45,410.19 936.45,392.56 867.95,370.65 799.45,392.56 			"/>
		</g>
		<g>
			<polygon class="st6" points="799.45,410.19 867.95,449.72 867.95,370.65 799.45,392.56 			"/>
		</g>
		<g>
			<polygon class="st5" points="799.45,392.56 867.95,432.1 936.45,392.56 867.95,353.03 			"/>
		</g>
		<g>
			<path class="st7" d="M867.95,403.36c10.24,0,18.61-4.68,18.61-10.41c0-5.78-8.37-10.46-18.61-10.46
				c-10.24,0-18.61,4.68-18.61,10.46C849.34,398.68,857.71,403.36,867.95,403.36L867.95,403.36z"/>
		</g>
		<g>
			<path class="st7" d="M881.55,391.35c0,4.24-6.06,7.65-13.6,7.65c-7.49,0-13.6-3.41-13.6-7.65V284.08h27.2V391.35z"/>
		</g>
		<g>
			<path class="st6" d="M867.89,399.01c-7.49-0.06-13.55-3.47-13.55-7.65V284.08h13.55V399.01z"/>
		</g>
		<g>
			<path class="st7" d="M854.35,302.97v-16.52h13.55v20.87c-3.58,0.06-7.05-0.66-9.64-2.09L854.35,302.97z"/>
		</g>
		<g>
			<path class="st7" d="M892.73,284.86L892.73,284.86v0.06l0,0c0.17,2.53-1.65,5.29-5.34,7.43l-7.38,4.24
				c-6.44,3.69-16.19,4.07-21.75,0.94l-11.34-6.55c-2.26-1.32-3.47-3.03-3.69-4.85l0,0l0,0c-0.06-0.44-0.06-0.88,0.06-1.32
				l0.5-19.99l48.24,10.46L892.73,284.86z"/>
		</g>
		<g>
			<path class="st6" d="M867.89,299.61c-3.58,0.06-7.05-0.66-9.64-2.09l-11.34-6.55c-2.26-1.32-3.47-3.03-3.69-4.85l0,0l0,0
				c-0.06-0.44-0.06-0.88,0.06-1.32l0.5-19.99l24.12,5.23V299.61z"/>
		</g>
		<g>
			<path class="st5" d="M877.64,253.8l11.34,13.99c4.02,4.96,4.85,8.81-1.6,12.44l-7.38,4.3c-6.44,3.63-17.68,5.84-21.75,0.88
				l-11.34-13.99c-4.02-4.96-4.9-8.92,1.6-12.44l10.63-5.84C865.63,249.61,873.62,248.84,877.64,253.8L877.64,253.8z"/>
		</g>
		<g>
			<polygon class="st18" points="876.43,254.62 887.66,265.58 886.67,267.4 881.27,270.54 871.03,257.76 872.02,255.95 			"/>
		</g>
		<g>
			<polygon class="st19" points="886.83,264.87 887.66,265.58 886.67,267.4 881.27,270.54 882.26,268.72 			"/>
		</g>
		<g>
			<polygon class="st20" points="877.42,252.81 887.66,265.58 882.26,268.72 872.02,255.95 			"/>
		</g>
		<g>
			<polygon class="st21" points="864.75,256.61 882.48,273.24 880.78,276.43 871.14,281.99 855.12,262.17 856.82,258.92 			"/>
		</g>
		<g>
			<polygon class="st22" points="881.05,271.86 882.48,273.24 880.78,276.43 871.14,281.99 872.9,278.8 			"/>
		</g>
		<g>
			<polygon class="st23" points="866.46,253.41 882.48,273.24 872.9,278.8 856.82,258.92 			"/>
		</g>
		<g>
			<polygon class="st18" points="855.17,267.4 866.41,278.36 865.41,280.17 860.02,283.31 849.78,270.54 850.71,268.72 			"/>
		</g>
		<g>
			<polygon class="st19" points="865.58,277.64 866.41,278.36 865.41,280.17 860.02,283.31 861.01,281.5 			"/>
		</g>
		<g>
			<polygon class="st20" points="856.16,265.58 866.41,278.36 861.01,281.5 850.71,268.72 			"/>
		</g>
		<g>
			<polygon class="st7" points="872.13,411.89 882.37,417.84 911.72,400.88 901.48,394.99 			"/>
		</g>
		<g>
			<polygon class="st6" points="877.8,415.2 882.37,417.84 895.15,410.46 889.31,408.59 			"/>
		</g>
		<g>
			<polygon class="st15" points="893.88,411.23 910.46,401.65 910.46,400.93 889.31,402.7 889.31,408.59 			"/>
		</g>
		<g>
			<polygon class="st14" points="898.34,408.64 910.46,401.65 910.46,400.93 898.34,401.93 			"/>
		</g>
		<g>
			<polygon class="st16" points="889.31,402.7 898.34,407.93 910.46,400.93 901.43,395.7 			"/>
		</g>
		<g>
			<path class="st5" d="M986.89,427.37l85.3,49.23c0.94,0.55,0.83,1.54-0.28,2.15l-53.36,30.78c-1.1,0.66-2.81,0.72-3.74,0.17
				l-85.3-49.23c-0.94-0.55-0.83-1.54,0.28-2.15l53.36-30.78C984.25,426.87,985.95,426.82,986.89,427.37L986.89,427.37z"/>
		</g>
		<g>
			<path class="st24" d="M987.61,431.66l77.15,44.49c0.83,0.5,0.72,1.38-0.28,1.93l-47.08,27.2c-0.99,0.55-2.48,0.61-3.3,0.11
				l-77.15-44.49c-0.83-0.5-0.72-1.38,0.22-1.93l47.14-27.2C985.29,431.22,986.78,431.17,987.61,431.66L987.61,431.66z"/>
		</g>
		<g>
			<path class="st7" d="M917.62,515.36L917.62,515.36v0.06c0,0.72-0.55,1.32-1.38,1.27l-12.44-0.5c-0.88-0.06-1.65-0.77-1.76-1.6
				v-0.06c0-0.06,0-0.17,0-0.22v-2.75l15.58,1.16V515.36z"/>
		</g>
		<g>
			<polygon class="st25" points="937.33,525.22 934.8,533.31 933.75,532.98 936.28,524.89 			"/>
		</g>
		<g>
			<polygon class="st25" points="941.85,526.04 939.31,534.14 938.27,533.81 940.8,525.71 			"/>
		</g>
		<g>
			<polygon class="st25" points="946.36,526.87 943.83,534.96 942.78,534.63 945.32,526.54 			"/>
		</g>
		<g>
			<polygon class="st25" points="950.93,527.7 948.4,535.79 947.35,535.46 949.89,527.37 			"/>
		</g>
		<g>
			<polygon class="st25" points="955.45,528.52 952.91,536.62 951.87,536.29 954.4,528.19 			"/>
		</g>
		<g>
			<polygon class="st25" points="959.96,529.35 957.43,537.44 956.38,537.11 958.92,529.02 			"/>
		</g>
		<g>
			<path class="st7" d="M933.42,476.65l-1.27-0.72c-0.28-0.22-0.83-0.17-1.21,0l-8.76,5.12l-8.81-5.12c-0.33-0.17-0.88-0.22-1.21,0
				l-1.43,0.83v-0.77h-3.63v2.97c0,0.06,0,0.06,0,0.11l0,0c0.06,0.11,0.17,0.22,0.33,0.33l8.76,5.07l-6.28,3.63v-1.16h-2.81v2.92
				c0,0.17,0.06,0.28,0.22,0.39l4.85,2.81c0.33,0.17,0.88,0.17,1.21-0.06l8.81-5.07l8.76,5.07c0.39,0.22,0.94,0.22,1.21,0.06
				l4.9-2.81c0.11-0.11,0.22-0.22,0.17-0.33v-3.03h-4.9l-4.19-2.42l8.81-5.07c0.17-0.11,0.28-0.22,0.28-0.33c0-0.06,0-0.06,0-0.11
				v-2.97h-3.8V476.65z"/>
		</g>
		<g>
			<path class="st6" d="M917.23,478.19l-3.85-2.26c-0.33-0.17-0.88-0.22-1.21,0l-1.43,0.83v-0.77h-3.63v2.97c0,0.06,0,0.06,0,0.11
				l0,0c0.06,0.11,0.17,0.22,0.33,0.33l8.76,5.07l-1.49,0.88h2.53V478.19z"/>
		</g>
		<g>
			<path class="st6" d="M922.19,487.94l8.76,5.07c0.17,0.11,0.33,0.17,0.55,0.17v-6.77l-2.53-1.49h-6.77V487.94z"/>
		</g>
		<g>
			<path class="st6" d="M912.66,486.56l-2.75,1.54v-1.16h-2.81v2.92c0,0.17,0.06,0.28,0.22,0.39l4.85,2.81
				c0.17,0.06,0.33,0.11,0.5,0.11V486.56z"/>
		</g>
		<g>
			<path class="st5" d="M937.06,475.71l-4.9-2.81c-0.28-0.17-0.83-0.17-1.21,0.06l-8.76,5.07l-8.81-5.07
				c-0.33-0.22-0.88-0.22-1.21-0.06l-4.85,2.81c-0.33,0.17-0.28,0.5,0.11,0.72l8.76,5.07l-8.76,5.07c-0.39,0.22-0.44,0.5-0.11,0.66
				l4.85,2.86c0.33,0.17,0.88,0.11,1.21-0.06l8.81-5.12l8.76,5.12c0.39,0.17,0.94,0.22,1.21,0.06l4.9-2.86
				c0.28-0.17,0.22-0.44-0.11-0.66l-8.81-5.07l8.81-5.07C937.28,476.21,937.33,475.88,937.06,475.71L937.06,475.71z"/>
		</g>
		<g>
			<path class="st7" d="M963.16,502.09c1.49,0,2.81,0.28,3.96,0.72h2.86v3.08c0,2.15-3.08,3.85-6.83,3.85
				c-3.8,0-6.83-1.71-6.83-3.85v-3.08h2.86C960.29,502.37,961.67,502.09,963.16,502.09L963.16,502.09z"/>
		</g>
		<g>
			<path class="st6" d="M963.16,509.74c-3.8,0-6.83-1.71-6.83-3.85v-3.08h2.86c1.1-0.44,2.48-0.72,3.96-0.72V509.74z"/>
		</g>
		<g>
			<path class="st5" d="M963.16,506.61c3.74,0,6.83-1.71,6.83-3.8c0-2.15-3.08-3.85-6.83-3.85c-3.74,0-6.83,1.71-6.83,3.85
				C956.33,504.9,959.41,506.61,963.16,506.61L963.16,506.61z"/>
		</g>
		<g>
			<path class="st7" d="M983.86,514.09c1.49,0,2.86,0.28,3.96,0.72h2.86v3.14c0,2.09-3.03,3.8-6.83,3.8c-3.74,0-6.83-1.71-6.83-3.8
				v-3.14h2.86C981.05,514.37,982.37,514.09,983.86,514.09L983.86,514.09z"/>
		</g>
		<g>
			<path class="st6" d="M983.86,521.75c-3.74,0-6.83-1.71-6.83-3.8v-3.14h2.86c1.16-0.44,2.48-0.72,3.96-0.72V521.75z"/>
		</g>
		<g>
			<path class="st5" d="M983.86,518.67c3.74,0,6.83-1.76,6.83-3.85s-3.08-3.8-6.83-3.8s-6.83,1.71-6.83,3.8
				S980.12,518.67,983.86,518.67L983.86,518.67z"/>
		</g>
		<g>
			<path class="st7" d="M982.48,502.97c1.49,0,2.81,0.28,3.96,0.72h2.86v3.14c0,2.09-3.08,3.8-6.83,3.8c-3.8,0-6.83-1.71-6.83-3.8
				v-3.14h2.86C979.62,503.25,981,502.97,982.48,502.97L982.48,502.97z"/>
		</g>
		<g>
			<path class="st6" d="M982.48,510.63c-3.8,0-6.83-1.71-6.83-3.8v-3.14h2.86c1.1-0.44,2.48-0.72,3.96-0.72V510.63z"/>
		</g>
		<g>
			<path class="st5" d="M982.48,507.49c3.74,0,6.83-1.71,6.83-3.8c0-2.15-3.08-3.85-6.83-3.85c-3.74,0-6.83,1.71-6.83,3.85
				C975.66,505.78,978.74,507.49,982.48,507.49L982.48,507.49z"/>
		</g>
		<g>
			<path class="st7" d="M964.53,513.32c1.49,0,2.86,0.28,3.96,0.72h2.86v3.08c0,2.15-3.03,3.85-6.83,3.85
				c-3.74,0-6.83-1.71-6.83-3.85v-3.08h2.86C961.72,513.6,963.05,513.32,964.53,513.32L964.53,513.32z"/>
		</g>
		<g>
			<path class="st6" d="M964.53,520.98c-3.74,0-6.83-1.71-6.83-3.85v-3.08h2.86c1.16-0.44,2.48-0.72,3.96-0.72V520.98z"/>
		</g>
		<g>
			<path class="st5" d="M964.53,517.84c3.74,0,6.83-1.71,6.83-3.8c0-2.15-3.08-3.85-6.83-3.85c-3.74,0-6.83,1.71-6.83,3.85
				C957.7,516.13,960.79,517.84,964.53,517.84L964.53,517.84z"/>
		</g>
		<g>
			<polygon class="st26" points="673.56,405.95 667.95,409.3 650.22,410.9 650.05,404.79 673.56,402.26 			"/>
		</g>
		<g>
			<path class="st5" d="M917.62,512.39L917.62,512.39c0,0.88-0.5,1.54-1.38,1.49l-12.44-0.5c-0.88-0.06-1.76-0.77-1.76-1.6v-0.06
				c0-0.83,0.5-1.49,1.38-1.43l12.44,0.5C916.74,510.85,917.62,511.56,917.62,512.39L917.62,512.39z"/>
		</g>
		<g>
			<path class="st7" d="M901.26,505.95L901.26,505.95L901.26,505.95c0,0.77-0.61,1.38-1.38,1.32l-12.45-0.5
				c-0.88-0.06-1.71-0.77-1.76-1.65l0,0c-0.06-0.06-0.06-0.17-0.06-0.22v-2.75l15.64,1.1V505.95z"/>
		</g>
		<g>
			<path class="st5" d="M901.26,502.97L901.26,502.97c0,0.88-0.55,1.54-1.38,1.49l-12.45-0.5c-0.88-0.06-1.76-0.77-1.76-1.65l0,0
				c0-0.83,0.5-1.49,1.38-1.49l12.44,0.55C900.33,501.37,901.26,502.09,901.26,502.97L901.26,502.97z"/>
		</g>
		<g>
			<polygon class="st27" points="970.37,458.48 975.27,461.29 980.17,458.48 975.27,455.67 			"/>
		</g>
		<g>
			<polygon class="st28" points="975.27,455.67 980.17,458.48 985.02,455.67 980.17,452.86 			"/>
		</g>
		<g>
			<polygon class="st29" points="980.17,452.86 985.02,455.67 989.92,452.86 985.02,450.05 			"/>
		</g>
		<g>
			<polygon class="st30" points="975.27,461.29 980.17,464.09 985.02,461.29 980.17,458.48 			"/>
		</g>
		<g>
			<polygon class="st31" points="980.17,464.09 985.02,466.9 989.92,464.09 985.02,461.29 			"/>
		</g>
		<g>
			<polygon class="st7" points="985.02,466.9 989.92,469.77 994.76,466.9 989.92,464.09 			"/>
		</g>
		<g>
			<path class="st15" d="M678.58,405.67l-8.09,1.16l-19.16-1.27v4.18l15.36,8.87c1.82-3.85,6.06-6.94,11.89-8.7V405.67z"/>
		</g>
		<g>
			<path class="st14" d="M678.58,405.67l-8.09,1.16l-3.8-0.28v12.06c1.82-3.85,6.06-6.94,11.89-8.7V405.67z"/>
		</g>
		<g>
			<path class="st10" d="M628.91,362c5.62,3.58,7.6,8.43,5.01,12.44c-2.53,4.02-9.2,6.44-17.02,6.22
				c-31-2.09-55.01,1.49-71.97,10.85c11.34,8.7,26.27,15.75,43.06,20.37c3.63-3.25,8.31-4.9,14.04-4.96l71.53-7.71l0,0l0,0l4.3-8.98
				L628.91,362z"/>
		</g>
		<g>
			<polygon class="st9" points="640.75,351.76 694.93,382.71 692.34,376.43 664.86,360.57 652.03,353.19 			"/>
		</g>
		<g>
			<polygon class="st5" points="635.46,347.13 619.32,356.5 677.86,390.25 673.56,399.23 743.33,434.85 764.15,431.33 
				714.26,402.53 716.63,394 			"/>
		</g>
		<g>
			<path class="st7" d="M747.52,425.27c1.27,0.72,1.43,1.82,0.33,2.48c-1.1,0.66-3.08,0.55-4.35-0.17
				c-1.27-0.77-1.43-1.87-0.33-2.53C744.32,424.45,746.25,424.5,747.52,425.27L747.52,425.27z"/>
		</g>
		<g>
			<path class="st7" d="M688.27,384.36c1.27,0.72,1.43,1.82,0.33,2.48c-1.16,0.66-3.08,0.55-4.35-0.17
				c-1.27-0.77-1.43-1.87-0.33-2.53C685.02,383.53,687,383.59,688.27,384.36L688.27,384.36z"/>
		</g>
		<g>
			<path class="st7" d="M646.14,356.5c1.32,0.77,1.43,1.87,0.33,2.53c-1.1,0.61-3.03,0.55-4.35-0.22c-1.27-0.72-1.43-1.82-0.28-2.48
				C642.95,355.67,644.88,355.78,646.14,356.5L646.14,356.5z"/>
		</g>
		<g>
			<path class="st16" d="M673.56,403.14L673.56,403.14l-22.25,2.42l15.36,8.81c1.82-3.8,6.06-6.88,11.89-8.7L673.56,403.14z"/>
		</g>
		<g>
			<path class="st7" d="M563.65,407.82c1.43,2.42,1.43,5.07,0.06,5.84l-8.54,4.96l-5.18-8.87l8.59-4.96
				C559.96,404.02,562.22,405.34,563.65,407.82L563.65,407.82z"/>
		</g>
		<g>
			<path class="st6" d="M555.06,412.77c1.43,2.42,1.49,5.07,0.11,5.84c-1.38,0.83-3.63-0.55-5.07-2.97
				c-1.43-2.48-1.43-5.07-0.11-5.89C551.37,408.97,553.69,410.3,555.06,412.77L555.06,412.77z"/>
		</g>
		<g>
			<path class="st8" d="M809.38,588.3L550.63,438.91c-4.5-2.55-7.3-7.38-7.3-12.59c0-5.15,2.79-9.97,7.29-12.59l1.28-0.72l1.35,2.4
				l-1.27,0.72c-3.69,2.15-5.91,5.96-5.91,10.2c0,4.22,2.27,8.13,5.91,10.2l258.76,149.4L809.38,588.3z"/>
		</g>
		<g>
			<polygon class="st5" points="841.79,622.74 848.23,623.29 874.67,604.84 868.22,601.15 841.79,616.41 			"/>
		</g>
		<g>
			<polygon class="st6" points="841.79,622.74 848.23,626.43 851.15,623.62 852.97,622.85 841.79,616.41 			"/>
		</g>
		<g>
			<polygon class="st7" points="848.23,626.43 874.67,611.18 874.67,604.84 848.23,620.1 			"/>
		</g>
		<g>
			<polygon class="st5" points="801.04,595.7 814.2,603.3 831.55,583.97 818.39,576.37 801.04,586.4 			"/>
		</g>
		<g>
			<polygon class="st6" points="801.04,595.7 814.2,603.3 818.06,599.61 820.43,597.57 801.04,586.4 			"/>
		</g>
		<g>
			<polygon class="st7" points="814.2,603.3 831.55,593.28 831.55,583.97 814.2,594 			"/>
		</g>
		<g>
			<polygon class="st6" points="824.39,619.11 837.55,626.7 837.55,617.56 825.16,608.97 814.2,594 812.55,599.23 814.2,603.3 			
				"/>
		</g>
		<g>
			<polygon class="st5" points="837.55,617.56 872.24,597.57 859.08,589.98 831.55,583.97 820.48,586.34 814.2,594 824.39,609.96 
							"/>
		</g>
		<g>
			<polygon class="st5" points="681,472.46 689.7,474.17 706.16,461.34 697.46,456.33 681,465.8 			"/>
		</g>
		<g>
			<polygon class="st6" points="681,472.46 689.7,477.48 692.78,474.5 694.71,473.73 681,465.8 			"/>
		</g>
		<g>
			<polygon class="st7" points="689.7,477.48 706.16,467.95 706.16,461.34 689.7,470.81 			"/>
		</g>
		<g>
			<polygon class="st5" points="1179.29,415.47 1160.13,422.02 1137.77,404.62 1156.93,393.56 1179.29,406.44 			"/>
		</g>
		<g>
			<polygon class="st6" points="1179.29,415.47 1160.13,426.54 1155.89,422.52 1153.35,421.42 1179.29,406.44 			"/>
		</g>
		<g>
			<polygon class="st7" points="1160.13,426.54 1137.77,413.6 1137.77,404.62 1160.13,417.51 			"/>
		</g>
		<g>
			<polygon class="st5" points="1157.21,423.95 1148.51,425.6 1131.99,412.77 1140.69,407.76 1157.21,417.29 			"/>
		</g>
		<g>
			<polygon class="st6" points="1157.21,423.95 1148.51,428.96 1145.37,425.99 1143.5,425.22 1157.21,417.29 			"/>
		</g>
		<g>
			<polygon class="st7" points="1148.51,428.96 1131.99,419.44 1131.99,412.77 1148.51,422.3 			"/>
		</g>
		<g>
			<polygon class="st7" points="797.85,280.89 763.16,260.85 763.16,251.71 799.45,270.59 			"/>
		</g>
		<g>
			<polygon class="st5" points="793.55,276.87 787.17,277.42 760.73,258.97 767.18,255.28 793.55,270.54 			"/>
		</g>
		<g>
			<polygon class="st6" points="793.55,276.87 787.17,280.56 784.19,277.75 782.43,276.98 793.55,270.54 			"/>
		</g>
		<g>
			<polygon class="st7" points="787.17,280.56 760.73,265.31 760.73,258.97 787.17,274.23 			"/>
		</g>
		<g>
			<polygon class="st5" points="834.36,249.83 821.2,257.43 803.85,238.1 817.01,230.51 834.36,240.53 			"/>
		</g>
		<g>
			<polygon class="st6" points="834.36,249.83 821.2,257.43 817.29,253.74 814.97,251.76 834.36,240.53 			"/>
		</g>
		<g>
			<polygon class="st7" points="821.2,257.43 803.85,247.41 803.85,238.1 821.2,248.13 			"/>
		</g>
		<g>
			<polygon class="st6" points="811.01,273.29 797.85,280.89 797.85,271.69 810.18,263.16 821.2,248.13 822.85,253.36 821.2,257.43 
							"/>
		</g>
		<g>
			<polygon class="st5" points="797.85,271.69 763.16,251.71 776.32,244.11 803.85,238.1 814.92,240.47 821.2,248.13 811.01,264.1 
							"/>
		</g>
	</g>
</g>
</svg>
