<svg version="1.1" id="Layer_1" xmlns="http://www.w3.org/2000/svg" xmlns:xlink="http://www.w3.org/1999/xlink" x="0" y="0" viewBox="0 0 750 500" xml:space="preserve"><style>.st3,.st5{opacity:.6;fill:#fff;enable-background:new}.st5{opacity:.4}.st6{fill:#f28500}.st7{fill:#d96d00}</style><g id="OBJECTS" opacity=".25"><defs><path id="SVGID_1_" d="M0 0h750v500H0z"/></defs><clipPath id="SVGID_2_"><use xlink:href="#SVGID_1_" overflow="visible"/></clipPath><g clip-path="url(#SVGID_2_)"><linearGradient id="SVGID_3_" gradientUnits="userSpaceOnUse" x1="-243.914" y1="138.922" x2="-176.871" y2="138.922" gradientTransform="scale(1 -1) rotate(-40.722 -80.82 -1170.521)"><stop offset="0" stop-color="#f28500"/><stop offset="1" stop-color="#fba905"/></linearGradient><path d="M711.4 97.8c-1.9 3.7-3.8 7.5-5.6 11.2-1.1 2.2-2.9 4-5.4 5.4-10.5 6-29.8 1.8-43-9.4-10.1-8.5-13.8-18.6-10.3-25.5 1.9-3.7 3.8-7.5 5.6-11.2-3.5 7 .2 17 10.3 25.6 13.2 11.2 32.5 15.3 43 9.4 2.5-1.5 4.3-3.3 5.4-5.5z" fill="url(#SVGID_3_)"/><path class="st3" d="M662.5 94.5c13.2 11.2 32.5 15.3 43 9.4 1.7-.9 3-2.1 4-3.4-1 1-2.1 2-3.5 2.7-10.5 6-29.8 1.8-43-9.4-10.1-8.5-13.8-18.6-10.3-25.6-.4.9-.9 1.8-1.3 2.6-1.9 7 1.9 16 11.1 23.7z"/><linearGradient id="SVGID_4_" gradientUnits="userSpaceOnUse" x1="-195.273" y1="145.578" x2="-269.582" y2="171.093" gradientTransform="scale(1 -1) rotate(-40.722 -80.82 -1170.521)"><stop offset="0" stop-color="#fbcf0a"/><stop offset="1" stop-color="#fba505"/></linearGradient><path d="M701.1 72.3c13.2 11.2 15.4 25 4.9 31s-29.8 1.8-43-9.4c-13.2-11.2-15.4-25-4.9-31 10.6-6 29.8-1.8 43 9.4z" fill="url(#SVGID_4_)"/><path class="st5" d="M672.8 60.3l-4 37.8c7.6 4.8 16.3 7.5 23.9 7.8l3.9-37c-7.4-5-16-8-23.8-8.6z"/><path class="st6" d="M696.4 74.9c9.9 8.4 11.6 18.8 3.7 23.3-7.9 4.5-22.3 1.3-32.3-7-9.9-8.4-11.6-18.8-3.7-23.3 7.9-4.5 22.4-1.3 32.3 7z"/><path class="st7" d="M664.4 71.3c7.9-4.5 22.3-1.3 32.3 7 4.7 3.9 7.5 8.3 8.4 12.3.3-4.8-2.6-10.6-8.6-15.7-9.9-8.4-24.4-11.5-32.3-7-4.2 2.4-5.7 6.4-4.7 10.9.1-3.1 1.8-5.8 4.9-7.5z"/><linearGradient id="SVGID_5_" gradientUnits="userSpaceOnUse" x1="-195.256" y1="145.631" x2="-269.564" y2="171.146" gradientTransform="scale(1 -1) rotate(-40.722 -80.82 -1170.521)"><stop offset="0" stop-color="#fbcf0a"/><stop offset="1" stop-color="#fba505"/></linearGradient><path d="M697 87.9c-.2.9-.9 1.7-1.9 2.3-1 .6-2.2.8-3.6.8-1.4-.1-2.8-.4-4.3-1.1s-3-1.6-4.3-2.8l-3-2.6c-.1-.1-.2-.1-.3-.1l-5.2 2.9c-.1.1-.2.1-.4 0s-.3-.1-.4-.2l-4.5-3.8c-.1-.1-.2-.2-.2-.3 0-.1 0-.2.1-.2l15.3-8.7c.1-.1.2-.1.4 0 .1 0 .3.1.4.2l8.4 7.1c1.4 1.2 2.3 2.3 2.9 3.4.7 1.1.9 2.2.6 3.1zm-9.2-2.1c.7.2 1.3.2 1.8-.1.5-.3.7-.7.6-1.2-.1-.5-.5-1.1-1.3-1.7l-2.4-2c-.1-.1-.2-.1-.3-.1l-3.1 1.7c-.1 0-.1.1 0 .2l2.4 2c.9.6 1.6 1 2.3 1.2" fill="url(#SVGID_5_)"/><radialGradient id="SVGID_6_" cx="-146.534" cy="-588.616" r="19.965" gradientTransform="matrix(1.0576 .7038 .2636 -.3962 1006.385 -47.474)" gradientUnits="userSpaceOnUse"><stop offset="0" stop-color="#d96d00"/><stop offset=".081" stop-color="#d96d00"/><stop offset=".091" stop-color="#d96d00"/><stop offset=".369" stop-color="#db7000" stop-opacity=".695"/><stop offset=".581" stop-color="#e07a01" stop-opacity=".461"/><stop offset=".773" stop-color="#ea8a02" stop-opacity=".25"/><stop offset=".95" stop-color="#f7a104" stop-opacity=".055"/><stop offset="1" stop-color="#fba905" stop-opacity="0"/></radialGradient><path d="M719.4 97.9c-3.9 5.9-17.5 3.8-30.3-4.8-12.8-8.5-20-20.2-16.1-26.1 3.9-5.9 17.5-3.8 30.3 4.8s20 20.3 16.1 26.1z" fill="url(#SVGID_6_)"/><image width="600" height="667" xlink:href="656F3899.png" transform="translate(162.66 38.36) scale(.2382)" overflow="visible"/><radialGradient id="SVGID_7_" cx="999.411" cy="-2220.284" r="27.401" gradientTransform="matrix(.8538 -.9407 -.3524 -.3198 -1400.045 329.064)" gradientUnits="userSpaceOnUse"><stop offset="0" stop-color="#d96d00"/><stop offset=".081" stop-color="#d96d00"/><stop offset=".091" stop-color="#d96d00"/><stop offset=".369" stop-color="#db7000" stop-opacity=".695"/><stop offset=".581" stop-color="#e07a01" stop-opacity=".461"/><stop offset=".773" stop-color="#ea8a02" stop-opacity=".25"/><stop offset=".95" stop-color="#f7a104" stop-opacity=".055"/><stop offset="1" stop-color="#fba905" stop-opacity="0"/></radialGradient><path d="M261.4 70.7c7.2 6.5 1.5 24.5-12.6 40.1-14.2 15.6-31.5 23-38.7 16.5s-1.5-24.5 12.6-40.1c14.1-15.7 31.5-23.1 38.7-16.5z" fill="url(#SVGID_7_)"/><linearGradient id="SVGID_8_" gradientUnits="userSpaceOnUse" x1="143.422" y1="475.43" x2="257.361" y2="421.285" gradientTransform="matrix(1 0 0 -1 0 502)"><stop offset="0" stop-color="#fbcf0a"/><stop offset="1" stop-color="#fba505"/></linearGradient><path d="M198.5 14.8c27.9-5.2 52 8.3 53.8 30.2 1.8 21.8-19.3 43.7-47.2 48.9-27.9 5.2-52-8.3-53.8-30.2-1.8-21.9 19.3-43.7 47.2-48.9z" fill="url(#SVGID_8_)"/><path class="st5" d="M202.6 14.2l-50.8 40.5c-.6 3-.8 6-.5 9 1 11.6 8.1 20.8 18.8 26.1l76-60.7c-8.5-11.1-24.9-17.2-43.5-14.9z"/><path class="st6" d="M199.3 24.6c20.9-3.9 39 6.3 40.4 22.6S225.2 80.1 204.2 84c-20.9 3.9-39-6.3-40.4-22.6-1.3-16.4 14.6-32.9 35.5-36.8z"/><path class="st7" d="M163.9 61.7c1.5-14.8 16.3-28.8 35.4-32.3 20.8-3.9 38.7 6.1 40.4 22.3.1-1.5.2-2.9 0-4.4-1.4-16.4-19.4-26.5-40.4-22.6S162.5 45 163.9 61.4v.3z"/><linearGradient id="SVGID_9_" gradientUnits="userSpaceOnUse" x1="143.748" y1="476.117" x2="257.688" y2="421.971" gradientTransform="matrix(1 0 0 -1 0 502)"><stop offset="0" stop-color="#fbcf0a"/><stop offset="1" stop-color="#fba505"/></linearGradient><path d="M223.1 44.6c-.2-2.2-.9-4-2.3-5.4-1.3-1.5-3.1-2.4-5.4-2.9s-4.8-.5-7.7 0l-17.8 3.3c-.3 0-.5.2-.6.3-.2.2-.2.3-.2.6l2.6 31.8c0 .2.1.4.3.5.2.1.4.1.7.1l9.6-1.8c.3-.1.5-.2.6-.3.1-.2.2-.3.2-.6l-.9-10.7c0-.2.1-.3.3-.3l6.4-1.2c2.9-.5 5.5-1.5 7.7-2.8 2.2-1.3 3.9-2.9 5-4.7 1.2-1.8 1.6-3.8 1.5-5.9zm-12.5 5c-.9.8-2 1.3-3.5 1.6l-5.1.9c-.2 0-.3 0-.3-.2l-.5-6.4c0-.2.1-.3.3-.3l5.1-1c1.5-.3 2.7-.2 3.7.3s1.5 1.2 1.6 2.3c-.1 1.1-.5 2-1.3 2.8z" fill="url(#SVGID_9_)"/><linearGradient id="SVGID_10_" gradientUnits="userSpaceOnUse" x1="185.324" y1="402.673" x2="231.76" y2="464.999" gradientTransform="matrix(1 0 0 -1 0 502)"><stop offset="0" stop-color="#f28500"/><stop offset="1" stop-color="#fba905"/></linearGradient><path d="M250.9 37.9c.1.5.4 1.1.5 1.5.1.2.2.5.3.8.1.5.4 1.1.5 1.5s.4 1.1.5 1.5c.1.2.2.5.3.8.2.5.4 1.1.5 1.5s.4 1.1.5 1.5c.1.2.2.5.3.8.1.5.4 1.1.5 1.5.4 1.3.9 2.5 1.3 3.8.8 2.2 1.2 4.6 1.4 7.1 1.8 21.8-19.3 43.7-47.2 48.9-24.7 4.6-46.5-5.5-52.4-23.1l-5.1-15.3c5.9 17.6 27.6 27.7 52.3 23.1 27.9-5.2 49-27.1 47.2-48.9-.2-2.4-.7-4.8-1.4-7z" fill="url(#SVGID_10_)"/><path class="st3" d="M205.1 95.1c27.1-5 47.9-25.9 47.3-47.1-.3 20.8-20.7 40.9-47.3 45.8-24.7 4.6-46.5-5.5-52.4-23.1.6 1.9 1.3 3.9 1.9 5.8 7.9 14.8 27.9 22.8 50.5 18.6z"/><linearGradient id="SVGID_11_" gradientUnits="userSpaceOnUse" x1="285.257" y1="335.965" x2="368.11" y2="335.965" gradientTransform="matrix(1 0 0 -1 0 502)"><stop offset="0" stop-color="#f28500"/><stop offset="1" stop-color="#fba905"/></linearGradient><path d="M368.1 172.5c-2.5 5.1-5 10.1-7.5 15.2-3.1 6.4-12.5 9.6-25.8 7.5-20.2-3.1-41.6-17.1-47.9-31.4-2.2-4.9-2.2-9.2-.6-12.5l7.5-15.2c-1.6 3.4-1.6 7.6.6 12.5 6.3 14.2 27.7 28.2 47.9 31.4 13.3 2.1 22.7-1.1 25.8-7.5z" fill="url(#SVGID_11_)"/><path class="st3" d="M341.5 181.2c12.4 1.9 21.5-.7 25.1-6.4-4.1 4.9-12.7 7-24.3 5.3-20.2-3.1-41.6-17.1-47.9-31.4-2.2-4.9-2.2-9.2-.6-12.5l-1.6 3.3c-.7 3-.3 6.4 1.4 10.3 6.3 14.2 27.7 28.3 47.9 31.4z"/><linearGradient id="SVGID_12_" gradientUnits="userSpaceOnUse" x1="314.694" y1="366.774" x2="359.267" y2="314.491" gradientTransform="matrix(1 0 0 -1 0 502)"><stop offset="0" stop-color="#fbcf0a"/><stop offset="1" stop-color="#fba505"/></linearGradient><path d="M319.6 128.6c20.2 3.1 41.6 17.1 47.9 31.4 6.3 14.2-5 23.2-25.2 20.1-20.2-3.1-41.6-17.1-47.9-31.4-6.2-14.2 5.1-23.2 25.2-20.1z" fill="url(#SVGID_12_)"/><path class="st5" d="M294.5 148.7c6.3 14.2 27.7 28.2 47.9 31.4 20 3.1 31.2-5.7 25.4-19.6l-73.9-24.3c-1.7 3.3-1.6 7.6.6 12.5z"/><path class="st6" d="M322.5 135c15.1 2.3 31.3 12.9 36 23.5 4.7 10.7-3.8 17.4-18.9 15.1-15.2-2.3-31.3-12.9-36-23.5-4.7-10.7 3.7-17.4 18.9-15.1z"/><path class="st7" d="M320.7 137.9c15.1 2.3 31.3 12.9 36 23.5 1.5 3.3 1.6 6.2.8 8.6 2.5-2.7 3-6.7 1-11.4-4.7-10.7-20.8-21.2-36-23.5-10.5-1.6-17.8 1.1-19.7 6.5 3.2-3.5 9.5-5 17.9-3.7z"/><linearGradient id="SVGID_13_" gradientUnits="userSpaceOnUse" x1="315.937" y1="367.835" x2="360.511" y2="315.55" gradientTransform="matrix(1 0 0 -1 0 502)"><stop offset="0" stop-color="#fbcf0a"/><stop offset="1" stop-color="#fba505"/></linearGradient><path d="M342.1 149.1c1.3 1.2 2.3 2.5 2.9 3.9.6 1.4.7 2.5.3 3.4-.4.9-1.4 1.5-2.7 1.9-1.4.3-3.1.3-5.3 0l-4.7-.7c-.1 0-.2 0-.1.1l3.1 7c.1.1 0 .3 0 .3-.1.1-.2.1-.4.1l-6.9-1.1c-.2 0-.4-.1-.5-.2-.1-.1-.3-.2-.3-.4l-9.1-20.7c-.1-.1-.1-.3 0-.3.1-.1.2-.1.4-.1l12.9 2c2.1.3 4 .9 5.9 1.7 1.6.9 3.2 1.9 4.5 3.1zm-5.5 4.3c.5-.3.6-.8.3-1.4-.3-.7-.9-1.3-1.7-1.8s-1.8-.9-2.9-1l-3.7-.6c-.1 0-.2 0-.1.1l1.8 4.1c0 .1.1.2.3.2l3.7.6c1.1.1 1.9.1 2.3-.2" fill="url(#SVGID_13_)"/><radialGradient id="SVGID_14_" cx="-386.631" cy="-489.575" r="16.692" gradientTransform="matrix(1.0645 .6932 .2597 -.3988 850.292 255.007)" gradientUnits="userSpaceOnUse"><stop offset="0" stop-color="#d96d00"/><stop offset=".081" stop-color="#d96d00"/><stop offset=".091" stop-color="#d96d00"/><stop offset=".369" stop-color="#db7000" stop-opacity=".695"/><stop offset=".581" stop-color="#e07a01" stop-opacity=".461"/><stop offset=".773" stop-color="#ea8a02" stop-opacity=".25"/><stop offset=".95" stop-color="#f7a104" stop-opacity=".055"/><stop offset="1" stop-color="#fba905" stop-opacity="0"/></radialGradient><path d="M331.1 194.9c-3.2 5-14.6 3.3-25.4-3.7-10.8-7-16.9-16.7-13.6-21.7s14.6-3.3 25.4 3.7c10.8 7 16.9 16.7 13.6 21.7z" opacity=".7" fill="url(#SVGID_14_)"/><g><image width="475" height="450" xlink:href="656F389B.png" transform="matrix(.238 0 0 .238 274.8 25.255)" overflow="visible"/></g><g><linearGradient id="SVGID_15_" gradientUnits="userSpaceOnUse" x1="439.142" y1="502.204" x2="466.927" y2="422.649" gradientTransform="matrix(1 0 0 -1 0 502)"><stop offset="0" stop-color="#fbcf0a"/><stop offset="1" stop-color="#fba505"/></linearGradient><path d="M452.2-.7c15.5 15.9 28.2 46.4 28.5 68.1.3 21.7-12 26.3-27.5 10.3S425 31.3 424.8 9.6c-.4-21.7 11.9-26.3 27.4-10.3z" fill="url(#SVGID_15_)"/><path class="st5" d="M424.7 9.6c.3 21.7 13 52.1 28.4 68.1s27.8 11.3 27.5-10.3c0-3-.3-6.3-.8-9.6L433-9.8c-5.3 1.7-8.5 8.3-8.3 19.4z"/><linearGradient id="SVGID_16_" gradientUnits="userSpaceOnUse" x1="403.626" y1="458.711" x2="473.09" y2="458.711" gradientTransform="matrix(1 0 0 -1 0 502)"><stop offset="0" stop-color="#f28500"/><stop offset="1" stop-color="#fba905"/></linearGradient><path d="M473.1 86.5l-21 9c-5 2.1-12.1-.7-20-8.8-15.5-15.9-28.2-46.4-28.4-68.1-.1-10.6 2.8-17.1 7.5-19.1l21-9c-4.8 2-7.6 8.6-7.5 19.1.3 21.7 13 52.1 28.4 68.1 7.9 8.1 15 10.9 20 8.8z" fill="url(#SVGID_16_)"/><path class="st3" d="M468.9 87.2c-4.5-.3-9.9-3.4-15.8-9.5-15.5-16-28.2-46.4-28.4-68.1-.1-10.6 2.7-17.1 7.5-19.1-1.3.5-2.6 1.1-3.8 1.6-3.3 3-5.1 8.9-5 17.5.3 21.7 13 52.1 28.4 68.1 6.5 6.7 12.4 9.7 17.1 9.5z"/><path class="st6" d="M453 67.9c11.6 12 20.8 8.5 20.6-7.8-.1-16.2-9.7-39.1-21.3-51.1-11.6-12-20.8-8.5-20.6 7.8.2 16.2 9.7 39.1 21.3 51.1"/><path class="st7" d="M452.3 9c-5.7-5.9-10.9-8-14.6-6.8 3.4.2 7.4 2.5 11.8 7.1 11.6 12 21.2 34.9 21.4 51.1.1 8.3-2.2 13.2-6.1 14.5 5.4.4 8.9-4.8 8.8-14.9-.1-16.1-9.7-39-21.3-51z"/><linearGradient id="SVGID_17_" gradientUnits="userSpaceOnUse" x1="439.808" y1="502.437" x2="467.592" y2="422.883" gradientTransform="matrix(1 0 0 -1 0 502)"><stop offset="0" stop-color="#fbcf0a"/><stop offset="1" stop-color="#fba505"/></linearGradient><path d="M463.6 38.5c.7 2.3 1 4.6 1.1 6.7 0 2.1-.3 3.6-1 4.5-.7.9-1.6 1.1-2.9.7s-2.7-1.5-4.3-3.2l-3.6-3.7c-.1-.1-.2-.1-.2.1l.1 10.6c0 .2 0 .3-.1.4-.1 0-.2 0-.4-.2L447 49c-.2-.2-.3-.4-.4-.6-.1-.2-.1-.4-.1-.7l-.4-31.6c0-.2 0-.4.1-.4s.2 0 .4.2l9.9 10.2c1.6 1.6 3 3.5 4.2 5.7 1.2 2.2 2.2 4.4 2.9 6.7zm-6 2.1c.5-.1.7-.6.7-1.7 0-1-.3-2.1-.8-3.3-.5-1.2-1.2-2.2-2-3l-2.8-2.9c-.1-.1-.2-.1-.2.1l.1 6.3c0 .2.1.3.2.4l2.8 2.9c.9.9 1.5 1.3 2 1.2" fill="url(#SVGID_17_)"/></g><g><image width="613" height="621" xlink:href="656F389E.png" transform="translate(495.12 9.806) scale(.2384)" overflow="visible"/></g><g><linearGradient id="SVGID_18_" gradientUnits="userSpaceOnUse" x1="612.046" y1="238.466" x2="665.091" y2="236.118" gradientTransform="matrix(1 0 0 -1 0 502)"><stop offset="0" stop-color="#fbcf0a"/><stop offset="1" stop-color="#fba505"/></linearGradient><path d="M616.4 250c9.1-5.5 22-3.6 28.8 4.3 6.9 7.9 5.1 18.8-4 24.3s-22 3.6-28.8-4.3c-6.9-7.9-5.1-18.8 4-24.3z" fill="url(#SVGID_18_)"/><path class="st5" d="M616.4 250c-3.3 2-5.6 4.7-6.9 7.8l33 20c4.9-3.5 7.3-8.7 6.9-13.9l-26.9-16.3c-2.2.4-4.2 1.3-6.1 2.4z"/><path class="st6" d="M638.2 275c6.8-4.1 8.1-12.3 3-18.2-5.2-5.9-14.9-7.4-21.7-3.2s-8.1 12.3-3 18.2c5.2 5.9 14.9 7.3 21.7 3.2"/><path class="st7" d="M638.2 273.2c-6.8 4.1-16.5 2.7-21.7-3.2-1.9-2.2-2.9-4.6-3.1-7.1-.3 3 .8 6.2 3.1 8.9 5.2 5.9 14.9 7.4 21.7 3.2 4.3-2.6 6.4-6.9 6.1-11.1-.3 3.6-2.4 7-6.1 9.3z"/><linearGradient id="SVGID_19_" gradientUnits="userSpaceOnUse" x1="612.057" y1="238.705" x2="665.102" y2="236.358" gradientTransform="matrix(1 0 0 -1 0 502)"><stop offset="0" stop-color="#fbcf0a"/><stop offset="1" stop-color="#fba505"/></linearGradient><path d="M631.7 256.2c.9.4 1.7.9 2.4 1.7.7.8 1 1.6 1.2 2.4.1.8-.1 1.6-.5 2.4-.5.8-1.2 1.5-2.1 2l-2.1 1.3c-.1 0-.1.1 0 .1l3.4 3.9c.1.1.1.2.1.2 0 .1-.1.1-.2.2l-3.1 1.9c-.1 0-.2.1-.3.1-.1 0-.2-.1-.2-.1l-10-11.5c-.1-.1-.1-.2-.1-.2 0-.1.1-.1.2-.2l5.8-3.5c.9-.6 1.9-.9 2.9-1 .8-.2 1.7-.1 2.6.3zm-.9 5.2c.1-.4 0-.8-.3-1.1-.3-.4-.7-.6-1.2-.6s-1 .1-1.5.4l-1.7 1c-.1 0-.1.1 0 .1l2 2.3c0 .1.1.1.2 0l1.7-1c.4-.4.7-.7.8-1.1" fill="url(#SVGID_19_)"/><linearGradient id="SVGID_20_" gradientUnits="userSpaceOnUse" x1="608.31" y1="247.951" x2="650.002" y2="247.951" gradientTransform="matrix(1 0 0 -1 0 502)"><stop offset="0" stop-color="#f28500"/><stop offset="1" stop-color="#fba905"/></linearGradient><path d="M645.8 249c-6.9-7.9-19.8-9.8-28.9-4.3-4.8 2.9-7.6 7.4-8.1 12-.2 1.8-.4 3.5-.6 5.3.5-4.7 3.3-9.1 8.1-12 9.1-5.5 22-3.6 28.8 4.3 3.2 3.7 4.5 8.1 4.1 12.2.2-1.8.4-3.5.6-5.3.6-4.1-.7-8.5-4-12.2z" fill="url(#SVGID_20_)"/><path class="st3" d="M616.4 249.6c-4.4 2.7-7.1 6.7-7.9 11 0 .5-.1 1-.2 1.4.5-4.7 3.3-9.1 8.1-12 9.1-5.5 22-3.6 28.8 4.3 2.8 3.2 4.1 6.8 4.2 10.5 0-3.7-1.3-7.5-4.2-10.9-6.8-7.9-19.7-9.8-28.8-4.3z"/></g><g><linearGradient id="SVGID_21_" gradientUnits="userSpaceOnUse" x1="-256.66" y1="213.075" x2="-104.482" y2="206.341" gradientTransform="scale(1 -1) rotate(-40.722 -80.82 -1170.52)"><stop offset="0" stop-color="#fbcf0a"/><stop offset="1" stop-color="#fba505"/></linearGradient><path d="M723.3-14.1c30 5 54.6 33.3 54.8 63.3s-24 50.3-54.1 45.3-54.6-33.3-54.8-63.3c-.1-29.9 24.1-50.2 54.1-45.3z" fill="url(#SVGID_21_)"/><path class="st5" d="M723.3-14.1c-10.9-1.8-21.1-.3-29.6 3.9L728.2 95c17.2 1.6 32.2-5.3 41.1-17.4L741.2-8.1c-5.6-2.9-11.6-4.9-17.9-6z"/><path class="st6" d="M723.9 81c22.6 3.7 40.7-11.5 40.6-34-.1-22.5-18.5-43.8-41.1-47.5s-40.7 11.5-40.6 34 18.6 43.8 41.1 47.5"/><path class="st7" d="M727.4 77c-22.6-3.7-41-25-41.1-47.5 0-8.2 2.3-15.5 6.5-21.2-6.2 6.1-10 14.9-9.9 25.1.1 22.6 18.5 43.9 41 47.6 14.3 2.4 26.9-2.9 34.1-12.9-7.4 7.4-18.4 11-30.6 8.9z"/><linearGradient id="SVGID_22_" gradientUnits="userSpaceOnUse" x1="-256.631" y1="213.72" x2="-104.454" y2="206.986" gradientTransform="scale(1 -1) rotate(-40.722 -80.82 -1170.52)"><stop offset="0" stop-color="#fbcf0a"/><stop offset="1" stop-color="#fba505"/></linearGradient><path d="M745.1 28.1c1.3 2.5 2 5.2 2 8.2 0 2.9-.6 5.4-2 7.4-1.3 2-3.2 3.4-5.7 4.2-2.4.8-5.2 1-8.4.4l-6.9-1.1c-.2 0-.3 0-.3.3l.1 14.7c0 .3-.1.5-.3.7-.2.1-.4.2-.7.1l-10.3-1.7c-.3 0-.5-.2-.7-.4s-.3-.5-.3-.8l-.3-43.7c0-.3.1-.5.3-.7.2-.1.4-.2.7-.1l19.2 3.2c3.1.5 5.8 1.6 8.2 3.2 2.2 1.5 4.1 3.6 5.4 6.1zm-11.7 9.5c1-.7 1.5-1.7 1.5-3.1 0-1.4-.5-2.7-1.5-3.7s-2.3-1.7-3.9-2l-5.5-.9c-.2 0-.3 0-.3.3l.1 8.8c0 .2.1.3.3.4l5.5.9c1.5.2 2.8 0 3.8-.7" fill="url(#SVGID_22_)"/><linearGradient id="SVGID_23_" gradientUnits="userSpaceOnUse" x1="-267.341" y1="240.304" x2="-147.756" y2="240.304" gradientTransform="scale(1 -1) rotate(-40.722 -80.82 -1170.521)"><stop offset="0" stop-color="#f28500"/><stop offset="1" stop-color="#fba905"/></linearGradient><path d="M789.2 38.8c-.2-30-24.7-58.3-54.8-63.3-15.9-2.6-30.2 1.8-40.1 11.1-3.6 3.5-7.3 6.9-11 10.4 9.9-9.2 24.2-13.7 40.1-11.1 30 5 54.6 33.3 54.8 63.3.1 14.1-5.2 26.1-14 34.3 3.7-3.5 7.4-6.9 11.1-10.4 8.7-8.2 14-20.2 13.9-34.3z" fill="url(#SVGID_23_)"/><path class="st3" d="M724-14.9c-14.7-2.4-28 1.2-37.8 9.1-1 .9-2 1.9-3 2.8 9.9-9.2 24.2-13.7 40.1-11.1 30 5 54.6 33.3 54.8 63.3.1 12.1-3.8 22.6-10.5 30.6 7.1-8 11.3-18.9 11.2-31.4-.2-30-24.7-58.3-54.8-63.3z"/></g><g><linearGradient id="SVGID_24_" gradientUnits="userSpaceOnUse" x1="144.606" y1="335.314" x2="216.947" y2="287.613" gradientTransform="matrix(1 0 0 -1 0 502)"><stop offset="0" stop-color="#fbcf0a"/><stop offset="1" stop-color="#fba505"/></linearGradient><path d="M164.3 170.4c19.1 9.6 40.2 25.1 47.1 34.8 6.9 9.7-3.1 9.8-22.2.2s-40.2-25.1-47.1-34.8c-6.9-9.7 3.1-9.8 22.2-.2z" fill="url(#SVGID_24_)"/><path class="st5" d="M164.3 170.4c-1.1-.5-2.1-1-3.1-1.5l23.8 34.3c1.4.8 2.8 1.5 4.2 2.2 19.1 9.6 29 9.5 22.2-.2-7-9.7-28-25.3-47.1-34.8z"/><path class="st6" d="M167.4 174.7c14.4 7.2 30.2 18.9 35.3 26.1 5.2 7.3-2.3 7.3-16.6.1-14.4-7.2-30.2-18.9-35.3-26.1-5.2-7.2 2.2-7.3 16.6-.1z"/><path class="st7" d="M202.7 200.8c-5.2-7.3-21-18.9-35.3-26.1-11.6-5.8-18.7-6.9-18.3-3.2 2.8-.4 8.6 1.4 16.4 5.3 14.4 7.2 30.2 18.9 35.3 26.1 1 1.4 1.5 2.5 1.6 3.4 2.4-.4 2.7-2.2.3-5.5z"/><linearGradient id="SVGID_25_" gradientUnits="userSpaceOnUse" x1="144.642" y1="335.368" x2="216.994" y2="287.659" gradientTransform="matrix(1 0 0 -1 0 502)"><stop offset="0" stop-color="#fbcf0a"/><stop offset="1" stop-color="#fba505"/></linearGradient><path d="M186.8 189.6c1.4 1.1 2.4 2.2 3 3.1.7.9.8 1.6.5 1.8s-1.2.2-2.4-.1c-1.3-.4-2.9-1.1-4.9-2.1l-4.4-2.2c-.1-.1-.2-.1-.1 0l3.4 4.7c.1.1.1.1 0 .1s-.2-.1-.4-.1l-6.6-3.3c-.2-.1-.4-.2-.5-.3-.1-.1-.3-.2-.3-.3l-10-14.1c-.1-.1-.1-.1 0-.1s.2.1.4.1l12.2 6.1c2 1 3.9 2.1 5.6 3.2 1.6 1.2 3.1 2.4 4.5 3.5zm-4.9 0c.4 0 .5-.2.2-.6-.3-.5-.9-1-1.7-1.6-.8-.6-1.8-1.1-2.8-1.7l-3.5-1.8c-.1-.1-.2-.1-.1 0l2 2.8c.1.1.1.1.3.2l3.5 1.8c1 .6 1.7.9 2.1.9" fill="url(#SVGID_25_)"/><linearGradient id="SVGID_26_" gradientUnits="userSpaceOnUse" x1="128.99" y1="305.031" x2="213.18" y2="305.031" gradientTransform="matrix(1 0 0 -1 0 502)"><stop offset="0" stop-color="#f28500"/><stop offset="1" stop-color="#fba905"/></linearGradient><path d="M213.2 211.3c-3.6 5.7-7.3 11.4-10.9 17-1.8 2.7-10.6.8-24-5.9-19.1-9.6-40.2-25.1-47.1-34.8-2.1-2.9-2.6-4.9-1.9-6.1l10.9-17c-.8 1.2-.2 3.2 1.9 6.1 6.9 9.7 27.9 25.2 47.1 34.8 13.4 6.6 22.2 8.6 24 5.9z" fill="url(#SVGID_26_)"/><path class="st3" d="M212.4 211.9c-2.8 1.6-11.2-.6-23.3-6.6-19.1-9.6-40.2-25.1-47.1-34.8-2.1-2.9-2.6-4.9-1.9-6.1l-.9 1.4c-.1 1.2.6 2.9 2.2 5.2 6.9 9.7 27.9 25.2 47.1 34.8 13.1 6.6 21.9 8.6 23.9 6.1z"/></g><g><image width="604" height="667" xlink:href="656F389F.png" transform="translate(-77.04 88.475) scale(.2376)" overflow="visible"/></g><g><image width="508" height="504" xlink:href="656F389A.png" transform="translate(11.76 163.754) scale(.2372)" overflow="visible"/></g><g><linearGradient id="SVGID_27_" gradientUnits="userSpaceOnUse" x1="761.735" y1="363.673" x2="711.454" y2="289.928" gradientTransform="matrix(1 0 0 -1 0 502)"><stop offset="0" stop-color="#fbcf0a"/><stop offset="1" stop-color="#fba505"/></linearGradient><path d="M748.5 128.3c14-10.4 25.2-5.5 25.2 10.9-.1 16.4-11.5 38.1-25.5 48.5-14 10.4-25.2 5.5-25.2-10.9s11.5-38.1 25.5-48.5z" fill="url(#SVGID_27_)"/><path class="st5" d="M759.4 176.3c7-9.3 12.2-20.9 13.7-31.3l-15-21.6c-3 .8-6.3 2.4-9.7 4.9-4.7 3.5-9.1 8.2-12.8 13.6l23.8 34.4z"/><linearGradient id="SVGID_28_" gradientUnits="userSpaceOnUse" x1="729.42" y1="339.402" x2="787.631" y2="339.402" gradientTransform="matrix(1 0 0 -1 0 502)"><stop offset="0" stop-color="#f28500"/><stop offset="1" stop-color="#fba905"/></linearGradient><path d="M767.2 124.2c4.7 2.6 9.3 5.2 14 7.8 4 2.3 6.5 7.4 6.5 15.1-.1 16.4-11.5 38.1-25.5 48.5-7.4 5.5-14.1 6.7-18.7 4.1-4.7-2.6-9.3-5.2-14-7.8 4.6 2.6 11.3 1.4 18.7-4.1 14-10.4 25.4-32.1 25.5-48.5 0-7.7-2.5-12.9-6.5-15.1z" fill="url(#SVGID_28_)"/><path class="st3" d="M768.9 125.5c3 2.7 4.7 7.3 4.7 13.8-.1 16.4-11.5 38.1-25.5 48.5-7.4 5.5-14.1 6.7-18.7 4.1.8.4 1.5.9 2.3 1.3 4.5 1.6 10.5.1 17.1-4.8 14-10.4 25.4-32.1 25.5-48.5 0-7-2-11.9-5.4-14.4z"/><path class="st6" d="M748.4 135.7c10.5-7.8 19-4.1 18.9 8.2-.1 12.3-8.6 28.6-19.1 36.4s-19 4.1-18.9-8.2c0-12.3 8.6-28.6 19.1-36.4z"/><path class="st7" d="M732.9 172.4c.1-12.3 8.6-28.6 19.1-36.4 3.2-2.4 6.3-3.7 8.9-4-3.3-1-7.7.2-12.5 3.8-10.5 7.8-19.1 24.1-19.1 36.4 0 8.5 4 12.9 10 12.2-4-1.2-6.5-5.3-6.4-12z"/><linearGradient id="SVGID_29_" gradientUnits="userSpaceOnUse" x1="760.775" y1="364.328" x2="710.494" y2="290.583" gradientTransform="matrix(1 0 0 -1 0 502)"><stop offset="0" stop-color="#fbcf0a"/><stop offset="1" stop-color="#fba505"/></linearGradient><path d="M758.3 142c.6.8.9 2 .9 3.6s-.3 3.2-1 4.9c-.6 1.7-1.5 3.3-2.7 4.8-1.1 1.5-2.5 2.8-3.9 3.9l-3.2 2.4c-.1.1-.2.2-.2.3v8c0 .2 0 .3-.1.5s-.2.3-.3.4l-4.8 3.6c-.1.1-.3.1-.3.1-.1 0-.1-.1-.1-.3l.1-23.9c0-.2 0-.3.1-.5s.2-.3.3-.4l8.9-6.6c1.4-1.1 2.7-1.7 3.8-1.8 1.1-.1 1.9.2 2.5 1zm-5.5 10.4c.5-.8.7-1.6.7-2.4 0-.8-.2-1.3-.7-1.4-.5-.1-1.1.1-1.8.6l-2.6 1.9c-.1.1-.2.2-.2.3v4.8c0 .1 0 .1.2.1l2.6-1.9c.8-.5 1.4-1.2 1.8-2" fill="url(#SVGID_29_)"/></g><g><image width="675" height="708" xlink:href="656F3895.png" transform="matrix(.239 0 0 .239 417.343 96.44)" overflow="visible"/></g><g><image width="679" height="671" xlink:href="656F3896.png" transform="translate(665.52 190.514) scale(.2386)" overflow="visible"/></g><g><linearGradient id="SVGID_30_" gradientUnits="userSpaceOnUse" x1="776.58" y1="142.245" x2="686.415" y2="110.251" gradientTransform="matrix(1 0 0 -1 0 502)"><stop offset="0" stop-color="#fbcf0a"/><stop offset="1" stop-color="#fba505"/></linearGradient><path d="M730.4 356.4c23.9-6 49.1-4.1 56.3 4.3 7.2 8.4-6.4 20-30.3 26s-49.1 4.1-56.3-4.3 6.4-20 30.3-26z" fill="url(#SVGID_30_)"/><path class="st5" d="M756.8 352.9c-8.3.1-17.5 1.2-26.5 3.5-3.8 1-7.3 2-10.5 3.3l20.7 29.9c5.2-.6 10.5-1.5 15.8-2.8 7.5-1.9 13.9-4.3 19-7l-18.5-26.9z"/><linearGradient id="SVGID_31_" gradientUnits="userSpaceOnUse" x1="698.27" y1="114.734" x2="791.712" y2="114.734" gradientTransform="matrix(1 0 0 -1 0 502)"><stop offset="0" stop-color="#f28500"/><stop offset="1" stop-color="#fba905"/></linearGradient><path d="M788.5 364.4l3.2 19.9c1.2 7.8-11.6 17.1-32.1 22.3-23.9 6-49.1 4.1-56.3-4.3-1-1.2-1.6-2.5-1.8-3.8l-3.2-19.9c.2 1.3.8 2.6 1.8 3.8 7.2 8.4 32.4 10.3 56.3 4.3 20.4-5.2 33.3-14.5 32.1-22.3z" fill="url(#SVGID_31_)"/><path class="st3" d="M756.4 387.9c20.1-5 32.8-14.1 32.1-21.8-.7 7.4-13.1 15.8-32.1 20.6-23.9 6-49.1 4.1-56.3-4.3-1-1.2-1.6-2.5-1.8-3.8l.4 2.7c.3.8.8 1.5 1.4 2.3 7.2 8.4 32.4 10.3 56.3 4.3z"/><path class="st6" d="M733.6 360.1c17.9-4.5 36.9-3.1 42.3 3.2 5.4 6.3-4.8 15-22.7 19.6-17.9 4.5-36.9 3.1-42.3-3.2-5.4-6.3 4.8-15 22.7-19.6z"/><path class="st7" d="M733.6 362.9c17.9-4.5 36.9-3.1 42.3 3.2.6.7 1 1.5 1.2 2.2.4-1.7 0-3.4-1.3-4.9-5.4-6.3-24.3-7.7-42.3-3.2-15.9 4-25.7 11.3-24 17.3 1.5-5.4 10.6-11.2 24.1-14.6z"/><linearGradient id="SVGID_32_" gradientUnits="userSpaceOnUse" x1="776.426" y1="142.678" x2="686.263" y2="110.684" gradientTransform="matrix(1 0 0 -1 0 502)"><stop offset="0" stop-color="#fbcf0a"/><stop offset="1" stop-color="#fba505"/></linearGradient><path d="M756.7 362.9c1.6.4 2.7 1 3.4 1.8.7.8.8 1.7.2 2.6-.5.9-1.6 1.8-3.3 2.6-1.7.8-3.7 1.6-6.3 2.2l-5.5 1.4c-.2 0-.2.1-.2.2l3.5 4.1c.1.1.1.2 0 .3-.1.1-.3.2-.5.2l-8.2 2.1c-.2.1-.5.1-.6.1-.2 0-.3-.1-.4-.1l-10.5-12.2c-.1-.1-.1-.2 0-.3s.3-.2.5-.2l15.2-3.8c2.5-.6 4.8-1 7-1.1 2.3-.5 4.1-.3 5.7.1zm-6.6 5.5c.6-.4.7-.8.4-1.2-.3-.4-1-.6-2-.7-1 0-2.1.1-3.4.4l-4.4 1.1c-.2 0-.2.1-.2.1l2.1 2.4c0 .1.2.1.3 0l4.4-1.1c1.3-.2 2.2-.5 2.8-1" fill="url(#SVGID_32_)"/></g><g><image width="871" height="654" xlink:href="656F3897.png" transform="translate(-101.041 -48.04) scale(.2378)" overflow="visible"/></g><g><image width="613" height="621" xlink:href="656F38A9.png" transform="translate(-73.68 399.806) scale(.2384)" overflow="visible"/></g><g><linearGradient id="SVGID_33_" gradientUnits="userSpaceOnUse" x1="60.65" y1="394.794" x2="113.766" y2="394.794" gradientTransform="matrix(1 0 0 -1 0 502)"><stop offset="0" stop-color="#f28500"/><stop offset="1" stop-color="#fba905"/></linearGradient><path d="M111.1 91.1c.8 3.2 1.6 6.4 2.4 9.7.5 1.9.4 3.9-.4 6-3.2 9-17 16.4-30.7 16.6-10.4.1-17.9-4.1-19.4-10-.8-3.2-1.6-6.4-2.4-9.7 1.5 6 8.9 10.2 19.4 10 13.7-.1 27.4-7.6 30.7-16.6.7-2.1.8-4.2.4-6z" fill="url(#SVGID_33_)"/><path class="st3" d="M80 114.3c13.7-.1 27.4-7.6 30.7-16.6.5-1.4.7-2.8.7-4.1 0 1.1-.3 2.3-.7 3.4-3.2 9-17 16.5-30.7 16.6-10.4.1-17.9-4.1-19.4-10 .2.8.4 1.5.6 2.3 2.3 5.1 9.3 8.5 18.8 8.4z"/><linearGradient id="SVGID_34_" gradientUnits="userSpaceOnUse" x1="99.19" y1="400.074" x2="40.318" y2="420.29" gradientTransform="matrix(1 0 0 -1 0 502)"><stop offset="0" stop-color="#fbcf0a"/><stop offset="1" stop-color="#fba505"/></linearGradient><path d="M91.7 81c13.7-.1 22.2 7.1 18.9 16.1s-17 16.5-30.7 16.6c-13.7.1-22.2-7.1-19-16.1 3.4-9 17.1-16.4 30.8-16.6z" fill="url(#SVGID_34_)"/><path class="st5" d="M68.5 88.5l17.2 24.8c7-1.1 13.7-3.9 18.4-7.7L87.3 81.3c-7 .9-13.8 3.5-18.8 7.2z"/><path class="st6" d="M90.3 85.1c10.3-.1 16.7 5.3 14.2 12.1-2.4 6.8-12.7 12.3-23 12.4s-16.7-5.3-14.2-12.1c2.4-6.7 12.7-12.3 23-12.4z"/><path class="st7" d="M69.1 99.4c2.4-6.8 12.7-12.3 23-12.4 4.8-.1 8.8 1.1 11.4 3.1-2.3-3.1-7.1-5-13.3-5-10.3.1-20.6 5.7-23 12.5-1.3 3.6-.1 6.8 2.8 9-1.4-2-1.8-4.5-.9-7.2z"/><linearGradient id="SVGID_35_" gradientUnits="userSpaceOnUse" x1="99.206" y1="400.121" x2="40.333" y2="420.337" gradientTransform="matrix(1 0 0 -1 0 502)"><stop offset="0" stop-color="#fbcf0a"/><stop offset="1" stop-color="#fba505"/></linearGradient><path d="M97.4 92.5c.3.7.3 1.5 0 2.4-.3.9-.9 1.7-1.8 2.3s-1.9 1.2-3.2 1.6c-1.3.4-2.6.6-4 .6h-3.2c-.1 0-.2 0-.2.1l-1.6 4.4c0 .1-.1.2-.2.2-.1.1-.2.1-.4.1l-4.7.1c-.1 0-.2 0-.3-.1-.1-.1-.1-.1 0-.2l4.7-13.2c0-.1.1-.2.2-.2.1-.1.2-.1.4-.1l8.7-.1c1.4 0 2.6.2 3.5.5 1.1.4 1.7.9 2.1 1.6zM90.8 96c.5-.3.9-.6 1-1 .2-.4.1-.8-.3-1-.4-.3-.9-.4-1.6-.4h-2.5c-.1 0-.2 0-.2.1l-.9 2.6c0 .1 0 .1.1.1h2.5c.7 0 1.3-.1 1.9-.4" fill="url(#SVGID_35_)"/></g><g><linearGradient id="SVGID_36_" gradientUnits="userSpaceOnUse" x1="622.58" y1="320.944" x2="673.043" y2="320.944" gradientTransform="matrix(1 0 0 -1 0 502)"><stop offset="0" stop-color="#f28500"/><stop offset="1" stop-color="#fba905"/></linearGradient><path d="M670.5 165.7c.8 3.1 1.5 6.1 2.3 9.2.4 1.8.3 3.7-.4 5.7-3.1 8.6-16.1 15.6-29.1 15.8-9.9.1-17-3.9-18.4-9.5-.8-3.1-1.5-6.1-2.3-9.2 1.4 5.7 8.5 9.6 18.4 9.5 13-.1 26.1-7.2 29.1-15.8.7-2 .8-3.9.4-5.7z" fill="url(#SVGID_36_)"/><path class="st3" d="M641 187.8c13-.1 26.1-7.2 29.1-15.8.5-1.4.7-2.6.6-3.9 0 1.1-.2 2.1-.6 3.3-3.1 8.6-16.1 15.7-29.1 15.8-9.9.1-17-3.9-18.4-9.5.2.7.4 1.4.5 2.2 2.2 4.8 8.9 8 17.9 7.9z"/><linearGradient id="SVGID_37_" gradientUnits="userSpaceOnUse" x1="659.192" y1="325.953" x2="603.251" y2="345.162" gradientTransform="matrix(1 0 0 -1 0 502)"><stop offset="0" stop-color="#fbcf0a"/><stop offset="1" stop-color="#fba505"/></linearGradient><path d="M652.1 156.2c13-.1 21.1 6.7 18 15.3-3.1 8.5-16.1 15.6-29.1 15.7-13 .1-21.1-6.7-18-15.3 3-8.5 16.1-15.6 29.1-15.7z" fill="url(#SVGID_37_)"/><path class="st5" d="M630.1 163.2l16.3 23.5c6.7-1 13-3.7 17.5-7.3l-16-23c-6.7.9-13.1 3.4-17.8 6.8z"/><path class="st6" d="M650.7 160c9.8-.1 15.8 5 13.5 11.5s-12.1 11.7-21.9 11.8-15.8-5-13.5-11.5c2.4-6.4 12.1-11.7 21.9-11.8z"/><path class="st7" d="M630.6 173.7c2.3-6.4 12.1-11.7 21.9-11.8 4.6 0 8.4 1.1 10.8 2.9-2.2-2.9-6.7-4.8-12.6-4.7-9.8.1-19.6 5.4-21.9 11.8-1.2 3.4-.1 6.5 2.7 8.6-1.4-2-1.8-4.3-.9-6.8z"/><linearGradient id="SVGID_38_" gradientUnits="userSpaceOnUse" x1="659.2" y1="325.976" x2="603.258" y2="345.185" gradientTransform="matrix(1 0 0 -1 0 502)"><stop offset="0" stop-color="#fbcf0a"/><stop offset="1" stop-color="#fba505"/></linearGradient><path d="M657.5 167.1c.3.6.3 1.4 0 2.2-.3.8-.8 1.6-1.7 2.2-.8.6-1.8 1.1-3 1.5s-2.5.6-3.8.6h-3c-.1 0-.2 0-.2.1l-1.5 4.2c0 .1-.1.1-.2.2s-.2.1-.3.1l-4.5.1c-.1 0-.2 0-.3-.1s-.1-.1 0-.2l4.5-12.5c0-.1.1-.1.2-.2s.2-.1.3-.1l8.3-.1c1.3 0 2.5.1 3.3.5.9.4 1.5.9 1.9 1.5zm-6.3 3.3c.5-.2.8-.6 1-1 .2-.4 0-.7-.3-1-.3-.2-.8-.4-1.5-.4H648c-.1 0-.2 0-.2.1l-.9 2.5c0 .1 0 .1.1.1h2.4c.7.1 1.3 0 1.8-.3" fill="url(#SVGID_38_)"/></g><g><linearGradient id="SVGID_39_" gradientUnits="userSpaceOnUse" x1="265.84" y1="309.014" x2="316.303" y2="309.014" gradientTransform="matrix(1 0 0 -1 0 502)"><stop offset="0" stop-color="#f28500"/><stop offset="1" stop-color="#fba905"/></linearGradient><path d="M313.8 177.6c.8 3.1 1.5 6.1 2.3 9.2.4 1.8.3 3.7-.4 5.7-3.1 8.6-16.1 15.6-29.1 15.8-9.9.1-17-3.9-18.4-9.5-.8-3.1-1.5-6.1-2.3-9.2 1.4 5.7 8.5 9.6 18.4 9.5 13-.1 26.1-7.2 29.1-15.8.7-1.9.8-3.9.4-5.7z" fill="url(#SVGID_39_)"/><path class="st3" d="M284.2 199.8c13-.1 26.1-7.2 29.1-15.8.5-1.4.7-2.6.6-3.9 0 1.1-.2 2.1-.6 3.3-3.1 8.6-16.1 15.6-29.1 15.8-9.9.1-17-3.9-18.4-9.5.2.7.4 1.4.5 2.2 2.3 4.7 8.9 8 17.9 7.9z"/><linearGradient id="SVGID_40_" gradientUnits="userSpaceOnUse" x1="302.454" y1="314.022" x2="246.513" y2="333.231" gradientTransform="matrix(1 0 0 -1 0 502)"><stop offset="0" stop-color="#fbcf0a"/><stop offset="1" stop-color="#fba505"/></linearGradient><path d="M295.4 168.1c13-.1 21.1 6.7 18 15.3-3.1 8.6-16.1 15.6-29.1 15.8-13 .1-21.1-6.7-18-15.3 3-8.6 16-15.7 29.1-15.8z" fill="url(#SVGID_40_)"/><path class="st5" d="M273.3 175.2l16.3 23.5c6.7-1 13-3.7 17.5-7.3l-16-23c-6.6.8-13 3.3-17.8 6.8z"/><path class="st6" d="M294 172c9.8-.1 15.8 5 13.5 11.5s-12.1 11.7-21.9 11.8-15.8-5-13.5-11.5c2.3-6.4 12.1-11.7 21.9-11.8z"/><path class="st7" d="M273.9 185.6c2.3-6.4 12.1-11.7 21.9-11.8 4.6 0 8.4 1.1 10.8 2.9-2.2-2.9-6.7-4.8-12.6-4.7-9.8.1-19.6 5.4-21.9 11.8-1.2 3.4-.1 6.5 2.7 8.6-1.4-1.9-1.8-4.3-.9-6.8z"/><linearGradient id="SVGID_41_" gradientUnits="userSpaceOnUse" x1="302.462" y1="314.045" x2="246.519" y2="333.254" gradientTransform="matrix(1 0 0 -1 0 502)"><stop offset="0" stop-color="#fbcf0a"/><stop offset="1" stop-color="#fba505"/></linearGradient><path d="M300.7 179.1c.3.6.3 1.4 0 2.2-.3.8-.9 1.6-1.7 2.2-.8.6-1.8 1.1-3 1.5s-2.5.6-3.8.6h-3c-.1 0-.1 0-.2.1l-1.5 4.2c0 .1-.1.1-.2.2s-.2.1-.3.1l-4.5.1c-.1 0-.2 0-.3-.1s-.1-.1 0-.2l4.5-12.5c0-.1.1-.1.2-.2s.2-.1.3-.1l8.3-.1c1.3 0 2.5.1 3.4.5.9.3 1.5.8 1.8 1.5zm-6.3 3.3c.5-.2.8-.6 1-1 .1-.4 0-.7-.3-1-.3-.2-.9-.4-1.5-.4h-2.4c-.1 0-.1 0-.2.1l-.9 2.5c0 .1 0 .1.1.1h2.4c.7.1 1.3-.1 1.8-.3" fill="url(#SVGID_41_)"/></g><g><linearGradient id="SVGID_42_" gradientUnits="userSpaceOnUse" x1="11.19" y1="66.104" x2="61.653" y2="66.104" gradientTransform="matrix(1 0 0 -1 0 502)"><stop offset="0" stop-color="#f28500"/><stop offset="1" stop-color="#fba905"/></linearGradient><path d="M59.1 420.6c.8 3.1 1.5 6.1 2.3 9.2.4 1.8.3 3.7-.4 5.7-3.1 8.6-16.1 15.6-29.1 15.8-9.9.1-17-3.9-18.4-9.5-.8-3.1-1.5-6.1-2.3-9.2 1.4 5.7 8.5 9.6 18.4 9.5 13-.1 26.1-7.2 29.1-15.8.7-2 .8-4 .4-5.7z" fill="url(#SVGID_42_)"/><path class="st3" d="M29.6 442.7c13-.1 26.1-7.2 29.1-15.8.5-1.4.7-2.6.6-3.9 0 1-.2 2.1-.6 3.3-3.1 8.6-16.1 15.6-29.1 15.8-9.9.1-17-3.9-18.4-9.5.2.7.4 1.4.5 2.2 2.2 4.7 8.9 8 17.9 7.9z"/><linearGradient id="SVGID_43_" gradientUnits="userSpaceOnUse" x1="47.802" y1="71.123" x2="-8.139" y2="90.332" gradientTransform="matrix(1 0 0 -1 0 502)"><stop offset="0" stop-color="#fbcf0a"/><stop offset="1" stop-color="#fba505"/></linearGradient><path d="M40.7 411c13-.1 21.1 6.7 18 15.3-3.1 8.6-16.1 15.6-29.1 15.8-13 .1-21.1-6.7-18-15.3 3-8.6 16.1-15.7 29.1-15.8z" fill="url(#SVGID_43_)"/><path class="st5" d="M18.7 418.1L35 441.6c6.7-1 13-3.7 17.5-7.3l-16-23c-6.7.8-13.1 3.3-17.8 6.8z"/><path class="st6" d="M39.3 414.9c9.8-.1 15.8 5 13.5 11.5S40.7 438.1 31 438.2c-9.8.1-15.8-5-13.5-11.5 2.3-6.4 12-11.7 21.8-11.8z"/><path class="st7" d="M19.2 428.5c2.3-6.4 12.1-11.7 21.9-11.8 4.6 0 8.4 1.1 10.8 2.9-2.2-2.9-6.7-4.8-12.6-4.7-9.8.1-19.6 5.4-21.9 11.8-1.2 3.4-.1 6.5 2.7 8.5-1.4-1.8-1.8-4.2-.9-6.7z"/><linearGradient id="SVGID_44_" gradientUnits="userSpaceOnUse" x1="47.813" y1="71.155" x2="-8.13" y2="90.364" gradientTransform="matrix(1 0 0 -1 0 502)"><stop offset="0" stop-color="#fbcf0a"/><stop offset="1" stop-color="#fba505"/></linearGradient><path d="M46.1 422c.3.6.3 1.4 0 2.2-.3.8-.8 1.6-1.7 2.2-.8.6-1.8 1.1-3 1.5s-2.5.5-3.8.6h-3c-.1 0-.2 0-.2.1l-1.5 4.2c0 .1-.1.1-.2.2-.1 0-.2.1-.3.1h-4.5c-.1 0-.2 0-.3-.1-.1 0-.1-.1 0-.2l4.5-12.5c0-.1.1-.1.2-.2.1 0 .2-.1.3-.1l8.3-.1c1.3 0 2.5.1 3.3.5.9.4 1.5.9 1.9 1.6zm-6.3 3.3c.5-.2.8-.6 1-1 .2-.4 0-.7-.3-1-.3-.2-.8-.4-1.5-.4h-2.4c-.1 0-.2 0-.2.1l-.9 2.5c0 .1 0 .1.1.1H38c.7.1 1.3-.1 1.8-.3" fill="url(#SVGID_44_)"/></g><g><linearGradient id="SVGID_45_" gradientUnits="userSpaceOnUse" x1="82.237" y1="179.81" x2="69.3" y2="110.325" gradientTransform="matrix(1 0 0 -1 0 502)"><stop offset="0" stop-color="#fbcf0a"/><stop offset="1" stop-color="#fba505"/></linearGradient><path d="M86.2 299.1c-21.7 6.8-41.8 27.1-45 45.3S53 371.9 74.7 365c21.7-6.8 41.8-27.1 45-45.3 3.1-18.1-11.9-27.4-33.5-20.6z" fill="url(#SVGID_45_)"/><path class="st5" d="M85.3 299.4c-10.7 3.5-21 10.4-29 18.5l29.4 42.5c10.4-5.5 19.8-13.8 26.1-22.9l-26.5-38.1z"/><path class="st6" d="M84.7 307.4c16.3-5.1 27.5 1.8 25.2 15.5-2.4 13.7-17.5 28.9-33.8 34-16.3 5.1-27.6-1.8-25.2-15.5 2.4-13.7 17.5-28.9 33.8-34z"/><path class="st7" d="M106.1 309.4c1.2 2.6 1.6 5.9.9 9.6-2.4 13.7-17.5 28.9-33.8 34-9.3 2.9-17 1.9-21.4-2.1 3.2 6.9 12.4 9.6 24.2 5.9 16.3-5.1 31.4-20.4 33.8-34 1.1-5.8-.4-10.4-3.7-13.4z"/><linearGradient id="SVGID_46_" gradientUnits="userSpaceOnUse" x1="85.803" y1="179.144" x2="72.866" y2="109.661" gradientTransform="matrix(1 0 0 -1 0 502)"><stop offset="0" stop-color="#fbcf0a"/><stop offset="1" stop-color="#fba505"/></linearGradient><path d="M97.6 317.7c.7 1.1.9 2.5.6 4.3-.3 1.8-1.1 3.5-2.3 5.1-1.2 1.6-2.8 3.1-4.7 4.4s-4 2.3-6.3 3l-5 1.6c-.2 0-.3.1-.3.3l-1.6 8.9c0 .2-.1.4-.3.5s-.3.3-.5.3l-7.5 2.3c-.2.1-.4.1-.5 0-.1-.1-.1-.2-.1-.4l4.6-26.6c0-.2.1-.4.3-.5.1-.1.3-.3.6-.3l13.8-4.3c2.2-.7 4.1-1 5.7-.7 1.7.4 2.8 1 3.5 2.1zm-9.8 9.7c.8-.7 1.3-1.5 1.4-2.4.2-.9-.1-1.5-.7-1.8-.6-.3-1.5-.3-2.7.1l-4 1.2c-.2 0-.3.1-.3.3l-.9 5.3c0 .1.1.2.2.1l4-1.3c1.3-.2 2.3-.8 3-1.5" fill="url(#SVGID_46_)"/><linearGradient id="SVGID_47_" gradientUnits="userSpaceOnUse" x1="29.714" y1="180.38" x2="116.52" y2="180.38" gradientTransform="matrix(1 0 0 -1 0 502)"><stop offset="0" stop-color="#f28500"/><stop offset="1" stop-color="#fba905"/></linearGradient><path d="M116 303.2c-1.7-2.1-3.3-4.2-4.9-6.3-1.8-2.3-3.7-4.7-5.5-7-5.4-6.9-16.5-9.1-30.4-4.8-21.7 6.8-41.8 27.1-45 45.3-1.1 6.6.1 12 3.1 15.9 3.7 4.7 7.3 9.4 11 14-3-3.9-4.3-9.3-3.1-15.9 3.2-18.2 23.3-38.5 45-45.3 13.8-4.4 25-2.1 30.4 4.8-.2-.2-.5-.5-.6-.7z" fill="url(#SVGID_47_)"/><path class="st3" d="M116.5 303.9c-.2-.2-.4-.5-.6-.7-.7-.9-1.3-1.7-2-2.6-5.9-5-16-6.3-28.2-2.5-21.7 6.8-41.8 27.1-45 45.3-.8 4.6-.4 8.7.9 12-1-3.1-1.3-6.8-.5-11 3.2-18.2 23.3-38.5 45-45.3 13.9-4.3 25-2.1 30.4 4.8z"/></g><g><linearGradient id="SVGID_48_" gradientUnits="userSpaceOnUse" x1="1847.908" y1="-999.718" x2="1899.703" y2="-999.718" gradientTransform="scale(1 -1) rotate(71.416 937.201 -1537.94)"><stop offset="0" stop-color="#f28500"/><stop offset="1" stop-color="#fba905"/></linearGradient><path d="M737.7 455.4l7.5 7.5c3.2 3.1 3.2 9.3-.7 16.8-5.9 11.3-18.5 21.2-28.1 22.1-3.3.3-5.9-.5-7.5-2.1l-7.5-7.5c1.7 1.6 4.2 2.5 7.5 2.1 9.7-.9 22.3-10.8 28.1-22.1 3.8-7.4 3.8-13.7.7-16.8z" fill="url(#SVGID_48_)"/><path class="st3" d="M737.5 472.9c3.6-7 3.8-12.9 1.2-16.1 2.1 3.4 1.6 9-1.7 15.4-5.9 11.3-18.5 21.2-28.1 22.1-3.3.3-5.9-.5-7.5-2.1l1.7 1.6c1.6 1 3.8 1.5 6.4 1.2 9.5-.9 22.1-10.8 28-22.1z"/><linearGradient id="SVGID_49_" gradientUnits="userSpaceOnUse" x1="1866.31" y1="-980.454" x2="1894.171" y2="-1013.134" gradientTransform="scale(1 -1) rotate(71.416 937.201 -1537.94)"><stop offset="0" stop-color="#fbcf0a"/><stop offset="1" stop-color="#fba505"/></linearGradient><path d="M702 475.4c5.9-11.3 18.5-21.2 28.1-22.1 9.7-.9 12.7 7.6 6.9 18.9s-18.5 21.2-28.1 22.1c-9.7.9-12.8-7.6-6.9-18.9z" fill="url(#SVGID_49_)"/><path class="st5" d="M708.9 494.3c9.7-.9 22.3-10.8 28.1-22.1 5.8-11.2 2.9-19.6-6.5-19l-29.1 38.9c1.6 1.7 4.1 2.5 7.5 2.2z"/><path class="st6" d="M706.3 475c4.4-8.5 13.8-16 21.1-16.6 7.3-.7 9.6 5.7 5.2 14.2-4.4 8.5-13.9 16-21.1 16.6-7.2.7-9.6-5.7-5.2-14.2z"/><path class="st7" d="M707.7 476.6c4.4-8.5 13.9-16 21.1-16.6 2.3-.2 4 .3 5.3 1.3-1.1-2-3.4-3.1-6.6-2.9-7.3.7-16.7 8.1-21.1 16.6-3 5.9-2.9 10.7-.1 13-1.5-2.6-1.1-6.7 1.4-11.4z"/><linearGradient id="SVGID_50_" gradientUnits="userSpaceOnUse" x1="1867.086" y1="-979.792" x2="1894.948" y2="-1012.472" gradientTransform="scale(1 -1) rotate(71.416 937.201 -1537.94)"><stop offset="0" stop-color="#fbcf0a"/><stop offset="1" stop-color="#fba505"/></linearGradient><path d="M718.6 466.1c1-.6 2-.9 2.9-1 .9-.1 1.6.1 2.1.5s.6 1.1.5 2c-.1.9-.4 1.9-1.1 3.1l-1.3 2.6v.1l4.7-.4c.1 0 .2 0 .2.1s0 .1-.1.3l-2 3.9c-.1.1-.1.2-.2.3-.1.1-.2.1-.3.1l-14.1 1.3c-.1 0-.2 0-.2-.1s0-.1.1-.3l3.7-7.2c.6-1.2 1.3-2.2 2.2-3.1 1-.9 1.9-1.6 2.9-2.2zm1.4 4.1c-.1-.3-.3-.5-.8-.5s-.9.3-1.4.7c-.5.4-.9.9-1.2 1.5l-1.1 2.1v.1l2.8-.3c.1 0 .1 0 .2-.1l1.1-2.1c.4-.5.5-1 .4-1.4" fill="url(#SVGID_50_)"/></g></g><g><defs><path id="SVGID_51_" d="M0 0h750v500H0z"/></defs><clipPath id="SVGID_52_"><use xlink:href="#SVGID_51_" overflow="visible"/></clipPath><g clip-path="url(#SVGID_52_)"><linearGradient id="SVGID_53_" gradientUnits="userSpaceOnUse" x1="-1491.628" y1="1547.831" x2="-1424.585" y2="1547.831" gradientTransform="rotate(-40.721 -1947.967 -1863.4)"><stop offset="0" stop-color="#f28500"/><stop offset="1" stop-color="#fba905"/></linearGradient><path d="M684.9 398.2c-1.9-3.7-3.8-7.5-5.6-11.2-1.1-2.2-2.9-4-5.4-5.4-10.5-6-29.8-1.8-43 9.4-10.1 8.5-13.8 18.6-10.3 25.5 1.9 3.7 3.8 7.5 5.6 11.2-3.5-7 .2-17 10.3-25.5 13.2-11.1 32.5-15.4 43-9.4 2.5 1.3 4.3 3.2 5.4 5.4z" fill="url(#SVGID_53_)"/><path class="st3" d="M636 401.5c13.2-11.1 32.5-15.4 43-9.4 1.7.9 3 2.1 4 3.4-1-1-2.1-2-3.5-2.7-10.5-6-29.8-1.8-43 9.4-10.1 8.5-13.8 18.6-10.3 25.5-.4-.9-.9-1.8-1.3-2.6-1.9-6.9 2-15.9 11.1-23.6z"/><linearGradient id="SVGID_54_" gradientUnits="userSpaceOnUse" x1="-1442.987" y1="1554.481" x2="-1517.295" y2="1579.997" gradientTransform="rotate(-40.721 -1947.967 -1863.4)"><stop offset="0" stop-color="#fbcf0a"/><stop offset="1" stop-color="#fba505"/></linearGradient><path d="M674.7 423.7c13.2-11.1 15.4-25 4.9-31s-29.8-1.8-43 9.4c-13.2 11.1-15.4 25-4.9 31s29.7 1.8 43-9.4z" fill="url(#SVGID_54_)"/><path class="st5" d="M646.3 435.7l-4-37.8c7.6-4.8 16.3-7.5 23.9-7.8l3.9 37c-7.3 4.9-16 8-23.8 8.6z"/><path class="st6" d="M669.9 421c9.9-8.4 11.6-18.8 3.7-23.3-7.9-4.5-22.3-1.3-32.3 7-9.9 8.4-11.6 18.8-3.7 23.3s22.4 1.4 32.3-7z"/><path class="st7" d="M637.9 424.7c7.9 4.5 22.3 1.3 32.3-7 4.7-3.9 7.5-8.3 8.4-12.3.3 4.8-2.6 10.6-8.6 15.7-9.9 8.4-24.4 11.5-32.3 7-4.2-2.4-5.7-6.4-4.7-10.9.2 3.1 1.8 5.7 4.9 7.5z"/><linearGradient id="SVGID_55_" gradientUnits="userSpaceOnUse" x1="-1442.968" y1="1554.539" x2="-1517.277" y2="1580.055" gradientTransform="rotate(-40.721 -1947.967 -1863.4)"><stop offset="0" stop-color="#fbcf0a"/><stop offset="1" stop-color="#fba505"/></linearGradient><path d="M670.6 408.1c-.2-.9-.9-1.7-1.9-2.3-1-.6-2.2-.8-3.6-.8-1.4.1-2.8.4-4.3 1.1-1.5.7-3 1.6-4.3 2.8l-3 2.6c-.1.1-.2.1-.3.1l-5.2-2.9c-.1-.1-.2-.1-.4 0s-.3.1-.4.2l-4.5 3.8c-.1.1-.2.2-.2.3 0 .1 0 .2.1.2l15.3 8.7c.1.1.2.1.4 0 .1 0 .3-.1.4-.2l8.4-7.1c1.4-1.1 2.3-2.3 2.9-3.4.6-1.2.8-2.2.6-3.1zm-9.2 2c.7-.2 1.3-.2 1.8.1.5.3.7.7.6 1.2-.1.5-.5 1.1-1.3 1.7l-2.4 2c-.1.1-.2.1-.3.1l-3.1-1.7c-.1 0-.1-.1 0-.2l2.4-2c.8-.6 1.5-1 2.3-1.2" fill="url(#SVGID_55_)"/><radialGradient id="SVGID_56_" cx="-984.457" cy="1934.573" r="19.965" gradientTransform="matrix(1.0576 -.7038 .2636 .3962 1200.981 -1045.964)" gradientUnits="userSpaceOnUse"><stop offset="0" stop-color="#d96d00"/><stop offset=".081" stop-color="#d96d00"/><stop offset=".091" stop-color="#d96d00"/><stop offset=".369" stop-color="#db7000" stop-opacity=".695"/><stop offset=".581" stop-color="#e07a01" stop-opacity=".461"/><stop offset=".773" stop-color="#ea8a02" stop-opacity=".25"/><stop offset=".95" stop-color="#f7a104" stop-opacity=".055"/><stop offset="1" stop-color="#fba905" stop-opacity="0"/></radialGradient><path d="M692.9 398c-3.9-5.9-17.5-3.8-30.3 4.8-12.8 8.5-20 20.2-16.1 26.1 3.9 5.9 17.5 3.8 30.3-4.8 12.8-8.5 20-20.2 16.1-26.1z" fill="url(#SVGID_56_)"/><image width="600" height="667" xlink:href="A9132E22.png" transform="translate(136.2 298.814) scale(.2382)" overflow="visible"/><radialGradient id="SVGID_57_" cx="2082.339" cy="-166.5" r="27.401" gradientTransform="matrix(.8538 .9407 -.3524 .3198 -1627.366 -1508.605)" gradientUnits="userSpaceOnUse"><stop offset="0" stop-color="#d96d00"/><stop offset=".081" stop-color="#d96d00"/><stop offset=".091" stop-color="#d96d00"/><stop offset=".369" stop-color="#db7000" stop-opacity=".695"/><stop offset=".581" stop-color="#e07a01" stop-opacity=".461"/><stop offset=".773" stop-color="#ea8a02" stop-opacity=".25"/><stop offset=".95" stop-color="#f7a104" stop-opacity=".055"/><stop offset="1" stop-color="#fba905" stop-opacity="0"/></radialGradient><path d="M234.9 425.3c7.2-6.5 1.5-24.5-12.6-40.1-14.2-15.6-31.5-23-38.7-16.5-7.2 6.5-1.5 24.5 12.6 40.1 14.2 15.7 31.5 23 38.7 16.5z" fill="url(#SVGID_57_)"/><linearGradient id="SVGID_58_" gradientUnits="userSpaceOnUse" x1="116.953" y1="2357.25" x2="230.892" y2="2303.106" gradientTransform="translate(0 -1887.85)"><stop offset="0" stop-color="#fbcf0a"/><stop offset="1" stop-color="#fba505"/></linearGradient><path d="M172 481.2c27.9 5.2 52-8.3 53.8-30.2 1.8-21.8-19.3-43.7-47.2-48.9-27.9-5.2-52 8.3-53.8 30.1-1.8 21.9 19.3 43.8 47.2 49z" fill="url(#SVGID_58_)"/><path class="st5" d="M176.1 481.8l-50.8-40.5c-.6-3-.8-6-.5-9 1-11.5 8.1-20.8 18.8-26.1l76 60.7c-8.5 11.1-24.9 17.2-43.5 14.9z"/><path class="st6" d="M172.8 471.3c20.9 3.9 39-6.3 40.4-22.6 1.4-16.4-14.5-32.8-35.5-36.7-20.9-3.9-39 6.3-40.4 22.6-1.3 16.4 14.6 32.9 35.5 36.7z"/><path class="st7" d="M137.4 434.3c1.5 14.8 16.3 28.8 35.4 32.3 20.8 3.9 38.7-6.1 40.4-22.3.1 1.5.2 2.9 0 4.4-1.4 16.4-19.4 26.5-40.4 22.6S136 451 137.4 434.6v-.3z"/><linearGradient id="SVGID_59_" gradientUnits="userSpaceOnUse" x1="117.279" y1="2357.937" x2="231.22" y2="2303.792" gradientTransform="translate(0 -1887.85)"><stop offset="0" stop-color="#fbcf0a"/><stop offset="1" stop-color="#fba505"/></linearGradient><path d="M196.6 451.4c-.2 2.2-.9 4-2.3 5.4-1.3 1.5-3.1 2.4-5.4 2.9s-4.8.5-7.7 0l-17.8-3.3c-.3 0-.5-.2-.6-.3-.2-.2-.2-.4-.2-.6l2.6-31.8c0-.2.1-.4.3-.5.2-.1.4-.1.7-.1l9.6 1.8c.3 0 .5.1.6.3s.2.4.2.6l-.9 10.7c0 .2.1.3.3.3l6.4 1.2c2.9.5 5.5 1.5 7.7 2.8 2.2 1.3 3.9 2.9 5 4.7 1.2 1.8 1.7 3.8 1.5 5.9zm-12.5-5c-.9-.8-2-1.3-3.5-1.6l-5.1-.9c-.2 0-.3 0-.3.2l-.5 6.4c0 .1.1.3.3.3l5.1 1c1.5.3 2.7.2 3.7-.3s1.5-1.2 1.6-2.3c-.1-1.1-.5-2-1.3-2.8z" fill="url(#SVGID_59_)"/><linearGradient id="SVGID_60_" gradientUnits="userSpaceOnUse" x1="158.853" y1="2284.492" x2="205.289" y2="2346.819" gradientTransform="translate(0 -1887.85)"><stop offset="0" stop-color="#f28500"/><stop offset="1" stop-color="#fba905"/></linearGradient><path d="M224.4 458.1c.1-.5.4-1.1.5-1.5.1-.2.2-.5.3-.8.1-.5.4-1.1.5-1.5s.4-1.1.5-1.5c.1-.2.2-.5.3-.8.2-.5.4-1.1.5-1.5s.4-1.1.5-1.5c.1-.2.2-.5.3-.8.1-.5.4-1.1.5-1.5.4-1.3.9-2.5 1.3-3.8.8-2.2 1.2-4.6 1.4-7.1 1.8-21.8-19.3-43.7-47.2-48.9-24.7-4.6-46.5 5.5-52.4 23.1l-5.1 15.3c5.9-17.6 27.6-27.7 52.3-23.1 27.9 5.2 49 27 47.2 48.9-.2 2.4-.7 4.8-1.4 7z" fill="url(#SVGID_60_)"/><path class="st3" d="M178.6 400.8c27.1 5 47.9 25.9 47.3 47.1-.3-20.8-20.7-40.9-47.3-45.8-24.7-4.6-46.5 5.5-52.3 23.1.7-1.9 1.3-3.9 1.9-5.8 7.8-14.7 27.9-22.7 50.4-18.6z"/><linearGradient id="SVGID_61_" gradientUnits="userSpaceOnUse" x1="258.787" y1="2217.785" x2="341.64" y2="2217.785" gradientTransform="translate(0 -1887.85)"><stop offset="0" stop-color="#f28500"/><stop offset="1" stop-color="#fba905"/></linearGradient><path d="M341.6 323.4c-2.5-5.1-5-10.1-7.5-15.2-3.1-6.4-12.5-9.6-25.8-7.5-20.2 3.1-41.6 17.1-47.9 31.4-2.2 4.9-2.2 9.2-.6 12.5l7.5 15.2c-1.6-3.4-1.6-7.6.6-12.5 6.3-14.2 27.7-28.2 47.9-31.4 13.3-2 22.7 1.1 25.8 7.5z" fill="url(#SVGID_61_)"/><path class="st3" d="M315 314.8c12.4-1.9 21.5.7 25.1 6.4-4.1-4.9-12.7-7-24.3-5.3-20.2 3.1-41.6 17.1-47.9 31.4-2.2 4.9-2.2 9.2-.6 12.5l-1.6-3.3c-.7-3-.3-6.5 1.4-10.3 6.3-14.2 27.8-28.3 47.9-31.4z"/><linearGradient id="SVGID_62_" gradientUnits="userSpaceOnUse" x1="288.224" y1="2248.594" x2="332.798" y2="2196.31" gradientTransform="translate(0 -1887.85)"><stop offset="0" stop-color="#fbcf0a"/><stop offset="1" stop-color="#fba505"/></linearGradient><path d="M293.2 367.3c20.2-3.1 41.6-17.1 47.9-31.4 6.3-14.2-5-23.2-25.2-20.1-20.2 3.1-41.6 17.1-47.9 31.4-6.3 14.3 5 23.3 25.2 20.1z" fill="url(#SVGID_62_)"/><path class="st5" d="M268 347.3c6.3-14.2 27.7-28.2 47.9-31.4 20-3.1 31.2 5.7 25.4 19.6l-73.9 24.3c-1.6-3.4-1.6-7.6.6-12.5z"/><path class="st6" d="M296 360.9c15.1-2.3 31.3-12.9 36-23.5s-3.8-17.4-18.9-15.1c-15.2 2.3-31.3 12.9-36 23.5-4.7 10.7 3.8 17.5 18.9 15.1z"/><path class="st7" d="M294.3 358.1c15.1-2.3 31.3-12.9 36-23.5 1.5-3.3 1.6-6.2.8-8.6 2.5 2.7 3 6.7 1 11.4-4.7 10.7-20.8 21.2-36 23.5-10.5 1.6-17.8-1.1-19.7-6.5 3.1 3.5 9.4 5 17.9 3.7z"/><linearGradient id="SVGID_63_" gradientUnits="userSpaceOnUse" x1="289.468" y1="2249.655" x2="334.042" y2="2197.37" gradientTransform="translate(0 -1887.85)"><stop offset="0" stop-color="#fbcf0a"/><stop offset="1" stop-color="#fba505"/></linearGradient><path d="M315.7 346.8c1.3-1.2 2.3-2.5 2.9-3.9.6-1.4.7-2.5.3-3.4-.4-.9-1.4-1.5-2.7-1.9-1.4-.3-3.1-.3-5.3 0l-4.7.7c-.1 0-.2 0-.1-.1l3.1-7c.1-.1 0-.3 0-.3-.1-.1-.2-.1-.4 0l-6.9 1.1c-.2 0-.4.1-.5.2s-.3.2-.3.4l-9.1 20.7c-.1.1-.1.3 0 .3.1.1.2.1.4 0l12.9-2c2.1-.3 4-.9 5.9-1.7 1.6-.8 3.1-1.9 4.5-3.1zm-5.5-4.2c.5.3.6.8.3 1.4-.3.7-.9 1.3-1.7 1.8s-1.8.9-2.9 1l-3.7.6c-.1 0-.2 0-.1-.1l1.8-4.1c0-.1.1-.2.3-.2l3.7-.6c1-.2 1.8-.1 2.3.2" fill="url(#SVGID_63_)"/><radialGradient id="SVGID_64_" cx="-1212.477" cy="2050.252" r="16.693" gradientTransform="matrix(1.0645 -.6932 .2597 .3988 1043.349 -1344.385)" gradientUnits="userSpaceOnUse"><stop offset="0" stop-color="#d96d00"/><stop offset=".081" stop-color="#d96d00"/><stop offset=".091" stop-color="#d96d00"/><stop offset=".369" stop-color="#db7000" stop-opacity=".695"/><stop offset=".581" stop-color="#e07a01" stop-opacity=".461"/><stop offset=".773" stop-color="#ea8a02" stop-opacity=".25"/><stop offset=".95" stop-color="#f7a104" stop-opacity=".055"/><stop offset="1" stop-color="#fba905" stop-opacity="0"/></radialGradient><path d="M304.7 301.1c-3.2-5-14.6-3.3-25.4 3.7-10.8 7-16.9 16.7-13.6 21.7s14.6 3.3 25.4-3.7c10.7-7 16.8-16.7 13.6-21.7z" opacity=".7" fill="url(#SVGID_64_)"/><g><image width="475" height="450" xlink:href="A9132E25.png" transform="translate(248.367 363.614) scale(.2379)" overflow="visible"/></g><g><linearGradient id="SVGID_65_" gradientUnits="userSpaceOnUse" x1="412.673" y1="2384.023" x2="440.458" y2="2304.468" gradientTransform="translate(0 -1887.85)"><stop offset="0" stop-color="#fbcf0a"/><stop offset="1" stop-color="#fba505"/></linearGradient><path d="M425.7 496.7c15.5-16 28.2-46.4 28.5-68.1.3-21.7-12-26.3-27.5-10.3s-28.2 46.4-28.4 68.1c-.3 21.6 12 26.3 27.4 10.3z" fill="url(#SVGID_65_)"/><path class="st5" d="M398.2 486.4c.3-21.7 13-52.1 28.4-68.1 15.5-16 27.8-11.3 27.5 10.3 0 3-.3 6.3-.8 9.6l-46.8 67.6c-5.2-1.7-8.4-8.3-8.3-19.4z"/><linearGradient id="SVGID_66_" gradientUnits="userSpaceOnUse" x1="377.156" y1="2340.532" x2="446.62" y2="2340.532" gradientTransform="translate(0 -1887.85)"><stop offset="0" stop-color="#f28500"/><stop offset="1" stop-color="#fba905"/></linearGradient><path d="M446.6 409.5l-21-9c-5-2.1-12.1.6-20 8.8-15.5 16-28.2 46.4-28.4 68.1-.1 10.6 2.8 17.1 7.5 19.1l21 9c-4.8-2-7.6-8.5-7.5-19.1.3-21.7 13-52.1 28.4-68.1 7.9-8.2 15-10.9 20-8.8z" fill="url(#SVGID_66_)"/><path class="st3" d="M442.4 408.8c-4.5.3-9.9 3.4-15.8 9.5-15.5 16-28.2 46.4-28.4 68.1-.1 10.6 2.7 17.1 7.5 19.1-1.3-.5-2.6-1.1-3.8-1.6-3.3-3-5.1-8.9-5-17.5.3-21.7 13-52.1 28.4-68.1 6.5-6.7 12.4-9.8 17.1-9.5z"/><path class="st6" d="M426.5 428c11.6-12 20.8-8.5 20.6 7.8-.2 16.3-9.8 39.2-21.4 51.1-11.6 12-20.8 8.5-20.6-7.8.3-16.2 9.8-39.1 21.4-51.1"/><path class="st7" d="M425.8 486.9c-5.7 5.9-10.9 8-14.6 6.8 3.4-.2 7.4-2.5 11.8-7.1 11.6-12 21.2-34.9 21.4-51.1.1-8.3-2.2-13.2-6.1-14.5 5.4-.4 8.9 4.8 8.8 14.9-.1 16.2-9.7 39.1-21.3 51z"/><linearGradient id="SVGID_67_" gradientUnits="userSpaceOnUse" x1="413.338" y1="2384.256" x2="441.123" y2="2304.702" gradientTransform="translate(0 -1887.85)"><stop offset="0" stop-color="#fbcf0a"/><stop offset="1" stop-color="#fba505"/></linearGradient><path d="M437.1 457.4c.7-2.3 1-4.6 1.1-6.7 0-2.1-.3-3.6-1-4.5-.7-.9-1.6-1.1-2.9-.7s-2.7 1.5-4.3 3.2l-3.6 3.7c-.1.1-.2.1-.2-.1l.1-10.6c0-.2 0-.4-.1-.4s-.2 0-.4.2l-5.3 5.5c-.2.2-.3.4-.4.6-.1.2-.1.4-.1.7l-.4 31.6c0 .2 0 .4.1.4s.2 0 .4-.2l9.9-10.2c1.6-1.6 3-3.5 4.2-5.7 1.3-2.2 2.2-4.4 2.9-6.8zm-6-2c.5.1.7.6.7 1.6s-.3 2.1-.8 3.3c-.5 1.1-1.2 2.1-2 3l-2.8 2.9c-.1.1-.2.1-.2-.1l.1-6.3c0-.1.1-.3.2-.4l2.8-2.9c.9-.8 1.5-1.2 2-1.1" fill="url(#SVGID_67_)"/></g><g><image width="613" height="625" xlink:href="A9132E26.png" transform="translate(469.004 337.934) scale(.2373)" overflow="visible"/></g><g><linearGradient id="SVGID_68_" gradientUnits="userSpaceOnUse" x1="585.577" y1="2120.286" x2="638.622" y2="2117.939" gradientTransform="translate(0 -1887.85)"><stop offset="0" stop-color="#fbcf0a"/><stop offset="1" stop-color="#fba505"/></linearGradient><path d="M589.9 246c9.1 5.5 22 3.6 28.8-4.3 6.9-7.9 5.1-18.8-4-24.3s-22-3.6-28.8 4.3c-6.8 7.9-5 18.7 4 24.3z" fill="url(#SVGID_68_)"/><path class="st5" d="M589.9 246c-3.3-2-5.6-4.7-6.9-7.8l33-20c4.9 3.5 7.3 8.7 6.9 13.9L596 248.4c-2.1-.5-4.2-1.3-6.1-2.4z"/><path class="st6" d="M611.7 221c6.8 4.1 8.1 12.3 3 18.2-5.2 5.9-14.9 7.4-21.7 3.2-6.8-4.1-8.1-12.3-3-18.2 5.2-5.9 14.9-7.4 21.7-3.2"/><path class="st7" d="M611.7 222.8c-6.8-4.1-16.5-2.7-21.7 3.2-1.9 2.2-2.9 4.6-3.1 7.1-.3-3 .8-6.2 3.1-8.9 5.2-5.9 14.9-7.4 21.7-3.2 4.3 2.6 6.4 6.9 6.1 11.1-.3-3.6-2.4-7-6.1-9.3z"/><linearGradient id="SVGID_69_" gradientUnits="userSpaceOnUse" x1="585.587" y1="2120.526" x2="638.633" y2="2118.178" gradientTransform="translate(0 -1887.85)"><stop offset="0" stop-color="#fbcf0a"/><stop offset="1" stop-color="#fba505"/></linearGradient><path d="M605.3 239.8c.9-.4 1.7-.9 2.4-1.7.7-.8 1-1.6 1.2-2.4.1-.8-.1-1.6-.5-2.4-.5-.8-1.2-1.4-2.1-2L604 230c-.1 0-.1-.1 0-.1l3.4-3.9c.1-.1.1-.2.1-.2 0-.1-.1-.1-.2-.2l-3.1-1.9c-.1-.1-.2-.1-.3-.1-.1 0-.2.1-.2.1l-10 11.5c-.1.1-.1.2-.1.2 0 .1.1.1.2.2l5.8 3.5c.9.6 1.9.9 2.9 1 .9.2 1.8 0 2.8-.3zm-1-5.2c.1.4 0 .8-.3 1.1-.3.4-.7.6-1.2.6s-1-.1-1.5-.4l-1.7-1c-.1 0-.1-.1 0-.1l2-2.3c0-.1.1-.1.2 0l1.7 1c.4.3.7.7.8 1.1" fill="url(#SVGID_69_)"/><linearGradient id="SVGID_70_" gradientUnits="userSpaceOnUse" x1="581.84" y1="2129.772" x2="623.532" y2="2129.772" gradientTransform="translate(0 -1887.85)"><stop offset="0" stop-color="#f28500"/><stop offset="1" stop-color="#fba905"/></linearGradient><path d="M619.3 247c-6.9 7.9-19.8 9.8-28.9 4.3-4.8-2.9-7.6-7.4-8.1-12-.2-1.8-.4-3.5-.6-5.3.5 4.7 3.3 9.1 8.1 12 9.1 5.5 22 3.6 28.8-4.3 3.2-3.7 4.5-8.1 4.1-12.2.2 1.8.4 3.5.6 5.3.6 4.1-.7 8.5-4 12.2z" fill="url(#SVGID_70_)"/><path class="st3" d="M589.9 246.3c-4.4-2.7-7.1-6.7-7.9-11 0-.5-.1-.9-.2-1.4.5 4.7 3.3 9.1 8.1 12 9.1 5.5 22 3.6 28.8-4.3 2.8-3.2 4.1-6.9 4.2-10.5 0 3.7-1.3 7.6-4.2 10.9-6.8 8-19.7 9.9-28.8 4.3z"/></g><g><linearGradient id="SVGID_71_" gradientUnits="userSpaceOnUse" x1="-1504.373" y1="1621.984" x2="-1352.194" y2="1615.25" gradientTransform="rotate(-40.721 -1947.967 -1863.4)"><stop offset="0" stop-color="#fbcf0a"/><stop offset="1" stop-color="#fba505"/></linearGradient><path d="M696.9 510c30-5 54.6-33.3 54.8-63.3s-24-50.3-54.1-45.3-54.6 33.3-54.8 63.3c-.2 30 24 50.3 54.1 45.3z" fill="url(#SVGID_71_)"/><path class="st5" d="M696.9 510c-10.9 1.8-21.1.3-29.6-3.9l34.4-105.2c17.2-1.5 32.2 5.3 41.1 17.4l-28 85.8c-5.7 2.9-11.7 4.9-17.9 5.9z"/><path class="st6" d="M697.5 415c22.6-3.7 40.7 11.5 40.6 34-.1 22.5-18.5 43.8-41.1 47.5s-40.7-11.5-40.6-34c.1-22.5 18.5-43.8 41.1-47.5"/><path class="st7" d="M700.9 418.9c-22.6 3.7-41 25-41.1 47.5 0 8.2 2.3 15.5 6.5 21.2-6.2-6.1-10-14.9-9.9-25.1.2-22.5 18.5-43.8 41.1-47.5 14.3-2.4 26.9 2.9 34.1 12.9-7.5-7.4-18.4-11-30.7-9z"/><linearGradient id="SVGID_72_" gradientUnits="userSpaceOnUse" x1="-1504.343" y1="1622.63" x2="-1352.167" y2="1615.896" gradientTransform="rotate(-40.721 -1947.967 -1863.4)"><stop offset="0" stop-color="#fbcf0a"/><stop offset="1" stop-color="#fba505"/></linearGradient><path d="M718.6 467.9c1.3-2.5 2-5.2 2-8.2 0-2.9-.6-5.4-2-7.4-1.3-2-3.2-3.4-5.7-4.2-2.4-.8-5.2-1-8.4-.4l-6.9 1.1c-.2 0-.3 0-.3-.3l.1-14.7c0-.3-.1-.5-.3-.7-.2-.1-.4-.2-.7-.1l-10.3 1.7c-.3 0-.5.2-.7.4s-.3.5-.3.8l-.3 43.7c0 .3.1.5.3.7.2.1.4.2.7.1l19.2-3.2c3.1-.5 5.8-1.6 8.2-3.2 2.3-1.6 4.1-3.6 5.4-6.1zm-11.7-9.6c1 .7 1.5 1.7 1.5 3.1 0 1.4-.5 2.7-1.5 3.7s-2.3 1.7-3.9 2l-5.5.9c-.2 0-.3 0-.3-.3l.1-8.8c0-.2.1-.4.3-.4l5.5-.9c1.5-.2 2.8 0 3.8.7" fill="url(#SVGID_72_)"/><linearGradient id="SVGID_73_" gradientUnits="userSpaceOnUse" x1="-1515.055" y1="1649.214" x2="-1395.47" y2="1649.214" gradientTransform="rotate(-40.721 -1947.967 -1863.4)"><stop offset="0" stop-color="#f28500"/><stop offset="1" stop-color="#fba905"/></linearGradient><path d="M762.8 457.2c-.2 30-24.7 58.3-54.8 63.3-15.9 2.6-30.2-1.8-40.1-11.1-3.7-3.5-7.4-6.9-11.1-10.4 9.9 9.2 24.2 13.7 40.1 11.1 30-5 54.6-33.3 54.8-63.3.1-14.1-5.2-26.1-14-34.3 3.7 3.5 7.4 6.9 11.1 10.4 8.7 8.2 14 20.1 14 34.3z" fill="url(#SVGID_73_)"/><path class="st3" d="M697.6 510.9c-14.7 2.4-28-1.2-37.8-9.1-1-.9-2-1.9-3-2.8 9.9 9.2 24.2 13.7 40.1 11.1 30-5 54.6-33.3 54.8-63.3.1-12.1-3.8-22.6-10.5-30.6 7.1 8 11.3 18.9 11.2 31.4-.3 30-24.8 58.3-54.8 63.3z"/></g><g><linearGradient id="SVGID_74_" gradientUnits="userSpaceOnUse" x1="118.137" y1="2217.134" x2="190.477" y2="2169.433" gradientTransform="translate(0 -1887.85)"><stop offset="0" stop-color="#fbcf0a"/><stop offset="1" stop-color="#fba505"/></linearGradient><path d="M137.8 325.6c19.1-9.5 40.2-25.1 47.1-34.8 6.9-9.7-3.1-9.8-22.2-.2s-40.2 25.1-47.1 34.8c-6.8 9.7 3.1 9.8 22.2.2z" fill="url(#SVGID_74_)"/><path class="st5" d="M137.8 325.6c-1.1.5-2.1 1-3.1 1.5l23.8-34.3c1.4-.8 2.8-1.5 4.2-2.2 19.1-9.6 29-9.5 22.2.2-6.9 9.7-28 25.3-47.1 34.8z"/><path class="st6" d="M140.9 321.3c14.4-7.2 30.2-18.9 35.3-26.1s-2.3-7.3-16.6-.1-30.2 18.9-35.3 26.1c-5.2 7.2 2.3 7.2 16.6.1z"/><path class="st7" d="M176.2 295.1c-5.2 7.3-21 19-35.3 26.1-11.6 5.8-18.7 6.9-18.3 3.2 2.8.4 8.6-1.4 16.4-5.3 14.4-7.2 30.2-18.9 35.3-26.1 1-1.4 1.5-2.5 1.6-3.4 2.4.4 2.7 2.2.3 5.5z"/><linearGradient id="SVGID_75_" gradientUnits="userSpaceOnUse" x1="118.17" y1="2217.183" x2="190.522" y2="2169.475" gradientTransform="translate(0 -1887.85)"><stop offset="0" stop-color="#fbcf0a"/><stop offset="1" stop-color="#fba505"/></linearGradient><path d="M160.3 306.3c1.4-1.1 2.4-2.2 3-3.1.7-.9.8-1.5.5-1.8s-1.2-.2-2.4.1c-1.3.4-2.9 1.1-4.9 2.1l-4.4 2.2c-.1.1-.2.1-.1 0l3.4-4.7c.1-.1.1-.1 0-.1s-.2 0-.4.1l-6.6 3.3c-.2.1-.4.2-.5.3-.1.1-.3.2-.3.3l-10 14.1c-.1.1-.1.1 0 .1s.2 0 .4-.1l12-6.1c2-1 3.9-2 5.6-3.2 1.8-1.2 3.4-2.3 4.7-3.5zm-4.8.1c.4 0 .5.2.2.6-.3.5-.9 1-1.7 1.6-.8.6-1.8 1.1-2.8 1.7l-3.5 1.8c-.1.1-.2.1-.1 0l2-2.8c.1-.1.1-.1.3-.2l3.5-1.8c.9-.6 1.6-.9 2.1-.9" fill="url(#SVGID_75_)"/><linearGradient id="SVGID_76_" gradientUnits="userSpaceOnUse" x1="102.52" y1="2186.852" x2="186.71" y2="2186.852" gradientTransform="translate(0 -1887.85)"><stop offset="0" stop-color="#f28500"/><stop offset="1" stop-color="#fba905"/></linearGradient><path d="M186.7 284.7c-3.6-5.7-7.3-11.4-10.9-17-1.8-2.7-10.6-.8-24 5.9-19.1 9.5-40.2 25.1-47.1 34.8-2.1 2.9-2.6 4.9-1.9 6.1l10.9 17c-.8-1.2-.2-3.2 1.9-6.1 6.9-9.7 27.9-25.2 47.1-34.8 13.4-6.7 22.2-8.6 24-5.9z" fill="url(#SVGID_76_)"/><path class="st3" d="M186 284c-2.8-1.6-11.2.6-23.3 6.6-19.1 9.5-40.2 25.1-47.1 34.8-2.1 2.9-2.6 4.9-1.9 6.1l-.9-1.4c-.1-1.2.6-3 2.2-5.2 6.9-9.7 27.9-25.2 47.1-34.8 13.1-6.5 21.8-8.5 23.9-6.1z"/></g><g><image width="604" height="667" xlink:href="A9132E24.png" transform="translate(-103.5 249.09) scale(.2376)" overflow="visible"/></g><g><image width="504" height="508" xlink:href="A9132E23.png" transform="translate(-14.464 211.934) scale(.2381)" overflow="visible"/></g><g><linearGradient id="SVGID_77_" gradientUnits="userSpaceOnUse" x1="735.264" y1="2245.493" x2="684.983" y2="2171.747" gradientTransform="translate(0 -1887.85)"><stop offset="0" stop-color="#fbcf0a"/><stop offset="1" stop-color="#fba505"/></linearGradient><path d="M722 367.6c14 10.4 25.2 5.5 25.2-11-.1-16.4-11.5-38.1-25.5-48.5-14-10.4-25.2-5.5-25.2 11 .1 16.5 11.5 38.2 25.5 48.5z" fill="url(#SVGID_77_)"/><path class="st5" d="M733 319.7c7 9.3 12.2 20.9 13.7 31.3l-15 21.6c-3-.8-6.3-2.4-9.7-4.9-4.7-3.5-9.1-8.2-12.8-13.6l23.8-34.4z"/><linearGradient id="SVGID_78_" gradientUnits="userSpaceOnUse" x1="702.95" y1="2221.222" x2="761.16" y2="2221.222" gradientTransform="translate(0 -1887.85)"><stop offset="0" stop-color="#f28500"/><stop offset="1" stop-color="#fba905"/></linearGradient><path d="M740.7 371.8c4.7-2.6 9.3-5.2 14-7.8 4-2.3 6.5-7.4 6.5-15.1-.1-16.4-11.5-38.1-25.5-48.5-7.4-5.5-14.1-6.7-18.7-4.1-4.7 2.6-9.3 5.2-14 7.8 4.6-2.6 11.3-1.4 18.7 4.1 14 10.4 25.4 32.1 25.5 48.5 0 7.7-2.5 12.8-6.5 15.1z" fill="url(#SVGID_78_)"/><path class="st3" d="M742.5 370.5c3-2.7 4.7-7.3 4.7-13.8-.1-16.4-11.5-38.1-25.5-48.5-7.4-5.5-14.1-6.7-18.7-4.1.8-.4 1.5-.9 2.3-1.3 4.5-1.5 10.5-.1 17.1 4.8 14 10.4 25.4 32.1 25.5 48.5 0 7-2 11.9-5.4 14.4z"/><path class="st6" d="M721.9 360.2c10.5 7.8 19 4.1 18.9-8.2-.1-12.3-8.6-28.6-19.1-36.4s-19-4.1-18.9 8.2c.1 12.3 8.6 28.7 19.1 36.4z"/><path class="st7" d="M706.4 323.6c.1 12.3 8.6 28.6 19.1 36.4 3.2 2.4 6.3 3.7 8.9 4-3.3 1-7.7-.2-12.5-3.8-10.5-7.8-19.1-24.1-19.1-36.4 0-8.5 4-12.9 10-12.2-4 1.1-6.5 5.3-6.4 12z"/><linearGradient id="SVGID_79_" gradientUnits="userSpaceOnUse" x1="734.312" y1="2246.142" x2="684.032" y2="2172.398" gradientTransform="translate(0 -1887.85)"><stop offset="0" stop-color="#fbcf0a"/><stop offset="1" stop-color="#fba505"/></linearGradient><path d="M731.9 353.9c.6-.8.9-2 .9-3.6s-.3-3.2-1-4.9c-.6-1.7-1.5-3.3-2.7-4.8-1.1-1.5-2.5-2.8-3.9-3.9l-3.2-2.4c-.1-.1-.2-.2-.2-.3v-8c0-.2 0-.3-.1-.5-.1-.1-.2-.3-.3-.4l-4.8-3.6c-.1-.1-.3-.1-.3-.1s-.1.1-.1.3l.1 23.9c0 .2 0 .3.1.5s.2.3.3.4l8.9 6.6c1.4 1.1 2.7 1.7 3.8 1.8 1 .2 1.9-.2 2.5-1zm-5.5-10.3c.5.8.7 1.6.7 2.4 0 .8-.2 1.3-.7 1.4-.5.1-1.1-.1-1.8-.6l-2.6-1.9c-.1-.1-.2-.2-.2-.3v-4.8c0-.1 0-.1.2-.1l2.6 1.9c.7.5 1.3 1.2 1.8 2" fill="url(#SVGID_79_)"/></g><g><image width="679" height="708" xlink:href="A9132E3D.png" transform="translate(390.66 230.56) scale(.2382)" overflow="visible"/></g><g><image width="679" height="675" xlink:href="A9132E3E.png" transform="translate(639.184 144.974) scale(.2382)" overflow="visible"/></g><g><linearGradient id="SVGID_80_" gradientUnits="userSpaceOnUse" x1="750.11" y1="2024.065" x2="659.946" y2="1992.071" gradientTransform="translate(0 -1887.85)"><stop offset="0" stop-color="#fbcf0a"/><stop offset="1" stop-color="#fba505"/></linearGradient><path d="M703.9 139.6c23.9 6 49.1 4.1 56.3-4.3 7.2-8.4-6.4-20-30.3-26.1-23.9-6-49.1-4.1-56.3 4.3-7.1 8.4 6.4 20.1 30.3 26.1z" fill="url(#SVGID_80_)"/><path class="st5" d="M730.4 143.1c-8.3-.1-17.5-1.2-26.5-3.5-3.8-.9-7.3-2.1-10.5-3.3l20.7-29.9c5.2.6 10.5 1.5 15.8 2.8 7.5 1.9 13.9 4.3 19 7l-18.5 26.9z"/><linearGradient id="SVGID_81_" gradientUnits="userSpaceOnUse" x1="671.8" y1="1996.544" x2="765.242" y2="1996.544" gradientTransform="translate(0 -1887.85)"><stop offset="0" stop-color="#f28500"/><stop offset="1" stop-color="#fba905"/></linearGradient><path d="M762 131.5l3.2-19.9c1.2-7.8-11.6-17.1-32.1-22.3-23.9-6-49.1-4.1-56.3 4.3-1 1.2-1.6 2.5-1.8 3.8l-3.2 19.9c.2-1.3.8-2.6 1.8-3.8 7.2-8.4 32.4-10.3 56.3-4.3 20.5 5.2 33.4 14.5 32.1 22.3z" fill="url(#SVGID_81_)"/><path class="st3" d="M729.9 108.1c20.1 5.1 32.8 14.1 32.1 21.8-.7-7.4-13.1-15.8-32.1-20.6-23.9-6-49.1-4.1-56.3 4.3-1 1.2-1.6 2.5-1.8 3.8l.4-2.7c.3-.8.8-1.5 1.4-2.3 7.2-8.4 32.4-10.3 56.3-4.3z"/><path class="st6" d="M707.1 135.8c17.9 4.5 36.9 3.1 42.3-3.2 5.4-6.3-4.8-15-22.7-19.6-17.9-4.5-36.9-3.1-42.3 3.2-5.4 6.3 4.8 15.1 22.7 19.6z"/><path class="st7" d="M707.2 133.1c17.9 4.5 36.9 3.1 42.3-3.2.6-.7 1-1.5 1.2-2.2.4 1.7 0 3.4-1.3 4.9-5.4 6.3-24.3 7.7-42.3 3.2-15.9-4-25.7-11.3-24-17.3 1.4 5.4 10.5 11.2 24.1 14.6z"/><linearGradient id="SVGID_82_" gradientUnits="userSpaceOnUse" x1="749.956" y1="2024.499" x2="659.793" y2="1992.505" gradientTransform="translate(0 -1887.85)"><stop offset="0" stop-color="#fbcf0a"/><stop offset="1" stop-color="#fba505"/></linearGradient><path d="M730.2 133.1c1.6-.4 2.7-1 3.4-1.8.7-.8.8-1.7.2-2.6-.5-.9-1.6-1.8-3.3-2.6-1.7-.8-3.7-1.6-6.3-2.2l-5.5-1.4c-.2 0-.2-.1-.2-.2l3.5-4.1c.1-.1.1-.2 0-.3-.1-.1-.3-.2-.5-.2l-8.2-2.1c-.2-.1-.5-.1-.6-.1-.2 0-.3.1-.4.2l-10.5 12.2c-.1.1-.1.2 0 .3s.3.2.5.2l15.2 3.8c2.5.6 4.8 1 7 1.1 2.3.3 4.2.2 5.7-.2zm-6.6-5.5c.6.4.7.8.4 1.2-.3.4-1 .6-2 .7s-2.1-.1-3.4-.4l-4.4-1.1c-.2 0-.2-.1-.2-.2l2.1-2.4c0-.1.2-.1.3 0l4.4 1.1c1.3.2 2.3.6 2.8 1.1" fill="url(#SVGID_82_)"/></g><g><image width="875" height="654" xlink:href="A9132E3C.png" transform="translate(-128.22 388.362) scale(.2381)" overflow="visible"/></g><g><image width="617" height="621" xlink:href="A9132E27.png" transform="translate(-100.14 -51.34) scale(.2369)" overflow="visible"/></g><g><linearGradient id="SVGID_83_" gradientUnits="userSpaceOnUse" x1="34.18" y1="2276.615" x2="87.296" y2="2276.615" gradientTransform="translate(0 -1887.85)"><stop offset="0" stop-color="#f28500"/><stop offset="1" stop-color="#fba905"/></linearGradient><path d="M84.6 404.9l2.4-9.6c.5-1.9.4-3.9-.4-6-3.2-9-17-16.4-30.7-16.6-10.5-.1-17.9 4.1-19.4 10l-2.4 9.6c1.5-6 8.9-10.1 19.4-10 13.7.1 27.4 7.6 30.7 16.6.8 2.1.9 4.1.4 6z" fill="url(#SVGID_83_)"/><path class="st3" d="M53.5 381.6c13.7.1 27.4 7.6 30.7 16.6.5 1.4.7 2.8.7 4.1 0-1.1-.3-2.3-.7-3.5-3.2-9-17-16.5-30.7-16.6-10.5-.1-17.9 4.1-19.4 10 .2-.8.4-1.5.6-2.3 2.4-4.9 9.4-8.4 18.8-8.3z"/><linearGradient id="SVGID_84_" gradientUnits="userSpaceOnUse" x1="72.721" y1="2281.895" x2="13.849" y2="2302.11" gradientTransform="translate(0 -1887.85)"><stop offset="0" stop-color="#fbcf0a"/><stop offset="1" stop-color="#fba505"/></linearGradient><path d="M65.3 415c13.7.1 22.2-7.1 18.9-16.1s-17-16.5-30.7-16.6c-13.7-.1-22.2 7.1-19 16.1 3.3 9 17 16.4 30.8 16.6z" fill="url(#SVGID_84_)"/><path class="st5" d="M42.1 407.5l17.2-24.8c7 1.1 13.6 3.9 18.4 7.7l-16.8 24.2c-7.1-.8-13.9-3.4-18.8-7.1z"/><path class="st6" d="M63.8 410.9c10.3.1 16.7-5.3 14.2-12.1-2.4-6.8-12.7-12.4-23-12.5s-16.6 5.3-14.2 12.1c2.4 6.8 12.7 12.4 23 12.5z"/><path class="st7" d="M42.7 396.5c2.4 6.8 12.7 12.4 23 12.5 4.8 0 8.8-1.1 11.4-3.1-2.3 3.1-7.1 5-13.3 5-10.3-.1-20.6-5.7-23-12.5-1.3-3.6-.1-6.8 2.8-9-1.5 2-1.9 4.5-.9 7.1z"/><linearGradient id="SVGID_85_" gradientUnits="userSpaceOnUse" x1="72.734" y1="2281.933" x2="13.861" y2="2302.148" gradientTransform="translate(0 -1887.85)"><stop offset="0" stop-color="#fbcf0a"/><stop offset="1" stop-color="#fba505"/></linearGradient><path d="M70.9 403.4c.3-.7.3-1.5 0-2.4-.3-.9-.9-1.6-1.8-2.3s-1.9-1.2-3.2-1.6c-1.3-.4-2.6-.6-4-.6h-3.2c-.1 0-.2 0-.2-.1L57 392c0-.1-.1-.2-.2-.2-.1-.1-.2-.1-.4-.1h-4.7c-.1 0-.2 0-.3.1-.1 0-.1.1 0 .2l4.7 13.2c0 .1.1.2.2.2s.2.1.4.1l8.7.1c1.4 0 2.6-.2 3.5-.5 1-.5 1.7-1 2-1.7zm-6.6-3.5c.5.3.9.6 1 1 .2.4.1.8-.3 1-.4.3-.9.4-1.6.4h-2.5c-.1 0-.2 0-.2-.1l-.9-2.6c0-.1 0-.1.1-.1h2.5c.7 0 1.4.2 1.9.4" fill="url(#SVGID_85_)"/></g><g><linearGradient id="SVGID_86_" gradientUnits="userSpaceOnUse" x1="596.11" y1="2202.765" x2="646.573" y2="2202.765" gradientTransform="translate(0 -1887.85)"><stop offset="0" stop-color="#f28500"/><stop offset="1" stop-color="#fba905"/></linearGradient><path d="M644 330.3c.8-3.1 1.5-6.1 2.3-9.2.4-1.8.3-3.7-.4-5.7-3.1-8.6-16.1-15.6-29.1-15.8-9.9-.1-17 3.9-18.4 9.5-.8 3.1-1.5 6.1-2.3 9.2 1.4-5.7 8.5-9.6 18.4-9.5 13 .1 26.1 7.2 29.1 15.8.8 1.9.9 3.9.4 5.7z" fill="url(#SVGID_86_)"/><path class="st3" d="M614.5 308.1c13 .1 26.1 7.2 29.1 15.8.5 1.4.7 2.6.6 3.9 0-1-.2-2.1-.6-3.3-3.1-8.6-16.1-15.6-29.1-15.8-9.9-.1-17 3.9-18.4 9.5.2-.7.4-1.4.5-2.2 2.3-4.7 8.9-8 17.9-7.9z"/><linearGradient id="SVGID_87_" gradientUnits="userSpaceOnUse" x1="632.723" y1="2207.773" x2="576.782" y2="2226.982" gradientTransform="translate(0 -1887.85)"><stop offset="0" stop-color="#fbcf0a"/><stop offset="1" stop-color="#fba505"/></linearGradient><path d="M625.6 339.8c13 .1 21.1-6.7 18-15.3-3.1-8.6-16.1-15.6-29.1-15.8-13-.1-21.1 6.7-18 15.3 3.1 8.6 16.1 15.7 29.1 15.8z" fill="url(#SVGID_87_)"/><path class="st5" d="M603.6 332.7l16.3-23.5c6.7 1 13 3.7 17.5 7.3l-16 23c-6.6-.8-13.1-3.3-17.8-6.8z"/><path class="st6" d="M624.2 335.9c9.8.1 15.8-5 13.5-11.5s-12.1-11.7-21.9-11.8c-9.8-.1-15.8 5-13.5 11.5 2.4 6.4 12.2 11.7 21.9 11.8z"/><path class="st7" d="M604.2 322.3c2.3 6.4 12.1 11.7 21.9 11.8 4.6 0 8.4-1.1 10.8-2.9-2.2 2.9-6.7 4.8-12.6 4.7-9.8-.1-19.6-5.4-21.9-11.8-1.2-3.4-.1-6.5 2.7-8.5-1.4 1.8-1.8 4.2-.9 6.7z"/><linearGradient id="SVGID_88_" gradientUnits="userSpaceOnUse" x1="632.731" y1="2207.796" x2="576.789" y2="2227.005" gradientTransform="translate(0 -1887.85)"><stop offset="0" stop-color="#fbcf0a"/><stop offset="1" stop-color="#fba505"/></linearGradient><path d="M631 328.9c.3-.6.3-1.4 0-2.2-.3-.8-.8-1.6-1.7-2.2-.8-.6-1.8-1.1-3-1.5s-2.5-.5-3.8-.6h-3c-.1 0-.2 0-.2-.1l-1.5-4.2c0-.1-.1-.1-.2-.2-.1 0-.2-.1-.3-.1h-4.5c-.1 0-.2 0-.3.1-.1 0-.1.1 0 .2l4.5 12.5c0 .1.1.1.2.2.1 0 .2.1.3.1l8.3.1c1.3 0 2.5-.1 3.3-.5.9-.5 1.6-1 1.9-1.6zm-6.3-3.4c.5.2.8.6 1 1 .2.4 0 .7-.3 1-.3.2-.8.4-1.5.4h-2.4c-.1 0-.2 0-.2-.1l-.9-2.5c0-.1 0-.1.1-.1h2.4c.7-.1 1.3.1 1.8.3" fill="url(#SVGID_88_)"/></g><g><linearGradient id="SVGID_89_" gradientUnits="userSpaceOnUse" x1="239.37" y1="2190.835" x2="289.833" y2="2190.835" gradientTransform="translate(0 -1887.85)"><stop offset="0" stop-color="#f28500"/><stop offset="1" stop-color="#fba905"/></linearGradient><path d="M287.3 318.3c.8-3.1 1.5-6.1 2.3-9.2.4-1.8.3-3.7-.4-5.7-3.1-8.6-16.1-15.6-29.1-15.8-9.9-.1-17 3.9-18.4 9.5-.8 3.1-1.5 6.1-2.3 9.2 1.4-5.7 8.5-9.6 18.4-9.5 13 .1 26.1 7.2 29.1 15.8.7 2 .8 3.9.4 5.7z" fill="url(#SVGID_89_)"/><path class="st3" d="M257.8 296.2c13 .1 26.1 7.2 29.1 15.8.5 1.4.7 2.6.6 3.9 0-1-.2-2.1-.6-3.3-3.1-8.6-16.1-15.6-29.1-15.8-9.9-.1-17 3.9-18.4 9.5.2-.7.4-1.4.5-2.2 2.2-4.7 8.9-8 17.9-7.9z"/><linearGradient id="SVGID_90_" gradientUnits="userSpaceOnUse" x1="275.985" y1="2195.843" x2="220.044" y2="2215.052" gradientTransform="translate(0 -1887.85)"><stop offset="0" stop-color="#fbcf0a"/><stop offset="1" stop-color="#fba505"/></linearGradient><path d="M268.9 327.9c13 .1 21.1-6.7 18-15.3-3.1-8.6-16.1-15.6-29.1-15.8-13-.1-21.1 6.7-18 15.3 3 8.6 16.1 15.6 29.1 15.8z" fill="url(#SVGID_90_)"/><path class="st5" d="M246.9 320.8l16.3-23.5c6.7 1 13 3.7 17.5 7.3l-16 23c-6.7-.8-13.1-3.3-17.8-6.8z"/><path class="st6" d="M267.5 324c9.8.1 15.8-5 13.5-11.5s-12.1-11.7-21.9-11.8c-9.8-.1-15.8 5-13.5 11.5 2.3 6.4 12.1 11.7 21.9 11.8z"/><path class="st7" d="M247.4 310.4c2.3 6.4 12.1 11.7 21.9 11.8 4.6 0 8.4-1.1 10.8-2.9-2.2 2.9-6.7 4.8-12.6 4.7-9.8-.1-19.6-5.4-21.9-11.8-1.2-3.4-.1-6.5 2.7-8.5-1.4 1.8-1.8 4.1-.9 6.7z"/><linearGradient id="SVGID_91_" gradientUnits="userSpaceOnUse" x1="275.993" y1="2195.865" x2="220.05" y2="2215.075" gradientTransform="translate(0 -1887.85)"><stop offset="0" stop-color="#fbcf0a"/><stop offset="1" stop-color="#fba505"/></linearGradient><path d="M274.2 316.9c.3-.6.3-1.4 0-2.2-.3-.8-.9-1.6-1.7-2.2-.8-.6-1.8-1.1-3-1.5s-2.5-.5-3.8-.6h-3c-.1 0-.1 0-.2-.1l-1.5-4.2c0-.1-.1-.1-.2-.2-.1 0-.2-.1-.3-.1H256c-.1 0-.2 0-.3.1-.1 0-.1.1 0 .2l4.5 12.5c0 .1.1.1.2.2.1 0 .2.1.3.1l8.3.1c1.3 0 2.5-.1 3.4-.5.9-.4 1.5-.9 1.8-1.6zm-6.2-3.3c.5.2.8.6 1 1 .1.4 0 .7-.3 1-.3.2-.9.4-1.5.4h-2.4c-.1 0-.1 0-.2-.1l-.9-2.5c0-.1 0-.1.1-.1h2.4c.7-.1 1.3 0 1.8.3" fill="url(#SVGID_91_)"/></g><g><linearGradient id="SVGID_92_" gradientUnits="userSpaceOnUse" x1="-15.28" y1="1947.93" x2="35.183" y2="1947.93" gradientTransform="translate(0 -1887.85)"><stop offset="0" stop-color="#f28500"/><stop offset="1" stop-color="#fba905"/></linearGradient><path d="M32.6 75.4c.8-3.1 1.5-6.1 2.3-9.2.4-1.8.3-3.7-.4-5.7-3.1-8.6-16.1-15.6-29.1-15.8-9.9-.1-17 3.8-18.4 9.5-.8 3.1-1.5 6.1-2.3 9.2 1.4-5.7 8.5-9.6 18.4-9.5 13 .1 26.1 7.2 29.1 15.8.8 2 .9 3.9.4 5.7z" fill="url(#SVGID_92_)"/><path class="st3" d="M3.1 53.3c13 .1 26.1 7.2 29.1 15.8.5 1.3.7 2.7.6 3.9 0-1.1-.2-2.2-.6-3.3-3-8.6-16.1-15.7-29.1-15.8-9.9-.1-17 3.9-18.4 9.5.2-.7.4-1.4.5-2.2 2.3-4.7 8.9-8 17.9-7.9z"/><linearGradient id="SVGID_93_" gradientUnits="userSpaceOnUse" x1="21.332" y1="1952.944" x2="-34.608" y2="1972.152" gradientTransform="translate(0 -1887.85)"><stop offset="0" stop-color="#fbcf0a"/><stop offset="1" stop-color="#fba505"/></linearGradient><path d="M14.2 85c13 .1 21.1-6.7 18-15.3-3-8.6-16.1-15.7-29.1-15.8s-21.1 6.7-18 15.3c3.1 8.6 16.1 15.6 29.1 15.8z" fill="url(#SVGID_93_)"/><path class="st5" d="M-7.8 77.9L8.5 54.4c6.7 1 13 3.7 17.5 7.3l-16 23c-6.6-.8-13.1-3.3-17.8-6.8z"/><path class="st6" d="M12.9 81.1c9.8.1 15.8-5 13.5-11.5S14.3 57.9 4.5 57.8c-9.8-.1-15.8 5-13.5 11.5C-6.7 75.7 3.1 81 12.9 81.1z"/><path class="st7" d="M-7.2 67.5c2.3 6.4 12.1 11.7 21.9 11.8 4.6 0 8.4-1.1 10.8-2.9-2.2 2.9-6.7 4.8-12.6 4.7C3.1 81-6.7 75.7-9 69.3c-1.2-3.4-.1-6.5 2.7-8.5-1.4 1.8-1.8 4.1-.9 6.7z"/><linearGradient id="SVGID_94_" gradientUnits="userSpaceOnUse" x1="21.344" y1="1952.975" x2="-34.599" y2="1972.184" gradientTransform="translate(0 -1887.85)"><stop offset="0" stop-color="#fbcf0a"/><stop offset="1" stop-color="#fba505"/></linearGradient><path d="M19.6 74c.3-.7.3-1.4 0-2.2-.3-.8-.9-1.6-1.7-2.2-.8-.6-1.8-1.1-3-1.5s-2.5-.6-3.8-.6h-3c-.1 0-.2 0-.2-.1l-1.5-4.2c0-.1-.1-.2-.2-.2s-.2-.1-.3-.1H1.4c-.1 0-.2 0-.3.1s-.1.1 0 .2l4.5 12.5c0 .1.1.2.2.2.1.1.2.1.3.1l8.3.1c1.3 0 2.5-.2 3.4-.5.9-.4 1.5-.9 1.8-1.6zm-6.3-3.3c.5.2.8.6 1 1 .1.4.1.7-.3 1-.3.2-.9.4-1.6.3H10c-.1 0-.1 0-.2-.1L9 70.4c0-.1 0-.1.1-.1h2.4c.7 0 1.3.1 1.8.4" fill="url(#SVGID_94_)"/></g><g><linearGradient id="SVGID_95_" gradientUnits="userSpaceOnUse" x1="55.767" y1="2061.629" x2="42.83" y2="1992.145" gradientTransform="translate(0 -1887.85)"><stop offset="0" stop-color="#fbcf0a"/><stop offset="1" stop-color="#fba505"/></linearGradient><path d="M59.7 196.8c-21.7-6.8-41.8-27.1-45-45.3s11.8-27.5 33.5-20.6c21.7 6.8 41.8 27.1 45 45.3s-11.8 27.4-33.5 20.6z" fill="url(#SVGID_95_)"/><path class="st5" d="M58.9 196.5c-10.7-3.5-21-10.3-29-18.5l29.4-42.5c10.4 5.6 19.8 13.8 26.1 22.9l-26.5 38.1z"/><path class="st6" d="M58.2 188.6c16.3 5.1 27.5-1.8 25.2-15.5-2.4-13.7-17.5-28.9-33.8-34-16.3-5.1-27.6 1.8-25.2 15.5 2.4 13.7 17.6 28.9 33.8 34z"/><path class="st7" d="M79.6 186.5c1.2-2.6 1.6-5.9.9-9.6-2.4-13.7-17.5-28.9-33.8-34-9.3-2.9-17-1.9-21.4 2.1 3.2-6.9 12.4-9.6 24.2-5.9 16.3 5.1 31.4 20.4 33.8 34 1.1 5.8-.4 10.5-3.7 13.4z"/><linearGradient id="SVGID_96_" gradientUnits="userSpaceOnUse" x1="59.333" y1="2060.964" x2="46.396" y2="1991.48" gradientTransform="translate(0 -1887.85)"><stop offset="0" stop-color="#fbcf0a"/><stop offset="1" stop-color="#fba505"/></linearGradient><path d="M71.1 178.2c.7-1.1.9-2.5.6-4.3-.3-1.8-1.1-3.5-2.3-5.1-1.2-1.6-2.8-3.1-4.7-4.4s-4-2.3-6.3-3l-5-1.6c-.2-.1-.3-.1-.3-.3l-1.6-8.9c0-.2-.1-.4-.3-.5s-.3-.3-.5-.3l-7.5-2.3c-.2-.1-.4-.1-.5 0-.1.1-.1.2-.1.4l4.6 26.6c0 .2.1.4.3.5s.3.3.5.3l13.8 4.3c2.2.7 4.1.9 5.7.7 1.8-.3 2.9-1 3.6-2.1zm-9.7-9.6c.8.7 1.3 1.5 1.4 2.4.2.9-.1 1.5-.7 1.8-.6.3-1.5.3-2.7-.1l-4-1.2c-.2-.1-.3-.1-.3-.3l-.9-5.3c0-.1 0-.2.2-.1l4 1.3c1.2.2 2.2.8 3 1.5" fill="url(#SVGID_96_)"/><linearGradient id="SVGID_97_" gradientUnits="userSpaceOnUse" x1="3.244" y1="2062.2" x2="90.05" y2="2062.2" gradientTransform="translate(0 -1887.85)"><stop offset="0" stop-color="#f28500"/><stop offset="1" stop-color="#fba905"/></linearGradient><path d="M89.5 192.8c-1.7 2.1-3.3 4.2-4.9 6.3-1.8 2.3-3.7 4.7-5.5 7-5.4 6.9-16.5 9.1-30.4 4.8-21.7-6.9-41.8-27.2-45-45.4-1.2-6.6.1-12 3.1-15.9 3.7-4.7 7.3-9.4 11-14-3.1 3.9-4.3 9.3-3.1 15.9 3.2 18.2 23.3 38.5 45 45.3 13.8 4.4 25 2.1 30.4-4.8-.2.3-.4.6-.6.8z" fill="url(#SVGID_97_)"/><path class="st3" d="M90.1 192.1c-.2.2-.4.5-.6.7-.7.9-1.3 1.7-2 2.6-5.9 5.1-16 6.3-28.2 2.5-21.7-6.8-41.8-27.1-45-45.3-.8-4.6-.4-8.7.9-12-1 3.1-1.3 6.8-.5 11 3.2 18.2 23.3 38.5 45 45.3 13.8 4.3 25 2.1 30.4-4.8z"/></g><g><linearGradient id="SVGID_98_" gradientUnits="userSpaceOnUse" x1="3623.097" y1="-374.938" x2="3674.895" y2="-374.938" gradientTransform="rotate(71.416 1901.176 -2230.836)"><stop offset="0" stop-color="#f28500"/><stop offset="1" stop-color="#fba905"/></linearGradient><path d="M711.2 40.6l7.5-7.5c3.2-3.1 3.2-9.3-.7-16.8C712.2 5 699.6-4.9 689.9-5.8c-3.3-.3-5.9.5-7.5 2.2l-7.5 7.4c1.7-1.7 4.2-2.5 7.5-2.2 9.7.9 22.3 10.8 28.1 22.1 3.8 7.5 3.8 13.7.7 16.9z" fill="url(#SVGID_98_)"/><path class="st3" d="M711 23.1c3.6 7 3.8 12.8 1.2 16.2 2.1-3.4 1.6-9-1.7-15.4-5.9-11.5-18.5-21.4-28.1-22.2-3.3-.3-5.9.5-7.5 2.2l1.7-1.6c1.6-1 3.8-1.5 6.4-1.2 9.5.7 22.1 10.6 28 22z"/><linearGradient id="SVGID_99_" gradientUnits="userSpaceOnUse" x1="3641.503" y1="-355.68" x2="3669.363" y2="-388.36" gradientTransform="rotate(71.416 1901.176 -2230.836)"><stop offset="0" stop-color="#fbcf0a"/><stop offset="1" stop-color="#fba505"/></linearGradient><path d="M675.5 20.6c5.9 11.3 18.5 21.2 28.1 22.1 9.7.9 12.7-7.6 6.9-18.9S692.1 2.6 682.4 1.7c-9.7-.9-12.7 7.6-6.9 18.9z" fill="url(#SVGID_99_)"/><path class="st5" d="M682.4 1.7c9.7.9 22.3 10.8 28.1 22.1 5.8 11.2 2.9 19.6-6.5 18.9L674.8 3.8c1.7-1.6 4.3-2.4 7.6-2.1z"/><path class="st6" d="M679.9 21c4.4 8.5 13.8 15.9 21.1 16.6 7.3.7 9.6-5.7 5.2-14.2S692.3 7.4 685 6.8c-7.2-.7-9.5 5.7-5.1 14.2z"/><path class="st7" d="M681.2 19.4c4.4 8.5 13.9 16 21.1 16.6 2.3.2 4-.3 5.3-1.3-1.1 2-3.4 3.1-6.6 2.8-7.3-.7-16.7-8.1-21.1-16.6-3-5.9-2.9-10.7-.1-13-1.4 2.7-1 6.8 1.4 11.5z"/><linearGradient id="SVGID_100_" gradientUnits="userSpaceOnUse" x1="3642.279" y1="-355.017" x2="3670.14" y2="-387.698" gradientTransform="rotate(71.416 1901.176 -2230.836)"><stop offset="0" stop-color="#fbcf0a"/><stop offset="1" stop-color="#fba505"/></linearGradient><path d="M692.2 29.8c1 .6 2 .9 2.9 1 .9.1 1.6-.1 2.1-.5s.6-1.1.5-2c-.1-.9-.4-1.9-1.1-3.1l-1.3-2.6v-.1l4.7.4c.1 0 .2 0 .2-.1s0-.1-.1-.3l-2-3.9c-.1-.1-.1-.2-.2-.3-.1-.1-.2-.1-.3-.1l-14.1-1.3c-.1 0-.2 0-.2.1s0 .1.1.3l3.7 7.2c.6 1.2 1.3 2.2 2.2 3.1.9.9 1.9 1.7 2.9 2.2zm1.4-4.1c-.1.3-.3.5-.8.5s-.9-.3-1.4-.7c-.5-.4-.9-.9-1.2-1.5l-1.1-2.1v-.1l2.8.3c.1 0 .1 0 .2.1l1.1 2.1c.3.6.4 1.1.4 1.4" fill="url(#SVGID_100_)"/></g></g></g></g></svg>