<?xml version="1.0" encoding="utf-8"?>
<!-- Generator: Adobe Illustrator 24.2.0, SVG Export Plug-In . SVG Version: 6.00 Build 0)  -->
<svg version="1.1" id="Layer_1" xmlns="http://www.w3.org/2000/svg" xmlns:xlink="http://www.w3.org/1999/xlink" x="0px" y="0px"
	 viewBox="0 0 800 496.9" style="enable-background:new 0 0 800 496.9;" xml:space="preserve">
<style type="text/css">
	.st0{opacity:0.25;}
	.st1{fill:#ED1E79;}
	.st2{fill:#5DD1F9;}
	.st3{fill:#D9E021;}
	.st4{fill:#39B54A;}
	.st5{fill:#FCEE21;}
	.st6{fill:#662D91;}
	.st7{fill:#F5F5F5;}
	.st8{fill:#F26161;}
	.st9{fill:#F2F2F2;}
</style>
<g id="Background">
</g>
<g id="Layer_1_1_" class="st0">
	<g>
		<path class="st1" d="M41.9,440.7H20.1L9.3,421.9L20.1,403h21.8l10.9,18.9L41.9,440.7z M23.8,434.4h14.5l7.3-12.5l-7.3-12.5H23.8
			l-7.2,12.5L23.8,434.4z"/>
	</g>
	<g>
		<path class="st2" d="M382.1,389.6l-13.3,17.3l-21.6-2.9l-8.3-20.1l13.3-17.3l21.6,2.9L382.1,389.6z M366,400.1l8.9-11.5l-5.5-13.4
			l-14.4-1.9l-8.9,11.5l5.5,13.4L366,400.1z"/>
	</g>
	<g>
		<path class="st3" d="M674.8,287l-20.9-6.1l-5.2-21.2l15.8-15.1l20.9,6.1l5.2,21.2L674.8,287z M659.2,275.8l13.9,4.1l10.5-10
			l-3.4-14.1l-13.9-4.1l-10.5,10L659.2,275.8z"/>
	</g>
	<g>
		<path class="st3" d="M44.8,340.4l3.1-42.3L82.9,322L44.8,340.4z M53.4,309.5L51.9,330l18.4-8.9L53.4,309.5z"/>
	</g>
	<g>
		<path class="st4" d="M548.3,481.5l6.4-41.9l33.1,26.5L548.3,481.5z M559.3,451.3l-3.1,20.2l19.1-7.4L559.3,451.3z"/>
	</g>
	<g>
		<path class="st1" d="M713.3,163.3l-37.6-19.5l35.7-22.8L713.3,163.3z M688.3,143.2l18.2,9.4l-0.9-20.4L688.3,143.2z"/>
	</g>
	<g>
		<path class="st1" d="M425.8,71l-37.6-19.5l35.7-22.8L425.8,71z M400.8,51l18.2,9.4l-0.9-20.4L400.8,51z"/>
	</g>
	<g>
		<path class="st2" d="M154.4,190.9l-36.7-21.2l36.7-21.2V190.9z M130.4,169.7l17.7,10.2v-20.5L130.4,169.7z"/>
	</g>
	<g>
		<path class="st5" d="M295.3,154.1l-38.7,17.2l4.5-42.1L295.3,154.1z M264,161l18.7-8.3l-16.5-12.1L264,161z"/>
	</g>
	<g>
		<path class="st1" d="M219.9,336.6l7.2-23.4l36.1,11.1l-7.2,23.4L219.9,336.6z M231.3,321.2l-3.5,11.3l24,7.4l3.5-11.3L231.3,321.2
			z"/>
	</g>
	<g>
		<path class="st6" d="M716.7,473l-12.2-21.2l32.7-18.9l12.2,21.2L716.7,473z M713.1,454.1l5.9,10.2l21.7-12.5l-5.9-10.2
			L713.1,454.1z"/>
	</g>
	<g>
		<path class="st7" d="M118.1,110.2L105.9,89l32.7-18.9l12.2,21.2L118.1,110.2z M114.5,91.3l5.9,10.2L142.2,89l-5.9-10.2L114.5,91.3
			z"/>
	</g>
	<g>
		<path class="st4" d="M101.5,480.2l-13.9-35.1l22.7-9l13.9,35.1L101.5,480.2z M95.8,448.6L105,472l11-4.4l-9.3-23.3L95.8,448.6z"/>
	</g>
	<g>
		<path class="st7" d="M771,244.5c-10.4,0-18.9-8.5-18.9-18.9s8.5-18.9,18.9-18.9c10.4,0,18.9,8.5,18.9,18.9
			C789.9,236,781.5,244.5,771,244.5z M771,213.1c-6.9,0-12.5,5.6-12.5,12.6s5.6,12.6,12.5,12.6s12.5-5.6,12.5-12.6
			S778,213.1,771,213.1z"/>
	</g>
	<g>
		<path class="st5" d="M570.9,169.1c-10.4,0-18.9-8.5-18.9-18.9s8.5-18.9,18.9-18.9c10.4,0,18.9,8.5,18.9,18.9
			C589.8,160.6,581.3,169.1,570.9,169.1z M570.9,137.6c-6.9,0-12.5,5.6-12.5,12.6s5.6,12.6,12.5,12.6s12.5-5.6,12.5-12.6
			C583.5,143.3,577.8,137.6,570.9,137.6z"/>
	</g>
	<g>
		<path class="st5" d="M561.9,386.7c-10.4,0-18.9-8.5-18.9-18.9s8.5-18.9,18.9-18.9c10.4,0,18.9,8.5,18.9,18.9
			C580.8,378.3,572.3,386.7,561.9,386.7z M561.9,355.3c-6.9,0-12.5,5.6-12.5,12.5s5.6,12.5,12.5,12.5s12.5-5.6,12.5-12.5
			S568.8,355.3,561.9,355.3z"/>
	</g>
	<g>
		<path class="st8" d="M20.4,139.8c-10.4,0-18.9-8.5-18.9-18.9s8.5-18.9,18.9-18.9s18.9,8.5,18.9,18.9
			C39.3,131.4,30.8,139.8,20.4,139.8z M20.4,108.4c-6.9,0-12.6,5.6-12.6,12.6s5.6,12.6,12.6,12.6S33,127.9,33,121
			S27.3,108.4,20.4,108.4z"/>
	</g>
	<g>
		
			<rect x="468.5" y="142.1" transform="matrix(0.7071 -0.7071 0.7071 0.7071 23.9678 380.8083)" class="st4" width="6.3" height="38.8"/>
	</g>
	<g>
		
			<rect x="238.3" y="41.5" transform="matrix(0.1062 -0.9943 0.9943 0.1062 155.3605 294.5202)" class="st6" width="6.3" height="38.8"/>
	</g>
	<g>
		
			<rect x="25.4" y="213.5" transform="matrix(0.6045 -0.7966 0.7966 0.6045 -154.8876 121.3298)" class="st9" width="38.8" height="6.3"/>
	</g>
	<g>
		
			<rect x="166" y="403.7" transform="matrix(0.6045 -0.7966 0.7966 0.6045 -250.8016 308.6228)" class="st9" width="38.8" height="6.3"/>
	</g>
	<g>
		
			<rect x="763.4" y="35.8" transform="matrix(0.6044 -0.7967 0.7967 0.6044 278.6075 639.0735)" class="st2" width="38.8" height="6.3"/>
	</g>
	<g>
		<g>
			
				<rect x="523.9" y="41.5" transform="matrix(0.7071 -0.7071 0.7071 0.7071 111.3672 390.5306)" class="st2" width="6.3" height="38.8"/>
		</g>
		<g>
			
				<rect x="507.7" y="57.7" transform="matrix(0.7071 -0.7071 0.7071 0.7071 111.3657 390.5264)" class="st2" width="38.8" height="6.3"/>
		</g>
	</g>
	<g>
		<g>
			
				<rect x="251.3" y="420.6" transform="matrix(0.8487 -0.5289 0.5289 0.8487 -194.211 201.158)" class="st7" width="6.3" height="38.8"/>
		</g>
		<g>
			
				<rect x="235.1" y="436.8" transform="matrix(0.8487 -0.5289 0.5289 0.8487 -194.1955 201.1624)" class="st7" width="38.8" height="6.3"/>
		</g>
	</g>
	<g>
		<g>
			
				<rect x="741.9" y="308.1" transform="matrix(0.8487 -0.5289 0.5289 0.8487 -60.483 443.6364)" class="st6" width="6.3" height="38.8"/>
		</g>
		<g>
			
				<rect x="725.7" y="324.3" transform="matrix(0.8487 -0.5289 0.5289 0.8487 -60.4502 443.6231)" class="st6" width="38.8" height="6.3"/>
		</g>
	</g>
	<g>
		<g>
			
				<rect x="428.6" y="441.2" transform="matrix(0.8487 -0.5289 0.5289 0.8487 -178.2396 298.0451)" class="st6" width="6.3" height="38.8"/>
		</g>
		<g>
			
				<rect x="412.4" y="457.3" transform="matrix(0.8487 -0.5289 0.5289 0.8487 -178.2096 298.0468)" class="st6" width="38.8" height="6.3"/>
		</g>
	</g>
	<g>
		<g>
			
				<rect x="22.7" y="33.9" transform="matrix(0.8487 -0.5289 0.5289 0.8487 -23.2347 21.2448)" class="st5" width="5.6" height="34.6"/>
		</g>
		<g>
			
				<rect x="8.2" y="48.4" transform="matrix(0.8487 -0.5289 0.5289 0.8487 -23.2279 21.2455)" class="st5" width="34.6" height="5.6"/>
		</g>
	</g>
	<g>
		
			<rect x="641.7" y="393.6" transform="matrix(0.9883 -0.1528 0.1528 0.9883 -52.8587 105.6728)" class="st1" width="38.8" height="6.3"/>
	</g>
	<g>
		
			<rect x="622.1" y="73.6" transform="matrix(0.9883 -0.1528 0.1528 0.9883 -4.2031 98.9186)" class="st1" width="38.8" height="6.3"/>
	</g>
	<g>
		<path class="st2" d="M533.7,203.8l16.9,13.7l-3.4,21.5l-20.3,7.8L510,233.2l3.4-21.5L533.7,203.8z M543.8,220.2l-11.3-9.1
			l-13.5,5.2l-2.3,14.3l11.3,9.1l13.5-5.2L543.8,220.2z"/>
	</g>
	<g>
		<path class="st1" d="M354.8,197.4l-20.4,37.1l-22-36.3L354.8,197.4z M334.1,221.8l9.9-17.9l-20.5,0.4L334.1,221.8z"/>
	</g>
	<g>
		<path class="st5" d="M405.1,266.5l16.3,39.1l-42-5.5L405.1,266.5z M411.3,298l-7.9-18.9L391,295.4L411.3,298z"/>
	</g>
	<g>
		<path class="st1" d="M597.5,321.9l-23.2-7.8l12-35.8l23.2,7.8L597.5,321.9z M582.3,310.1l11.2,3.8l8-23.8l-11.2-3.8L582.3,310.1z"
			/>
	</g>
	<g>
		
			<rect x="385.6" y="108.8" transform="matrix(0.7239 -0.6899 0.6899 0.7239 34.5867 310.2876)" class="st4" width="38.8" height="6.3"/>
	</g>
	<g>
		<g>
			
				<rect x="298.1" y="29.4" transform="matrix(0.7239 -0.6899 0.6899 0.7239 65.1693 228.0464)" class="st2" width="38.8" height="6.3"/>
		</g>
		<g>
			
				<rect x="314.3" y="13.2" transform="matrix(0.7239 -0.6899 0.6899 0.7239 65.1764 228.0409)" class="st2" width="6.3" height="38.8"/>
		</g>
	</g>
	<g>
		<g>
			
				<rect x="167.4" y="243.5" transform="matrix(0.8487 -0.5289 0.5289 0.8487 -112.1683 129.5144)" class="st5" width="5.6" height="34.6"/>
		</g>
		<g>
			
				<rect x="153" y="257.9" transform="matrix(0.8487 -0.5289 0.5289 0.8487 -112.1489 129.5168)" class="st5" width="34.6" height="5.6"/>
		</g>
	</g>
	<g>
		<path class="st7" d="M310.8,302.1c-10.4,0-18.9-8.5-18.9-18.9s8.5-18.9,18.9-18.9s18.9,8.5,18.9,18.9S321.2,302.1,310.8,302.1z
			 M310.8,270.7c-6.9,0-12.5,5.6-12.5,12.5s5.6,12.5,12.5,12.5s12.5-5.6,12.5-12.5S317.7,270.7,310.8,270.7z"/>
	</g>
	<g>
		
			<rect x="102.3" y="356.4" transform="matrix(0.9883 -0.1528 0.1528 0.9883 -53.5079 22.8123)" class="st1" width="38.8" height="6.3"/>
	</g>
	<g>
		<g>
			
				<rect x="753.9" y="86.6" transform="matrix(0.8487 -0.5289 0.5289 0.8487 58.5095 416.4229)" class="st6" width="6.3" height="38.8"/>
		</g>
		<g>
			
				<rect x="737.6" y="102.7" transform="matrix(0.8487 -0.5289 0.5289 0.8487 58.535 416.4023)" class="st6" width="38.8" height="6.3"/>
		</g>
	</g>
</g>
</svg>
