<?xml version="1.0" encoding="utf-8"?>
<!-- Generator: Adobe Illustrator 24.2.0, SVG Export Plug-In . SVG Version: 6.00 Build 0)  -->
<svg version="1.1" id="Layer_1" xmlns="http://www.w3.org/2000/svg" xmlns:xlink="http://www.w3.org/1999/xlink" x="0px" y="0px"
	 viewBox="0 0 750 500" style="enable-background:new 0 0 750 500;" xml:space="preserve">
<style type="text/css">
	.st0{opacity:0.25;}
	.st1{clip-path:url(#SVGID_2_);}
	.st2{fill:url(#SVGID_3_);}
	.st3{opacity:0.6;fill:#FFFFFF;enable-background:new    ;}
	.st4{fill:url(#SVGID_4_);}
	.st5{opacity:0.4;fill:#FFFFFF;enable-background:new    ;}
	.st6{fill:#F28500;}
	.st7{fill:#D96D00;}
	.st8{fill:url(#SVGID_5_);}
	.st9{fill:url(#SVGID_6_);}
	.st10{fill:url(#SVGID_7_);}
	.st11{fill:url(#SVGID_8_);}
	.st12{fill:url(#SVGID_9_);}
	.st13{fill:url(#SVGID_10_);}
	.st14{fill:url(#SVGID_11_);}
	.st15{fill:url(#SVGID_12_);}
	.st16{fill:url(#SVGID_13_);}
	.st17{opacity:0.7;fill:url(#SVGID_14_);enable-background:new    ;}
	.st18{fill:url(#SVGID_15_);}
	.st19{fill:url(#SVGID_16_);}
	.st20{fill:url(#SVGID_17_);}
	.st21{fill:url(#SVGID_18_);}
	.st22{fill:url(#SVGID_19_);}
	.st23{fill:url(#SVGID_20_);}
	.st24{fill:url(#SVGID_21_);}
	.st25{fill:url(#SVGID_22_);}
	.st26{fill:url(#SVGID_23_);}
	.st27{fill:url(#SVGID_24_);}
	.st28{fill:url(#SVGID_25_);}
	.st29{fill:url(#SVGID_26_);}
	.st30{fill:url(#SVGID_27_);}
	.st31{fill:url(#SVGID_28_);}
	.st32{fill:url(#SVGID_29_);}
	.st33{fill:url(#SVGID_30_);}
	.st34{fill:url(#SVGID_31_);}
	.st35{fill:url(#SVGID_32_);}
	.st36{fill:url(#SVGID_33_);}
	.st37{fill:url(#SVGID_34_);}
	.st38{fill:url(#SVGID_35_);}
	.st39{fill:url(#SVGID_36_);}
	.st40{fill:url(#SVGID_37_);}
	.st41{fill:url(#SVGID_38_);}
	.st42{fill:url(#SVGID_39_);}
	.st43{fill:url(#SVGID_40_);}
	.st44{fill:url(#SVGID_41_);}
	.st45{fill:url(#SVGID_42_);}
	.st46{fill:url(#SVGID_43_);}
	.st47{fill:url(#SVGID_44_);}
	.st48{fill:url(#SVGID_45_);}
	.st49{fill:url(#SVGID_46_);}
	.st50{fill:url(#SVGID_47_);}
	.st51{fill:url(#SVGID_48_);}
	.st52{fill:url(#SVGID_49_);}
	.st53{fill:url(#SVGID_50_);}
	.st54{clip-path:url(#SVGID_52_);}
	.st55{fill:url(#SVGID_53_);}
	.st56{fill:url(#SVGID_54_);}
	.st57{fill:url(#SVGID_55_);}
	.st58{fill:url(#SVGID_56_);}
	.st59{fill:url(#SVGID_57_);}
	.st60{fill:url(#SVGID_58_);}
	.st61{fill:url(#SVGID_59_);}
	.st62{fill:url(#SVGID_60_);}
	.st63{fill:url(#SVGID_61_);}
	.st64{fill:url(#SVGID_62_);}
	.st65{fill:url(#SVGID_63_);}
	.st66{opacity:0.7;fill:url(#SVGID_64_);enable-background:new    ;}
	.st67{fill:url(#SVGID_65_);}
	.st68{fill:url(#SVGID_66_);}
	.st69{fill:url(#SVGID_67_);}
	.st70{fill:url(#SVGID_68_);}
	.st71{fill:url(#SVGID_69_);}
	.st72{fill:url(#SVGID_70_);}
	.st73{fill:url(#SVGID_71_);}
	.st74{fill:url(#SVGID_72_);}
	.st75{fill:url(#SVGID_73_);}
	.st76{fill:url(#SVGID_74_);}
	.st77{fill:url(#SVGID_75_);}
	.st78{fill:url(#SVGID_76_);}
	.st79{fill:url(#SVGID_77_);}
	.st80{fill:url(#SVGID_78_);}
	.st81{fill:url(#SVGID_79_);}
	.st82{fill:url(#SVGID_80_);}
	.st83{fill:url(#SVGID_81_);}
	.st84{fill:url(#SVGID_82_);}
	.st85{fill:url(#SVGID_83_);}
	.st86{fill:url(#SVGID_84_);}
	.st87{fill:url(#SVGID_85_);}
	.st88{fill:url(#SVGID_86_);}
	.st89{fill:url(#SVGID_87_);}
	.st90{fill:url(#SVGID_88_);}
	.st91{fill:url(#SVGID_89_);}
	.st92{fill:url(#SVGID_90_);}
	.st93{fill:url(#SVGID_91_);}
	.st94{fill:url(#SVGID_92_);}
	.st95{fill:url(#SVGID_93_);}
	.st96{fill:url(#SVGID_94_);}
	.st97{fill:url(#SVGID_95_);}
	.st98{fill:url(#SVGID_96_);}
	.st99{fill:url(#SVGID_97_);}
	.st100{fill:url(#SVGID_98_);}
	.st101{fill:url(#SVGID_99_);}
	.st102{fill:url(#SVGID_100_);}
</style>
<g id="BACKGROUND">
</g>
<g id="OBJECTS" class="st0">
	<g>
		<g>
			<defs>
				<rect id="SVGID_1_" width="750" height="500"/>
			</defs>
			<clipPath id="SVGID_2_">
				<use xlink:href="#SVGID_1_"  style="overflow:visible;"/>
			</clipPath>
			<g class="st1">
				<g>
					
						<linearGradient id="SVGID_3_" gradientUnits="userSpaceOnUse" x1="-243.914" y1="138.9215" x2="-176.8715" y2="138.9215" gradientTransform="matrix(0.7579 0.6524 0.6524 -0.7579 744.08 336.132)">
						<stop  offset="0" style="stop-color:#F28500"/>
						<stop  offset="1" style="stop-color:#FBA905"/>
					</linearGradient>
					<path class="st2" d="M711.4,97.8c-1.9,3.7-3.8,7.5-5.6,11.2c-1.1,2.2-2.9,4-5.4,5.4c-10.5,6-29.8,1.8-43-9.4
						c-10.1-8.5-13.8-18.6-10.3-25.5c1.9-3.7,3.8-7.5,5.6-11.2c-3.5,7,0.2,17,10.3,25.6c13.2,11.2,32.5,15.3,43,9.4
						C708.5,101.8,710.3,100,711.4,97.8z"/>
					<path class="st3" d="M662.5,94.5c13.2,11.2,32.5,15.3,43,9.4c1.7-0.9,3-2.1,4-3.4c-1,1-2.1,2-3.5,2.7c-10.5,6-29.8,1.8-43-9.4
						c-10.1-8.5-13.8-18.6-10.3-25.6c-0.4,0.9-0.9,1.8-1.3,2.6C649.5,77.8,653.3,86.8,662.5,94.5z"/>
					
						<linearGradient id="SVGID_4_" gradientUnits="userSpaceOnUse" x1="-195.2731" y1="145.5776" x2="-269.5816" y2="171.0931" gradientTransform="matrix(0.7579 0.6524 0.6524 -0.7579 744.08 336.132)">
						<stop  offset="0" style="stop-color:#FBCF0A"/>
						<stop  offset="1" style="stop-color:#FBA505"/>
					</linearGradient>
					<path class="st4" d="M701.1,72.3c13.2,11.2,15.4,25,4.9,31c-10.5,6-29.8,1.8-43-9.4c-13.2-11.2-15.4-25-4.9-31
						C668.7,56.9,687.9,61.1,701.1,72.3z"/>
					<path class="st5" d="M672.8,60.3l-4,37.8c7.6,4.8,16.3,7.5,23.9,7.8l3.9-37C689.2,63.9,680.6,60.9,672.8,60.3z"/>
					<path class="st6" d="M696.4,74.9c9.9,8.4,11.6,18.8,3.7,23.3c-7.9,4.5-22.3,1.3-32.3-7c-9.9-8.4-11.6-18.8-3.7-23.3
						C672,63.4,686.5,66.6,696.4,74.9z"/>
					<path class="st7" d="M664.4,71.3c7.9-4.5,22.3-1.3,32.3,7c4.7,3.9,7.5,8.3,8.4,12.3c0.3-4.8-2.6-10.6-8.6-15.7
						c-9.9-8.4-24.4-11.5-32.3-7c-4.2,2.4-5.7,6.4-4.7,10.9C659.6,75.7,661.3,73,664.4,71.3z"/>
					
						<linearGradient id="SVGID_5_" gradientUnits="userSpaceOnUse" x1="-195.2559" y1="145.6309" x2="-269.5643" y2="171.1464" gradientTransform="matrix(0.7579 0.6524 0.6524 -0.7579 744.08 336.132)">
						<stop  offset="0" style="stop-color:#FBCF0A"/>
						<stop  offset="1" style="stop-color:#FBA505"/>
					</linearGradient>
					<path class="st8" d="M697,87.9c-0.2,0.9-0.9,1.7-1.9,2.3c-1,0.6-2.2,0.8-3.6,0.8c-1.4-0.1-2.8-0.4-4.3-1.1s-3-1.6-4.3-2.8
						l-3-2.6c-0.1-0.1-0.2-0.1-0.3-0.1l-5.2,2.9c-0.1,0.1-0.2,0.1-0.4,0s-0.3-0.1-0.4-0.2l-4.5-3.8c-0.1-0.1-0.2-0.2-0.2-0.3
						c0-0.1,0-0.2,0.1-0.2l15.3-8.7c0.1-0.1,0.2-0.1,0.4,0c0.1,0,0.3,0.1,0.4,0.2l8.4,7.1c1.4,1.2,2.3,2.3,2.9,3.4
						C697.1,85.9,697.3,87,697,87.9z M687.8,85.8c0.7,0.2,1.3,0.2,1.8-0.1c0.5-0.3,0.7-0.7,0.6-1.2c-0.1-0.5-0.5-1.1-1.3-1.7l-2.4-2
						c-0.1-0.1-0.2-0.1-0.3-0.1l-3.1,1.7c-0.1,0-0.1,0.1,0,0.2l2.4,2C686.4,85.2,687.1,85.6,687.8,85.8"/>
					
						<radialGradient id="SVGID_6_" cx="-146.534" cy="-588.6159" r="19.9646" gradientTransform="matrix(1.0576 0.7038 0.2636 -0.3962 1006.3846 -47.4745)" gradientUnits="userSpaceOnUse">
						<stop  offset="0" style="stop-color:#D96D00"/>
						<stop  offset="8.100000e-02" style="stop-color:#D96D00;stop-opacity:0.9998"/>
						<stop  offset="9.140000e-02" style="stop-color:#D96D00;stop-opacity:0.9998"/>
						<stop  offset="0.3688" style="stop-color:#DB7000;stop-opacity:0.6945"/>
						<stop  offset="0.5814" style="stop-color:#E07A01;stop-opacity:0.4605"/>
						<stop  offset="0.7726" style="stop-color:#EA8A02;stop-opacity:0.2502"/>
						<stop  offset="0.9501" style="stop-color:#F7A104;stop-opacity:5.490000e-02"/>
						<stop  offset="1" style="stop-color:#FBA905;stop-opacity:0"/>
					</radialGradient>
					<path class="st9" d="M719.4,97.9c-3.9,5.9-17.5,3.8-30.3-4.8c-12.8-8.5-20-20.2-16.1-26.1c3.9-5.9,17.5-3.8,30.3,4.8
						C716.1,80.4,723.3,92.1,719.4,97.9z"/>
				</g>
				<g>
					
						<image style="overflow:visible;enable-background:new    ;" width="600" height="667" xlink:href="656F3899.png"  transform="matrix(0.2382 0 0 0.2382 162.6597 38.36)">
					</image>
				</g>
				
					<radialGradient id="SVGID_7_" cx="999.4111" cy="-2220.2842" r="27.401" gradientTransform="matrix(0.8538 -0.9407 -0.3524 -0.3198 -1400.0453 329.0641)" gradientUnits="userSpaceOnUse">
					<stop  offset="0" style="stop-color:#D96D00"/>
					<stop  offset="8.100000e-02" style="stop-color:#D96D00;stop-opacity:0.9998"/>
					<stop  offset="9.140000e-02" style="stop-color:#D96D00;stop-opacity:0.9998"/>
					<stop  offset="0.3688" style="stop-color:#DB7000;stop-opacity:0.6945"/>
					<stop  offset="0.5814" style="stop-color:#E07A01;stop-opacity:0.4605"/>
					<stop  offset="0.7726" style="stop-color:#EA8A02;stop-opacity:0.2502"/>
					<stop  offset="0.9501" style="stop-color:#F7A104;stop-opacity:5.490000e-02"/>
					<stop  offset="1" style="stop-color:#FBA905;stop-opacity:0"/>
				</radialGradient>
				<path class="st10" d="M261.4,70.7c7.2,6.5,1.5,24.5-12.6,40.1c-14.2,15.6-31.5,23-38.7,16.5s-1.5-24.5,12.6-40.1
					C236.8,71.5,254.2,64.1,261.4,70.7z"/>
				<g>
					
						<linearGradient id="SVGID_8_" gradientUnits="userSpaceOnUse" x1="143.4223" y1="475.43" x2="257.3609" y2="421.2853" gradientTransform="matrix(1 0 0 -1 0 502)">
						<stop  offset="0" style="stop-color:#FBCF0A"/>
						<stop  offset="1" style="stop-color:#FBA505"/>
					</linearGradient>
					<path class="st11" d="M198.5,14.8c27.9-5.2,52,8.3,53.8,30.2c1.8,21.8-19.3,43.7-47.2,48.9c-27.9,5.2-52-8.3-53.8-30.2
						C149.5,41.8,170.6,20,198.5,14.8z"/>
					<path class="st5" d="M202.6,14.2l-50.8,40.5c-0.6,3-0.8,6-0.5,9c1,11.6,8.1,20.8,18.8,26.1l76-60.7
						C237.6,18,221.2,11.9,202.6,14.2z"/>
					<path class="st6" d="M199.3,24.6c20.9-3.9,39,6.3,40.4,22.6S225.2,80.1,204.2,84c-20.9,3.9-39-6.3-40.4-22.6
						C162.5,45,178.4,28.5,199.3,24.6z"/>
					<path class="st7" d="M163.9,61.7c1.5-14.8,16.3-28.8,35.4-32.3c20.8-3.9,38.7,6.1,40.4,22.3c0.1-1.5,0.2-2.9,0-4.4
						c-1.4-16.4-19.4-26.5-40.4-22.6s-36.8,20.3-35.4,36.7C163.9,61.5,163.9,61.6,163.9,61.7z"/>
					
						<linearGradient id="SVGID_9_" gradientUnits="userSpaceOnUse" x1="143.7484" y1="476.1169" x2="257.6884" y2="421.9715" gradientTransform="matrix(1 0 0 -1 0 502)">
						<stop  offset="0" style="stop-color:#FBCF0A"/>
						<stop  offset="1" style="stop-color:#FBA505"/>
					</linearGradient>
					<path class="st12" d="M223.1,44.6c-0.2-2.2-0.9-4-2.3-5.4c-1.3-1.5-3.1-2.4-5.4-2.9s-4.8-0.5-7.7,0l-17.8,3.3
						c-0.3,0-0.5,0.2-0.6,0.3c-0.2,0.2-0.2,0.3-0.2,0.6l2.6,31.8c0,0.2,0.1,0.4,0.3,0.5c0.2,0.1,0.4,0.1,0.7,0.1l9.6-1.8
						c0.3-0.1,0.5-0.2,0.6-0.3c0.1-0.2,0.2-0.3,0.2-0.6l-0.9-10.7c0-0.2,0.1-0.3,0.3-0.3l6.4-1.2c2.9-0.5,5.5-1.5,7.7-2.8
						c2.2-1.3,3.9-2.9,5-4.7C222.8,48.7,223.2,46.7,223.1,44.6z M210.6,49.6c-0.9,0.8-2,1.3-3.5,1.6l-5.1,0.9c-0.2,0-0.3,0-0.3-0.2
						l-0.5-6.4c0-0.2,0.1-0.3,0.3-0.3l5.1-1c1.5-0.3,2.7-0.2,3.7,0.3c1,0.5,1.5,1.2,1.6,2.3C211.8,47.9,211.4,48.8,210.6,49.6z"/>
					
						<linearGradient id="SVGID_10_" gradientUnits="userSpaceOnUse" x1="185.3237" y1="402.6727" x2="231.7596" y2="464.9991" gradientTransform="matrix(1 0 0 -1 0 502)">
						<stop  offset="0" style="stop-color:#F28500"/>
						<stop  offset="1" style="stop-color:#FBA905"/>
					</linearGradient>
					<path class="st13" d="M250.9,37.9c0.1,0.5,0.4,1.1,0.5,1.5c0.1,0.2,0.2,0.5,0.3,0.8c0.1,0.5,0.4,1.1,0.5,1.5s0.4,1.1,0.5,1.5
						c0.1,0.2,0.2,0.5,0.3,0.8c0.2,0.5,0.4,1.1,0.5,1.5s0.4,1.1,0.5,1.5c0.1,0.2,0.2,0.5,0.3,0.8c0.1,0.5,0.4,1.1,0.5,1.5
						c0.4,1.3,0.9,2.5,1.3,3.8c0.8,2.2,1.2,4.6,1.4,7.1c1.8,21.8-19.3,43.7-47.2,48.9c-24.7,4.6-46.5-5.5-52.4-23.1l0,0
						c-1.7-5.1-3.4-10.2-5.1-15.3c5.9,17.6,27.6,27.7,52.3,23.1c27.9-5.2,49-27.1,47.2-48.9C252.1,42.5,251.6,40.1,250.9,37.9z"/>
					<path class="st3" d="M205.1,95.1c27.1-5,47.9-25.9,47.3-47.1c-0.3,20.8-20.7,40.9-47.3,45.8c-24.7,4.6-46.5-5.5-52.4-23.1
						c0.6,1.9,1.3,3.9,1.9,5.8C162.5,91.3,182.5,99.3,205.1,95.1z"/>
				</g>
				<g>
					
						<linearGradient id="SVGID_11_" gradientUnits="userSpaceOnUse" x1="285.2568" y1="335.9647" x2="368.11" y2="335.9647" gradientTransform="matrix(1 0 0 -1 0 502)">
						<stop  offset="0" style="stop-color:#F28500"/>
						<stop  offset="1" style="stop-color:#FBA905"/>
					</linearGradient>
					<path class="st14" d="M368.1,172.5c-2.5,5.1-5,10.1-7.5,15.2c-3.1,6.4-12.5,9.6-25.8,7.5c-20.2-3.1-41.6-17.1-47.9-31.4
						c-2.2-4.9-2.2-9.2-0.6-12.5l7.5-15.2c-1.6,3.4-1.6,7.6,0.6,12.5c6.3,14.2,27.7,28.2,47.9,31.4
						C355.6,182.1,365,178.9,368.1,172.5z"/>
					<path class="st3" d="M341.5,181.2c12.4,1.9,21.5-0.7,25.1-6.4c-4.1,4.9-12.7,7-24.3,5.3c-20.2-3.1-41.6-17.1-47.9-31.4
						c-2.2-4.9-2.2-9.2-0.6-12.5l-1.6,3.3c-0.7,3-0.3,6.4,1.4,10.3C299.9,164,321.3,178.1,341.5,181.2z"/>
					
						<linearGradient id="SVGID_12_" gradientUnits="userSpaceOnUse" x1="314.6936" y1="366.7743" x2="359.2667" y2="314.4907" gradientTransform="matrix(1 0 0 -1 0 502)">
						<stop  offset="0" style="stop-color:#FBCF0A"/>
						<stop  offset="1" style="stop-color:#FBA505"/>
					</linearGradient>
					<path class="st15" d="M319.6,128.6c20.2,3.1,41.6,17.1,47.9,31.4c6.3,14.2-5,23.2-25.2,20.1c-20.2-3.1-41.6-17.1-47.9-31.4
						C288.2,134.5,299.5,125.5,319.6,128.6z"/>
					<path class="st5" d="M294.5,148.7c6.3,14.2,27.7,28.2,47.9,31.4c20,3.1,31.2-5.7,25.4-19.6l-73.9-24.3
						C292.2,139.5,292.3,143.8,294.5,148.7z"/>
					<path class="st6" d="M322.5,135c15.1,2.3,31.3,12.9,36,23.5c4.7,10.7-3.8,17.4-18.9,15.1c-15.2-2.3-31.3-12.9-36-23.5
						C298.9,139.4,307.3,132.7,322.5,135z"/>
					<path class="st7" d="M320.7,137.9c15.1,2.3,31.3,12.9,36,23.5c1.5,3.3,1.6,6.2,0.8,8.6c2.5-2.7,3-6.7,1-11.4
						c-4.7-10.7-20.8-21.2-36-23.5c-10.5-1.6-17.8,1.1-19.7,6.5C306,138.1,312.3,136.6,320.7,137.9z"/>
					
						<linearGradient id="SVGID_13_" gradientUnits="userSpaceOnUse" x1="315.937" y1="367.8354" x2="360.5112" y2="315.5504" gradientTransform="matrix(1 0 0 -1 0 502)">
						<stop  offset="0" style="stop-color:#FBCF0A"/>
						<stop  offset="1" style="stop-color:#FBA505"/>
					</linearGradient>
					<path class="st16" d="M342.1,149.1c1.3,1.2,2.3,2.5,2.9,3.9c0.6,1.4,0.7,2.5,0.3,3.4c-0.4,0.9-1.4,1.5-2.7,1.9
						c-1.4,0.3-3.1,0.3-5.3,0l-4.7-0.7c-0.1,0-0.2,0-0.1,0.1l3.1,7c0.1,0.1,0,0.3,0,0.3c-0.1,0.1-0.2,0.1-0.4,0.1l-6.9-1.1
						c-0.2,0-0.4-0.1-0.5-0.2c-0.1-0.1-0.3-0.2-0.3-0.4l-9.1-20.7c-0.1-0.1-0.1-0.3,0-0.3c0.1-0.1,0.2-0.1,0.4-0.1l12.9,2
						c2.1,0.3,4,0.9,5.9,1.7C339.2,146.9,340.8,147.9,342.1,149.1z M336.6,153.4c0.5-0.3,0.6-0.8,0.3-1.4c-0.3-0.7-0.9-1.3-1.7-1.8
						s-1.8-0.9-2.9-1l-3.7-0.6c-0.1,0-0.2,0-0.1,0.1l1.8,4.1c0,0.1,0.1,0.2,0.3,0.2l3.7,0.6C335.4,153.7,336.2,153.7,336.6,153.4"/>
					
						<radialGradient id="SVGID_14_" cx="-386.6314" cy="-489.5747" r="16.6924" gradientTransform="matrix(1.0645 0.6932 0.2597 -0.3988 850.2915 255.0075)" gradientUnits="userSpaceOnUse">
						<stop  offset="0" style="stop-color:#D96D00"/>
						<stop  offset="8.100000e-02" style="stop-color:#D96D00;stop-opacity:0.9998"/>
						<stop  offset="9.140000e-02" style="stop-color:#D96D00;stop-opacity:0.9998"/>
						<stop  offset="0.3688" style="stop-color:#DB7000;stop-opacity:0.6945"/>
						<stop  offset="0.5814" style="stop-color:#E07A01;stop-opacity:0.4605"/>
						<stop  offset="0.7726" style="stop-color:#EA8A02;stop-opacity:0.2502"/>
						<stop  offset="0.9501" style="stop-color:#F7A104;stop-opacity:5.490000e-02"/>
						<stop  offset="1" style="stop-color:#FBA905;stop-opacity:0"/>
					</radialGradient>
					<path class="st17" d="M331.1,194.9c-3.2,5-14.6,3.3-25.4-3.7c-10.8-7-16.9-16.7-13.6-21.7s14.6-3.3,25.4,3.7
						C328.3,180.2,334.4,189.9,331.1,194.9z"/>
				</g>
				<g>
					
						<image style="overflow:visible;enable-background:new    ;" width="475" height="450" xlink:href="656F389B.png"  transform="matrix(0.238 0 0 0.238 274.8 25.2547)">
					</image>
				</g>
				<g>
					
						<linearGradient id="SVGID_15_" gradientUnits="userSpaceOnUse" x1="439.1423" y1="502.2036" x2="466.9271" y2="422.6494" gradientTransform="matrix(1 0 0 -1 0 502)">
						<stop  offset="0" style="stop-color:#FBCF0A"/>
						<stop  offset="1" style="stop-color:#FBA505"/>
					</linearGradient>
					<path class="st18" d="M452.2-0.7c15.5,15.9,28.2,46.4,28.5,68.1c0.3,21.7-12,26.3-27.5,10.3c-15.5-16-28.2-46.4-28.4-68.1
						C424.4-12.1,436.7-16.7,452.2-0.7z"/>
					<path class="st5" d="M424.7,9.6c0.3,21.7,13,52.1,28.4,68.1s27.8,11.3,27.5-10.3c0-3-0.3-6.3-0.8-9.6L433-9.8
						C427.7-8.1,424.5-1.5,424.7,9.6z"/>
					
						<linearGradient id="SVGID_16_" gradientUnits="userSpaceOnUse" x1="403.6258" y1="458.7108" x2="473.09" y2="458.7108" gradientTransform="matrix(1 0 0 -1 0 502)">
						<stop  offset="0" style="stop-color:#F28500"/>
						<stop  offset="1" style="stop-color:#FBA905"/>
					</linearGradient>
					<path class="st19" d="M473.1,86.5c-7,3-14,6-21,9c-5,2.1-12.1-0.7-20-8.8c-15.5-15.9-28.2-46.4-28.4-68.1
						c-0.1-10.6,2.8-17.1,7.5-19.1c7-3,14-6,21-9c-4.8,2-7.6,8.6-7.5,19.1c0.3,21.7,13,52.1,28.4,68.1
						C461,85.8,468.1,88.6,473.1,86.5z"/>
					<path class="st3" d="M468.9,87.2c-4.5-0.3-9.9-3.4-15.8-9.5c-15.5-16-28.2-46.4-28.4-68.1c-0.1-10.6,2.7-17.1,7.5-19.1
						c-1.3,0.5-2.6,1.1-3.8,1.6c-3.3,3-5.1,8.9-5,17.5c0.3,21.7,13,52.1,28.4,68.1C458.3,84.4,464.2,87.4,468.9,87.2z"/>
					<path class="st6" d="M453,67.9c11.6,12,20.8,8.5,20.6-7.8C473.5,43.9,463.9,21,452.3,9c-11.6-12-20.8-8.5-20.6,7.8
						C431.9,33,441.4,55.9,453,67.9"/>
					<path class="st7" d="M452.3,9c-5.7-5.9-10.9-8-14.6-6.8c3.4,0.2,7.4,2.5,11.8,7.1c11.6,12,21.2,34.9,21.4,51.1
						c0.1,8.3-2.2,13.2-6.1,14.5c5.4,0.4,8.9-4.8,8.8-14.9C473.5,43.9,463.9,21,452.3,9z"/>
					
						<linearGradient id="SVGID_17_" gradientUnits="userSpaceOnUse" x1="439.8076" y1="502.4374" x2="467.5925" y2="422.8832" gradientTransform="matrix(1 0 0 -1 0 502)">
						<stop  offset="0" style="stop-color:#FBCF0A"/>
						<stop  offset="1" style="stop-color:#FBA505"/>
					</linearGradient>
					<path class="st20" d="M463.6,38.5c0.7,2.3,1,4.6,1.1,6.7c0,2.1-0.3,3.6-1,4.5c-0.7,0.9-1.6,1.1-2.9,0.7s-2.7-1.5-4.3-3.2
						l-3.6-3.7c-0.1-0.1-0.2-0.1-0.2,0.1l0.1,10.6c0,0.2,0,0.3-0.1,0.4c-0.1,0-0.2,0-0.4-0.2L447,49c-0.2-0.2-0.3-0.4-0.4-0.6
						c-0.1-0.2-0.1-0.4-0.1-0.7l-0.4-31.6c0-0.2,0-0.4,0.1-0.4s0.2,0,0.4,0.2l9.9,10.2c1.6,1.6,3,3.5,4.2,5.7
						C461.9,34,462.9,36.2,463.6,38.5z M457.6,40.6c0.5-0.1,0.7-0.6,0.7-1.7c0-1-0.3-2.1-0.8-3.3c-0.5-1.2-1.2-2.2-2-3l-2.8-2.9
						c-0.1-0.1-0.2-0.1-0.2,0.1l0.1,6.3c0,0.2,0.1,0.3,0.2,0.4l2.8,2.9C456.5,40.3,457.1,40.7,457.6,40.6"/>
				</g>
				<g>
					
						<image style="overflow:visible;enable-background:new    ;" width="613" height="621" xlink:href="656F389E.png"  transform="matrix(0.2384 0 0 0.2384 495.12 9.8063)">
					</image>
				</g>
				<g>
					
						<linearGradient id="SVGID_18_" gradientUnits="userSpaceOnUse" x1="612.046" y1="238.4656" x2="665.0914" y2="236.1183" gradientTransform="matrix(1 0 0 -1 0 502)">
						<stop  offset="0" style="stop-color:#FBCF0A"/>
						<stop  offset="1" style="stop-color:#FBA505"/>
					</linearGradient>
					<path class="st21" d="M616.4,250c9.1-5.5,22-3.6,28.8,4.3c6.9,7.9,5.1,18.8-4,24.3c-9.1,5.5-22,3.6-28.8-4.3
						C605.5,266.4,607.3,255.5,616.4,250z"/>
					<path class="st5" d="M616.4,250c-3.3,2-5.6,4.7-6.9,7.8l33,20c4.9-3.5,7.3-8.7,6.9-13.9l-26.9-16.3
						C620.3,248,618.3,248.9,616.4,250z"/>
					<path class="st6" d="M638.2,275c6.8-4.1,8.1-12.3,3-18.2c-5.2-5.9-14.9-7.4-21.7-3.2s-8.1,12.3-3,18.2
						C621.7,277.7,631.4,279.1,638.2,275"/>
					<path class="st7" d="M638.2,273.2c-6.8,4.1-16.5,2.7-21.7-3.2c-1.9-2.2-2.9-4.6-3.1-7.1c-0.3,3,0.8,6.2,3.1,8.9
						c5.2,5.9,14.9,7.4,21.7,3.2c4.3-2.6,6.4-6.9,6.1-11.1C644,267.5,641.9,270.9,638.2,273.2z"/>
					
						<linearGradient id="SVGID_19_" gradientUnits="userSpaceOnUse" x1="612.0566" y1="238.705" x2="665.1022" y2="236.3577" gradientTransform="matrix(1 0 0 -1 0 502)">
						<stop  offset="0" style="stop-color:#FBCF0A"/>
						<stop  offset="1" style="stop-color:#FBA505"/>
					</linearGradient>
					<path class="st22" d="M631.7,256.2c0.9,0.4,1.7,0.9,2.4,1.7c0.7,0.8,1,1.6,1.2,2.4c0.1,0.8-0.1,1.6-0.5,2.4
						c-0.5,0.8-1.2,1.5-2.1,2l-2.1,1.3c-0.1,0-0.1,0.1,0,0.1l3.4,3.9c0.1,0.1,0.1,0.2,0.1,0.2c0,0.1-0.1,0.1-0.2,0.2l-3.1,1.9
						c-0.1,0-0.2,0.1-0.3,0.1c-0.1,0-0.2-0.1-0.2-0.1l-10-11.5c-0.1-0.1-0.1-0.2-0.1-0.2c0-0.1,0.1-0.1,0.2-0.2l5.8-3.5
						c0.9-0.6,1.9-0.9,2.9-1C629.9,255.7,630.8,255.8,631.7,256.2z M630.8,261.4c0.1-0.4,0-0.8-0.3-1.1c-0.3-0.4-0.7-0.6-1.2-0.6
						c-0.5,0-1,0.1-1.5,0.4l-1.7,1c-0.1,0-0.1,0.1,0,0.1l2,2.3c0,0.1,0.1,0.1,0.2,0l1.7-1C630.4,262.1,630.7,261.8,630.8,261.4"/>
					
						<linearGradient id="SVGID_20_" gradientUnits="userSpaceOnUse" x1="608.31" y1="247.9513" x2="650.0023" y2="247.9513" gradientTransform="matrix(1 0 0 -1 0 502)">
						<stop  offset="0" style="stop-color:#F28500"/>
						<stop  offset="1" style="stop-color:#FBA905"/>
					</linearGradient>
					<path class="st23" d="M645.8,249c-6.9-7.9-19.8-9.8-28.9-4.3c-4.8,2.9-7.6,7.4-8.1,12c-0.2,1.8-0.4,3.5-0.6,5.3
						c0.5-4.7,3.3-9.1,8.1-12c9.1-5.5,22-3.6,28.8,4.3c3.2,3.7,4.5,8.1,4.1,12.2c0.2-1.8,0.4-3.5,0.6-5.3
						C650.4,257.1,649.1,252.7,645.8,249z"/>
					<path class="st3" d="M616.4,249.6c-4.4,2.7-7.1,6.7-7.9,11c0,0.5-0.1,1-0.2,1.4c0.5-4.7,3.3-9.1,8.1-12
						c9.1-5.5,22-3.6,28.8,4.3c2.8,3.2,4.1,6.8,4.2,10.5c0-3.7-1.3-7.5-4.2-10.9C638.4,246,625.5,244.1,616.4,249.6z"/>
				</g>
				<g>
					
						<linearGradient id="SVGID_21_" gradientUnits="userSpaceOnUse" x1="-256.6602" y1="213.0753" x2="-104.4819" y2="206.3413" gradientTransform="matrix(0.7579 0.6524 0.6524 -0.7579 744.079 336.132)">
						<stop  offset="0" style="stop-color:#FBCF0A"/>
						<stop  offset="1" style="stop-color:#FBA505"/>
					</linearGradient>
					<path class="st24" d="M723.3-14.1c30,5,54.6,33.3,54.8,63.3s-24,50.3-54.1,45.3s-54.6-33.3-54.8-63.3
						C669.1,1.3,693.3-19,723.3-14.1z"/>
					<path class="st5" d="M723.3-14.1c-10.9-1.8-21.1-0.3-29.6,3.9L728.2,95c17.2,1.6,32.2-5.3,41.1-17.4L741.2-8.1
						C735.6-11,729.6-13,723.3-14.1z"/>
					<path class="st6" d="M723.9,81c22.6,3.7,40.7-11.5,40.6-34C764.4,24.5,746,3.2,723.4-0.5s-40.7,11.5-40.6,34
						S701.4,77.3,723.9,81"/>
					<path class="st7" d="M727.4,77c-22.6-3.7-41-25-41.1-47.5c0-8.2,2.3-15.5,6.5-21.2c-6.2,6.1-10,14.9-9.9,25.1
						C683,56,701.4,77.3,723.9,81c14.3,2.4,26.9-2.9,34.1-12.9C750.6,75.5,739.6,79.1,727.4,77z"/>
					
						<linearGradient id="SVGID_22_" gradientUnits="userSpaceOnUse" x1="-256.631" y1="213.7199" x2="-104.4545" y2="206.9859" gradientTransform="matrix(0.7579 0.6524 0.6524 -0.7579 744.079 336.132)">
						<stop  offset="0" style="stop-color:#FBCF0A"/>
						<stop  offset="1" style="stop-color:#FBA505"/>
					</linearGradient>
					<path class="st25" d="M745.1,28.1c1.3,2.5,2,5.2,2,8.2c0,2.9-0.6,5.4-2,7.4c-1.3,2-3.2,3.4-5.7,4.2c-2.4,0.8-5.2,1-8.4,0.4
						l-6.9-1.1c-0.2,0-0.3,0-0.3,0.3l0.1,14.7c0,0.3-0.1,0.5-0.3,0.7c-0.2,0.1-0.4,0.2-0.7,0.1l-10.3-1.7c-0.3,0-0.5-0.2-0.7-0.4
						s-0.3-0.5-0.3-0.8l-0.3-43.7c0-0.3,0.1-0.5,0.3-0.7c0.2-0.1,0.4-0.2,0.7-0.1l19.2,3.2c3.1,0.5,5.8,1.6,8.2,3.2
						C741.9,23.5,743.8,25.6,745.1,28.1z M733.4,37.6c1-0.7,1.5-1.7,1.5-3.1c0-1.4-0.5-2.7-1.5-3.7s-2.3-1.7-3.9-2l-5.5-0.9
						c-0.2,0-0.3,0-0.3,0.3l0.1,8.8c0,0.2,0.1,0.3,0.3,0.4l5.5,0.9C731.1,38.5,732.4,38.3,733.4,37.6"/>
					
						<linearGradient id="SVGID_23_" gradientUnits="userSpaceOnUse" x1="-267.3415" y1="240.3044" x2="-147.7563" y2="240.3044" gradientTransform="matrix(0.7579 0.6524 0.6524 -0.7579 744.08 336.132)">
						<stop  offset="0" style="stop-color:#F28500"/>
						<stop  offset="1" style="stop-color:#FBA905"/>
					</linearGradient>
					<path class="st26" d="M789.2,38.8c-0.2-30-24.7-58.3-54.8-63.3c-15.9-2.6-30.2,1.8-40.1,11.1C690.7-9.9,687-6.5,683.3-3
						c9.9-9.2,24.2-13.7,40.1-11.1c30,5,54.6,33.3,54.8,63.3c0.1,14.1-5.2,26.1-14,34.3c3.7-3.5,7.4-6.9,11.1-10.4
						C784,64.9,789.3,52.9,789.2,38.8z"/>
					<path class="st3" d="M724-14.9c-14.7-2.4-28,1.2-37.8,9.1c-1,0.9-2,1.9-3,2.8c9.9-9.2,24.2-13.7,40.1-11.1
						c30,5,54.6,33.3,54.8,63.3c0.1,12.1-3.8,22.6-10.5,30.6c7.1-8,11.3-18.9,11.2-31.4C778.6,18.4,754.1-9.9,724-14.9z"/>
				</g>
				<g>
					
						<linearGradient id="SVGID_24_" gradientUnits="userSpaceOnUse" x1="144.6058" y1="335.3141" x2="216.9466" y2="287.6129" gradientTransform="matrix(1 0 0 -1 0 502)">
						<stop  offset="0" style="stop-color:#FBCF0A"/>
						<stop  offset="1" style="stop-color:#FBA505"/>
					</linearGradient>
					<path class="st27" d="M164.3,170.4c19.1,9.6,40.2,25.1,47.1,34.8c6.9,9.7-3.1,9.8-22.2,0.2s-40.2-25.1-47.1-34.8
						C135.2,160.9,145.2,160.8,164.3,170.4z"/>
					<path class="st5" d="M164.3,170.4c-1.1-0.5-2.1-1-3.1-1.5l23.8,34.3c1.4,0.8,2.8,1.5,4.2,2.2c19.1,9.6,29,9.5,22.2-0.2
						C204.4,195.5,183.4,179.9,164.3,170.4z"/>
					<path class="st6" d="M167.4,174.7c14.4,7.2,30.2,18.9,35.3,26.1c5.2,7.3-2.3,7.3-16.6,0.1c-14.4-7.2-30.2-18.9-35.3-26.1
						C145.6,167.6,153,167.5,167.4,174.7z"/>
					<path class="st7" d="M202.7,200.8c-5.2-7.3-21-18.9-35.3-26.1c-11.6-5.8-18.7-6.9-18.3-3.2c2.8-0.4,8.6,1.4,16.4,5.3
						c14.4,7.2,30.2,18.9,35.3,26.1c1,1.4,1.5,2.5,1.6,3.4C204.8,205.9,205.1,204.1,202.7,200.8z"/>
					
						<linearGradient id="SVGID_25_" gradientUnits="userSpaceOnUse" x1="144.6419" y1="335.368" x2="216.9939" y2="287.6594" gradientTransform="matrix(1 0 0 -1 0 502)">
						<stop  offset="0" style="stop-color:#FBCF0A"/>
						<stop  offset="1" style="stop-color:#FBA505"/>
					</linearGradient>
					<path class="st28" d="M186.8,189.6c1.4,1.1,2.4,2.2,3,3.1c0.7,0.9,0.8,1.6,0.5,1.8s-1.2,0.2-2.4-0.1c-1.3-0.4-2.9-1.1-4.9-2.1
						l-4.4-2.2c-0.1-0.1-0.2-0.1-0.1,0l3.4,4.7c0.1,0.1,0.1,0.1,0,0.1s-0.2-0.1-0.4-0.1l-6.6-3.3c-0.2-0.1-0.4-0.2-0.5-0.3
						c-0.1-0.1-0.3-0.2-0.3-0.3l-10-14.1c-0.1-0.1-0.1-0.1,0-0.1s0.2,0.1,0.4,0.1l12.2,6.1c2,1,3.9,2.1,5.6,3.2
						C183.9,187.3,185.4,188.5,186.8,189.6z M181.9,189.6c0.4,0,0.5-0.2,0.2-0.6c-0.3-0.5-0.9-1-1.7-1.6c-0.8-0.6-1.8-1.1-2.8-1.7
						l-3.5-1.8c-0.1-0.1-0.2-0.1-0.1,0l2,2.8c0.1,0.1,0.1,0.1,0.3,0.2l3.5,1.8C180.8,189.3,181.5,189.6,181.9,189.6"/>
					
						<linearGradient id="SVGID_26_" gradientUnits="userSpaceOnUse" x1="128.9903" y1="305.0314" x2="213.18" y2="305.0314" gradientTransform="matrix(1 0 0 -1 0 502)">
						<stop  offset="0" style="stop-color:#F28500"/>
						<stop  offset="1" style="stop-color:#FBA905"/>
					</linearGradient>
					<path class="st29" d="M213.2,211.3c-3.6,5.7-7.3,11.4-10.9,17c-1.8,2.7-10.6,0.8-24-5.9c-19.1-9.6-40.2-25.1-47.1-34.8
						c-2.1-2.9-2.6-4.9-1.9-6.1l10.9-17c-0.8,1.2-0.2,3.2,1.9,6.1c6.9,9.7,27.9,25.2,47.1,34.8C202.6,212,211.4,214,213.2,211.3z"/>
					<path class="st3" d="M212.4,211.9c-2.8,1.6-11.2-0.6-23.3-6.6c-19.1-9.6-40.2-25.1-47.1-34.8c-2.1-2.9-2.6-4.9-1.9-6.1
						l-0.9,1.4c-0.1,1.2,0.6,2.9,2.2,5.2c6.9,9.7,27.9,25.2,47.1,34.8C201.6,212.4,210.4,214.4,212.4,211.9z"/>
				</g>
				<g>
					
						<image style="overflow:visible;enable-background:new    ;" width="604" height="667" xlink:href="656F389F.png"  transform="matrix(0.2376 0 0 0.2376 -77.04 88.4751)">
					</image>
				</g>
				<g>
					
						<image style="overflow:visible;enable-background:new    ;" width="508" height="504" xlink:href="656F389A.png"  transform="matrix(0.2372 0 0 0.2372 11.76 163.7543)">
					</image>
				</g>
				<g>
					
						<linearGradient id="SVGID_27_" gradientUnits="userSpaceOnUse" x1="761.7349" y1="363.6731" x2="711.4539" y2="289.9276" gradientTransform="matrix(1 0 0 -1 0 502)">
						<stop  offset="0" style="stop-color:#FBCF0A"/>
						<stop  offset="1" style="stop-color:#FBA505"/>
					</linearGradient>
					<path class="st30" d="M748.5,128.3c14-10.4,25.2-5.5,25.2,10.9c-0.1,16.4-11.5,38.1-25.5,48.5c-14,10.4-25.2,5.5-25.2-10.9
						S734.5,138.7,748.5,128.3z"/>
					<path class="st5" d="M759.4,176.3c7-9.3,12.2-20.9,13.7-31.3l-15-21.6c-3,0.8-6.3,2.4-9.7,4.9c-4.7,3.5-9.1,8.2-12.8,13.6
						L759.4,176.3z"/>
					
						<linearGradient id="SVGID_28_" gradientUnits="userSpaceOnUse" x1="729.42" y1="339.4018" x2="787.6306" y2="339.4018" gradientTransform="matrix(1 0 0 -1 0 502)">
						<stop  offset="0" style="stop-color:#F28500"/>
						<stop  offset="1" style="stop-color:#FBA905"/>
					</linearGradient>
					<path class="st31" d="M767.2,124.2c4.7,2.6,9.3,5.2,14,7.8c4,2.3,6.5,7.4,6.5,15.1c-0.1,16.4-11.5,38.1-25.5,48.5
						c-7.4,5.5-14.1,6.7-18.7,4.1c-4.7-2.6-9.3-5.2-14-7.8c4.6,2.6,11.3,1.4,18.7-4.1c14-10.4,25.4-32.1,25.5-48.5
						C773.7,131.6,771.2,126.4,767.2,124.2z"/>
					<path class="st3" d="M768.9,125.5c3,2.7,4.7,7.3,4.7,13.8c-0.1,16.4-11.5,38.1-25.5,48.5c-7.4,5.5-14.1,6.7-18.7,4.1
						c0.8,0.4,1.5,0.9,2.3,1.3c4.5,1.6,10.5,0.1,17.1-4.8c14-10.4,25.4-32.1,25.5-48.5C774.3,132.9,772.3,128,768.9,125.5z"/>
					<path class="st6" d="M748.4,135.7c10.5-7.8,19-4.1,18.9,8.2c-0.1,12.3-8.6,28.6-19.1,36.4s-19,4.1-18.9-8.2
						C729.3,159.8,737.9,143.5,748.4,135.7z"/>
					<path class="st7" d="M732.9,172.4c0.1-12.3,8.6-28.6,19.1-36.4c3.2-2.4,6.3-3.7,8.9-4c-3.3-1-7.7,0.2-12.5,3.8
						c-10.5,7.8-19.1,24.1-19.1,36.4c0,8.5,4,12.9,10,12.2C735.3,183.2,732.8,179.1,732.9,172.4z"/>
					
						<linearGradient id="SVGID_29_" gradientUnits="userSpaceOnUse" x1="760.7746" y1="364.3282" x2="710.494" y2="290.5833" gradientTransform="matrix(1 0 0 -1 0 502)">
						<stop  offset="0" style="stop-color:#FBCF0A"/>
						<stop  offset="1" style="stop-color:#FBA505"/>
					</linearGradient>
					<path class="st32" d="M758.3,142c0.6,0.8,0.9,2,0.9,3.6c0,1.6-0.3,3.2-1,4.9c-0.6,1.7-1.5,3.3-2.7,4.8
						c-1.1,1.5-2.5,2.8-3.9,3.9l-3.2,2.4c-0.1,0.1-0.2,0.2-0.2,0.3l0,8c0,0.2,0,0.3-0.1,0.5s-0.2,0.3-0.3,0.4l-4.8,3.6
						c-0.1,0.1-0.3,0.1-0.3,0.1c-0.1,0-0.1-0.1-0.1-0.3l0.1-23.9c0-0.2,0-0.3,0.1-0.5c0.1-0.2,0.2-0.3,0.3-0.4l8.9-6.6
						c1.4-1.1,2.7-1.7,3.8-1.8C756.9,140.9,757.7,141.2,758.3,142z M752.8,152.4c0.5-0.8,0.7-1.6,0.7-2.4c0-0.8-0.2-1.3-0.7-1.4
						c-0.5-0.1-1.1,0.1-1.8,0.6l-2.6,1.9c-0.1,0.1-0.2,0.2-0.2,0.3l0,4.8c0,0.1,0,0.1,0.2,0.1l2.6-1.9
						C751.8,153.9,752.4,153.2,752.8,152.4"/>
				</g>
				<g>
					
						<image style="overflow:visible;enable-background:new    ;" width="675" height="708" xlink:href="656F3895.png"  transform="matrix(0.239 0 0 0.239 417.3432 96.44)">
					</image>
				</g>
				<g>
					
						<image style="overflow:visible;enable-background:new    ;" width="679" height="671" xlink:href="656F3896.png"  transform="matrix(0.2386 0 0 0.2386 665.52 190.5143)">
					</image>
				</g>
				<g>
					
						<linearGradient id="SVGID_30_" gradientUnits="userSpaceOnUse" x1="776.5801" y1="142.2448" x2="686.4155" y2="110.2505" gradientTransform="matrix(1 0 0 -1 0 502)">
						<stop  offset="0" style="stop-color:#FBCF0A"/>
						<stop  offset="1" style="stop-color:#FBA505"/>
					</linearGradient>
					<path class="st33" d="M730.4,356.4c23.9-6,49.1-4.1,56.3,4.3c7.2,8.4-6.4,20-30.3,26c-23.9,6-49.1,4.1-56.3-4.3
						S706.5,362.4,730.4,356.4z"/>
					<path class="st5" d="M756.8,352.9c-8.3,0.1-17.5,1.2-26.5,3.5c-3.8,1-7.3,2-10.5,3.3l20.7,29.9c5.2-0.6,10.5-1.5,15.8-2.8
						c7.5-1.9,13.9-4.3,19-7L756.8,352.9z"/>
					
						<linearGradient id="SVGID_31_" gradientUnits="userSpaceOnUse" x1="698.27" y1="114.7337" x2="791.7122" y2="114.7337" gradientTransform="matrix(1 0 0 -1 0 502)">
						<stop  offset="0" style="stop-color:#F28500"/>
						<stop  offset="1" style="stop-color:#FBA905"/>
					</linearGradient>
					<path class="st34" d="M788.5,364.4l3.2,19.9c1.2,7.8-11.6,17.1-32.1,22.3c-23.9,6-49.1,4.1-56.3-4.3c-1-1.2-1.6-2.5-1.8-3.8
						l-3.2-19.9c0.2,1.3,0.8,2.6,1.8,3.8c7.2,8.4,32.4,10.3,56.3,4.3C776.8,381.5,789.7,372.2,788.5,364.4z"/>
					<path class="st3" d="M756.4,387.9c20.1-5,32.8-14.1,32.1-21.8c-0.7,7.4-13.1,15.8-32.1,20.6c-23.9,6-49.1,4.1-56.3-4.3
						c-1-1.2-1.6-2.5-1.8-3.8l0.4,2.7c0.3,0.8,0.8,1.5,1.4,2.3C707.3,392,732.5,393.9,756.4,387.9z"/>
					<path class="st6" d="M733.6,360.1c17.9-4.5,36.9-3.1,42.3,3.2c5.4,6.3-4.8,15-22.7,19.6c-17.9,4.5-36.9,3.1-42.3-3.2
						C705.5,373.4,715.7,364.7,733.6,360.1z"/>
					<path class="st7" d="M733.6,362.9c17.9-4.5,36.9-3.1,42.3,3.2c0.6,0.7,1,1.5,1.2,2.2c0.4-1.7,0-3.4-1.3-4.9
						c-5.4-6.3-24.3-7.7-42.3-3.2c-15.9,4-25.7,11.3-24,17.3C711,372.1,720.1,366.3,733.6,362.9z"/>
					
						<linearGradient id="SVGID_32_" gradientUnits="userSpaceOnUse" x1="776.4257" y1="142.678" x2="686.2632" y2="110.6845" gradientTransform="matrix(1 0 0 -1 0 502)">
						<stop  offset="0" style="stop-color:#FBCF0A"/>
						<stop  offset="1" style="stop-color:#FBA505"/>
					</linearGradient>
					<path class="st35" d="M756.7,362.9c1.6,0.4,2.7,1,3.4,1.8c0.7,0.8,0.8,1.7,0.2,2.6c-0.5,0.9-1.6,1.8-3.3,2.6
						c-1.7,0.8-3.7,1.6-6.3,2.2l-5.5,1.4c-0.2,0-0.2,0.1-0.2,0.2l3.5,4.1c0.1,0.1,0.1,0.2,0,0.3c-0.1,0.1-0.3,0.2-0.5,0.2l-8.2,2.1
						c-0.2,0.1-0.5,0.1-0.6,0.1c-0.2,0-0.3-0.1-0.4-0.1l-10.5-12.2c-0.1-0.1-0.1-0.2,0-0.3s0.3-0.2,0.5-0.2l15.2-3.8
						c2.5-0.6,4.8-1,7-1.1C753.3,362.3,755.1,362.5,756.7,362.9z M750.1,368.4c0.6-0.4,0.7-0.8,0.4-1.2c-0.3-0.4-1-0.6-2-0.7
						c-1,0-2.1,0.1-3.4,0.4l-4.4,1.1c-0.2,0-0.2,0.1-0.2,0.1l2.1,2.4c0,0.1,0.2,0.1,0.3,0l4.4-1.1
						C748.6,369.2,749.5,368.9,750.1,368.4"/>
				</g>
				<g>
					
						<image style="overflow:visible;enable-background:new    ;" width="871" height="654" xlink:href="656F3897.png"  transform="matrix(0.2378 0 0 0.2378 -101.0411 -48.04)">
					</image>
				</g>
				<g>
					
						<image style="overflow:visible;enable-background:new    ;" width="613" height="621" xlink:href="656F38A9.png"  transform="matrix(0.2384 0 0 0.2384 -73.68 399.8062)">
					</image>
				</g>
				<g>
					
						<linearGradient id="SVGID_33_" gradientUnits="userSpaceOnUse" x1="60.65" y1="394.7939" x2="113.7662" y2="394.7939" gradientTransform="matrix(1 0 0 -1 0 502)">
						<stop  offset="0" style="stop-color:#F28500"/>
						<stop  offset="1" style="stop-color:#FBA905"/>
					</linearGradient>
					<path class="st36" d="M111.1,91.1c0.8,3.2,1.6,6.4,2.4,9.7c0.5,1.9,0.4,3.9-0.4,6c-3.2,9-17,16.4-30.7,16.6
						c-10.4,0.1-17.9-4.1-19.4-10c-0.8-3.2-1.6-6.4-2.4-9.7c1.5,6,8.9,10.2,19.4,10c13.7-0.1,27.4-7.6,30.7-16.6
						C111.4,95,111.5,92.9,111.1,91.1z"/>
					<path class="st3" d="M80,114.3c13.7-0.1,27.4-7.6,30.7-16.6c0.5-1.4,0.7-2.8,0.7-4.1c0,1.1-0.3,2.3-0.7,3.4
						c-3.2,9-17,16.5-30.7,16.6c-10.4,0.1-17.9-4.1-19.4-10c0.2,0.8,0.4,1.5,0.6,2.3C63.5,111,70.5,114.4,80,114.3z"/>
					
						<linearGradient id="SVGID_34_" gradientUnits="userSpaceOnUse" x1="99.1904" y1="400.0744" x2="40.3177" y2="420.2897" gradientTransform="matrix(1 0 0 -1 0 502)">
						<stop  offset="0" style="stop-color:#FBCF0A"/>
						<stop  offset="1" style="stop-color:#FBA505"/>
					</linearGradient>
					<path class="st37" d="M91.7,81c13.7-0.1,22.2,7.1,18.9,16.1s-17,16.5-30.7,16.6c-13.7,0.1-22.2-7.1-19-16.1
						C64.3,88.6,78,81.2,91.7,81z"/>
					<path class="st5" d="M68.5,88.5l17.2,24.8c7-1.1,13.7-3.9,18.4-7.7L87.3,81.3C80.3,82.2,73.5,84.8,68.5,88.5z"/>
					<path class="st6" d="M90.3,85.1c10.3-0.1,16.7,5.3,14.2,12.1c-2.4,6.8-12.7,12.3-23,12.4s-16.7-5.3-14.2-12.1
						C69.7,90.8,80,85.2,90.3,85.1z"/>
					<path class="st7" d="M69.1,99.4c2.4-6.8,12.7-12.3,23-12.4c4.8-0.1,8.8,1.1,11.4,3.1c-2.3-3.1-7.1-5-13.3-5
						c-10.3,0.1-20.6,5.7-23,12.5c-1.3,3.6-0.1,6.8,2.8,9C68.6,104.6,68.2,102.1,69.1,99.4z"/>
					
						<linearGradient id="SVGID_35_" gradientUnits="userSpaceOnUse" x1="99.2061" y1="400.1212" x2="40.3327" y2="420.3369" gradientTransform="matrix(1 0 0 -1 0 502)">
						<stop  offset="0" style="stop-color:#FBCF0A"/>
						<stop  offset="1" style="stop-color:#FBA505"/>
					</linearGradient>
					<path class="st38" d="M97.4,92.5c0.3,0.7,0.3,1.5,0,2.4c-0.3,0.9-0.9,1.7-1.8,2.3s-1.9,1.2-3.2,1.6c-1.3,0.4-2.6,0.6-4,0.6
						l-3.2,0c-0.1,0-0.2,0-0.2,0.1l-1.6,4.4c0,0.1-0.1,0.2-0.2,0.2c-0.1,0.1-0.2,0.1-0.4,0.1l-4.7,0.1c-0.1,0-0.2,0-0.3-0.1
						c-0.1-0.1-0.1-0.1,0-0.2l4.7-13.2c0-0.1,0.1-0.2,0.2-0.2c0.1-0.1,0.2-0.1,0.4-0.1l8.7-0.1c1.4,0,2.6,0.2,3.5,0.5
						C96.4,91.3,97,91.8,97.4,92.5z M90.8,96c0.5-0.3,0.9-0.6,1-1c0.2-0.4,0.1-0.8-0.3-1c-0.4-0.3-0.9-0.4-1.6-0.4l-2.5,0
						c-0.1,0-0.2,0-0.2,0.1l-0.9,2.6c0,0.1,0,0.1,0.1,0.1l2.5,0C89.6,96.4,90.2,96.3,90.8,96"/>
				</g>
				<g>
					
						<linearGradient id="SVGID_36_" gradientUnits="userSpaceOnUse" x1="622.58" y1="320.9441" x2="673.0431" y2="320.9441" gradientTransform="matrix(1 0 0 -1 0 502)">
						<stop  offset="0" style="stop-color:#F28500"/>
						<stop  offset="1" style="stop-color:#FBA905"/>
					</linearGradient>
					<path class="st39" d="M670.5,165.7c0.8,3.1,1.5,6.1,2.3,9.2c0.4,1.8,0.3,3.7-0.4,5.7c-3.1,8.6-16.1,15.6-29.1,15.8
						c-9.9,0.1-17-3.9-18.4-9.5c-0.8-3.1-1.5-6.1-2.3-9.2c1.4,5.7,8.5,9.6,18.4,9.5c13-0.1,26.1-7.2,29.1-15.8
						C670.8,169.4,670.9,167.5,670.5,165.7z"/>
					<path class="st3" d="M641,187.8c13-0.1,26.1-7.2,29.1-15.8c0.5-1.4,0.7-2.6,0.6-3.9c0,1.1-0.2,2.1-0.6,3.3
						C667,180,654,187.1,641,187.2c-9.9,0.1-17-3.9-18.4-9.5c0.2,0.7,0.4,1.4,0.5,2.2C625.3,184.7,632,187.9,641,187.8z"/>
					
						<linearGradient id="SVGID_37_" gradientUnits="userSpaceOnUse" x1="659.192" y1="325.9532" x2="603.2515" y2="345.1616" gradientTransform="matrix(1 0 0 -1 0 502)">
						<stop  offset="0" style="stop-color:#FBCF0A"/>
						<stop  offset="1" style="stop-color:#FBA505"/>
					</linearGradient>
					<path class="st40" d="M652.1,156.2c13-0.1,21.1,6.7,18,15.3C667,180,654,187.1,641,187.2c-13,0.1-21.1-6.7-18-15.3
						C626,163.4,639.1,156.3,652.1,156.2z"/>
					<path class="st5" d="M630.1,163.2l16.3,23.5c6.7-1,13-3.7,17.5-7.3l-16-23C641.2,157.3,634.8,159.8,630.1,163.2z"/>
					<path class="st6" d="M650.7,160c9.8-0.1,15.8,5,13.5,11.5s-12.1,11.7-21.9,11.8s-15.8-5-13.5-11.5
						C631.2,165.4,640.9,160.1,650.7,160z"/>
					<path class="st7" d="M630.6,173.7c2.3-6.4,12.1-11.7,21.9-11.8c4.6,0,8.4,1.1,10.8,2.9c-2.2-2.9-6.7-4.8-12.6-4.7
						c-9.8,0.1-19.6,5.4-21.9,11.8c-1.2,3.4-0.1,6.5,2.7,8.6C630.1,178.5,629.7,176.2,630.6,173.7z"/>
					
						<linearGradient id="SVGID_38_" gradientUnits="userSpaceOnUse" x1="659.2004" y1="325.9757" x2="603.2576" y2="345.1849" gradientTransform="matrix(1 0 0 -1 0 502)">
						<stop  offset="0" style="stop-color:#FBCF0A"/>
						<stop  offset="1" style="stop-color:#FBA505"/>
					</linearGradient>
					<path class="st41" d="M657.5,167.1c0.3,0.6,0.3,1.4,0,2.2c-0.3,0.8-0.8,1.6-1.7,2.2c-0.8,0.6-1.8,1.1-3,1.5s-2.5,0.6-3.8,0.6
						l-3,0c-0.1,0-0.2,0-0.2,0.1l-1.5,4.2c0,0.1-0.1,0.1-0.2,0.2c-0.1,0.1-0.2,0.1-0.3,0.1l-4.5,0.1c-0.1,0-0.2,0-0.3-0.1
						s-0.1-0.1,0-0.2l4.5-12.5c0-0.1,0.1-0.1,0.2-0.2c0.1-0.1,0.2-0.1,0.3-0.1l8.3-0.1c1.3,0,2.5,0.1,3.3,0.5
						C656.5,166,657.1,166.5,657.5,167.1z M651.2,170.4c0.5-0.2,0.8-0.6,1-1c0.2-0.4,0-0.7-0.3-1c-0.3-0.2-0.8-0.4-1.5-0.4l-2.4,0
						c-0.1,0-0.2,0-0.2,0.1l-0.9,2.5c0,0.1,0,0.1,0.1,0.1l2.4,0C650.1,170.8,650.7,170.7,651.2,170.4"/>
				</g>
				<g>
					
						<linearGradient id="SVGID_39_" gradientUnits="userSpaceOnUse" x1="265.84" y1="309.0141" x2="316.3031" y2="309.0141" gradientTransform="matrix(1 0 0 -1 0 502)">
						<stop  offset="0" style="stop-color:#F28500"/>
						<stop  offset="1" style="stop-color:#FBA905"/>
					</linearGradient>
					<path class="st42" d="M313.8,177.6c0.8,3.1,1.5,6.1,2.3,9.2c0.4,1.8,0.3,3.7-0.4,5.7c-3.1,8.6-16.1,15.6-29.1,15.8
						c-9.9,0.1-17-3.9-18.4-9.5c-0.8-3.1-1.5-6.1-2.3-9.2c1.4,5.7,8.5,9.6,18.4,9.5c13-0.1,26.1-7.2,29.1-15.8
						C314.1,181.4,314.2,179.4,313.8,177.6z"/>
					<path class="st3" d="M284.2,199.8c13-0.1,26.1-7.2,29.1-15.8c0.5-1.4,0.7-2.6,0.6-3.9c0,1.1-0.2,2.1-0.6,3.3
						c-3.1,8.6-16.1,15.6-29.1,15.8c-9.9,0.1-17-3.9-18.4-9.5c0.2,0.7,0.4,1.4,0.5,2.2C268.6,196.6,275.2,199.9,284.2,199.8z"/>
					
						<linearGradient id="SVGID_40_" gradientUnits="userSpaceOnUse" x1="302.4539" y1="314.0225" x2="246.5132" y2="333.2311" gradientTransform="matrix(1 0 0 -1 0 502)">
						<stop  offset="0" style="stop-color:#FBCF0A"/>
						<stop  offset="1" style="stop-color:#FBA505"/>
					</linearGradient>
					<path class="st43" d="M295.4,168.1c13-0.1,21.1,6.7,18,15.3c-3.1,8.6-16.1,15.6-29.1,15.8c-13,0.1-21.1-6.7-18-15.3
						C269.3,175.3,282.3,168.2,295.4,168.1z"/>
					<path class="st5" d="M273.3,175.2l16.3,23.5c6.7-1,13-3.7,17.5-7.3l-16-23C284.5,169.2,278.1,171.7,273.3,175.2z"/>
					<path class="st6" d="M294,172c9.8-0.1,15.8,5,13.5,11.5s-12.1,11.7-21.9,11.8s-15.8-5-13.5-11.5
						C274.4,177.4,284.2,172.1,294,172z"/>
					<path class="st7" d="M273.9,185.6c2.3-6.4,12.1-11.7,21.9-11.8c4.6,0,8.4,1.1,10.8,2.9c-2.2-2.9-6.7-4.8-12.6-4.7
						c-9.8,0.1-19.6,5.4-21.9,11.8c-1.2,3.4-0.1,6.5,2.7,8.6C273.4,190.5,273,188.1,273.9,185.6z"/>
					
						<linearGradient id="SVGID_41_" gradientUnits="userSpaceOnUse" x1="302.4621" y1="314.0451" x2="246.5194" y2="333.2543" gradientTransform="matrix(1 0 0 -1 0 502)">
						<stop  offset="0" style="stop-color:#FBCF0A"/>
						<stop  offset="1" style="stop-color:#FBA505"/>
					</linearGradient>
					<path class="st44" d="M300.7,179.1c0.3,0.6,0.3,1.4,0,2.2c-0.3,0.8-0.9,1.6-1.7,2.2c-0.8,0.6-1.8,1.1-3,1.5s-2.5,0.6-3.8,0.6
						l-3,0c-0.1,0-0.1,0-0.2,0.1l-1.5,4.2c0,0.1-0.1,0.1-0.2,0.2c-0.1,0.1-0.2,0.1-0.3,0.1l-4.5,0.1c-0.1,0-0.2,0-0.3-0.1
						s-0.1-0.1,0-0.2l4.5-12.5c0-0.1,0.1-0.1,0.2-0.2c0.1-0.1,0.2-0.1,0.3-0.1l8.3-0.1c1.3,0,2.5,0.1,3.4,0.5
						C299.8,177.9,300.4,178.4,300.7,179.1z M294.4,182.4c0.5-0.2,0.8-0.6,1-1c0.1-0.4,0-0.7-0.3-1c-0.3-0.2-0.9-0.4-1.5-0.4l-2.4,0
						c-0.1,0-0.1,0-0.2,0.1l-0.9,2.5c0,0.1,0,0.1,0.1,0.1l2.4,0C293.3,182.8,293.9,182.6,294.4,182.4"/>
				</g>
				<g>
					
						<linearGradient id="SVGID_42_" gradientUnits="userSpaceOnUse" x1="11.19" y1="66.1041" x2="61.6531" y2="66.1041" gradientTransform="matrix(1 0 0 -1 0 502)">
						<stop  offset="0" style="stop-color:#F28500"/>
						<stop  offset="1" style="stop-color:#FBA905"/>
					</linearGradient>
					<path class="st45" d="M59.1,420.6c0.8,3.1,1.5,6.1,2.3,9.2c0.4,1.8,0.3,3.7-0.4,5.7c-3.1,8.6-16.1,15.6-29.1,15.8
						c-9.9,0.1-17-3.9-18.4-9.5c-0.8-3.1-1.5-6.1-2.3-9.2c1.4,5.7,8.5,9.6,18.4,9.5c13-0.1,26.1-7.2,29.1-15.8
						C59.4,424.3,59.5,422.3,59.1,420.6z"/>
					<path class="st3" d="M29.6,442.7c13-0.1,26.1-7.2,29.1-15.8c0.5-1.4,0.7-2.6,0.6-3.9c0,1-0.2,2.1-0.6,3.3
						c-3.1,8.6-16.1,15.6-29.1,15.8c-9.9,0.1-17-3.9-18.4-9.5c0.2,0.7,0.4,1.4,0.5,2.2C13.9,439.5,20.6,442.8,29.6,442.7z"/>
					
						<linearGradient id="SVGID_43_" gradientUnits="userSpaceOnUse" x1="47.8016" y1="71.1233" x2="-8.1391" y2="90.3318" gradientTransform="matrix(1 0 0 -1 0 502)">
						<stop  offset="0" style="stop-color:#FBCF0A"/>
						<stop  offset="1" style="stop-color:#FBA505"/>
					</linearGradient>
					<path class="st46" d="M40.7,411c13-0.1,21.1,6.7,18,15.3c-3.1,8.6-16.1,15.6-29.1,15.8c-13,0.1-21.1-6.7-18-15.3
						C14.6,418.2,27.7,411.1,40.7,411z"/>
					<path class="st5" d="M18.7,418.1L35,441.6c6.7-1,13-3.7,17.5-7.3l-16-23C29.8,412.1,23.4,414.6,18.7,418.1z"/>
					<path class="st6" d="M39.3,414.9c9.8-0.1,15.8,5,13.5,11.5S40.7,438.1,31,438.2c-9.8,0.1-15.8-5-13.5-11.5
						C19.8,420.3,29.5,415,39.3,414.9z"/>
					<path class="st7" d="M19.2,428.5c2.3-6.4,12.1-11.7,21.9-11.8c4.6,0,8.4,1.1,10.8,2.9c-2.2-2.9-6.7-4.8-12.6-4.7
						c-9.8,0.1-19.6,5.4-21.9,11.8c-1.2,3.4-0.1,6.5,2.7,8.5C18.7,433.4,18.3,431,19.2,428.5z"/>
					
						<linearGradient id="SVGID_44_" gradientUnits="userSpaceOnUse" x1="47.8129" y1="71.1548" x2="-8.1297" y2="90.364" gradientTransform="matrix(1 0 0 -1 0 502)">
						<stop  offset="0" style="stop-color:#FBCF0A"/>
						<stop  offset="1" style="stop-color:#FBA505"/>
					</linearGradient>
					<path class="st47" d="M46.1,422c0.3,0.6,0.3,1.4,0,2.2c-0.3,0.8-0.8,1.6-1.7,2.2c-0.8,0.6-1.8,1.1-3,1.5s-2.5,0.5-3.8,0.6l-3,0
						c-0.1,0-0.2,0-0.2,0.1l-1.5,4.2c0,0.1-0.1,0.1-0.2,0.2c-0.1,0-0.2,0.1-0.3,0.1l-4.5,0c-0.1,0-0.2,0-0.3-0.1
						c-0.1,0-0.1-0.1,0-0.2l4.5-12.5c0-0.1,0.1-0.1,0.2-0.2c0.1,0,0.2-0.1,0.3-0.1l8.3-0.1c1.3,0,2.5,0.1,3.3,0.5
						C45.1,420.8,45.7,421.3,46.1,422z M39.8,425.3c0.5-0.2,0.8-0.6,1-1c0.2-0.4,0-0.7-0.3-1c-0.3-0.2-0.8-0.4-1.5-0.4l-2.4,0
						c-0.1,0-0.2,0-0.2,0.1l-0.9,2.5c0,0.1,0,0.1,0.1,0.1l2.4,0C38.7,425.7,39.3,425.5,39.8,425.3"/>
				</g>
				<g>
					
						<linearGradient id="SVGID_45_" gradientUnits="userSpaceOnUse" x1="82.2375" y1="179.8097" x2="69.3003" y2="110.3253" gradientTransform="matrix(1 0 0 -1 0 502)">
						<stop  offset="0" style="stop-color:#FBCF0A"/>
						<stop  offset="1" style="stop-color:#FBA505"/>
					</linearGradient>
					<path class="st48" d="M86.2,299.1c-21.7,6.8-41.8,27.1-45,45.3s11.8,27.5,33.5,20.6c21.7-6.8,41.8-27.1,45-45.3
						C122.8,301.6,107.8,292.3,86.2,299.1z"/>
					<path class="st5" d="M85.3,299.4c-10.7,3.5-21,10.4-29,18.5l29.4,42.5c10.4-5.5,19.8-13.8,26.1-22.9L85.3,299.4z"/>
					<path class="st6" d="M84.7,307.4c16.3-5.1,27.5,1.8,25.2,15.5c-2.4,13.7-17.5,28.9-33.8,34c-16.3,5.1-27.6-1.8-25.2-15.5
						C53.3,327.7,68.4,312.5,84.7,307.4z"/>
					<path class="st7" d="M106.1,309.4c1.2,2.6,1.6,5.9,0.9,9.6c-2.4,13.7-17.5,28.9-33.8,34c-9.3,2.9-17,1.9-21.4-2.1
						c3.2,6.9,12.4,9.6,24.2,5.9c16.3-5.1,31.4-20.4,33.8-34C110.9,317,109.4,312.4,106.1,309.4z"/>
					
						<linearGradient id="SVGID_46_" gradientUnits="userSpaceOnUse" x1="85.803" y1="179.1442" x2="72.8659" y2="109.6606" gradientTransform="matrix(1 0 0 -1 0 502)">
						<stop  offset="0" style="stop-color:#FBCF0A"/>
						<stop  offset="1" style="stop-color:#FBA505"/>
					</linearGradient>
					<path class="st49" d="M97.6,317.7c0.7,1.1,0.9,2.5,0.6,4.3c-0.3,1.8-1.1,3.5-2.3,5.1c-1.2,1.6-2.8,3.1-4.7,4.4s-4,2.3-6.3,3
						l-5,1.6c-0.2,0-0.3,0.1-0.3,0.3l-1.6,8.9c0,0.2-0.1,0.4-0.3,0.5s-0.3,0.3-0.5,0.3l-7.5,2.3c-0.2,0.1-0.4,0.1-0.5,0
						c-0.1-0.1-0.1-0.2-0.1-0.4l4.6-26.6c0-0.2,0.1-0.4,0.3-0.5c0.1-0.1,0.3-0.3,0.6-0.3l13.8-4.3c2.2-0.7,4.1-1,5.7-0.7
						C95.8,316,96.9,316.6,97.6,317.7z M87.8,327.4c0.8-0.7,1.3-1.5,1.4-2.4c0.2-0.9-0.1-1.5-0.7-1.8c-0.6-0.3-1.5-0.3-2.7,0.1
						l-4,1.2c-0.2,0-0.3,0.1-0.3,0.3l-0.9,5.3c0,0.1,0.1,0.2,0.2,0.1l4-1.3C86.1,328.7,87.1,328.1,87.8,327.4"/>
					
						<linearGradient id="SVGID_47_" gradientUnits="userSpaceOnUse" x1="29.7136" y1="180.3796" x2="116.52" y2="180.3796" gradientTransform="matrix(1 0 0 -1 0 502)">
						<stop  offset="0" style="stop-color:#F28500"/>
						<stop  offset="1" style="stop-color:#FBA905"/>
					</linearGradient>
					<path class="st50" d="M116,303.2c-1.7-2.1-3.3-4.2-4.9-6.3c-1.8-2.3-3.7-4.7-5.5-7c-5.4-6.9-16.5-9.1-30.4-4.8
						c-21.7,6.8-41.8,27.1-45,45.3c-1.1,6.6,0.1,12,3.1,15.9c3.7,4.7,7.3,9.4,11,14c-3-3.9-4.3-9.3-3.1-15.9
						c3.2-18.2,23.3-38.5,45-45.3c13.8-4.4,25-2.1,30.4,4.8C116.4,303.7,116.1,303.4,116,303.2z"/>
					<path class="st3" d="M116.5,303.9c-0.2-0.2-0.4-0.5-0.6-0.7c-0.7-0.9-1.3-1.7-2-2.6c-5.9-5-16-6.3-28.2-2.5
						c-21.7,6.8-41.8,27.1-45,45.3c-0.8,4.6-0.4,8.7,0.9,12c-1-3.1-1.3-6.8-0.5-11c3.2-18.2,23.3-38.5,45-45.3
						C100,294.8,111.1,297,116.5,303.9z"/>
				</g>
				<g>
					
						<linearGradient id="SVGID_48_" gradientUnits="userSpaceOnUse" x1="1847.9076" y1="-999.7178" x2="1899.7025" y2="-999.7178" gradientTransform="matrix(0.3187 -0.9479 -0.9479 -0.3187 -819.2587 1936.2366)">
						<stop  offset="0" style="stop-color:#F28500"/>
						<stop  offset="1" style="stop-color:#FBA905"/>
					</linearGradient>
					<path class="st51" d="M737.7,455.4c2.5,2.5,5,5,7.5,7.5c3.2,3.1,3.2,9.3-0.7,16.8c-5.9,11.3-18.5,21.2-28.1,22.1
						c-3.3,0.3-5.9-0.5-7.5-2.1l-7.5-7.5c1.7,1.6,4.2,2.5,7.5,2.1c9.7-0.9,22.3-10.8,28.1-22.1C740.8,464.8,740.8,458.5,737.7,455.4
						z"/>
					<path class="st3" d="M737.5,472.9c3.6-7,3.8-12.9,1.2-16.1c2.1,3.4,1.6,9-1.7,15.4c-5.9,11.3-18.5,21.2-28.1,22.1
						c-3.3,0.3-5.9-0.5-7.5-2.1l1.7,1.6c1.6,1,3.8,1.5,6.4,1.2C719,494.1,731.6,484.2,737.5,472.9z"/>
					
						<linearGradient id="SVGID_49_" gradientUnits="userSpaceOnUse" x1="1866.3104" y1="-980.4543" x2="1894.1708" y2="-1013.1342" gradientTransform="matrix(0.3187 -0.9479 -0.9479 -0.3187 -819.2587 1936.2366)">
						<stop  offset="0" style="stop-color:#FBCF0A"/>
						<stop  offset="1" style="stop-color:#FBA505"/>
					</linearGradient>
					<path class="st52" d="M702,475.4c5.9-11.3,18.5-21.2,28.1-22.1c9.7-0.9,12.7,7.6,6.9,18.9s-18.5,21.2-28.1,22.1
						C699.2,495.2,696.1,486.7,702,475.4z"/>
					<path class="st5" d="M708.9,494.3c9.7-0.9,22.3-10.8,28.1-22.1c5.8-11.2,2.9-19.6-6.5-19l-29.1,38.9
						C703,493.8,705.5,494.6,708.9,494.3z"/>
					<path class="st6" d="M706.3,475c4.4-8.5,13.8-16,21.1-16.6c7.3-0.7,9.6,5.7,5.2,14.2c-4.4,8.5-13.9,16-21.1,16.6
						C704.3,489.9,701.9,483.5,706.3,475z"/>
					<path class="st7" d="M707.7,476.6c4.4-8.5,13.9-16,21.1-16.6c2.3-0.2,4,0.3,5.3,1.3c-1.1-2-3.4-3.1-6.6-2.9
						c-7.3,0.7-16.7,8.1-21.1,16.6c-3,5.9-2.9,10.7-0.1,13C704.8,485.4,705.2,481.3,707.7,476.6z"/>
					
						<linearGradient id="SVGID_50_" gradientUnits="userSpaceOnUse" x1="1867.0865" y1="-979.7917" x2="1894.9476" y2="-1012.4725" gradientTransform="matrix(0.3187 -0.9479 -0.9479 -0.3187 -819.2587 1936.2366)">
						<stop  offset="0" style="stop-color:#FBCF0A"/>
						<stop  offset="1" style="stop-color:#FBA505"/>
					</linearGradient>
					<path class="st53" d="M718.6,466.1c1-0.6,2-0.9,2.9-1c0.9-0.1,1.6,0.1,2.1,0.5c0.5,0.4,0.6,1.1,0.5,2c-0.1,0.9-0.4,1.9-1.1,3.1
						l-1.3,2.6c0,0.1,0,0.1,0,0.1l4.7-0.4c0.1,0,0.2,0,0.2,0.1s0,0.1-0.1,0.3l-2,3.9c-0.1,0.1-0.1,0.2-0.2,0.3
						c-0.1,0.1-0.2,0.1-0.3,0.1l-14.1,1.3c-0.1,0-0.2,0-0.2-0.1s0-0.1,0.1-0.3l3.7-7.2c0.6-1.2,1.3-2.2,2.2-3.1
						C716.7,467.4,717.6,466.7,718.6,466.1z M720,470.2c-0.1-0.3-0.3-0.5-0.8-0.5c-0.5,0-0.9,0.3-1.4,0.7c-0.5,0.4-0.9,0.9-1.2,1.5
						l-1.1,2.1c0,0.1,0,0.1,0,0.1l2.8-0.3c0.1,0,0.1,0,0.2-0.1l1.1-2.1C720,471.1,720.1,470.6,720,470.2"/>
				</g>
			</g>
		</g>
	</g>
	<g>
		<g>
			<defs>
				<rect id="SVGID_51_" width="750" height="500"/>
			</defs>
			<clipPath id="SVGID_52_">
				<use xlink:href="#SVGID_51_"  style="overflow:visible;"/>
			</clipPath>
			<g class="st54">
				<g>
					
						<linearGradient id="SVGID_53_" gradientUnits="userSpaceOnUse" x1="-1491.6278" y1="1547.8306" x2="-1424.5852" y2="1547.8306" gradientTransform="matrix(0.7579 -0.6524 0.6524 0.7579 744.08 -1721.9827)">
						<stop  offset="0" style="stop-color:#F28500"/>
						<stop  offset="1" style="stop-color:#FBA905"/>
					</linearGradient>
					<path class="st55" d="M684.9,398.2c-1.9-3.7-3.8-7.5-5.6-11.2c-1.1-2.2-2.9-4-5.4-5.4c-10.5-6-29.8-1.8-43,9.4
						c-10.1,8.5-13.8,18.6-10.3,25.5c1.9,3.7,3.8,7.5,5.6,11.2c-3.5-7,0.2-17,10.3-25.5c13.2-11.1,32.5-15.4,43-9.4
						C682,394.1,683.8,396,684.9,398.2z"/>
					<path class="st3" d="M636,401.5c13.2-11.1,32.5-15.4,43-9.4c1.7,0.9,3,2.1,4,3.4c-1-1-2.1-2-3.5-2.7c-10.5-6-29.8-1.8-43,9.4
						c-10.1,8.5-13.8,18.6-10.3,25.5c-0.4-0.9-0.9-1.8-1.3-2.6C623,418.2,626.9,409.2,636,401.5z"/>
					
						<linearGradient id="SVGID_54_" gradientUnits="userSpaceOnUse" x1="-1442.9871" y1="1554.4813" x2="-1517.2955" y2="1579.9968" gradientTransform="matrix(0.7579 -0.6524 0.6524 0.7579 744.08 -1721.9827)">
						<stop  offset="0" style="stop-color:#FBCF0A"/>
						<stop  offset="1" style="stop-color:#FBA505"/>
					</linearGradient>
					<path class="st56" d="M674.7,423.7c13.2-11.1,15.4-25,4.9-31s-29.8-1.8-43,9.4c-13.2,11.1-15.4,25-4.9,31
						C642.2,439.1,661.4,434.9,674.7,423.7z"/>
					<path class="st5" d="M646.3,435.7l-4-37.8c7.6-4.8,16.3-7.5,23.9-7.8l3.9,37C662.8,432,654.1,435.1,646.3,435.7z"/>
					<path class="st6" d="M669.9,421c9.9-8.4,11.6-18.8,3.7-23.3c-7.9-4.5-22.3-1.3-32.3,7c-9.9,8.4-11.6,18.8-3.7,23.3
						S660,429.4,669.9,421z"/>
					<path class="st7" d="M637.9,424.7c7.9,4.5,22.3,1.3,32.3-7c4.7-3.9,7.5-8.3,8.4-12.3c0.3,4.8-2.6,10.6-8.6,15.7
						c-9.9,8.4-24.4,11.5-32.3,7c-4.2-2.4-5.7-6.4-4.7-10.9C633.2,420.3,634.8,422.9,637.9,424.7z"/>
					
						<linearGradient id="SVGID_55_" gradientUnits="userSpaceOnUse" x1="-1442.9683" y1="1554.5394" x2="-1517.2766" y2="1580.0549" gradientTransform="matrix(0.7579 -0.6524 0.6524 0.7579 744.08 -1721.9827)">
						<stop  offset="0" style="stop-color:#FBCF0A"/>
						<stop  offset="1" style="stop-color:#FBA505"/>
					</linearGradient>
					<path class="st57" d="M670.6,408.1c-0.2-0.9-0.9-1.7-1.9-2.3c-1-0.6-2.2-0.8-3.6-0.8c-1.4,0.1-2.8,0.4-4.3,1.1
						c-1.5,0.7-3,1.6-4.3,2.8l-3,2.6c-0.1,0.1-0.2,0.1-0.3,0.1l-5.2-2.9c-0.1-0.1-0.2-0.1-0.4,0s-0.3,0.1-0.4,0.2l-4.5,3.8
						c-0.1,0.1-0.2,0.2-0.2,0.3c0,0.1,0,0.2,0.1,0.2l15.3,8.7c0.1,0.1,0.2,0.1,0.4,0c0.1,0,0.3-0.1,0.4-0.2l8.4-7.1
						c1.4-1.1,2.3-2.3,2.9-3.4C670.6,410,670.8,409,670.6,408.1z M661.4,410.1c0.7-0.2,1.3-0.2,1.8,0.1c0.5,0.3,0.7,0.7,0.6,1.2
						c-0.1,0.5-0.5,1.1-1.3,1.7l-2.4,2c-0.1,0.1-0.2,0.1-0.3,0.1l-3.1-1.7c-0.1,0-0.1-0.1,0-0.2l2.4-2
						C659.9,410.7,660.6,410.3,661.4,410.1"/>
					
						<radialGradient id="SVGID_56_" cx="-984.4575" cy="1934.5728" r="19.9646" gradientTransform="matrix(1.0576 -0.7038 0.2636 0.3962 1200.9812 -1045.964)" gradientUnits="userSpaceOnUse">
						<stop  offset="0" style="stop-color:#D96D00"/>
						<stop  offset="8.100000e-02" style="stop-color:#D96D00;stop-opacity:0.9998"/>
						<stop  offset="9.140000e-02" style="stop-color:#D96D00;stop-opacity:0.9998"/>
						<stop  offset="0.3688" style="stop-color:#DB7000;stop-opacity:0.6945"/>
						<stop  offset="0.5814" style="stop-color:#E07A01;stop-opacity:0.4605"/>
						<stop  offset="0.7726" style="stop-color:#EA8A02;stop-opacity:0.2502"/>
						<stop  offset="0.9501" style="stop-color:#F7A104;stop-opacity:5.490000e-02"/>
						<stop  offset="1" style="stop-color:#FBA905;stop-opacity:0"/>
					</radialGradient>
					<path class="st58" d="M692.9,398c-3.9-5.9-17.5-3.8-30.3,4.8c-12.8,8.5-20,20.2-16.1,26.1c3.9,5.9,17.5,3.8,30.3-4.8
						C689.6,415.6,696.8,403.9,692.9,398z"/>
				</g>
				<g>
					
						<image style="overflow:visible;enable-background:new    ;" width="600" height="667" xlink:href="A9132E22.png"  transform="matrix(0.2382 0 0 0.2382 136.1998 298.8143)">
					</image>
				</g>
				
					<radialGradient id="SVGID_57_" cx="2082.3391" cy="-166.5001" r="27.4015" gradientTransform="matrix(0.8538 0.9407 -0.3524 0.3198 -1627.3658 -1508.6047)" gradientUnits="userSpaceOnUse">
					<stop  offset="0" style="stop-color:#D96D00"/>
					<stop  offset="8.100000e-02" style="stop-color:#D96D00;stop-opacity:0.9998"/>
					<stop  offset="9.140000e-02" style="stop-color:#D96D00;stop-opacity:0.9998"/>
					<stop  offset="0.3688" style="stop-color:#DB7000;stop-opacity:0.6945"/>
					<stop  offset="0.5814" style="stop-color:#E07A01;stop-opacity:0.4605"/>
					<stop  offset="0.7726" style="stop-color:#EA8A02;stop-opacity:0.2502"/>
					<stop  offset="0.9501" style="stop-color:#F7A104;stop-opacity:5.490000e-02"/>
					<stop  offset="1" style="stop-color:#FBA905;stop-opacity:0"/>
				</radialGradient>
				<path class="st59" d="M234.9,425.3c7.2-6.5,1.5-24.5-12.6-40.1c-14.2-15.6-31.5-23-38.7-16.5c-7.2,6.5-1.5,24.5,12.6,40.1
					C210.4,424.5,227.7,431.8,234.9,425.3z"/>
				<g>
					
						<linearGradient id="SVGID_58_" gradientUnits="userSpaceOnUse" x1="116.9533" y1="2357.25" x2="230.8919" y2="2303.1055" gradientTransform="matrix(1 0 0 1 0 -1887.8506)">
						<stop  offset="0" style="stop-color:#FBCF0A"/>
						<stop  offset="1" style="stop-color:#FBA505"/>
					</linearGradient>
					<path class="st60" d="M172,481.2c27.9,5.2,52-8.3,53.8-30.2c1.8-21.8-19.3-43.7-47.2-48.9c-27.9-5.2-52,8.3-53.8,30.1
						C123,454.1,144.1,476,172,481.2z"/>
					<path class="st5" d="M176.1,481.8l-50.8-40.5c-0.6-3-0.8-6-0.5-9c1-11.5,8.1-20.8,18.8-26.1l76,60.7
						C211.1,478,194.7,484.1,176.1,481.8z"/>
					<path class="st6" d="M172.8,471.3c20.9,3.9,39-6.3,40.4-22.6c1.4-16.4-14.5-32.8-35.5-36.7c-20.9-3.9-39,6.3-40.4,22.6
						C136,451,151.9,467.5,172.8,471.3z"/>
					<path class="st7" d="M137.4,434.3c1.5,14.8,16.3,28.8,35.4,32.3c20.8,3.9,38.7-6.1,40.4-22.3c0.1,1.5,0.2,2.9,0,4.4
						c-1.4,16.4-19.4,26.5-40.4,22.6S136,451,137.4,434.6C137.4,434.5,137.4,434.4,137.4,434.3z"/>
					
						<linearGradient id="SVGID_59_" gradientUnits="userSpaceOnUse" x1="117.2794" y1="2357.937" x2="231.2195" y2="2303.7917" gradientTransform="matrix(1 0 0 1 0 -1887.8506)">
						<stop  offset="0" style="stop-color:#FBCF0A"/>
						<stop  offset="1" style="stop-color:#FBA505"/>
					</linearGradient>
					<path class="st61" d="M196.6,451.4c-0.2,2.2-0.9,4-2.3,5.4c-1.3,1.5-3.1,2.4-5.4,2.9s-4.8,0.5-7.7,0l-17.8-3.3
						c-0.3,0-0.5-0.2-0.6-0.3c-0.2-0.2-0.2-0.4-0.2-0.6l2.6-31.8c0-0.2,0.1-0.4,0.3-0.5c0.2-0.1,0.4-0.1,0.7-0.1l9.6,1.8
						c0.3,0,0.5,0.1,0.6,0.3s0.2,0.4,0.2,0.6l-0.9,10.7c0,0.2,0.1,0.3,0.3,0.3l6.4,1.2c2.9,0.5,5.5,1.5,7.7,2.8
						c2.2,1.3,3.9,2.9,5,4.7C196.3,447.3,196.8,449.3,196.6,451.4z M184.1,446.4c-0.9-0.8-2-1.3-3.5-1.6l-5.1-0.9
						c-0.2,0-0.3,0-0.3,0.2l-0.5,6.4c0,0.1,0.1,0.3,0.3,0.3l5.1,1c1.5,0.3,2.7,0.2,3.7-0.3c1-0.5,1.5-1.2,1.6-2.3
						C185.3,448.1,184.9,447.2,184.1,446.4z"/>
					
						<linearGradient id="SVGID_60_" gradientUnits="userSpaceOnUse" x1="158.8532" y1="2284.4924" x2="205.2891" y2="2346.8188" gradientTransform="matrix(1 0 0 1 0 -1887.8506)">
						<stop  offset="0" style="stop-color:#F28500"/>
						<stop  offset="1" style="stop-color:#FBA905"/>
					</linearGradient>
					<path class="st62" d="M224.4,458.1c0.1-0.5,0.4-1.1,0.5-1.5c0.1-0.2,0.2-0.5,0.3-0.8c0.1-0.5,0.4-1.1,0.5-1.5s0.4-1.1,0.5-1.5
						c0.1-0.2,0.2-0.5,0.3-0.8c0.2-0.5,0.4-1.1,0.5-1.5s0.4-1.1,0.5-1.5c0.1-0.2,0.2-0.5,0.3-0.8c0.1-0.5,0.4-1.1,0.5-1.5
						c0.4-1.3,0.9-2.5,1.3-3.8c0.8-2.2,1.2-4.6,1.4-7.1c1.8-21.8-19.3-43.7-47.2-48.9c-24.7-4.6-46.5,5.5-52.4,23.1l0,0
						c-1.7,5.1-3.4,10.2-5.1,15.3c5.9-17.6,27.6-27.7,52.3-23.1c27.9,5.2,49,27,47.2,48.9C225.6,453.5,225.1,455.9,224.4,458.1z"/>
					<path class="st3" d="M178.6,400.8c27.1,5,47.9,25.9,47.3,47.1c-0.3-20.8-20.7-40.9-47.3-45.8c-24.7-4.6-46.5,5.5-52.3,23.1
						c0.7-1.9,1.3-3.9,1.9-5.8C136,404.7,156.1,396.7,178.6,400.8z"/>
				</g>
				<g>
					
						<linearGradient id="SVGID_61_" gradientUnits="userSpaceOnUse" x1="258.7868" y1="2217.7852" x2="341.64" y2="2217.7852" gradientTransform="matrix(1 0 0 1 0 -1887.8506)">
						<stop  offset="0" style="stop-color:#F28500"/>
						<stop  offset="1" style="stop-color:#FBA905"/>
					</linearGradient>
					<path class="st63" d="M341.6,323.4c-2.5-5.1-5-10.1-7.5-15.2c-3.1-6.4-12.5-9.6-25.8-7.5c-20.2,3.1-41.6,17.1-47.9,31.4
						c-2.2,4.9-2.2,9.2-0.6,12.5l7.5,15.2c-1.6-3.4-1.6-7.6,0.6-12.5c6.3-14.2,27.7-28.2,47.9-31.4
						C329.1,313.9,338.5,317,341.6,323.4z"/>
					<path class="st3" d="M315,314.8c12.4-1.9,21.5,0.7,25.1,6.4c-4.1-4.9-12.7-7-24.3-5.3c-20.2,3.1-41.6,17.1-47.9,31.4
						c-2.2,4.9-2.2,9.2-0.6,12.5l-1.6-3.3c-0.7-3-0.3-6.5,1.4-10.3C273.4,332,294.9,317.9,315,314.8z"/>
					
						<linearGradient id="SVGID_62_" gradientUnits="userSpaceOnUse" x1="288.2245" y1="2248.5938" x2="332.7976" y2="2196.3103" gradientTransform="matrix(1 0 0 1 0 -1887.8506)">
						<stop  offset="0" style="stop-color:#FBCF0A"/>
						<stop  offset="1" style="stop-color:#FBA505"/>
					</linearGradient>
					<path class="st64" d="M293.2,367.3c20.2-3.1,41.6-17.1,47.9-31.4c6.3-14.2-5-23.2-25.2-20.1c-20.2,3.1-41.6,17.1-47.9,31.4
						C261.7,361.5,273,370.5,293.2,367.3z"/>
					<path class="st5" d="M268,347.3c6.3-14.2,27.7-28.2,47.9-31.4c20-3.1,31.2,5.7,25.4,19.6l-73.9,24.3
						C265.8,356.4,265.8,352.2,268,347.3z"/>
					<path class="st6" d="M296,360.9c15.1-2.3,31.3-12.9,36-23.5s-3.8-17.4-18.9-15.1c-15.2,2.3-31.3,12.9-36,23.5
						C272.4,356.5,280.9,363.3,296,360.9z"/>
					<path class="st7" d="M294.3,358.1c15.1-2.3,31.3-12.9,36-23.5c1.5-3.3,1.6-6.2,0.8-8.6c2.5,2.7,3,6.7,1,11.4
						c-4.7,10.7-20.8,21.2-36,23.5c-10.5,1.6-17.8-1.1-19.7-6.5C279.5,357.9,285.8,359.4,294.3,358.1z"/>
					
						<linearGradient id="SVGID_63_" gradientUnits="userSpaceOnUse" x1="289.4679" y1="2249.6548" x2="334.0422" y2="2197.3699" gradientTransform="matrix(1 0 0 1 0 -1887.8506)">
						<stop  offset="0" style="stop-color:#FBCF0A"/>
						<stop  offset="1" style="stop-color:#FBA505"/>
					</linearGradient>
					<path class="st65" d="M315.7,346.8c1.3-1.2,2.3-2.5,2.9-3.9c0.6-1.4,0.7-2.5,0.3-3.4c-0.4-0.9-1.4-1.5-2.7-1.9
						c-1.4-0.3-3.1-0.3-5.3,0l-4.7,0.7c-0.1,0-0.2,0-0.1-0.1l3.1-7c0.1-0.1,0-0.3,0-0.3c-0.1-0.1-0.2-0.1-0.4,0l-6.9,1.1
						c-0.2,0-0.4,0.1-0.5,0.2s-0.3,0.2-0.3,0.4l-9.1,20.7c-0.1,0.1-0.1,0.3,0,0.3c0.1,0.1,0.2,0.1,0.4,0l12.9-2
						c2.1-0.3,4-0.9,5.9-1.7C312.8,349.1,314.3,348,315.7,346.8z M310.2,342.6c0.5,0.3,0.6,0.8,0.3,1.4c-0.3,0.7-0.9,1.3-1.7,1.8
						s-1.8,0.9-2.9,1l-3.7,0.6c-0.1,0-0.2,0-0.1-0.1l1.8-4.1c0-0.1,0.1-0.2,0.3-0.2l3.7-0.6C308.9,342.2,309.7,342.3,310.2,342.6"/>
					
						<radialGradient id="SVGID_64_" cx="-1212.4769" cy="2050.2517" r="16.6933" gradientTransform="matrix(1.0645 -0.6932 0.2597 0.3988 1043.3486 -1344.3849)" gradientUnits="userSpaceOnUse">
						<stop  offset="0" style="stop-color:#D96D00"/>
						<stop  offset="8.100000e-02" style="stop-color:#D96D00;stop-opacity:0.9998"/>
						<stop  offset="9.140000e-02" style="stop-color:#D96D00;stop-opacity:0.9998"/>
						<stop  offset="0.3688" style="stop-color:#DB7000;stop-opacity:0.6945"/>
						<stop  offset="0.5814" style="stop-color:#E07A01;stop-opacity:0.4605"/>
						<stop  offset="0.7726" style="stop-color:#EA8A02;stop-opacity:0.2502"/>
						<stop  offset="0.9501" style="stop-color:#F7A104;stop-opacity:5.490000e-02"/>
						<stop  offset="1" style="stop-color:#FBA905;stop-opacity:0"/>
					</radialGradient>
					<path class="st66" d="M304.7,301.1c-3.2-5-14.6-3.3-25.4,3.7c-10.8,7-16.9,16.7-13.6,21.7s14.6,3.3,25.4-3.7
						C301.8,315.8,307.9,306.1,304.7,301.1z"/>
				</g>
				<g>
					
						<image style="overflow:visible;enable-background:new    ;" width="475" height="450" xlink:href="A9132E25.png"  transform="matrix(0.2379 0 0 0.2379 248.3668 363.6143)">
					</image>
				</g>
				<g>
					
						<linearGradient id="SVGID_65_" gradientUnits="userSpaceOnUse" x1="412.6729" y1="2384.0227" x2="440.4576" y2="2304.4685" gradientTransform="matrix(1 0 0 1 0 -1887.8506)">
						<stop  offset="0" style="stop-color:#FBCF0A"/>
						<stop  offset="1" style="stop-color:#FBA505"/>
					</linearGradient>
					<path class="st67" d="M425.7,496.7c15.5-16,28.2-46.4,28.5-68.1c0.3-21.7-12-26.3-27.5-10.3c-15.5,16-28.2,46.4-28.4,68.1
						C398,508,410.3,512.7,425.7,496.7z"/>
					<path class="st5" d="M398.2,486.4c0.3-21.7,13-52.1,28.4-68.1c15.5-16,27.8-11.3,27.5,10.3c0,3-0.3,6.3-0.8,9.6l-46.8,67.6
						C401.3,504.1,398.1,497.5,398.2,486.4z"/>
					
						<linearGradient id="SVGID_66_" gradientUnits="userSpaceOnUse" x1="377.1558" y1="2340.5315" x2="446.62" y2="2340.5315" gradientTransform="matrix(1 0 0 1 0 -1887.8506)">
						<stop  offset="0" style="stop-color:#F28500"/>
						<stop  offset="1" style="stop-color:#FBA905"/>
					</linearGradient>
					<path class="st68" d="M446.6,409.5c-7-3-14-6-21-9c-5-2.1-12.1,0.6-20,8.8c-15.5,16-28.2,46.4-28.4,68.1
						c-0.1,10.6,2.8,17.1,7.5,19.1c7,3,14,6,21,9c-4.8-2-7.6-8.5-7.5-19.1c0.3-21.7,13-52.1,28.4-68.1
						C434.5,410.1,441.6,407.4,446.6,409.5z"/>
					<path class="st3" d="M442.4,408.8c-4.5,0.3-9.9,3.4-15.8,9.5c-15.5,16-28.2,46.4-28.4,68.1c-0.1,10.6,2.7,17.1,7.5,19.1
						c-1.3-0.5-2.6-1.1-3.8-1.6c-3.3-3-5.1-8.9-5-17.5c0.3-21.7,13-52.1,28.4-68.1C431.8,411.6,437.7,408.5,442.4,408.8z"/>
					<path class="st6" d="M426.5,428c11.6-12,20.8-8.5,20.6,7.8c-0.2,16.3-9.8,39.2-21.4,51.1c-11.6,12-20.8,8.5-20.6-7.8
						C405.4,462.9,414.9,440,426.5,428"/>
					<path class="st7" d="M425.8,486.9c-5.7,5.9-10.9,8-14.6,6.8c3.4-0.2,7.4-2.5,11.8-7.1c11.6-12,21.2-34.9,21.4-51.1
						c0.1-8.3-2.2-13.2-6.1-14.5c5.4-0.4,8.9,4.8,8.8,14.9C447,452.1,437.4,475,425.8,486.9z"/>
					
						<linearGradient id="SVGID_67_" gradientUnits="userSpaceOnUse" x1="413.3379" y1="2384.2563" x2="441.1228" y2="2304.7021" gradientTransform="matrix(1 0 0 1 0 -1887.8506)">
						<stop  offset="0" style="stop-color:#FBCF0A"/>
						<stop  offset="1" style="stop-color:#FBA505"/>
					</linearGradient>
					<path class="st69" d="M437.1,457.4c0.7-2.3,1-4.6,1.1-6.7c0-2.1-0.3-3.6-1-4.5c-0.7-0.9-1.6-1.1-2.9-0.7s-2.7,1.5-4.3,3.2
						l-3.6,3.7c-0.1,0.1-0.2,0.1-0.2-0.1l0.1-10.6c0-0.2,0-0.4-0.1-0.4c-0.1,0-0.2,0-0.4,0.2l-5.3,5.5c-0.2,0.2-0.3,0.4-0.4,0.6
						c-0.1,0.2-0.1,0.4-0.1,0.7l-0.4,31.6c0,0.2,0,0.4,0.1,0.4s0.2,0,0.4-0.2l9.9-10.2c1.6-1.6,3-3.5,4.2-5.7
						C435.5,462,436.4,459.8,437.1,457.4z M431.1,455.4c0.5,0.1,0.7,0.6,0.7,1.6c0,1-0.3,2.1-0.8,3.3c-0.5,1.1-1.2,2.1-2,3l-2.8,2.9
						c-0.1,0.1-0.2,0.1-0.2-0.1l0.1-6.3c0-0.1,0.1-0.3,0.2-0.4l2.8-2.9C430,455.7,430.6,455.3,431.1,455.4"/>
				</g>
				<g>
					
						<image style="overflow:visible;enable-background:new    ;" width="613" height="625" xlink:href="A9132E26.png"  transform="matrix(0.2373 0 0 0.2373 469.004 337.9343)">
					</image>
				</g>
				<g>
					
						<linearGradient id="SVGID_68_" gradientUnits="userSpaceOnUse" x1="585.5765" y1="2120.2861" x2="638.622" y2="2117.9387" gradientTransform="matrix(1 0 0 1 0 -1887.8506)">
						<stop  offset="0" style="stop-color:#FBCF0A"/>
						<stop  offset="1" style="stop-color:#FBA505"/>
					</linearGradient>
					<path class="st70" d="M589.9,246c9.1,5.5,22,3.6,28.8-4.3c6.9-7.9,5.1-18.8-4-24.3c-9.1-5.5-22-3.6-28.8,4.3
						C579.1,229.6,580.9,240.4,589.9,246z"/>
					<path class="st5" d="M589.9,246c-3.3-2-5.6-4.7-6.9-7.8l33-20c4.9,3.5,7.3,8.7,6.9,13.9L596,248.4
						C593.9,247.9,591.8,247.1,589.9,246z"/>
					<path class="st6" d="M611.7,221c6.8,4.1,8.1,12.3,3,18.2c-5.2,5.9-14.9,7.4-21.7,3.2c-6.8-4.1-8.1-12.3-3-18.2
						C595.2,218.3,604.9,216.8,611.7,221"/>
					<path class="st7" d="M611.7,222.8c-6.8-4.1-16.5-2.7-21.7,3.2c-1.9,2.2-2.9,4.6-3.1,7.1c-0.3-3,0.8-6.2,3.1-8.9
						c5.2-5.9,14.9-7.4,21.7-3.2c4.3,2.6,6.4,6.9,6.1,11.1C617.5,228.5,615.4,225.1,611.7,222.8z"/>
					
						<linearGradient id="SVGID_69_" gradientUnits="userSpaceOnUse" x1="585.5871" y1="2120.5256" x2="638.6328" y2="2118.1782" gradientTransform="matrix(1 0 0 1 0 -1887.8506)">
						<stop  offset="0" style="stop-color:#FBCF0A"/>
						<stop  offset="1" style="stop-color:#FBA505"/>
					</linearGradient>
					<path class="st71" d="M605.3,239.8c0.9-0.4,1.7-0.9,2.4-1.7c0.7-0.8,1-1.6,1.2-2.4c0.1-0.8-0.1-1.6-0.5-2.4
						c-0.5-0.8-1.2-1.4-2.1-2L604,230c-0.1,0-0.1-0.1,0-0.1l3.4-3.9c0.1-0.1,0.1-0.2,0.1-0.2c0-0.1-0.1-0.1-0.2-0.2l-3.1-1.9
						c-0.1-0.1-0.2-0.1-0.3-0.1c-0.1,0-0.2,0.1-0.2,0.1l-10,11.5c-0.1,0.1-0.1,0.2-0.1,0.2c0,0.1,0.1,0.1,0.2,0.2l5.8,3.5
						c0.9,0.6,1.9,0.9,2.9,1C603.4,240.3,604.3,240.1,605.3,239.8z M604.3,234.6c0.1,0.4,0,0.8-0.3,1.1c-0.3,0.4-0.7,0.6-1.2,0.6
						s-1-0.1-1.5-0.4l-1.7-1c-0.1,0-0.1-0.1,0-0.1l2-2.3c0-0.1,0.1-0.1,0.2,0l1.7,1C603.9,233.8,604.2,234.2,604.3,234.6"/>
					
						<linearGradient id="SVGID_70_" gradientUnits="userSpaceOnUse" x1="581.84" y1="2129.772" x2="623.5322" y2="2129.772" gradientTransform="matrix(1 0 0 1 0 -1887.8506)">
						<stop  offset="0" style="stop-color:#F28500"/>
						<stop  offset="1" style="stop-color:#FBA905"/>
					</linearGradient>
					<path class="st72" d="M619.3,247c-6.9,7.9-19.8,9.8-28.9,4.3c-4.8-2.9-7.6-7.4-8.1-12c-0.2-1.8-0.4-3.5-0.6-5.3
						c0.5,4.7,3.3,9.1,8.1,12c9.1,5.5,22,3.6,28.8-4.3c3.2-3.7,4.5-8.1,4.1-12.2c0.2,1.8,0.4,3.5,0.6,5.3
						C623.9,238.9,622.6,243.3,619.3,247z"/>
					<path class="st3" d="M589.9,246.3c-4.4-2.7-7.1-6.7-7.9-11c0-0.5-0.1-0.9-0.2-1.4c0.5,4.7,3.3,9.1,8.1,12
						c9.1,5.5,22,3.6,28.8-4.3c2.8-3.2,4.1-6.9,4.2-10.5c0,3.7-1.3,7.6-4.2,10.9C611.9,250,599,251.9,589.9,246.3z"/>
				</g>
				<g>
					
						<linearGradient id="SVGID_71_" gradientUnits="userSpaceOnUse" x1="-1504.3726" y1="1621.9843" x2="-1352.1943" y2="1615.2501" gradientTransform="matrix(0.7579 -0.6524 0.6524 0.7579 744.079 -1721.9827)">
						<stop  offset="0" style="stop-color:#FBCF0A"/>
						<stop  offset="1" style="stop-color:#FBA505"/>
					</linearGradient>
					<path class="st73" d="M696.9,510c30-5,54.6-33.3,54.8-63.3s-24-50.3-54.1-45.3s-54.6,33.3-54.8,63.3
						C642.6,494.7,666.8,515,696.9,510z"/>
					<path class="st5" d="M696.9,510c-10.9,1.8-21.1,0.3-29.6-3.9l34.4-105.2c17.2-1.5,32.2,5.3,41.1,17.4l-28,85.8
						C709.1,507,703.1,509,696.9,510z"/>
					<path class="st6" d="M697.5,415c22.6-3.7,40.7,11.5,40.6,34c-0.1,22.5-18.5,43.8-41.1,47.5s-40.7-11.5-40.6-34
						C656.5,440,674.9,418.7,697.5,415"/>
					<path class="st7" d="M700.9,418.9c-22.6,3.7-41,25-41.1,47.5c0,8.2,2.3,15.5,6.5,21.2c-6.2-6.1-10-14.9-9.9-25.1
						c0.2-22.5,18.5-43.8,41.1-47.5c14.3-2.4,26.9,2.9,34.1,12.9C724.1,420.5,713.2,416.9,700.9,418.9z"/>
					
						<linearGradient id="SVGID_72_" gradientUnits="userSpaceOnUse" x1="-1504.3433" y1="1622.6304" x2="-1352.1667" y2="1615.8962" gradientTransform="matrix(0.7579 -0.6524 0.6524 0.7579 744.079 -1721.9827)">
						<stop  offset="0" style="stop-color:#FBCF0A"/>
						<stop  offset="1" style="stop-color:#FBA505"/>
					</linearGradient>
					<path class="st74" d="M718.6,467.9c1.3-2.5,2-5.2,2-8.2c0-2.9-0.6-5.4-2-7.4c-1.3-2-3.2-3.4-5.7-4.2c-2.4-0.8-5.2-1-8.4-0.4
						l-6.9,1.1c-0.2,0-0.3,0-0.3-0.3l0.1-14.7c0-0.3-0.1-0.5-0.3-0.7c-0.2-0.1-0.4-0.2-0.7-0.1l-10.3,1.7c-0.3,0-0.5,0.2-0.7,0.4
						s-0.3,0.5-0.3,0.8l-0.3,43.7c0,0.3,0.1,0.5,0.3,0.7c0.2,0.1,0.4,0.2,0.7,0.1l19.2-3.2c3.1-0.5,5.8-1.6,8.2-3.2
						C715.5,472.4,717.3,470.4,718.6,467.9z M706.9,458.3c1,0.7,1.5,1.7,1.5,3.1c0,1.4-0.5,2.7-1.5,3.7s-2.3,1.7-3.9,2l-5.5,0.9
						c-0.2,0-0.3,0-0.3-0.3l0.1-8.8c0-0.2,0.1-0.4,0.3-0.4l5.5-0.9C704.6,457.4,705.9,457.6,706.9,458.3"/>
					
						<linearGradient id="SVGID_73_" gradientUnits="userSpaceOnUse" x1="-1515.0553" y1="1649.2135" x2="-1395.47" y2="1649.2135" gradientTransform="matrix(0.7579 -0.6524 0.6524 0.7579 744.08 -1721.9827)">
						<stop  offset="0" style="stop-color:#F28500"/>
						<stop  offset="1" style="stop-color:#FBA905"/>
					</linearGradient>
					<path class="st75" d="M762.8,457.2c-0.2,30-24.7,58.3-54.8,63.3c-15.9,2.6-30.2-1.8-40.1-11.1c-3.7-3.5-7.4-6.9-11.1-10.4
						c9.9,9.2,24.2,13.7,40.1,11.1c30-5,54.6-33.3,54.8-63.3c0.1-14.1-5.2-26.1-14-34.3c3.7,3.5,7.4,6.9,11.1,10.4
						C757.5,431.1,762.8,443,762.8,457.2z"/>
					<path class="st3" d="M697.6,510.9c-14.7,2.4-28-1.2-37.8-9.1c-1-0.9-2-1.9-3-2.8c9.9,9.2,24.2,13.7,40.1,11.1
						c30-5,54.6-33.3,54.8-63.3c0.1-12.1-3.8-22.6-10.5-30.6c7.1,8,11.3,18.9,11.2,31.4C752.1,477.6,727.6,505.9,697.6,510.9z"/>
				</g>
				<g>
					
						<linearGradient id="SVGID_74_" gradientUnits="userSpaceOnUse" x1="118.1367" y1="2217.134" x2="190.4775" y2="2169.4329" gradientTransform="matrix(1 0 0 1 0 -1887.8506)">
						<stop  offset="0" style="stop-color:#FBCF0A"/>
						<stop  offset="1" style="stop-color:#FBA505"/>
					</linearGradient>
					<path class="st76" d="M137.8,325.6c19.1-9.5,40.2-25.1,47.1-34.8c6.9-9.7-3.1-9.8-22.2-0.2s-40.2,25.1-47.1,34.8
						C108.8,335.1,118.7,335.2,137.8,325.6z"/>
					<path class="st5" d="M137.8,325.6c-1.1,0.5-2.1,1-3.1,1.5l23.8-34.3c1.4-0.8,2.8-1.5,4.2-2.2c19.1-9.6,29-9.5,22.2,0.2
						C178,300.5,156.9,316.1,137.8,325.6z"/>
					<path class="st6" d="M140.9,321.3c14.4-7.2,30.2-18.9,35.3-26.1s-2.3-7.3-16.6-0.1s-30.2,18.9-35.3,26.1
						C119.1,328.4,126.6,328.4,140.9,321.3z"/>
					<path class="st7" d="M176.2,295.1c-5.2,7.3-21,19-35.3,26.1c-11.6,5.8-18.7,6.9-18.3,3.2c2.8,0.4,8.6-1.4,16.4-5.3
						c14.4-7.2,30.2-18.9,35.3-26.1c1-1.4,1.5-2.5,1.6-3.4C178.3,290,178.6,291.8,176.2,295.1z"/>
					
						<linearGradient id="SVGID_75_" gradientUnits="userSpaceOnUse" x1="118.1698" y1="2217.1831" x2="190.5218" y2="2169.4746" gradientTransform="matrix(1 0 0 1 0 -1887.8506)">
						<stop  offset="0" style="stop-color:#FBCF0A"/>
						<stop  offset="1" style="stop-color:#FBA505"/>
					</linearGradient>
					<path class="st77" d="M160.3,306.3c1.4-1.1,2.4-2.2,3-3.1c0.7-0.9,0.8-1.5,0.5-1.8s-1.2-0.2-2.4,0.1c-1.3,0.4-2.9,1.1-4.9,2.1
						l-4.4,2.2c-0.1,0.1-0.2,0.1-0.1,0l3.4-4.7c0.1-0.1,0.1-0.1,0-0.1s-0.2,0-0.4,0.1l-6.6,3.3c-0.2,0.1-0.4,0.2-0.5,0.3
						c-0.1,0.1-0.3,0.2-0.3,0.3l-10,14.1c-0.1,0.1-0.1,0.1,0,0.1s0.2,0,0.4-0.1L150,313c2-1,3.9-2,5.6-3.2
						C157.4,308.6,159,307.5,160.3,306.3z M155.5,306.4c0.4,0,0.5,0.2,0.2,0.6c-0.3,0.5-0.9,1-1.7,1.6c-0.8,0.6-1.8,1.1-2.8,1.7
						l-3.5,1.8c-0.1,0.1-0.2,0.1-0.1,0l2-2.8c0.1-0.1,0.1-0.1,0.3-0.2l3.5-1.8C154.3,306.7,155,306.4,155.5,306.4"/>
					
						<linearGradient id="SVGID_76_" gradientUnits="userSpaceOnUse" x1="102.5203" y1="2186.8521" x2="186.71" y2="2186.8521" gradientTransform="matrix(1 0 0 1 0 -1887.8506)">
						<stop  offset="0" style="stop-color:#F28500"/>
						<stop  offset="1" style="stop-color:#FBA905"/>
					</linearGradient>
					<path class="st78" d="M186.7,284.7c-3.6-5.7-7.3-11.4-10.9-17c-1.8-2.7-10.6-0.8-24,5.9c-19.1,9.5-40.2,25.1-47.1,34.8
						c-2.1,2.9-2.6,4.9-1.9,6.1l10.9,17c-0.8-1.2-0.2-3.2,1.9-6.1c6.9-9.7,27.9-25.2,47.1-34.8C176.1,283.9,184.9,282,186.7,284.7z"
						/>
					<path class="st3" d="M186,284c-2.8-1.6-11.2,0.6-23.3,6.6c-19.1,9.5-40.2,25.1-47.1,34.8c-2.1,2.9-2.6,4.9-1.9,6.1l-0.9-1.4
						c-0.1-1.2,0.6-3,2.2-5.2c6.9-9.7,27.9-25.2,47.1-34.8C175.2,283.6,183.9,281.6,186,284z"/>
				</g>
				<g>
					
						<image style="overflow:visible;enable-background:new    ;" width="604" height="667" xlink:href="A9132E24.png"  transform="matrix(0.2376 0 0 0.2376 -103.4999 249.0894)">
					</image>
				</g>
				<g>
					
						<image style="overflow:visible;enable-background:new    ;" width="504" height="508" xlink:href="A9132E23.png"  transform="matrix(0.2381 0 0 0.2381 -14.4637 211.9343)">
					</image>
				</g>
				<g>
					
						<linearGradient id="SVGID_77_" gradientUnits="userSpaceOnUse" x1="735.2644" y1="2245.4929" x2="684.9833" y2="2171.7473" gradientTransform="matrix(1 0 0 1 0 -1887.8506)">
						<stop  offset="0" style="stop-color:#FBCF0A"/>
						<stop  offset="1" style="stop-color:#FBA505"/>
					</linearGradient>
					<path class="st79" d="M722,367.6c14,10.4,25.2,5.5,25.2-11c-0.1-16.4-11.5-38.1-25.5-48.5c-14-10.4-25.2-5.5-25.2,11
						C696.6,335.6,708,357.3,722,367.6z"/>
					<path class="st5" d="M733,319.7c7,9.3,12.2,20.9,13.7,31.3l-15,21.6c-3-0.8-6.3-2.4-9.7-4.9c-4.7-3.5-9.1-8.2-12.8-13.6
						L733,319.7z"/>
					
						<linearGradient id="SVGID_78_" gradientUnits="userSpaceOnUse" x1="702.95" y1="2221.2224" x2="761.1605" y2="2221.2224" gradientTransform="matrix(1 0 0 1 0 -1887.8506)">
						<stop  offset="0" style="stop-color:#F28500"/>
						<stop  offset="1" style="stop-color:#FBA905"/>
					</linearGradient>
					<path class="st80" d="M740.7,371.8c4.7-2.6,9.3-5.2,14-7.8c4-2.3,6.5-7.4,6.5-15.1c-0.1-16.4-11.5-38.1-25.5-48.5
						c-7.4-5.5-14.1-6.7-18.7-4.1c-4.7,2.6-9.3,5.2-14,7.8c4.6-2.6,11.3-1.4,18.7,4.1c14,10.4,25.4,32.1,25.5,48.5
						C747.2,364.4,744.7,369.5,740.7,371.8z"/>
					<path class="st3" d="M742.5,370.5c3-2.7,4.7-7.3,4.7-13.8c-0.1-16.4-11.5-38.1-25.5-48.5c-7.4-5.5-14.1-6.7-18.7-4.1
						c0.8-0.4,1.5-0.9,2.3-1.3c4.5-1.5,10.5-0.1,17.1,4.8c14,10.4,25.4,32.1,25.5,48.5C747.9,363.1,745.9,368,742.5,370.5z"/>
					<path class="st6" d="M721.9,360.2c10.5,7.8,19,4.1,18.9-8.2c-0.1-12.3-8.6-28.6-19.1-36.4s-19-4.1-18.9,8.2
						C702.9,336.1,711.4,352.5,721.9,360.2z"/>
					<path class="st7" d="M706.4,323.6c0.1,12.3,8.6,28.6,19.1,36.4c3.2,2.4,6.3,3.7,8.9,4c-3.3,1-7.7-0.2-12.5-3.8
						c-10.5-7.8-19.1-24.1-19.1-36.4c0-8.5,4-12.9,10-12.2C708.8,312.7,706.3,316.9,706.4,323.6z"/>
					
						<linearGradient id="SVGID_79_" gradientUnits="userSpaceOnUse" x1="734.3121" y1="2246.1423" x2="684.0316" y2="2172.3977" gradientTransform="matrix(1 0 0 1 0 -1887.8506)">
						<stop  offset="0" style="stop-color:#FBCF0A"/>
						<stop  offset="1" style="stop-color:#FBA505"/>
					</linearGradient>
					<path class="st81" d="M731.9,353.9c0.6-0.8,0.9-2,0.9-3.6c0-1.6-0.3-3.2-1-4.9c-0.6-1.7-1.5-3.3-2.7-4.8
						c-1.1-1.5-2.5-2.8-3.9-3.9l-3.2-2.4c-0.1-0.1-0.2-0.2-0.2-0.3l0-8c0-0.2,0-0.3-0.1-0.5c-0.1-0.1-0.2-0.3-0.3-0.4l-4.8-3.6
						c-0.1-0.1-0.3-0.1-0.3-0.1s-0.1,0.1-0.1,0.3l0.1,23.9c0,0.2,0,0.3,0.1,0.5c0.1,0.2,0.2,0.3,0.3,0.4l8.9,6.6
						c1.4,1.1,2.7,1.7,3.8,1.8C730.4,355.1,731.3,354.7,731.9,353.9z M726.4,343.6c0.5,0.8,0.7,1.6,0.7,2.4c0,0.8-0.2,1.3-0.7,1.4
						c-0.5,0.1-1.1-0.1-1.8-0.6l-2.6-1.9c-0.1-0.1-0.2-0.2-0.2-0.3l0-4.8c0-0.1,0-0.1,0.2-0.1l2.6,1.9
						C725.3,342.1,725.9,342.8,726.4,343.6"/>
				</g>
				<g>
					
						<image style="overflow:visible;enable-background:new    ;" width="679" height="708" xlink:href="A9132E3D.png"  transform="matrix(0.2382 0 0 0.2382 390.6601 230.5599)">
					</image>
				</g>
				<g>
					
						<image style="overflow:visible;enable-background:new    ;" width="679" height="675" xlink:href="A9132E3E.png"  transform="matrix(0.2382 0 0 0.2382 639.1837 144.9743)">
					</image>
				</g>
				<g>
					
						<linearGradient id="SVGID_80_" gradientUnits="userSpaceOnUse" x1="750.1101" y1="2024.0654" x2="659.9456" y2="1992.071" gradientTransform="matrix(1 0 0 1 0 -1887.8506)">
						<stop  offset="0" style="stop-color:#FBCF0A"/>
						<stop  offset="1" style="stop-color:#FBA505"/>
					</linearGradient>
					<path class="st82" d="M703.9,139.6c23.9,6,49.1,4.1,56.3-4.3c7.2-8.4-6.4-20-30.3-26.1c-23.9-6-49.1-4.1-56.3,4.3
						C666.5,121.9,680,133.6,703.9,139.6z"/>
					<path class="st5" d="M730.4,143.1c-8.3-0.1-17.5-1.2-26.5-3.5c-3.8-0.9-7.3-2.1-10.5-3.3l20.7-29.9c5.2,0.6,10.5,1.5,15.8,2.8
						c7.5,1.9,13.9,4.3,19,7L730.4,143.1z"/>
					
						<linearGradient id="SVGID_81_" gradientUnits="userSpaceOnUse" x1="671.8" y1="1996.5443" x2="765.2422" y2="1996.5443" gradientTransform="matrix(1 0 0 1 0 -1887.8506)">
						<stop  offset="0" style="stop-color:#F28500"/>
						<stop  offset="1" style="stop-color:#FBA905"/>
					</linearGradient>
					<path class="st83" d="M762,131.5l3.2-19.9c1.2-7.8-11.6-17.1-32.1-22.3c-23.9-6-49.1-4.1-56.3,4.3c-1,1.2-1.6,2.5-1.8,3.8
						l-3.2,19.9c0.2-1.3,0.8-2.6,1.8-3.8c7.2-8.4,32.4-10.3,56.3-4.3C750.4,114.4,763.3,123.7,762,131.5z"/>
					<path class="st3" d="M729.9,108.1c20.1,5.1,32.8,14.1,32.1,21.8c-0.7-7.4-13.1-15.8-32.1-20.6c-23.9-6-49.1-4.1-56.3,4.3
						c-1,1.2-1.6,2.5-1.8,3.8l0.4-2.7c0.3-0.8,0.8-1.5,1.4-2.3C680.8,104,706,102.1,729.9,108.1z"/>
					<path class="st6" d="M707.1,135.8c17.9,4.5,36.9,3.1,42.3-3.2c5.4-6.3-4.8-15-22.7-19.6c-17.9-4.5-36.9-3.1-42.3,3.2
						C679,122.5,689.2,131.3,707.1,135.8z"/>
					<path class="st7" d="M707.2,133.1c17.9,4.5,36.9,3.1,42.3-3.2c0.6-0.7,1-1.5,1.2-2.2c0.4,1.7,0,3.4-1.3,4.9
						c-5.4,6.3-24.3,7.7-42.3,3.2c-15.9-4-25.7-11.3-24-17.3C684.5,123.9,693.6,129.7,707.2,133.1z"/>
					
						<linearGradient id="SVGID_82_" gradientUnits="userSpaceOnUse" x1="749.9558" y1="2024.4988" x2="659.7932" y2="1992.5051" gradientTransform="matrix(1 0 0 1 0 -1887.8506)">
						<stop  offset="0" style="stop-color:#FBCF0A"/>
						<stop  offset="1" style="stop-color:#FBA505"/>
					</linearGradient>
					<path class="st84" d="M730.2,133.1c1.6-0.4,2.7-1,3.4-1.8c0.7-0.8,0.8-1.7,0.2-2.6c-0.5-0.9-1.6-1.8-3.3-2.6
						c-1.7-0.8-3.7-1.6-6.3-2.2l-5.5-1.4c-0.2,0-0.2-0.1-0.2-0.2l3.5-4.1c0.1-0.1,0.1-0.2,0-0.3c-0.1-0.1-0.3-0.2-0.5-0.2l-8.2-2.1
						c-0.2-0.1-0.5-0.1-0.6-0.1c-0.2,0-0.3,0.1-0.4,0.2l-10.5,12.2c-0.1,0.1-0.1,0.2,0,0.3s0.3,0.2,0.5,0.2l15.2,3.8
						c2.5,0.6,4.8,1,7,1.1C726.8,133.6,728.7,133.5,730.2,133.1z M723.6,127.6c0.6,0.4,0.7,0.8,0.4,1.2c-0.3,0.4-1,0.6-2,0.7
						s-2.1-0.1-3.4-0.4l-4.4-1.1c-0.2,0-0.2-0.1-0.2-0.2l2.1-2.4c0-0.1,0.2-0.1,0.3,0l4.4,1.1C722.1,126.7,723.1,127.1,723.6,127.6"
						/>
				</g>
				<g>
					
						<image style="overflow:visible;enable-background:new    ;" width="875" height="654" xlink:href="A9132E3C.png"  transform="matrix(0.2381 0 0 0.2381 -128.2199 388.3621)">
					</image>
				</g>
				<g>
					
						<image style="overflow:visible;enable-background:new    ;" width="617" height="621" xlink:href="A9132E27.png"  transform="matrix(0.2369 0 0 0.2369 -100.1399 -51.3395)">
					</image>
				</g>
				<g>
					
						<linearGradient id="SVGID_83_" gradientUnits="userSpaceOnUse" x1="34.18" y1="2276.6145" x2="87.2962" y2="2276.6145" gradientTransform="matrix(1 0 0 1 0 -1887.8506)">
						<stop  offset="0" style="stop-color:#F28500"/>
						<stop  offset="1" style="stop-color:#FBA905"/>
					</linearGradient>
					<path class="st85" d="M84.6,404.9c0.8-3.2,1.6-6.4,2.4-9.6c0.5-1.9,0.4-3.9-0.4-6c-3.2-9-17-16.4-30.7-16.6
						c-10.5-0.1-17.9,4.1-19.4,10c-0.8,3.2-1.6,6.4-2.4,9.6c1.5-6,8.9-10.1,19.4-10c13.7,0.1,27.4,7.6,30.7,16.6
						C85,401,85.1,403,84.6,404.9z"/>
					<path class="st3" d="M53.5,381.6c13.7,0.1,27.4,7.6,30.7,16.6c0.5,1.4,0.7,2.8,0.7,4.1c0-1.1-0.3-2.3-0.7-3.5
						c-3.2-9-17-16.5-30.7-16.6c-10.5-0.1-17.9,4.1-19.4,10c0.2-0.8,0.4-1.5,0.6-2.3C37.1,385,44.1,381.5,53.5,381.6z"/>
					
						<linearGradient id="SVGID_84_" gradientUnits="userSpaceOnUse" x1="72.7213" y1="2281.8948" x2="13.8486" y2="2302.1101" gradientTransform="matrix(1 0 0 1 0 -1887.8506)">
						<stop  offset="0" style="stop-color:#FBCF0A"/>
						<stop  offset="1" style="stop-color:#FBA505"/>
					</linearGradient>
					<path class="st86" d="M65.3,415c13.7,0.1,22.2-7.1,18.9-16.1s-17-16.5-30.7-16.6c-13.7-0.1-22.2,7.1-19,16.1
						C37.8,407.4,51.5,414.8,65.3,415z"/>
					<path class="st5" d="M42.1,407.5l17.2-24.8c7,1.1,13.6,3.9,18.4,7.7l-16.8,24.2C53.8,413.8,47,411.2,42.1,407.5z"/>
					<path class="st6" d="M63.8,410.9c10.3,0.1,16.7-5.3,14.2-12.1c-2.4-6.8-12.7-12.4-23-12.5s-16.6,5.3-14.2,12.1
						C43.2,405.2,53.5,410.8,63.8,410.9z"/>
					<path class="st7" d="M42.7,396.5c2.4,6.8,12.7,12.4,23,12.5c4.8,0,8.8-1.1,11.4-3.1c-2.3,3.1-7.1,5-13.3,5
						c-10.3-0.1-20.6-5.7-23-12.5c-1.3-3.6-0.1-6.8,2.8-9C42.1,391.4,41.7,393.9,42.7,396.5z"/>
					
						<linearGradient id="SVGID_85_" gradientUnits="userSpaceOnUse" x1="72.734" y1="2281.9326" x2="13.8606" y2="2302.1482" gradientTransform="matrix(1 0 0 1 0 -1887.8506)">
						<stop  offset="0" style="stop-color:#FBCF0A"/>
						<stop  offset="1" style="stop-color:#FBA505"/>
					</linearGradient>
					<path class="st87" d="M70.9,403.4c0.3-0.7,0.3-1.5,0-2.4c-0.3-0.9-0.9-1.6-1.8-2.3s-1.9-1.2-3.2-1.6c-1.3-0.4-2.6-0.6-4-0.6
						l-3.2,0c-0.1,0-0.2,0-0.2-0.1L57,392c0-0.1-0.1-0.2-0.2-0.2c-0.1-0.1-0.2-0.1-0.4-0.1l-4.7,0c-0.1,0-0.2,0-0.3,0.1
						c-0.1,0-0.1,0.1,0,0.2l4.7,13.2c0,0.1,0.1,0.2,0.2,0.2c0.1,0,0.2,0.1,0.4,0.1l8.7,0.1c1.4,0,2.6-0.2,3.5-0.5
						C69.9,404.6,70.6,404.1,70.9,403.4z M64.3,399.9c0.5,0.3,0.9,0.6,1,1c0.2,0.4,0.1,0.8-0.3,1c-0.4,0.3-0.9,0.4-1.6,0.4l-2.5,0
						c-0.1,0-0.2,0-0.2-0.1l-0.9-2.6c0-0.1,0-0.1,0.1-0.1l2.5,0C63.1,399.5,63.8,399.7,64.3,399.9"/>
				</g>
				<g>
					
						<linearGradient id="SVGID_86_" gradientUnits="userSpaceOnUse" x1="596.11" y1="2202.7646" x2="646.5731" y2="2202.7646" gradientTransform="matrix(1 0 0 1 0 -1887.8506)">
						<stop  offset="0" style="stop-color:#F28500"/>
						<stop  offset="1" style="stop-color:#FBA905"/>
					</linearGradient>
					<path class="st88" d="M644,330.3c0.8-3.1,1.5-6.1,2.3-9.2c0.4-1.8,0.3-3.7-0.4-5.7c-3.1-8.6-16.1-15.6-29.1-15.8
						c-9.9-0.1-17,3.9-18.4,9.5c-0.8,3.1-1.5,6.1-2.3,9.2c1.4-5.7,8.5-9.6,18.4-9.5c13,0.1,26.1,7.2,29.1,15.8
						C644.4,326.5,644.5,328.5,644,330.3z"/>
					<path class="st3" d="M614.5,308.1c13,0.1,26.1,7.2,29.1,15.8c0.5,1.4,0.7,2.6,0.6,3.9c0-1-0.2-2.1-0.6-3.3
						c-3.1-8.6-16.1-15.6-29.1-15.8c-9.9-0.1-17,3.9-18.4,9.5c0.2-0.7,0.4-1.4,0.5-2.2C598.9,311.3,605.5,308,614.5,308.1z"/>
					
						<linearGradient id="SVGID_87_" gradientUnits="userSpaceOnUse" x1="632.7229" y1="2207.7734" x2="576.7823" y2="2226.9819" gradientTransform="matrix(1 0 0 1 0 -1887.8506)">
						<stop  offset="0" style="stop-color:#FBCF0A"/>
						<stop  offset="1" style="stop-color:#FBA505"/>
					</linearGradient>
					<path class="st89" d="M625.6,339.8c13,0.1,21.1-6.7,18-15.3c-3.1-8.6-16.1-15.6-29.1-15.8c-13-0.1-21.1,6.7-18,15.3
						C599.6,332.6,612.6,339.7,625.6,339.8z"/>
					<path class="st5" d="M603.6,332.7l16.3-23.5c6.7,1,13,3.7,17.5,7.3l-16,23C614.8,338.7,608.3,336.2,603.6,332.7z"/>
					<path class="st6" d="M624.2,335.9c9.8,0.1,15.8-5,13.5-11.5s-12.1-11.7-21.9-11.8c-9.8-0.1-15.8,5-13.5,11.5
						C604.7,330.5,614.5,335.8,624.2,335.9z"/>
					<path class="st7" d="M604.2,322.3c2.3,6.4,12.1,11.7,21.9,11.8c4.6,0,8.4-1.1,10.8-2.9c-2.2,2.9-6.7,4.8-12.6,4.7
						c-9.8-0.1-19.6-5.4-21.9-11.8c-1.2-3.4-0.1-6.5,2.7-8.5C603.7,317.4,603.3,319.8,604.2,322.3z"/>
					
						<linearGradient id="SVGID_88_" gradientUnits="userSpaceOnUse" x1="632.7313" y1="2207.7961" x2="576.7886" y2="2227.0051" gradientTransform="matrix(1 0 0 1 0 -1887.8506)">
						<stop  offset="0" style="stop-color:#FBCF0A"/>
						<stop  offset="1" style="stop-color:#FBA505"/>
					</linearGradient>
					<path class="st90" d="M631,328.9c0.3-0.6,0.3-1.4,0-2.2c-0.3-0.8-0.8-1.6-1.7-2.2c-0.8-0.6-1.8-1.1-3-1.5s-2.5-0.5-3.8-0.6
						l-3,0c-0.1,0-0.2,0-0.2-0.1l-1.5-4.2c0-0.1-0.1-0.1-0.2-0.2c-0.1,0-0.2-0.1-0.3-0.1l-4.5,0c-0.1,0-0.2,0-0.3,0.1
						c-0.1,0-0.1,0.1,0,0.2l4.5,12.5c0,0.1,0.1,0.1,0.2,0.2c0.1,0,0.2,0.1,0.3,0.1l8.3,0.1c1.3,0,2.5-0.1,3.3-0.5
						C630,330,630.7,329.5,631,328.9z M624.7,325.5c0.5,0.2,0.8,0.6,1,1c0.2,0.4,0,0.7-0.3,1c-0.3,0.2-0.8,0.4-1.5,0.4l-2.4,0
						c-0.1,0-0.2,0-0.2-0.1l-0.9-2.5c0-0.1,0-0.1,0.1-0.1l2.4,0C623.6,325.1,624.2,325.3,624.7,325.5"/>
				</g>
				<g>
					
						<linearGradient id="SVGID_89_" gradientUnits="userSpaceOnUse" x1="239.37" y1="2190.8347" x2="289.8331" y2="2190.8347" gradientTransform="matrix(1 0 0 1 0 -1887.8506)">
						<stop  offset="0" style="stop-color:#F28500"/>
						<stop  offset="1" style="stop-color:#FBA905"/>
					</linearGradient>
					<path class="st91" d="M287.3,318.3c0.8-3.1,1.5-6.1,2.3-9.2c0.4-1.8,0.3-3.7-0.4-5.7c-3.1-8.6-16.1-15.6-29.1-15.8
						c-9.9-0.1-17,3.9-18.4,9.5c-0.8,3.1-1.5,6.1-2.3,9.2c1.4-5.7,8.5-9.6,18.4-9.5c13,0.1,26.1,7.2,29.1,15.8
						C287.6,314.6,287.7,316.5,287.3,318.3z"/>
					<path class="st3" d="M257.8,296.2c13,0.1,26.1,7.2,29.1,15.8c0.5,1.4,0.7,2.6,0.6,3.9c0-1-0.2-2.1-0.6-3.3
						c-3.1-8.6-16.1-15.6-29.1-15.8c-9.9-0.1-17,3.9-18.4,9.5c0.2-0.7,0.4-1.4,0.5-2.2C242.1,299.4,248.8,296.1,257.8,296.2z"/>
					
						<linearGradient id="SVGID_90_" gradientUnits="userSpaceOnUse" x1="275.9847" y1="2195.8428" x2="220.0441" y2="2215.0515" gradientTransform="matrix(1 0 0 1 0 -1887.8506)">
						<stop  offset="0" style="stop-color:#FBCF0A"/>
						<stop  offset="1" style="stop-color:#FBA505"/>
					</linearGradient>
					<path class="st92" d="M268.9,327.9c13,0.1,21.1-6.7,18-15.3c-3.1-8.6-16.1-15.6-29.1-15.8c-13-0.1-21.1,6.7-18,15.3
						C242.8,320.7,255.9,327.7,268.9,327.9z"/>
					<path class="st5" d="M246.9,320.8l16.3-23.5c6.7,1,13,3.7,17.5,7.3l-16,23C258,326.8,251.6,324.3,246.9,320.8z"/>
					<path class="st6" d="M267.5,324c9.8,0.1,15.8-5,13.5-11.5s-12.1-11.7-21.9-11.8c-9.8-0.1-15.8,5-13.5,11.5
						C247.9,318.6,257.7,323.9,267.5,324z"/>
					<path class="st7" d="M247.4,310.4c2.3,6.4,12.1,11.7,21.9,11.8c4.6,0,8.4-1.1,10.8-2.9c-2.2,2.9-6.7,4.8-12.6,4.7
						c-9.8-0.1-19.6-5.4-21.9-11.8c-1.2-3.4-0.1-6.5,2.7-8.5C246.9,305.5,246.5,307.8,247.4,310.4z"/>
					
						<linearGradient id="SVGID_91_" gradientUnits="userSpaceOnUse" x1="275.993" y1="2195.8655" x2="220.0503" y2="2215.0747" gradientTransform="matrix(1 0 0 1 0 -1887.8506)">
						<stop  offset="0" style="stop-color:#FBCF0A"/>
						<stop  offset="1" style="stop-color:#FBA505"/>
					</linearGradient>
					<path class="st93" d="M274.2,316.9c0.3-0.6,0.3-1.4,0-2.2c-0.3-0.8-0.9-1.6-1.7-2.2c-0.8-0.6-1.8-1.1-3-1.5s-2.5-0.5-3.8-0.6
						l-3,0c-0.1,0-0.1,0-0.2-0.1l-1.5-4.2c0-0.1-0.1-0.1-0.2-0.2c-0.1,0-0.2-0.1-0.3-0.1l-4.5,0c-0.1,0-0.2,0-0.3,0.1
						c-0.1,0-0.1,0.1,0,0.2l4.5,12.5c0,0.1,0.1,0.1,0.2,0.2c0.1,0,0.2,0.1,0.3,0.1l8.3,0.1c1.3,0,2.5-0.1,3.4-0.5
						C273.3,318.1,273.9,317.6,274.2,316.9z M268,313.6c0.5,0.2,0.8,0.6,1,1c0.1,0.4,0,0.7-0.3,1c-0.3,0.2-0.9,0.4-1.5,0.4l-2.4,0
						c-0.1,0-0.1,0-0.2-0.1l-0.9-2.5c0-0.1,0-0.1,0.1-0.1l2.4,0C266.9,313.2,267.5,313.3,268,313.6"/>
				</g>
				<g>
					
						<linearGradient id="SVGID_92_" gradientUnits="userSpaceOnUse" x1="-15.28" y1="1947.9297" x2="35.1831" y2="1947.9297" gradientTransform="matrix(1 0 0 1 0 -1887.8506)">
						<stop  offset="0" style="stop-color:#F28500"/>
						<stop  offset="1" style="stop-color:#FBA905"/>
					</linearGradient>
					<path class="st94" d="M32.6,75.4c0.8-3.1,1.5-6.1,2.3-9.2c0.4-1.8,0.3-3.7-0.4-5.7c-3.1-8.6-16.1-15.6-29.1-15.8
						c-9.9-0.1-17,3.8-18.4,9.5c-0.8,3.1-1.5,6.1-2.3,9.2c1.4-5.7,8.5-9.6,18.4-9.5c13,0.1,26.1,7.2,29.1,15.8
						C33,71.7,33.1,73.6,32.6,75.4z"/>
					<path class="st3" d="M3.1,53.3c13,0.1,26.1,7.2,29.1,15.8c0.5,1.3,0.7,2.7,0.6,3.9c0-1.1-0.2-2.2-0.6-3.3
						C29.2,61.1,16.1,54,3.1,53.9c-9.9-0.1-17,3.9-18.4,9.5c0.2-0.7,0.4-1.4,0.5-2.2C-12.5,56.5-5.9,53.2,3.1,53.3z"/>
					
						<linearGradient id="SVGID_93_" gradientUnits="userSpaceOnUse" x1="21.3325" y1="1952.9436" x2="-34.6082" y2="1972.1521" gradientTransform="matrix(1 0 0 1 0 -1887.8506)">
						<stop  offset="0" style="stop-color:#FBCF0A"/>
						<stop  offset="1" style="stop-color:#FBA505"/>
					</linearGradient>
					<path class="st95" d="M14.2,85c13,0.1,21.1-6.7,18-15.3C29.2,61.1,16.1,54,3.1,53.9s-21.1,6.7-18,15.3
						C-11.8,77.8,1.2,84.8,14.2,85z"/>
					<path class="st5" d="M-7.8,77.9L8.5,54.4c6.7,1,13,3.7,17.5,7.3l-16,23C3.4,83.9-3.1,81.4-7.8,77.9z"/>
					<path class="st6" d="M12.9,81.1c9.8,0.1,15.8-5,13.5-11.5S14.3,57.9,4.5,57.8c-9.8-0.1-15.8,5-13.5,11.5
						C-6.7,75.7,3.1,81,12.9,81.1z"/>
					<path class="st7" d="M-7.2,67.5c2.3,6.4,12.1,11.7,21.9,11.8c4.6,0,8.4-1.1,10.8-2.9c-2.2,2.9-6.7,4.8-12.6,4.7
						C3.1,81-6.7,75.7-9,69.3c-1.2-3.4-0.1-6.5,2.7-8.5C-7.7,62.6-8.1,64.9-7.2,67.5z"/>
					
						<linearGradient id="SVGID_94_" gradientUnits="userSpaceOnUse" x1="21.3438" y1="1952.9751" x2="-34.5988" y2="1972.1843" gradientTransform="matrix(1 0 0 1 0 -1887.8506)">
						<stop  offset="0" style="stop-color:#FBCF0A"/>
						<stop  offset="1" style="stop-color:#FBA505"/>
					</linearGradient>
					<path class="st96" d="M19.6,74c0.3-0.7,0.3-1.4,0-2.2c-0.3-0.8-0.9-1.6-1.7-2.2c-0.8-0.6-1.8-1.1-3-1.5s-2.5-0.6-3.8-0.6l-3,0
						c-0.1,0-0.2,0-0.2-0.1l-1.5-4.2c0-0.1-0.1-0.2-0.2-0.2c-0.1,0-0.2-0.1-0.3-0.1l-4.5,0c-0.1,0-0.2,0-0.3,0.1s-0.1,0.1,0,0.2
						l4.5,12.5c0,0.1,0.1,0.2,0.2,0.2c0.1,0.1,0.2,0.1,0.3,0.1l8.3,0.1c1.3,0,2.5-0.2,3.4-0.5C18.7,75.2,19.3,74.7,19.6,74z
						 M13.3,70.7c0.5,0.2,0.8,0.6,1,1c0.1,0.4,0.1,0.7-0.3,1c-0.3,0.2-0.9,0.4-1.6,0.3l-2.4,0c-0.1,0-0.1,0-0.2-0.1L9,70.4
						c0-0.1,0-0.1,0.1-0.1l2.4,0C12.2,70.3,12.8,70.4,13.3,70.7"/>
				</g>
				<g>
					
						<linearGradient id="SVGID_95_" gradientUnits="userSpaceOnUse" x1="55.7673" y1="2061.6289" x2="42.83" y2="1992.1445" gradientTransform="matrix(1 0 0 1 0 -1887.8506)">
						<stop  offset="0" style="stop-color:#FBCF0A"/>
						<stop  offset="1" style="stop-color:#FBA505"/>
					</linearGradient>
					<path class="st97" d="M59.7,196.8c-21.7-6.8-41.8-27.1-45-45.3s11.8-27.5,33.5-20.6c21.7,6.8,41.8,27.1,45,45.3
						S81.4,203.6,59.7,196.8z"/>
					<path class="st5" d="M58.9,196.5c-10.7-3.5-21-10.3-29-18.5l29.4-42.5c10.4,5.6,19.8,13.8,26.1,22.9L58.9,196.5z"/>
					<path class="st6" d="M58.2,188.6c16.3,5.1,27.5-1.8,25.2-15.5c-2.4-13.7-17.5-28.9-33.8-34c-16.3-5.1-27.6,1.8-25.2,15.5
						C26.8,168.3,42,183.5,58.2,188.6z"/>
					<path class="st7" d="M79.6,186.5c1.2-2.6,1.6-5.9,0.9-9.6c-2.4-13.7-17.5-28.9-33.8-34c-9.3-2.9-17-1.9-21.4,2.1
						c3.2-6.9,12.4-9.6,24.2-5.9c16.3,5.1,31.4,20.4,33.8,34C84.4,178.9,82.9,183.6,79.6,186.5z"/>
					
						<linearGradient id="SVGID_96_" gradientUnits="userSpaceOnUse" x1="59.3327" y1="2060.9636" x2="46.3956" y2="1991.4799" gradientTransform="matrix(1 0 0 1 0 -1887.8506)">
						<stop  offset="0" style="stop-color:#FBCF0A"/>
						<stop  offset="1" style="stop-color:#FBA505"/>
					</linearGradient>
					<path class="st98" d="M71.1,178.2c0.7-1.1,0.9-2.5,0.6-4.3c-0.3-1.8-1.1-3.5-2.3-5.1c-1.2-1.6-2.8-3.1-4.7-4.4s-4-2.3-6.3-3
						l-5-1.6c-0.2-0.1-0.3-0.1-0.3-0.3l-1.6-8.9c0-0.2-0.1-0.4-0.3-0.5s-0.3-0.3-0.5-0.3l-7.5-2.3c-0.2-0.1-0.4-0.1-0.5,0
						c-0.1,0.1-0.1,0.2-0.1,0.4l4.6,26.6c0,0.2,0.1,0.4,0.3,0.5s0.3,0.3,0.5,0.3l13.8,4.3c2.2,0.7,4.1,0.9,5.7,0.7
						C69.3,180,70.4,179.3,71.1,178.2z M61.4,168.6c0.8,0.7,1.3,1.5,1.4,2.4c0.2,0.9-0.1,1.5-0.7,1.8c-0.6,0.3-1.5,0.3-2.7-0.1
						l-4-1.2c-0.2-0.1-0.3-0.1-0.3-0.3l-0.9-5.3c0-0.1,0-0.2,0.2-0.1l4,1.3C59.6,167.3,60.6,167.9,61.4,168.6"/>
					
						<linearGradient id="SVGID_97_" gradientUnits="userSpaceOnUse" x1="3.2436" y1="2062.2002" x2="90.05" y2="2062.2002" gradientTransform="matrix(1 0 0 1 0 -1887.8506)">
						<stop  offset="0" style="stop-color:#F28500"/>
						<stop  offset="1" style="stop-color:#FBA905"/>
					</linearGradient>
					<path class="st99" d="M89.5,192.8c-1.7,2.1-3.3,4.2-4.9,6.3c-1.8,2.3-3.7,4.7-5.5,7c-5.4,6.9-16.5,9.1-30.4,4.8
						C27,204,6.9,183.7,3.7,165.5c-1.2-6.6,0.1-12,3.1-15.9c3.7-4.7,7.3-9.4,11-14c-3.1,3.9-4.3,9.3-3.1,15.9
						c3.2,18.2,23.3,38.5,45,45.3c13.8,4.4,25,2.1,30.4-4.8C89.9,192.3,89.7,192.6,89.5,192.8z"/>
					<path class="st3" d="M90.1,192.1c-0.2,0.2-0.4,0.5-0.6,0.7c-0.7,0.9-1.3,1.7-2,2.6c-5.9,5.1-16,6.3-28.2,2.5
						c-21.7-6.8-41.8-27.1-45-45.3c-0.8-4.6-0.4-8.7,0.9-12c-1,3.1-1.3,6.8-0.5,11c3.2,18.2,23.3,38.5,45,45.3
						C73.5,201.2,84.7,199,90.1,192.1z"/>
				</g>
				<g>
					
						<linearGradient id="SVGID_98_" gradientUnits="userSpaceOnUse" x1="3623.0969" y1="-374.9384" x2="3674.895" y2="-374.9384" gradientTransform="matrix(0.3187 0.9479 -0.9479 0.3187 -819.2587 -3322.0872)">
						<stop  offset="0" style="stop-color:#F28500"/>
						<stop  offset="1" style="stop-color:#FBA905"/>
					</linearGradient>
					<path class="st100" d="M711.2,40.6c2.5-2.5,5-5,7.5-7.5c3.2-3.1,3.2-9.3-0.7-16.8C712.2,5,699.6-4.9,689.9-5.8
						c-3.3-0.3-5.9,0.5-7.5,2.2l-7.5,7.4c1.7-1.7,4.2-2.5,7.5-2.2c9.7,0.9,22.3,10.8,28.1,22.1C714.3,31.2,714.3,37.4,711.2,40.6z"
						/>
					<path class="st3" d="M711,23.1c3.6,7,3.8,12.8,1.2,16.2c2.1-3.4,1.6-9-1.7-15.4C704.6,12.4,692,2.5,682.4,1.7
						c-3.3-0.3-5.9,0.5-7.5,2.2l1.7-1.6c1.6-1,3.8-1.5,6.4-1.2C692.5,1.8,705.1,11.7,711,23.1z"/>
					
						<linearGradient id="SVGID_99_" gradientUnits="userSpaceOnUse" x1="3641.5027" y1="-355.6797" x2="3669.363" y2="-388.3595" gradientTransform="matrix(0.3187 0.9479 -0.9479 0.3187 -819.2587 -3322.0872)">
						<stop  offset="0" style="stop-color:#FBCF0A"/>
						<stop  offset="1" style="stop-color:#FBA505"/>
					</linearGradient>
					<path class="st101" d="M675.5,20.6c5.9,11.3,18.5,21.2,28.1,22.1c9.7,0.9,12.7-7.6,6.9-18.9S692.1,2.6,682.4,1.7
						C672.7,0.8,669.7,9.3,675.5,20.6z"/>
					<path class="st5" d="M682.4,1.7c9.7,0.9,22.3,10.8,28.1,22.1c5.8,11.2,2.9,19.6-6.5,18.9L674.8,3.8
						C676.5,2.2,679.1,1.4,682.4,1.7z"/>
					<path class="st6" d="M679.9,21c4.4,8.5,13.8,15.9,21.1,16.6c7.3,0.7,9.6-5.7,5.2-14.2S692.3,7.4,685,6.8
						C677.8,6.1,675.5,12.5,679.9,21z"/>
					<path class="st7" d="M681.2,19.4c4.4,8.5,13.9,16,21.1,16.6c2.3,0.2,4-0.3,5.3-1.3c-1.1,2-3.4,3.1-6.6,2.8
						c-7.3-0.7-16.7-8.1-21.1-16.6c-3-5.9-2.9-10.7-0.1-13C678.4,10.6,678.8,14.7,681.2,19.4z"/>
					
						<linearGradient id="SVGID_100_" gradientUnits="userSpaceOnUse" x1="3642.2791" y1="-355.017" x2="3670.1401" y2="-387.6978" gradientTransform="matrix(0.3187 0.9479 -0.9479 0.3187 -819.2587 -3322.0872)">
						<stop  offset="0" style="stop-color:#FBCF0A"/>
						<stop  offset="1" style="stop-color:#FBA505"/>
					</linearGradient>
					<path class="st102" d="M692.2,29.8c1,0.6,2,0.9,2.9,1c0.9,0.1,1.6-0.1,2.1-0.5c0.5-0.4,0.6-1.1,0.5-2c-0.1-0.9-0.4-1.9-1.1-3.1
						l-1.3-2.6c0-0.1,0-0.1,0-0.1l4.7,0.4c0.1,0,0.2,0,0.2-0.1s0-0.1-0.1-0.3l-2-3.9c-0.1-0.1-0.1-0.2-0.2-0.3
						c-0.1-0.1-0.2-0.1-0.3-0.1l-14.1-1.3c-0.1,0-0.2,0-0.2,0.1s0,0.1,0.1,0.3l3.7,7.2c0.6,1.2,1.3,2.2,2.2,3.1
						C690.2,28.5,691.2,29.3,692.2,29.8z M693.6,25.7c-0.1,0.3-0.3,0.5-0.8,0.5c-0.5,0-0.9-0.3-1.4-0.7c-0.5-0.4-0.9-0.9-1.2-1.5
						l-1.1-2.1c0-0.1,0-0.1,0-0.1l2.8,0.3c0.1,0,0.1,0,0.2,0.1l1.1,2.1C693.5,24.9,693.6,25.4,693.6,25.7"/>
				</g>
			</g>
		</g>
	</g>
</g>
</svg>
